<?xml version="1.0" encoding="utf-8"?>
<!-- Generator: Adobe Illustrator 24.0.0, SVG Export Plug-In . SVG Version: 6.00 Build 0)  -->
<svg version="1.1" id="Layer_1" xmlns="http://www.w3.org/2000/svg" xmlns:xlink="http://www.w3.org/1999/xlink" x="0px" y="0px"
	 viewBox="0 0 100 30" style="enable-background:new 0 0 100 30;" xml:space="preserve">
<g>
	<path d="M70.631,17.078h-0.133v0.181h0.136c0.069,0,0.106-0.037,0.106-0.088v-0.003C70.74,17.108,70.698,17.078,70.631,17.078z"/>
	<path d="M42.722,13.095c-0.324-0.151-0.663-0.249-1.028-0.165c-0.203,0.047-0.379,0.141-0.516,0.301
		c-0.148,0.173-0.226,0.382-0.281,0.597c-0.09,0.357-0.124,0.7,0.076,1.054c0.259,0.459,0.68,0.599,1.143,0.654
		c0.299,0.035,0.539-0.125,0.724-0.365c0.247-0.321,0.418-0.67,0.428-0.998c0.005-0.312-0.111-0.662-0.261-0.829
		C42.923,13.25,42.832,13.146,42.722,13.095z"/>
	<path d="M30.786,15.157c-0.247-0.117-0.507-0.107-0.76-0.074c0,0.239,0,0.463,0,0.708c0.252-0.001,0.499,0.007,0.736-0.088
		c0.126-0.05,0.218-0.136,0.227-0.271C30.999,15.295,30.899,15.21,30.786,15.157z"/>
	<path d="M70.602,16.767c-0.293,0-0.514,0.232-0.514,0.515v0.003c0,0.283,0.219,0.512,0.511,0.512c0.293,0,0.514-0.232,0.514-0.515
		v-0.003C71.113,16.996,70.893,16.767,70.602,16.767z M70.736,17.574l-0.131-0.198h-0.003h-0.104v0.198h-0.136v-0.616h0.274
		c0.083,0,0.147,0.024,0.19,0.067c0.034,0.034,0.051,0.08,0.051,0.134v0.003c0,0.099-0.054,0.162-0.133,0.19l0.15,0.221H70.736z"/>
	<path d="M30.522,13.467c0.112-0.02,0.222-0.064,0.325-0.115c0.08-0.039,0.11-0.131,0.067-0.204
		c-0.047-0.08-0.115-0.168-0.196-0.205c-0.228-0.105-0.476-0.091-0.712-0.089c0.015,0.22,0.029,0.43,0.043,0.653
		C30.208,13.495,30.367,13.494,30.522,13.467z"/>
	<path d="M72.646,7.431c-4.753-0.023-4.753-0.012-9.506-0.036c-4.753-0.024-4.754,0.224-9.507,0.199
		c-4.752-0.024-4.751-0.36-9.503-0.385c-4.752-0.024-4.755,0.391-9.507,0.367c-4.752-0.024-4.752,0.015-9.504-0.008
		c-0.801,0-1.548,0.454-1.548,1.255c0,5.637-0.059,5.637-0.059,11.273c0,0.801,0.806,1.228,1.607,1.228
		c4.753-0.023,4.753,0.092,9.506,0.067c4.753-0.024,4.753,0.037,9.506,0.013c4.752-0.024,4.754,0.262,9.506,0.238
		c4.752-0.024,4.752-0.092,9.504-0.116c4.752-0.024,4.751-0.281,9.503-0.304c0.801,0,1.36-0.568,1.36-1.369
		c0-5.393,0.055-5.393,0.055-10.786C74.06,8.266,73.447,7.431,72.646,7.431z M33.046,16.863c-0.241,0.285-0.576,0.445-0.928,0.557
		c-0.293,0.093-0.587,0.206-0.889,0.243c-0.403,0.05-0.813,0.04-1.221,0.048c-0.361,0.007-0.723,0.008-1.084,0.001
		c-0.317-0.006-0.634-0.024-0.95-0.047c-0.04-0.003-0.097-0.063-0.107-0.107c-0.023-0.098-0.029-0.201-0.03-0.302
		c-0.01-0.793-0.023-1.586-0.023-2.379c0-0.971,0.01-1.943,0.017-2.914c0.002-0.245,0.005-0.491,0.006-0.736
		c0-0.092,0.037-0.145,0.133-0.165c0.409-0.085,0.822-0.103,1.237-0.097c0.135,0.002,0.271-0.012,0.406-0.011
		c0.181,0.002,0.361,0.008,0.542,0.021c0.236,0.017,0.474,0.03,0.708,0.066c0.434,0.068,0.877,0.085,1.287,0.274
		c0.54,0.249,0.862,0.659,0.978,1.241c0.092,0.463-0.052,0.856-0.348,1.199c-0.089,0.103-0.219,0.171-0.331,0.254
		c-0.047,0.035-0.095,0.07-0.133,0.099c0.182,0.118,0.371,0.217,0.531,0.35c0.359,0.297,0.571,0.68,0.625,1.15
		C33.528,16.097,33.347,16.506,33.046,16.863z M38.468,17.472c-0.001,0.093-0.006,0.186-0.002,0.279
		c0.003,0.076-0.03,0.107-0.103,0.119c-0.344,0.058-0.689,0.062-1.036,0.036c-0.293-0.022-0.589-0.027-0.883-0.029
		c-0.641-0.003-1.283,0.003-1.924,0.001c-0.105,0-0.209-0.025-0.314-0.035c-0.082-0.008-0.122-0.052-0.125-0.133
		c-0.007-0.18-0.014-0.36-0.022-0.541c-0.022-0.486-0.05-0.972-0.064-1.458c-0.008-0.301,0.01-0.603,0.009-0.905
		c-0.001-0.516-0.007-1.031-0.012-1.547c-0.007-0.653-0.016-1.307-0.024-1.96c-0.001-0.078,0.031-0.117,0.115-0.12
		c0.42-0.012,0.839-0.036,1.259-0.037c0.26-0.001,0.519,0.034,0.779,0.05c0.112,0.007,0.133,0.081,0.137,0.171
		c0.017,0.369,0.036,0.738,0.05,1.107c0.014,0.355,0.025,0.71,0.033,1.065c0.004,0.182-0.008,0.364-0.006,0.545
		c0.003,0.294,0.014,0.589,0.014,0.883c0,0.241-0.012,0.483-0.019,0.724c-0.001,0.034,0,0.067,0,0.116
		c0.194,0.014,0.375,0.032,0.555,0.039c0.426,0.018,0.852,0.03,1.279,0.045c0.071,0.002,0.143,0.001,0.213,0.01
		c0.087,0.012,0.1,0.082,0.1,0.153C38.474,16.525,38.471,16.999,38.468,17.472z M44.741,16.725
		c-0.181,0.158-0.338,0.357-0.543,0.472c-0.412,0.232-0.841,0.433-1.307,0.549c-0.578,0.144-1.143,0.088-1.704-0.066
		c-0.388-0.106-0.783-0.204-1.15-0.365c-0.229-0.101-0.423-0.297-0.61-0.475c-0.384-0.364-0.662-0.808-0.879-1.286
		c-0.136-0.3-0.186-0.623-0.213-0.953c-0.043-0.522,0.035-1.027,0.201-1.515c0.123-0.363,0.307-0.701,0.535-1.015
		c0.17-0.234,0.405-0.38,0.632-0.538c0.366-0.256,0.758-0.468,1.189-0.595c0.398-0.117,0.806-0.181,1.222-0.193
		c0.037-0.001,0.073-0.014,0.11-0.021c0.136,0,0.273,0,0.409,0c0.064,0.013,0.128,0.035,0.192,0.036
		c0.331,0.006,0.622,0.147,0.913,0.276c0.236,0.104,0.474,0.223,0.678,0.38c0.572,0.439,0.945,1.023,1.169,1.707
		c0.12,0.366,0.226,0.732,0.228,1.123c0.001,0.302-0.056,0.593-0.149,0.876c-0.08,0.243-0.139,0.502-0.269,0.716
		C45.204,16.15,45.024,16.477,44.741,16.725z M52.792,17.766c-0.039,0.056-0.166,0.069-0.255,0.07
		c-0.203,0.003-0.406-0.016-0.609-0.021c-0.184-0.005-0.368-0.003-0.553-0.006c-0.343-0.004-0.688-0.026-1.03-0.008
		c-0.184,0.01-0.253-0.089-0.328-0.214c-0.22-0.368-0.442-0.735-0.662-1.104c-0.075-0.126-0.144-0.256-0.218-0.383
		c-0.02-0.034-0.051-0.063-0.087-0.106c-0.047,0.072-0.089,0.129-0.123,0.19c-0.2,0.354-0.399,0.709-0.598,1.064
		c-0.085,0.151-0.182,0.297-0.251,0.454c-0.06,0.137-0.164,0.149-0.283,0.148c-0.179-0.003-0.359-0.008-0.538-0.015
		c-0.241-0.009-0.481-0.028-0.722-0.031c-0.262-0.003-0.525,0.007-0.787,0.01c-0.078,0.001-0.157,0.003-0.235-0.002
		c-0.104-0.008-0.155-0.128-0.091-0.22c0.17-0.245,0.349-0.485,0.513-0.734c0.172-0.261,0.325-0.535,0.497-0.795
		c0.192-0.288,0.4-0.566,0.595-0.852c0.168-0.245,0.331-0.495,0.491-0.745c0.014-0.022,0.009-0.071-0.007-0.096
		c-0.319-0.501-0.639-1.003-0.963-1.501c-0.271-0.417-0.55-0.829-0.823-1.245c-0.054-0.082-0.098-0.17-0.14-0.259
		c-0.056-0.12-0.01-0.194,0.121-0.197c0.336-0.006,0.672-0.017,1.008-0.011c0.442,0.007,0.883,0.032,1.324,0.041
		c0.12,0.002,0.192,0.059,0.242,0.153c0.148,0.279,0.286,0.565,0.441,0.84c0.114,0.202,0.251,0.393,0.388,0.604
		c0.185-0.278,0.362-0.54,0.535-0.805c0.146-0.224,0.291-0.449,0.431-0.677c0.055-0.09,0.127-0.135,0.231-0.131
		c0.37,0.015,0.74,0.035,1.111,0.044c0.284,0.007,0.567,0,0.851,0.001c0.185,0.001,0.238,0.073,0.156,0.241
		c-0.111,0.225-0.232,0.447-0.365,0.66c-0.266,0.425-0.544,0.843-0.816,1.265c-0.194,0.3-0.384,0.603-0.579,0.903
		c-0.044,0.068-0.038,0.111,0.01,0.178c0.158,0.221,0.302,0.451,0.454,0.676c0.208,0.309,0.42,0.615,0.626,0.925
		c0.206,0.31,0.403,0.626,0.609,0.936c0.108,0.164,0.228,0.32,0.338,0.482C52.755,17.579,52.855,17.674,52.792,17.766z
		 M57.857,17.641c-0.191,0.017-0.384,0.027-0.576,0.029c-1.025,0.009-2.051,0.018-3.076,0.019c-0.226,0-0.452-0.034-0.678-0.05
		c-0.059-0.004-0.119,0.001-0.178-0.001c-0.111-0.004-0.157-0.056-0.152-0.173c0.015-0.377,0.02-0.754,0.028-1.131
		c0.008-0.401,0.012-0.801,0.022-1.202c0.014-0.54,0.035-1.08,0.049-1.62c0.011-0.423,0.019-0.845,0.022-1.268
		c0.001-0.191-0.023-0.383-0.02-0.574c0.003-0.198,0.023-0.396,0.042-0.594c0.003-0.026,0.04-0.059,0.069-0.07
		c0.233-0.086,0.474-0.061,0.716-0.05c0.528,0.024,1.056,0.048,1.585,0.056c0.434,0.006,0.869-0.013,1.304-0.021
		c0.252-0.005,0.504-0.011,0.757-0.015c0.079-0.001,0.112,0.039,0.108,0.123c-0.01,0.211-0.021,0.422-0.016,0.632
		c0.007,0.324,0.03,0.648,0.04,0.972c0.006,0.184-0.032,0.217-0.213,0.224c-0.485,0.02-0.97,0.04-1.454,0.062
		c-0.244,0.011-0.488,0.025-0.74,0.038c0.009,0.113,0.017,0.224,0.027,0.346c0.067,0,0.134,0.002,0.2,0
		c0.298-0.008,0.592,0.01,0.89,0.043c0.291,0.033,0.589,0.013,0.884,0.002c0.199-0.007,0.221,0.002,0.222,0.203
		c0.001,0.462,0.002,0.923,0.004,1.385c0,0.099-0.023,0.164-0.145,0.166c-0.338,0.007-0.677,0.028-1.015,0.036
		c-0.257,0.007-0.515,0.001-0.773,0.006c-0.093,0.002-0.185,0.02-0.287,0.032c0,0.149,0,0.302,0,0.462
		c0.108,0.011,0.219,0.028,0.33,0.031c0.382,0.011,0.763,0.022,1.145,0.021c0.23-0.001,0.46-0.02,0.69-0.041
		c0.329-0.03,0.351-0.013,0.351,0.312c0,0.473-0.003,0.946,0.003,1.42C58.02,17.578,57.962,17.632,57.857,17.641z M63.333,17.778
		c-0.004,0.074-0.049,0.095-0.113,0.097c-0.185,0.008-0.37,0.017-0.554,0.026c-0.282,0.014-0.564,0.036-0.846,0.04
		c-0.498,0.008-0.995,0.012-1.493,0.004c-0.426-0.006-0.852-0.031-1.278-0.048c-0.103-0.004-0.146-0.063-0.147-0.184
		c-0.008-0.542-0.024-1.084-0.024-1.627c0-0.509,0.023-1.018,0.025-1.527c0.002-0.539-0.005-1.078-0.016-1.617
		c-0.01-0.47-0.034-0.939-0.05-1.408c-0.008-0.245,0.019-0.242,0.251-0.259c0.327-0.024,0.657-0.021,0.985-0.023
		c0.313-0.003,0.627,0.001,0.94,0.003c0.091,0.001,0.14,0.028,0.143,0.14c0.016,0.594,0.048,1.188,0.065,1.782
		c0.011,0.384,0.003,0.769,0.007,1.153c0.004,0.394,0.011,0.788,0.015,1.182c0.001,0.116,0,0.232,0,0.369
		c0.641,0.014,1.264,0.028,1.886,0.042c0.008,0,0.015,0.001,0.023,0.001c0.212,0.005,0.205,0.005,0.206,0.214
		c0.001,0.295,0.022,0.589,0.019,0.884C63.373,17.274,63.347,17.526,63.333,17.778z M69.404,11.775
		c-0.217,0.311-0.47,0.588-0.745,0.848c-0.148,0.14-0.295,0.282-0.435,0.429c-0.08,0.084-0.152,0.064-0.243,0.023
		c-0.24-0.108-0.477-0.235-0.728-0.302c-0.194-0.052-0.41-0.04-0.615-0.027c-0.144,0.009-0.161,0.08-0.069,0.198
		c0.129,0.167,0.317,0.235,0.506,0.305c0.475,0.176,0.968,0.309,1.405,0.581c0.292,0.181,0.506,0.433,0.658,0.73
		c0.158,0.309,0.181,0.65,0.143,0.994c-0.014,0.127-0.036,0.254-0.038,0.382c-0.004,0.216-0.13,0.382-0.208,0.569
		c-0.197,0.476-0.602,0.73-1.024,0.964c-0.278,0.154-0.571,0.272-0.885,0.33c-0.07,0.013-0.142,0.013-0.213,0.019
		c0-0.002,0-0.004,0-0.005c-0.245,0-0.493,0.024-0.734-0.005c-0.516-0.063-1.026-0.164-1.504-0.381
		c-0.133-0.061-0.259-0.139-0.386-0.213c-0.143-0.084-0.286-0.167-0.423-0.26c-0.13-0.089-0.147-0.197-0.057-0.326
		c0.071-0.102,0.147-0.201,0.229-0.294c0.221-0.252,0.444-0.503,0.671-0.749c0.076-0.083,0.163-0.16,0.258-0.219
		c0.049-0.03,0.143-0.043,0.187-0.016c0.332,0.204,0.7,0.317,1.07,0.421c0.149,0.042,0.312,0.036,0.469,0.044
		c0.085,0.005,0.173-0.034,0.188-0.116c0.011-0.063-0.028-0.144-0.064-0.205c-0.027-0.045-0.082-0.08-0.133-0.103
		c-0.332-0.152-0.659-0.318-1.002-0.441c-0.208-0.075-0.416-0.138-0.617-0.239c-0.25-0.125-0.416-0.325-0.57-0.536
		c-0.31-0.424-0.425-0.912-0.383-1.43c0.031-0.391,0.195-0.735,0.444-1.041c0.217-0.268,0.469-0.487,0.773-0.652
		c0.254-0.138,0.515-0.249,0.807-0.268c0.199-0.013,0.4-0.04,0.598-0.027c0.314,0.02,0.633,0.042,0.938,0.11
		c0.563,0.127,1.112,0.306,1.594,0.642c0.028,0.019,0.061,0.029,0.09,0.046C69.493,11.632,69.493,11.647,69.404,11.775z
		 M71.18,17.283c0,0.315-0.256,0.579-0.581,0.579c-0.325,0-0.578-0.261-0.578-0.576v-0.003c0-0.315,0.256-0.579,0.581-0.579
		c0.325,0,0.578,0.261,0.578,0.576V17.283z"/>
</g>
</svg>
