<?xml version="1.0" encoding="utf-8"?>
<!-- Generator: Adobe Illustrator 24.0.0, SVG Export Plug-In . SVG Version: 6.00 Build 0)  -->
<svg version="1.1" id="Layer_1" xmlns="http://www.w3.org/2000/svg" xmlns:xlink="http://www.w3.org/1999/xlink" x="0px" y="0px"
	 viewBox="0 0 100 30" style="enable-background:new 0 0 100 30;" xml:space="preserve">
<style type="text/css">
	.st0{fill-rule:evenodd;clip-rule:evenodd;}
</style>
<g>
	<path class="st0" d="M27.379,22.712v-0.447l-0.387-0.387h-2.237v2.171h0.33v-0.887h1.582l0.425,0.887h0.355l-0.459-0.947
		L27.379,22.712z M25.085,22.894v-0.765h1.737l0.227,0.227v0.264l-0.274,0.274H25.085z"/>
	<path class="st0" d="M30.067,21.878l-0.45,0.45v1.271l0.45,0.45h1.869l0.45-0.45v-1.271l-0.45-0.45
		C31.936,21.878,30.067,21.878,30.067,21.878z M32.056,23.508l-0.274,0.274h-1.561l-0.274-0.274v-1.089l0.274-0.274h1.561
		l0.274,0.274V23.508z"/>
	<path class="st0" d="M37.347,22.649v-0.431l-0.34-0.34h-2.294v2.171h2.3l0.349-0.349v-0.487l-0.289-0.289L37.347,22.649z
		 M35.044,22.139h1.8l0.173,0.173v0.274l-0.189,0.189h-1.784V22.139z M37.032,23.605l-0.176,0.176h-1.812v-0.746h1.75l0.239,0.239
		L37.032,23.605L37.032,23.605z"/>
	<path class="st0" d="M40.029,21.878l-0.45,0.45v1.271l0.45,0.45h1.869l0.45-0.45v-1.271l-0.45-0.45
		C41.898,21.878,40.029,21.878,40.029,21.878z M42.018,23.508l-0.274,0.274h-1.561l-0.274-0.274v-1.089l0.274-0.274h1.561
		l0.274,0.274V23.508z"/>
	<polygon class="st0" points="44.36,22.146 45.534,22.146 45.534,24.049 45.865,24.049 45.865,22.146 47.038,22.146 47.038,21.878 
		44.36,21.878 	"/>
	<path class="st0" d="M54.641,22.649v-0.431l-0.34-0.34h-2.294v2.171h2.3l0.349-0.349v-0.487l-0.289-0.289L54.641,22.649z
		 M52.338,22.139h1.8l0.173,0.173v0.274l-0.189,0.189h-1.784V22.139z M54.326,23.605l-0.176,0.176h-1.812v-0.746h1.75l0.239,0.239
		L54.326,23.605L54.326,23.605z"/>
	<polygon class="st0" points="57.299,21.878 56.968,21.878 56.968,24.049 59.157,24.049 59.157,23.781 57.299,23.781 	"/>
	<path class="st0" d="M61.668,21.878l-0.45,0.45v1.271l0.45,0.45h1.869l0.45-0.45v-1.271l-0.45-0.45
		C63.537,21.878,61.668,21.878,61.668,21.878z M63.656,23.508l-0.274,0.274h-1.561l-0.274-0.274v-1.089l0.274-0.274h1.561
		l0.274,0.274V23.508z"/>
	<polygon class="st0" points="66.669,21.878 66.219,22.328 66.219,23.599 66.669,24.049 68.51,24.049 68.9,23.659 68.9,23.335 
		68.585,23.335 68.585,23.552 68.355,23.781 66.823,23.781 66.55,23.508 66.55,22.419 66.823,22.146 68.355,22.146 68.585,22.375 
		68.585,22.573 68.9,22.573 68.9,22.268 68.51,21.878 	"/>
	<polygon class="st0" points="73.86,21.878 73.388,21.878 71.51,23.175 71.51,21.878 71.179,21.878 71.179,24.049 71.51,24.049 
		71.51,23.489 72.29,22.958 73.483,24.049 73.914,24.049 72.542,22.784 	"/>
	<polygon class="st0" points="76.395,22.816 76.241,22.661 76.241,22.35 76.452,22.139 78.031,22.139 78.204,22.312 78.204,22.473 
		78.531,22.473 78.531,22.224 78.185,21.878 76.297,21.878 75.91,22.265 75.91,22.752 76.237,23.08 78.062,23.08 78.217,23.234 
		78.217,23.571 78.006,23.781 76.41,23.781 76.237,23.609 76.237,23.432 75.91,23.432 75.91,23.703 76.256,24.049 78.16,24.049 
		78.547,23.662 78.547,23.143 78.219,22.816 	"/>
	<path class="st0" d="M34.975,16.811v-1.861v-4.555c0-0.373-0.199-0.718-0.523-0.904l-1.097-0.633
		c-0.163-0.094-0.366,0.023-0.366,0.212v2.477c0,0,0,0,0,0.001v2.257l-1.985,1.146l-1.985-1.146v-2.257V9.068
		c0-0.188-0.203-0.305-0.366-0.212l-1.116,0.644c-0.312,0.18-0.504,0.512-0.504,0.872v2.296v0.626l0,0v1.067
		c0,0.185,0.051,0.359,0.138,0.508c0.08,0.136,0.189,0.254,0.321,0.341l0.85,0.49h-0.008l2.138,1.234
		c0.33,0.191,0.736,0.191,1.066,0l1.443-0.832c0.006-0.003,0.014-0.003,0.021,0l1.601,0.924
		C34.767,17.122,34.975,17.002,34.975,16.811z"/>
	<path class="st0" d="M42.043,16.954l3.016-1.741c0.274-0.182,0.454-0.492,0.454-0.844v-1.068h0.002v-2.399
		c-0.008-0.161-0.055-0.318-0.136-0.458c-0.085-0.147-0.207-0.275-0.364-0.366h0.001l-2.955-1.706c-0.32-0.185-0.714-0.185-1.034,0
		l-1.468,0.848V6.226c0-0.198-0.215-0.322-0.386-0.222l-1.064,0.618c-0.335,0.194-0.54,0.552-0.54,0.938l0.003,2.805v2.937h0.003
		v1.067c0,0.354,0.181,0.664,0.455,0.845l3.016,1.741C41.354,17.132,41.734,17.132,42.043,16.954z M39.558,11.511l1.986-1.146
		l1.985,1.146v2.293l-1.985,1.146l-1.986-1.146V11.511z"/>
	<path class="st0" d="M24.095,12.85l-3.645,2.1l-1.986-1.146v-2.293l1.986-1.146l1.453,0.838c0.33,0.191,0.736,0.191,1.066,0
		l0.983-0.567c0.209-0.12,0.209-0.421,0-0.542l-2.992-1.728c-0.315-0.182-0.703-0.182-1.018,0l-3.01,1.738
		c-0.135,0.089-0.242,0.206-0.318,0.338c-0.08,0.139-0.126,0.295-0.134,0.455v2.403l0,0v1.067c0,0.355,0.183,0.667,0.459,0.849
		l2.995,1.729c0.32,0.185,0.713,0.185,1.034,0.002l2.526-1.447h-0.003l0.485-0.28c0.275-0.18,0.457-0.489,0.459-0.841l-0.002-1.332
		C24.434,12.872,24.246,12.764,24.095,12.85z"/>
	<path class="st0" d="M55.374,10.077L55.374,10.077l-2.977-1.72c-0.305-0.177-0.682-0.177-0.989,0l-2.978,1.72h0.001
		c-0.157,0.092-0.279,0.22-0.364,0.366c-0.081,0.14-0.128,0.298-0.136,0.458v2.4h0.003v1.067c0,0.351,0.178,0.659,0.45,0.841
		l3.011,1.739c0.314,0.182,0.702,0.182,1.016,0l1.08-0.624c0.177-0.102,0.177-0.357,0-0.459L49.919,13.8v-2.29l1.986-1.146
		l1.986,1.146l-1.554,0.897c-0.267,0.154-0.432,0.439-0.432,0.747v1.391c0,0.179,0.194,0.291,0.349,0.202l1.636-0.945l1.471-0.85
		c0.318-0.184,0.514-0.523,0.514-0.89v-1.162c-0.008-0.161-0.055-0.318-0.136-0.458C55.653,10.296,55.531,10.169,55.374,10.077z"/>
	<path class="st0" d="M62.261,15.53v-1.299c0-0.19-0.206-0.309-0.371-0.214l-1.615,0.933V6.341c0-0.25-0.27-0.406-0.487-0.281
		l-0.977,0.565c-0.322,0.186-0.521,0.529-0.521,0.902v8.023c0.013,0.338,0.19,0.633,0.455,0.808l1.22,0.705
		c0.101,0.033,0.206,0.051,0.311,0.051s0.209-0.018,0.311-0.051l1.185-0.684C62.075,16.203,62.261,15.88,62.261,15.53z"/>
	<path class="st0" d="M68.184,13.155v1.391c0,0.179,0.194,0.291,0.349,0.202l1.636-0.945l1.471-0.85
		c0.318-0.184,0.514-0.523,0.514-0.89v-1.162c-0.008-0.161-0.055-0.318-0.136-0.458c-0.085-0.147-0.207-0.275-0.364-0.366h0.001
		l-2.978-1.72c-0.306-0.177-0.682-0.177-0.989,0l-2.978,1.72h0.001c-0.157,0.092-0.279,0.22-0.364,0.366
		c-0.081,0.14-0.128,0.298-0.136,0.458v2.4h0.003v1.067c0,0.351,0.178,0.659,0.45,0.841l3.011,1.739
		c0.314,0.182,0.702,0.182,1.016,0l1.08-0.624c0.177-0.102,0.177-0.357,0-0.459L66.2,13.8v-2.29l1.986-1.146l1.986,1.146
		l-1.556,0.898C68.349,12.562,68.184,12.847,68.184,13.155z"/>
	<path class="st0" d="M77.197,16.408c0.335-0.193,0.541-0.551,0.541-0.938v-1.158c0-0.227-0.245-0.368-0.441-0.255l-1.545,0.892
		v-2.292l1.444-0.833c0.335-0.193,0.541-0.551,0.541-0.938V9.728c0-0.227-0.245-0.368-0.441-0.255l-1.545,0.892V6.186
		c0-0.181-0.196-0.294-0.353-0.203l-1.096,0.633c-0.332,0.191-0.536,0.546-0.536,0.929v6.899l0,0v1.067
		c0,0.355,0.183,0.668,0.459,0.849l0.485,0.28h-0.003l0.733,0.423c0.101,0.033,0.206,0.051,0.311,0.051
		c0.105,0,0.209-0.018,0.311-0.051L77.197,16.408z"/>
	<path class="st0" d="M88.142,12.739L88.142,12.739L88.142,12.739L88.142,12.739L88.142,12.739
		c-0.085-0.147-0.361-0.366-0.361-0.366l-3.439-1.988l1.426,0.824c0.326,0.188,0.727,0.188,1.053,0l0.986-0.569
		c0.209-0.121,0.209-0.423,0-0.543l-2.998-1.731c-0.312-0.179-0.694-0.179-1.006,0l-2.993,1.728
		c-0.145,0.091-0.259,0.212-0.339,0.351l0.097,0.057l-0.098-0.056c-0.08,0.14-0.127,0.296-0.135,0.457v1.185
		c0,0.354,0.189,0.682,0.496,0.86l1.494,0.86v-2.293l-0.002-0.001l0.005-0.001l1.982-1.144l0,0l0.006,2.293l1.979,1.143l-1.99,1.149
		l-1.986-1.146l-1.517,0.876c-0.208,0.12-0.208,0.42,0,0.541l3.143,1.814c0.104,0.058,0.249,0.076,0.36,0.076
		c0.106,0.001,0.257-0.024,0.357-0.075l3.164-1.827c0.266-0.178,0.443-0.48,0.45-0.823v-1.192
		C88.27,13.037,88.223,12.879,88.142,12.739z"/>
</g>
</svg>
