<?xml version="1.0" encoding="utf-8"?>
<!-- Generator: Adobe Illustrator 23.1.1, SVG Export Plug-In . SVG Version: 6.00 Build 0)  -->
<svg version="1.1" id="Layer_1" xmlns="http://www.w3.org/2000/svg" xmlns:xlink="http://www.w3.org/1999/xlink" x="0px" y="0px"
	 viewBox="0 0 300 48" style="enable-background:new 0 0 300 48;" xml:space="preserve">
<g>
	<polygon points="256.567,3.843 236.843,2.987 237.609,6.81 243.759,6.176 243.195,37.046 245.667,37.587 249.066,5.93 
		255.756,5.637 	"/>
	<path d="M266.195,31.589c-0.283,0.039-0.574,0.028-0.856,0.068c-3.501,0.181-7.733-0.803-8.894-8.487l14.425-0.934
		c-0.119-1.299-0.179-1.949-0.367-2.986c-0.931-5.136-3.392-9.452-9.519-9.059c-0.225,0.031-0.516,0.02-0.743,0.052
		c-6.045,0.838-8.284,7.018-7.005,14.079c1.021,5.63,4.649,11.91,13.406,10.698c2.09-0.289,4.184-0.883,5.272-1.59l-1.747-3.25
		C269.287,30.756,268.002,31.338,266.195,31.589z M260.35,12.759c2.938-0.407,5.143,2.173,5.957,6.667l-9.705,1.091
		C256.209,17.077,257.016,13.22,260.35,12.759z"/>
	<path d="M291.742,10.246l-0.063,4.496l-0.112-0.016c-1.079-2.68-3.177-3.882-5.325-4.179c-4.462-0.618-9.717,2.806-11.121,10.559
		c-1.101,6.072-0.316,13.572,6.858,14.566c3.052,0.421,5.756-1.077,6.925-2.737l0.17,0.023l-1.655,12.324l3.09-0.431l4.856-25.194
		l1.315-7.258L291.742,10.246z M290.523,20.807l-0.725,5.923c-0.533,4.532-3.83,5.797-5.752,5.531
		c-4.972-0.688-5.313-7.114-4.58-11.162c0.84-4.642,3.255-8.053,6.927-7.545C289.388,13.969,291.007,17.179,290.523,20.807z"/>
	<polygon points="10.826,28.534 5.865,28.534 5.865,23.531 3.32,23.531 3.32,35.879 5.865,35.879 5.865,30.587 10.826,30.587 
		10.826,35.879 13.37,35.879 13.37,23.531 10.826,23.531 	"/>
	<polygon points="21.747,30.51 26.632,30.51 26.632,28.534 21.747,28.534 21.747,25.591 27.463,25.591 27.463,23.53 19.203,23.53 
		19.203,35.879 27.48,35.879 27.48,33.835 21.747,33.835 	"/>
	<path d="M36.136,23.53l-4.597,12.348h2.705l0.848-2.544h4.461l0.857,2.544h2.705L38.494,23.53H36.136z M35.78,31.273l1.535-4.622
		l1.552,4.622H35.78z"/>
	<path d="M55.562,29.37c0.365-0.563,0.547-1.265,0.547-2.108c0-1.187-0.396-2.106-1.187-2.756c-0.792-0.65-1.917-0.975-3.375-0.975
		h-4.588v12.348h2.544v-4.52h2.027l2.315,4.52h2.731V35.76l-2.672-5.046C54.645,30.38,55.198,29.932,55.562,29.37z M53.039,28.81
		c-0.351,0.325-0.845,0.488-1.484,0.488h-2.052v-3.706h2.044c0.684,0,1.191,0.167,1.522,0.5c0.331,0.334,0.496,0.792,0.496,1.374
		C53.565,28.037,53.39,28.485,53.039,28.81z"/>
	<path d="M72.168,15.466c0.755-0.575,1.813-0.863,3.174-0.863c1.411,0,2.506,0.343,3.285,1.03c0.779,0.687,1.17,1.649,1.17,2.886
		h5.569c0-1.621-0.418-3.069-1.253-4.343c-0.835-1.274-2.008-2.261-3.517-2.961c-1.51-0.699-3.23-1.049-5.16-1.049
		c-1.918,0-3.647,0.322-5.188,0.965c-1.541,0.644-2.722,1.538-3.545,2.682c-0.823,1.144-1.234,2.447-1.234,3.907
		c0,2.809,1.534,5.043,4.603,6.701c1.126,0.606,2.654,1.222,4.585,1.847c1.93,0.625,3.267,1.219,4.009,1.782
		c0.742,0.563,1.114,1.371,1.114,2.422c0,0.965-0.372,1.717-1.114,2.255c-0.742,0.538-1.776,0.807-3.1,0.807
		c-3.564,0-5.346-1.491-5.346-4.474h-5.587c0,1.745,0.448,3.279,1.346,4.603c0.897,1.324,2.199,2.367,3.907,3.128
		c1.708,0.761,3.601,1.141,5.68,1.141c2.995,0,5.377-0.665,7.146-1.995c1.769-1.33,2.654-3.165,2.654-5.504
		c0-2.104-0.724-3.861-2.172-5.272c-1.448-1.411-3.756-2.592-6.924-3.545c-1.72-0.52-3.023-1.077-3.907-1.671
		c-0.885-0.594-1.327-1.33-1.327-2.209C71.036,16.8,71.414,16.041,72.168,15.466z"/>
	<polygon points="85.98,15.048 94.147,15.048 94.147,37.564 99.716,37.564 99.716,15.048 107.995,15.048 107.995,10.537 
		85.98,10.537 	"/>
	<polygon points="115.47,25.814 126.161,25.814 126.161,21.489 115.47,21.489 115.47,15.048 127.98,15.048 127.98,10.538 
		109.901,10.538 109.901,37.564 128.017,37.564 128.017,33.09 115.47,33.09 	"/>
	<polygon points="145.003,30.139 138.061,10.537 130.784,10.537 130.784,37.564 136.353,37.564 136.353,30.176 135.796,17.443 
		143.072,37.564 146.896,37.564 154.191,17.424 153.634,30.176 153.634,37.564 159.221,37.564 159.221,10.537 151.908,10.537 	"/>
	<polygon points="167.979,25.591 171.711,25.591 171.711,35.879 174.255,35.879 174.255,25.591 178.037,25.591 178.037,23.531 
		167.979,23.531 	"/>
	<polygon points="189.841,28.534 184.879,28.534 184.879,23.531 182.335,23.531 182.335,35.879 184.879,35.879 184.879,30.587 
		189.841,30.587 189.841,35.879 192.385,35.879 192.385,23.531 189.841,23.531 	"/>
	<rect x="198.076" y="23.531" width="2.544" height="12.348"/>
	<polygon points="213.792,31.672 208.83,23.531 206.286,23.531 206.286,35.879 208.83,35.879 208.83,27.754 213.783,35.879 
		216.328,35.879 216.328,23.531 213.792,23.531 	"/>
	<polygon points="231.798,23.531 228.668,23.531 225.522,27.593 224.402,29.128 224.402,23.531 221.858,23.531 221.858,35.879 
		224.402,35.879 224.402,32.351 225.725,30.926 228.897,35.879 231.925,35.879 227.413,29.018 	"/>
</g>
</svg>
