<?xml version="1.0" encoding="utf-8"?>
<!-- Generator: Adobe Illustrator 24.0.0, SVG Export Plug-In . SVG Version: 6.00 Build 0)  -->
<svg version="1.1" id="Layer_1" xmlns="http://www.w3.org/2000/svg" xmlns:xlink="http://www.w3.org/1999/xlink" x="0px" y="0px"
	 viewBox="0 0 100 30" style="enable-background:new 0 0 100 30;" xml:space="preserve">
<g>
	<path d="M69.893,18.63c-0.003-1.942-0.002-3.883-0.002-5.825c0-0.014-0.002-0.029,0-0.043c0.008-0.068-0.025-0.086-0.089-0.086
		c-0.688,0.002-1.377,0.002-2.065,0c-0.069,0-0.087,0.022-0.08,0.089c0.022,0.22,0.039,0.44,0.058,0.66
		c0.014,0.164,0.028,0.327,0.042,0.491c-0.046-0.045-0.07-0.096-0.094-0.146c-0.403-0.85-1.182-1.239-2.1-1.036
		c-0.719,0.159-1.253,0.586-1.631,1.204c-0.559,0.915-0.619,1.893-0.324,2.907c0.039,0.135,0.043,0.134-0.092,0.134
		c-0.446,0-0.891-0.004-1.337,0.003c-0.107,0.002-0.129-0.029-0.129-0.132c0.003-2.065,0.002-4.13,0.005-6.194
		c0-0.095-0.022-0.119-0.118-0.119c-0.681,0.005-1.362,0.002-2.043,0.002c-0.145,0-0.145,0-0.145,0.141c0,0.634,0,1.268,0,1.902
		c0,0.047,0.018,0.104-0.066,0.106c-0.203,0.004-0.402,0.042-0.599,0.088c-0.245,0.057-0.483,0.128-0.673,0.305
		c-0.244,0.227-0.404,0.508-0.532,0.811c-0.014,0.033-0.014,0.078-0.058,0.098c0-0.348-0.003-0.692,0.002-1.036
		c0.001-0.083-0.025-0.103-0.105-0.103c-0.681,0.003-1.362,0.003-2.043,0c-0.083,0-0.102,0.024-0.101,0.104
		c0.003,0.612,0.002,1.224,0.002,1.837c0,0.038,0,0.076,0,0.113c-0.03-0.083-0.046-0.168-0.066-0.251
		c-0.124-0.529-0.349-1.004-0.754-1.379c-0.507-0.47-1.117-0.635-1.793-0.585c-1.114,0.083-1.927,0.623-2.43,1.624
		c-0.016,0.032-0.023,0.072-0.063,0.1c0-0.05,0-0.09,0-0.13c0-1.221-0.001-2.441,0.002-3.662c0-0.096-0.026-0.113-0.117-0.097
		c-0.673,0.116-1.346,0.23-2.021,0.338c-0.088,0.014-0.112,0.043-0.111,0.128c0.003,0.909,0.002,1.818,0.002,2.728
		c0,0.033,0,0.066,0,0.099c-0.053-0.07-0.088-0.142-0.125-0.211c-0.357-0.667-0.936-0.943-1.668-0.924
		c-0.682,0.018-1.233,0.327-1.693,0.814c-0.202,0.215-0.361,0.46-0.498,0.732c-0.327-0.883-0.868-1.5-1.868-1.543
		c-0.981-0.042-1.617,0.466-2.026,1.32c-0.008-0.355-0.011-0.702-0.007-1.049c0.001-0.077-0.012-0.107-0.099-0.106
		c-0.648,0.004-1.297,0.004-1.945,0c-0.091-0.001-0.107,0.033-0.107,0.114c0.002,1.895,0.002,3.789,0,5.684
		c0,0.083,0.019,0.11,0.107,0.109c0.677-0.004,1.355-0.004,2.032,0c0.096,0.001,0.12-0.023,0.119-0.119
		c-0.004-0.985-0.003-1.971-0.002-2.956c0-0.047-0.003-0.096,0.01-0.14c0.108-0.38,0.301-0.705,0.629-0.937
		c0.449-0.317,0.942-0.132,1.078,0.4c0.048,0.188,0.056,0.379,0.056,0.571c0,1.022,0.001,2.043-0.002,3.065
		c0,0.087,0.018,0.117,0.111,0.116c0.677-0.004,1.355-0.004,2.032-0.001c0.079,0,0.107-0.017,0.105-0.101
		c-0.006-0.25-0.002-0.5-0.002-0.75c0-0.063,0-0.125,0-0.188c0.05,0.033,0.077,0.07,0.105,0.106c0.418,0.537,0.936,0.92,1.628,1.001
		c0.849,0.1,1.541-0.169,1.958-1.001c0.018-0.037,0.026-0.081,0.071-0.113c0,0.321,0.001,0.635-0.001,0.949
		c0,0.063,0.006,0.097,0.085,0.096c0.692-0.003,1.384-0.003,2.076,0c0.077,0,0.088-0.029,0.087-0.095
		c-0.003-0.185-0.001-0.369-0.001-0.554c0-0.328,0-0.656,0-1.009c0.021,0.03,0.027,0.035,0.03,0.042
		c0.016,0.032,0.031,0.065,0.047,0.098c0.39,0.787,1.016,1.286,1.86,1.511c0.458,0.122,0.925,0.116,1.392,0.069
		c0.537-0.054,1.051-0.194,1.538-0.431c0.044-0.022,0.063-0.041,0.054-0.098c-0.08-0.481-0.157-0.963-0.232-1.445
		c-0.013-0.085-0.043-0.105-0.117-0.058c-0.033,0.021-0.071,0.035-0.108,0.051c-0.51,0.223-1.035,0.372-1.6,0.31
		c-0.429-0.047-0.738-0.256-0.887-0.675c-0.02-0.058-0.027-0.088,0.052-0.095c0.122-0.011,0.243-0.036,0.365-0.054
		c0.866-0.126,1.732-0.249,2.597-0.381c0.105-0.016,0.117,0.008,0.117,0.103c-0.003,0.858,0.001,1.717-0.005,2.575
		c-0.001,0.118,0.035,0.139,0.143,0.138c0.659-0.005,1.319-0.005,1.978,0c0.105,0.001,0.131-0.026,0.13-0.13
		c-0.004-0.974-0.003-1.949-0.002-2.923c0-0.448,0.179-0.71,0.594-0.874c0.054-0.021,0.109-0.039,0.165-0.055
		c0.341-0.096,0.69-0.121,1.042-0.131c0.106-0.003,0.129,0.026,0.129,0.13c-0.004,1.29-0.003,2.579-0.003,3.869
		c0,0.061-0.013,0.115,0.088,0.114c1.55-0.003,3.101-0.003,4.651-0.001c0.075,0,0.091-0.025,0.088-0.093
		c-0.005-0.113-0.001-0.226-0.001-0.345c0.024,0.01,0.031,0.011,0.037,0.015c0.015,0.01,0.03,0.021,0.044,0.032
		c0.457,0.342,0.967,0.511,1.542,0.477c0.503-0.03,0.922-0.223,1.245-0.617c0.125-0.153,0.221-0.325,0.322-0.496
		c0.009,0.306,0.013,0.609,0.006,0.912c-0.002,0.1,0.03,0.117,0.122,0.117c0.627-0.004,1.253-0.005,1.88,0.001
		C69.875,18.758,69.894,18.725,69.893,18.63z M47.864,16.653c-0.44,0.44-1.118,0.377-1.491-0.139
		c-0.162-0.224-0.243-0.475-0.235-0.739c-0.004-0.287,0.077-0.534,0.233-0.756c0.372-0.53,1.064-0.582,1.511-0.115
		C48.342,15.382,48.333,16.184,47.864,16.653z M53.64,14.953c-0.431,0.106-0.861,0.212-1.292,0.318
		c-0.003,0.001-0.007-0.002-0.018-0.005c0.008-0.303,0.062-0.594,0.254-0.842c0.326-0.42,0.967-0.369,1.234,0.095
		C54.01,14.851,54.005,14.863,53.64,14.953z M67.759,13.958c0.001,0.003,0.003,0.006,0.004,0.009
		c-0.001,0.003-0.002,0.006-0.003,0.009c-0.002-0.004-0.005-0.009-0.007-0.013C67.753,13.962,67.757,13.96,67.759,13.958z
		 M67.417,16.65c-0.432,0.437-1.105,0.383-1.488-0.122c-0.17-0.223-0.254-0.477-0.251-0.759c0.004-0.373,0.13-0.694,0.415-0.942
		c0.389-0.338,0.926-0.322,1.299,0.034C67.889,15.336,67.9,16.161,67.417,16.65z"/>
	<path d="M54.009,20.3c-5.846,0-11.693,0-17.539,0c-0.33,0-0.52,0.189-0.52,0.518c-0.001,0.42-0.001,0.84,0,1.261
		c0,0.05,0.002,0.102,0.013,0.151c0.057,0.24,0.237,0.367,0.519,0.367c2.92,0,5.839,0,8.759,0c2.88,0,5.759,0,8.639,0
		c0.086,0,0.173-0.005,0.259-0.009c0.269-0.013,0.453-0.198,0.455-0.467c0.003-0.449,0.002-0.898,0-1.347
		c0-0.104-0.032-0.199-0.094-0.284C54.377,20.318,54.197,20.3,54.009,20.3z"/>
	<path d="M74.38,18.798c0.637-0.124,1.139-0.482,1.509-1.004c0.741-1.045,0.85-2.189,0.393-3.364
		c-0.415-1.066-1.182-1.73-2.383-1.748c-0.534-0.008-1.001,0.173-1.346,0.606c-0.126,0.158-0.221,0.335-0.327,0.511
		c0-0.038,0-0.076,0-0.114c0-1.021-0.001-2.043,0.002-3.064c0-0.093-0.022-0.117-0.116-0.1c-0.644,0.117-1.288,0.23-1.932,0.34
		c-0.076,0.013-0.091,0.045-0.091,0.114c0.001,2.561,0.001,5.121-0.001,7.682c0,0.075,0.019,0.098,0.096,0.098
		c0.648-0.003,1.297-0.003,1.945,0c0.085,0.001,0.101-0.026,0.1-0.104c-0.004-0.307-0.002-0.614-0.002-0.921
		c0.006-0.001,0.012-0.002,0.019-0.003c0.01,0.019,0.02,0.038,0.029,0.057C72.696,18.659,73.464,18.977,74.38,18.798z
		 M72.354,16.347c-0.092-0.185-0.137-0.38-0.131-0.524c0-0.434,0.126-0.753,0.406-0.998c0.373-0.327,0.894-0.322,1.27,0.002
		c0.54,0.465,0.548,1.381,0.016,1.855C73.402,17.139,72.669,16.982,72.354,16.347z"/>
	<path d="M37.883,18.751c0.074,0,0.089-0.024,0.089-0.093c-0.002-1.365-0.002-2.731,0-4.097c0-0.079-0.026-0.094-0.099-0.094
		c-0.623,0.003-1.246,0.003-1.869-0.001c-0.084-0.001-0.101,0.025-0.101,0.104c0.003,0.677,0.002,1.355,0.002,2.032
		c0,0.681,0,1.362-0.001,2.043c0,0.063-0.003,0.107,0.087,0.106C36.622,18.747,37.252,18.748,37.883,18.751z"/>
	<path d="M57.106,20.301c-0.423-0.001-0.847-0.001-1.27,0c-0.314,0-0.51,0.182-0.514,0.492c-0.006,0.438-0.006,0.876,0,1.314
		c0.004,0.291,0.174,0.463,0.462,0.48c0.455,0.026,0.911,0.012,1.366,0.008c0.284-0.003,0.464-0.207,0.465-0.494
		c0.001-0.217,0-0.434,0-0.651c0-0.21,0-0.42,0-0.63c0-0.004,0-0.007,0-0.011C57.615,20.494,57.422,20.301,57.106,20.301z"/>
	<path d="M60.133,20.301c-0.427-0.001-0.854-0.001-1.281,0c-0.305,0.001-0.503,0.184-0.508,0.487c-0.007,0.441-0.007,0.883,0,1.324
		c0.005,0.285,0.179,0.459,0.457,0.474c0.441,0.024,0.882,0.007,1.323,0.009c0.321,0.002,0.512-0.191,0.515-0.514
		c0.002-0.21,0-0.42,0-0.63c0-0.217,0.003-0.434-0.001-0.651C60.634,20.492,60.441,20.302,60.133,20.301z"/>
	<path d="M65.987,20.598c0-0.27,0.001-0.522,0-0.775c-0.001-0.141-0.082-0.241-0.195-0.242c-0.114-0.002-0.196,0.096-0.196,0.238
		c0,0.558,0,1.115,0,1.673c0,0.165,0.03,0.326,0.094,0.476c0.268,0.629,1.009,0.88,1.544,0.382c0.331-0.308,0.432-0.693,0.334-1.119
		C67.392,20.469,66.585,20.134,65.987,20.598z M66.717,22.171c-0.368,0.078-0.701-0.233-0.729-0.569
		c-0.014-0.173,0.007-0.338,0.105-0.488c0.133-0.205,0.312-0.323,0.562-0.293c0.249,0.03,0.408,0.183,0.508,0.405
		c0.039,0.087,0.05,0.181,0.044,0.252C67.206,21.834,66.996,22.112,66.717,22.171z"/>
	<path d="M76.386,21.415c-0.27-0.047-0.529-0.151-0.799-0.209c-0.073-0.016-0.086-0.043-0.044-0.11
		c0.161-0.255,0.464-0.31,0.704-0.126c0.063,0.048,0.094,0.118,0.144,0.175c0.085,0.095,0.177,0.113,0.268,0.054
		c0.086-0.056,0.122-0.185,0.066-0.281c-0.169-0.293-0.405-0.487-0.761-0.493c-0.322,0-0.625,0.183-0.784,0.466
		c-0.137,0.244-0.081,0.632,0.287,0.73c0.272,0.073,0.542,0.149,0.815,0.219c0.071,0.018,0.083,0.042,0.045,0.103
		c-0.178,0.286-0.579,0.305-0.781,0.036c-0.037-0.049-0.074-0.098-0.12-0.139c-0.044-0.039-0.093-0.049-0.151-0.033
		c-0.141,0.04-0.2,0.191-0.121,0.332c0.039,0.069,0.09,0.132,0.142,0.191c0.414,0.461,1.1,0.337,1.396-0.192
		C76.849,21.855,76.695,21.468,76.386,21.415z"/>
	<path d="M68.456,20.599c-0.53,0.386-0.607,1.098-0.238,1.604c0.338,0.463,0.878,0.546,1.306,0.224
		c0.297-0.222,0.447-0.524,0.444-0.925c0.01-0.177-0.043-0.367-0.141-0.545C69.534,20.421,68.927,20.256,68.456,20.599z
		 M69.384,22.011c-0.283,0.31-0.814,0.168-0.959-0.255c-0.026-0.077-0.029-0.156-0.03-0.254c-0.016-0.15,0.049-0.293,0.146-0.424
		c0.139-0.188,0.332-0.256,0.555-0.21c0.237,0.049,0.387,0.21,0.452,0.437C69.623,21.566,69.57,21.807,69.384,22.011z"/>
	<path d="M63.639,20.605c-0.53,0.385-0.598,1.232-0.136,1.7c0.326,0.33,0.766,0.408,1.115,0.192
		c0.361-0.223,0.548-0.545,0.549-1.026c0.009-0.171-0.056-0.375-0.171-0.565C64.697,20.407,64.096,20.273,63.639,20.605z
		 M64.665,21.902c-0.179,0.266-0.374,0.303-0.625,0.256c-0.228-0.042-0.425-0.292-0.444-0.533c-0.003-0.036,0-0.072,0-0.097
		c-0.017-0.172,0.043-0.31,0.133-0.436c0.144-0.201,0.363-0.28,0.591-0.219c0.233,0.062,0.43,0.291,0.45,0.53
		C64.784,21.579,64.769,21.748,64.665,21.902z"/>
	<path d="M74.335,22.028c-0.274,0.223-0.567,0.206-0.813-0.047c-0.192-0.198-0.238-0.521-0.109-0.778
		c0.121-0.242,0.302-0.381,0.586-0.363c0.151,0.01,0.26,0.098,0.376,0.178c0.091,0.063,0.191,0.058,0.247-0.004
		c0.075-0.083,0.081-0.219,0.013-0.3c-0.243-0.291-0.692-0.392-1.04-0.233c-0.466,0.212-0.721,0.745-0.621,1.253
		c0.104,0.529,0.571,0.901,0.899,0.88c0.32,0.002,0.545-0.101,0.735-0.282c0.097-0.092,0.098-0.231,0.015-0.322
		C74.548,21.929,74.449,21.935,74.335,22.028z"/>
	<path d="M71.343,22.187c-0.238-0.002-0.29-0.058-0.292-0.298c-0.001-0.148,0-0.297,0-0.445c0-0.116,0-0.232,0-0.347
		c0-0.236,0-0.236,0.238-0.219c0.089,0.006,0.153-0.037,0.195-0.112c0.048-0.086,0.024-0.169-0.027-0.245
		c-0.046-0.068-0.11-0.091-0.189-0.06c-0.046,0.018-0.093,0.005-0.139,0.011c-0.063,0.008-0.08-0.02-0.079-0.08
		c0.003-0.166,0.002-0.333,0.001-0.499c-0.001-0.132-0.069-0.214-0.184-0.224c-0.101-0.008-0.165,0.05-0.189,0.181
		c-0.029,0.158-0.015,0.318-0.01,0.476c0.003,0.108-0.03,0.144-0.134,0.125c-0.105-0.019-0.165,0.024-0.203,0.129
		c-0.062,0.17,0.09,0.332,0.243,0.293c0.076-0.019,0.095,0.016,0.092,0.086c-0.004,0.105-0.003,0.21-0.001,0.315
		c0.007,0.278-0.037,0.561,0.022,0.834c0.085,0.402,0.368,0.559,0.732,0.497c0.038-0.007,0.067-0.028,0.088-0.057
		c0.059-0.081,0.06-0.167,0.022-0.257C71.493,22.206,71.426,22.188,71.343,22.187z"/>
	<path d="M62.736,20.479c-0.328-0.14-0.64-0.112-0.935,0.103c-0.013-0.027-0.022-0.049-0.035-0.071
		c-0.052-0.09-0.133-0.122-0.23-0.104c-0.088,0.016-0.114,0.092-0.132,0.168c-0.007,0.031-0.006,0.065-0.006,0.097
		c0,0.558,0,1.115,0,1.673c0,0.047,0.002,0.093,0.019,0.139c0.03,0.081,0.082,0.125,0.171,0.121c0.088-0.003,0.152-0.04,0.184-0.125
		c0.017-0.045,0.016-0.092,0.016-0.139c0-0.308-0.004-0.616,0.004-0.923c0.006-0.26,0.2-0.51,0.43-0.566
		c0.134-0.033,0.265-0.013,0.394,0.032c0.112,0.039,0.189,0.001,0.236-0.106C62.903,20.659,62.856,20.53,62.736,20.479z"/>
	<path d="M72.443,20.59c-0.001-0.103-0.064-0.169-0.163-0.183c-0.102-0.015-0.169,0.028-0.204,0.134
		c-0.017,0.052-0.022,0.105-0.021,0.16c0.001,0.539,0,1.078,0.001,1.617c0,0.032,0,0.065,0.006,0.097
		c0.027,0.143,0.096,0.201,0.216,0.188c0.115-0.013,0.168-0.08,0.168-0.222c0.001-0.293,0-0.586,0-0.879c-0.001,0-0.001,0-0.002,0
		C72.444,21.197,72.445,20.894,72.443,20.59z"/>
	<path d="M72.244,20.316c0.121-0.002,0.201-0.089,0.201-0.218c0-0.132-0.079-0.216-0.202-0.214c-0.099,0.002-0.19,0.107-0.186,0.215
		C72.062,20.212,72.153,20.318,72.244,20.316z"/>
	<path d="M37.744,12.876c0.054-0.855-0.242-1.252-0.48-1.249l-1.503-0.047c0.046-2.362,0.092-4.684,0.092-4.684
		c0.009-0.808-0.627-1.226-1.226-1.226l-9.573-0.209l-4.433,1.108c-0.599,0-1.163,0.5-1.153,1.181l0.427,10.899
		c0,0.599,0.409,1.362,1.181,1.435l10.908,1.144c0.492,0,0.977-0.36,1.136-0.82l2.025-2.849c0.481-0.654,0.509-0.763,0.518-1.054
		c0.003-0.091,0.023-1.074,0.049-2.379l1.362,0.06C37.364,14.187,37.697,13.624,37.744,12.876z M30.97,17.918
		c-0.023,0.016-0.569,0.403-1.373,0.626c-0.446,0.123-0.771,0.178-1.055,0.178c-0.393,0-0.7-0.111-0.936-0.341
		c-0.339-0.328-1.802-2.847-1.968-3.133c-0.003-0.005-0.006-0.01-0.008-0.015c-0.018-0.038-0.052-0.087-0.063-0.097
		c-0.025-0.014-0.044-0.025-0.058-0.032h-0.193l0.04,2.981c0.001,0.107-0.074,0.198-0.179,0.217
		c-0.013,0.002-0.317,0.057-0.767,0.057c-0.352,0-0.695-0.033-1.018-0.098c-0.967-0.195-1.007-0.225-1.026-0.399
		c-0.001-0.012-0.002-0.025-0.001-0.037L22.12,9.218c-0.003-0.106,0.07-0.199,0.174-0.22c0.019-0.004,0.469-0.095,1.108-0.095
		c0.113,0,0.226,0.003,0.337,0.009c0.966,0.034,1.309,0.193,1.327,0.197c0.119,0.034,0.104,0.067,0.106,0.166l0.068,3.256
		c0,0.008,0,0.017-0.001,0.025c-0.004,0.044-0.002,0.097,0.004,0.138c0.017-0.03,0.04-0.08,0.059-0.123
		c0.027-0.059,0.058-0.127,0.098-0.205l0.083-0.16c1.509-2.921,1.616-2.966,1.73-3.013c0.149-0.062,0.447-0.136,1.015-0.136
		c0.257,0,0.549,0.015,0.867,0.046c1.102,0.105,1.364,0.207,1.417,0.236c0.054,0.029,0.172,0.081,0.19,0.122
		c0.018,0.041-0.077,0.137-0.109,0.188l-2.568,3.999c-0.007,0.011-0.015,0.021-0.023,0.03c-0.044,0.047-0.101,0.135-0.106,0.165
		c0.002,0.016,0.021,0.05,0.1,0.127l0.02,0.019c0.048,0.048,1.896,2.284,2.994,3.612c0.038,0.047,0.056,0.107,0.048,0.167
		C31.052,17.829,31.019,17.883,30.97,17.918z"/>
</g>
</svg>
