<?xml version="1.0" encoding="utf-8"?>
<!-- Generator: Adobe Illustrator 24.0.0, SVG Export Plug-In . SVG Version: 6.00 Build 0)  -->
<svg version="1.1" id="Layer_1" xmlns="http://www.w3.org/2000/svg" xmlns:xlink="http://www.w3.org/1999/xlink" x="0px" y="0px"
	 viewBox="0 0 100 30" style="enable-background:new 0 0 100 30;" xml:space="preserve">
<g>
	<g>
		<path d="M29.411,19.793c-2.047,0-3.209-1.061-3.209-2.88V8.625h1.188v8.262c0,1.162,0.758,1.819,2.021,1.819h3.689v1.036
			L29.411,19.793L29.411,19.793z"/>
		<path d="M39.189,16.205h-2.173c-1.162,0-1.718,0.48-1.718,1.364s0.556,1.314,1.769,1.314c0.657,0,1.238-0.051,1.718-0.505
			c0.278-0.253,0.379-0.682,0.379-1.339L39.189,16.205L39.189,16.205z M39.189,19.793V19.06c-0.632,0.632-1.188,0.834-2.223,0.834
			c-1.061,0-1.693-0.202-2.173-0.707c-0.379-0.379-0.581-0.96-0.581-1.567c0-1.339,0.935-2.223,2.653-2.223h2.324v-0.733
			c0-1.137-0.556-1.693-1.971-1.693c-0.985,0-1.491,0.227-1.946,0.884l-0.758-0.707c0.682-0.91,1.465-1.162,2.703-1.162
			c2.072,0,3.082,0.884,3.082,2.577v5.23H39.189L39.189,19.793z"/>
	</g>
	<path d="M55.41,12.087h1.137v7.706H55.41V12.087z M55.359,8.625h1.263v1.263h-1.263V8.625z"/>
	<g>
		<path d="M61.322,19.844c-1.289,0-2.324-0.303-3.158-1.112l0.758-0.758c0.606,0.632,1.44,0.884,2.4,0.884
			c1.263,0,2.047-0.455,2.047-1.364c0-0.682-0.379-1.061-1.289-1.137l-1.263-0.101c-1.491-0.126-2.299-0.809-2.299-2.072
			c0-1.415,1.188-2.249,2.83-2.249c1.086,0,2.072,0.278,2.779,0.834l-0.733,0.733c-0.556-0.43-1.263-0.606-2.047-0.606
			c-1.137,0-1.718,0.48-1.718,1.263c0,0.657,0.379,1.061,1.339,1.137l1.238,0.101c1.339,0.126,2.274,0.632,2.274,2.072
			C64.455,19.01,63.192,19.844,61.322,19.844"/>
		<path d="M69.18,19.844c-1.946,0-3.411-1.314-3.411-3.942s1.465-3.942,3.411-3.942c1.061,0,1.743,0.278,2.527,1.137l-0.758,0.733
			c-0.581-0.632-1.036-0.859-1.769-0.859c-0.758,0-1.39,0.303-1.794,0.884c-0.354,0.505-0.505,1.086-0.505,2.072
			c0,0.96,0.152,1.567,0.505,2.072c0.404,0.581,1.036,0.884,1.794,0.884c0.733,0,1.188-0.227,1.769-0.884l0.758,0.733
			C70.923,19.566,70.241,19.844,69.18,19.844"/>
		<path d="M50.104,19.844c1.87-0.076,3.285-1.364,3.285-3.942V8.625h-1.137v4.346c-0.632-0.809-1.339-0.985-2.173-0.985
			c-0.733,0-1.364,0.227-1.794,0.581c0.253,0.253,0.606,0.632,0.809,0.834c0.278-0.253,0.682-0.404,1.238-0.404
			c1.668,0,1.92,1.44,1.92,2.956l0,0c0,0.96-0.152,1.567-0.505,2.072c-0.379,0.531-0.935,0.834-1.592,0.884l0,0
			c-1.516-0.076-1.769-1.491-1.769-2.931l0,0l0,0l0,0l0,0l0,0c0-1.213-0.152-2.501-0.935-3.285
			c-0.404-0.455-1.112-0.707-1.895-0.707c-0.834,0-1.541,0.177-2.173,0.985V8.625h-1.137v7.302c0,2.628,1.465,3.942,3.411,3.942
			c0.733,0,1.263-0.126,1.794-0.48c-0.152-0.152-0.581-0.606-0.733-0.783c-0.303,0.177-0.632,0.253-1.036,0.253
			c-0.758,0-1.39-0.303-1.794-0.884c-0.354-0.505-0.505-1.086-0.505-2.072c0-1.491,0.278-2.956,1.946-2.956
			c1.668,0.025,1.92,1.491,1.92,2.956l0,0l0,0l0,0l0,0l0,0c0,1.213,0.152,2.501,0.935,3.259
			C48.613,19.591,49.295,19.844,50.104,19.844L50.104,19.844z"/>
	</g>
</g>
</svg>
