<?xml version="1.0" encoding="utf-8"?>
<!-- Generator: Adobe Illustrator 24.0.3, SVG Export Plug-In . SVG Version: 6.00 Build 0)  -->
<svg version="1.1" id="Layer_1" xmlns="http://www.w3.org/2000/svg" xmlns:xlink="http://www.w3.org/1999/xlink" x="0px" y="0px"
	 viewBox="0 0 100 30" style="enable-background:new 0 0 100 30;" xml:space="preserve">
<g>
	<path d="M27.3,6.4h-0.4c-0.6,0-0.6,0.1-0.6,0.6v11.4c0,0.6,0.1,0.6,0.6,0.6h0.4c0.6,0,0.6-0.1,0.6-0.6V7.1
		C27.9,6.5,27.9,6.4,27.3,6.4z"/>
	<path d="M31.4,8.7c0-0.6-0.5-1.1-1.1-1.1c-0.6,0-1.1,0.5-1.1,1.1c0,0.5,0.4,1,0.8,1.1v2c-0.5,0-0.6,0.1-0.6,0.6v6
		c0,0.6,0.1,0.6,0.6,0.6h0.4c0.6,0,0.6-0.1,0.6-0.6v-6c0-0.6-0.1-0.6-0.6-0.6v-2C31,9.7,31.4,9.3,31.4,8.7z"/>
	<path d="M35.7,11.8H35v-2c0-0.6-0.1-0.6-0.6-0.6H34c-0.6,0-0.6,0.1-0.6,0.6v2h-0.1c-0.6,0-0.6,0.1-0.6,0.6v0.3
		c0,0.6,0.1,0.6,0.6,0.6h0.1v5.1c0,0.6,0.1,0.6,0.6,0.6h0.4c0.6,0,0.6-0.1,0.6-0.6v-5.1h0.7c0.6,0,0.6-0.1,0.6-0.6v-0.3
		C36.3,11.8,36.3,11.8,35.7,11.8z"/>
	<path d="M40.4,11.8h-0.7v-2c0-0.6-0.1-0.6-0.6-0.6h-0.4c-0.6,0-0.6,0.1-0.6,0.6v2H38c-0.6,0-0.6,0.1-0.6,0.6v0.3
		c0,0.6,0.1,0.6,0.6,0.6h0.1v5.1c0,0.6,0.1,0.6,0.6,0.6h0.4c0.6,0,0.6-0.1,0.6-0.6v-5.1h0.7c0.6,0,0.6-0.1,0.6-0.6v-0.3
		C41.1,11.8,41,11.8,40.4,11.8z"/>
	<path d="M43.1,6.4h-0.4c-0.6,0-0.6,0.1-0.6,0.6v11.4c0,0.6,0.1,0.6,0.6,0.6h0.4c0.6,0,0.6-0.1,0.6-0.6V7.1
		C43.8,6.5,43.7,6.4,43.1,6.4z"/>
	<path d="M51.8,15.4c0-2.3-1.3-3.8-3.4-3.8c-2.2,0-3.6,1.5-3.6,3.9c0,2.3,1.5,3.8,3.6,3.8c1.1,0,2.1-0.4,2.8-1.1
		c0.3-0.4,0.6-0.7,0.6-0.9c0-0.2-0.1-0.3-0.4-0.5L51,16.7c-0.2-0.1-0.3-0.2-0.4-0.2c-0.2,0-0.3,0.1-0.4,0.2c-0.4,0.7-1,1-1.7,1
		c-1.1,0-1.8-0.8-1.9-2h4.6C51.7,15.8,51.8,15.7,51.8,15.4z M46.7,14.5c0.2-0.8,0.9-1.4,1.7-1.4c0.9,0,1.5,0.5,1.7,1.4H46.7z"/>
	<path d="M58,12.8c0.6-0.6,0.9-1.2,0.9-2.1c0-1.1-0.5-2.1-1.3-2.7c-0.6-0.4-1.4-0.6-2.8-0.6h-1.1c-0.6,0-0.6,0.1-0.6,0.6v10.3
		c0,0.6,0.1,0.6,0.6,0.6h2c1.6,0,2.3-0.2,3.1-0.8c0.7-0.6,1.2-1.5,1.2-2.5C60,14.4,59.2,13.3,58,12.8z M54.9,9.1h0.6
		c1.2,0,1.8,0.6,1.8,1.7c0,1.1-0.6,1.7-1.9,1.7h-0.5V9.1z M55.9,17.4h-1.1v-3.5h0.9c1.7,0,2.5,0.6,2.5,1.8
		C58.3,16.8,57.4,17.4,55.9,17.4z"/>
	<path d="M61.8,7.6c-0.6,0-1.1,0.5-1.1,1.1c0,0.5,0.4,1,0.8,1.1v2c-0.5,0-0.6,0.1-0.6,0.6v6c0,0.6,0.1,0.6,0.6,0.6H62
		c0.6,0,0.6-0.1,0.6-0.6v-6c0-0.6-0.1-0.6-0.6-0.6v-2c0.5-0.1,0.8-0.6,0.8-1.1C62.9,8.1,62.4,7.6,61.8,7.6z"/>
	<path d="M64.5,13.4L64.5,13.4l0.1,5.1c0,0.6,0.1,0.6,0.6,0.6h0.4c0.6,0,0.6-0.1,0.6-0.6v-5.1H67c0.6,0,0.6-0.1,0.6-0.6v-0.3
		c0-0.6-0.1-0.6-0.6-0.6h-0.7v-2c0-0.6-0.1-0.6-0.6-0.6h-0.4c-0.6,0-0.6,0.1-0.6,0.6v2h-0.1c-0.6,0-0.6,0.1-0.6,0.6v0.3
		C63.9,13.3,64,13.4,64.5,13.4z"/>
	<path d="M70.5,19.3c1.4,0,2.6-1.1,2.6-2.5c0-1.1-0.5-1.6-2.3-2.4c-0.8-0.4-1-0.5-1-0.8c0-0.3,0.2-0.5,0.6-0.5
		c0.3,0,0.4,0.1,0.6,0.4c0.1,0.1,0.2,0.2,0.3,0.2c0.1,0,0.1,0,0.4-0.2l0.3-0.2c0.4-0.2,0.4-0.3,0.4-0.5c0-0.6-1.1-1.3-2-1.3
		c-1.3,0-2.3,0.9-2.3,2.2c0,0.9,0.3,1.4,1.4,1.9c1.6,0.8,1.7,0.9,1.7,1.3c0,0.5-0.3,0.8-0.9,0.8c-0.3,0-0.6-0.1-0.8-0.4
		c-0.3-0.5-0.4-0.5-0.5-0.5c-0.1,0-0.2,0.1-0.4,0.1l-0.3,0.2c-0.4,0.2-0.5,0.2-0.5,0.4c0,0.1,0.1,0.3,0.2,0.5
		C68.7,18.9,69.6,19.3,70.5,19.3z"/>
	<path d="M73,10.4C73,10.4,73.1,10.4,73,10.4C73.1,10.4,73.1,10.4,73,10.4l0.1-0.3h0c0,0,0,0,0.1,0s0,0,0,0c0,0,0,0,0,0.1l0,0.1
		c0,0,0,0,0,0c0,0,0,0,0,0c0,0,0,0,0,0c0,0,0,0,0,0c0,0,0,0,0,0c0,0,0,0,0,0c0,0,0,0,0,0c0,0,0,0,0-0.1c0,0,0,0-0.1-0.1
		c0,0,0,0-0.1,0c0.1,0,0.1,0,0.1-0.1c0,0,0-0.1,0-0.1c0,0,0,0,0-0.1c0,0,0,0,0-0.1c0,0,0,0,0,0c0,0,0,0-0.1,0c0,0,0,0-0.1,0H73
		c0,0,0,0-0.1,0c0,0,0,0,0,0.1L73,10.4C73,10.4,73,10.4,73,10.4C73,10.4,73,10.4,73,10.4z M73.1,9.9h0.1c0,0,0.1,0,0.1,0
		c0,0,0,0,0,0c0,0,0,0,0,0c0,0,0,0,0,0c0,0,0,0,0,0c0,0,0,0-0.1,0h-0.1V9.9z"/>
	<path d="M73.2,10.7c0.3,0,0.6-0.3,0.6-0.6c0-0.3-0.3-0.6-0.6-0.6c-0.3,0-0.6,0.3-0.6,0.6C72.6,10.4,72.9,10.7,73.2,10.7z M73.2,9.6
		c0.3,0,0.5,0.2,0.5,0.5s-0.2,0.5-0.5,0.5c-0.3,0-0.5-0.2-0.5-0.5S72.9,9.6,73.2,9.6z"/>
	<path d="M73.2,21.9c-0.1-0.5-0.6-0.9-1.2-1c-0.5,0-0.9,0.1-1.2,0.5c-0.3,0.3-0.4,0.7-0.3,1.1c0.2,0.7,0.8,1.1,1.5,1
		c0.3,0,0.5-0.1,0.7-0.3c0.3-0.2,0.4-0.5,0.4-0.8c0,0,0,0,0,0c0-0.1,0-0.2,0-0.3c0,0,0,0,0,0C73.2,22,73.2,22,73.2,21.9z M72.4,22.9
		c-0.2,0.1-0.3,0.2-0.5,0.2c-0.3,0-0.5-0.1-0.7-0.3c-0.2-0.3-0.2-0.6,0-0.9c0.3-0.5,1-0.5,1.4,0C72.8,22.1,72.7,22.6,72.4,22.9z"/>
	<path d="M61.3,21c-0.6,0.1-1,0.7-1,1.3c0,0.7,0,1.4,0,2.1c0,0.1,0.1,0.3,0.2,0.3c0.2,0,0.3-0.1,0.3-0.2c0,0,0-0.1,0-0.1
		c0-0.3,0-0.6,0-0.9c0,0,0-0.1,0-0.1c0,0,0,0,0,0c0,0,0,0,0.1,0c0.3,0.2,0.6,0.2,1,0.2c0.7-0.1,1.2-0.8,1-1.5
		C62.8,21.3,62,20.8,61.3,21z M61.6,23.1c-0.5,0-0.8-0.4-0.8-0.8c0-0.4,0.3-0.8,0.8-0.8c0.5,0,0.8,0.4,0.8,0.8
		C62.4,22.7,62,23.1,61.6,23.1z"/>
	<path d="M67.5,20.9c-0.4,0-0.7,0.1-1,0.3c-0.5,0.4-0.6,1.2-0.3,1.7c0.3,0.4,0.7,0.7,1.3,0.6c0.3,0,0.5-0.1,0.7-0.2
		c0.1-0.1,0.2-0.2,0.3-0.3c0.1-0.1,0.1-0.3,0-0.4c-0.1-0.1-0.3-0.1-0.4,0c0,0,0,0-0.1,0.1c-0.3,0.3-0.8,0.4-1.2,0.1
		c0,0-0.1-0.1-0.1-0.1c0,0,0,0,0.1,0c0.3-0.1,0.6-0.2,0.9-0.3c0.3-0.1,0.5-0.2,0.8-0.3c0,0,0.1,0,0.1-0.1c0.1-0.1,0.1-0.2,0.1-0.3
		C68.4,21.3,68,21,67.5,20.9z M66.5,22.3c0-0.2,0.2-0.6,0.5-0.8c0.4-0.1,0.8,0,0.9,0.2C68,21.8,66.6,22.2,66.5,22.3z"/>
	<path d="M65.4,21.3c-0.4-0.4-1-0.5-1.5-0.2c0,0,0,0-0.1,0c0,0,0,0,0-0.1c0-0.3,0-0.6,0-0.8c0-0.1,0-0.1-0.1-0.2
		c-0.1-0.1-0.2-0.1-0.3-0.1c-0.1,0-0.2,0.1-0.2,0.3c0,0.2,0,0.5,0,0.7c0,0.8,0,1.5,0,2.3c0,0.1,0,0.1,0,0.2c0.1,0.1,0.2,0.2,0.3,0.1
		c0.1,0,0.2-0.1,0.2-0.3c0-0.4,0-0.7,0-1.1c0-0.1,0-0.2,0.1-0.4c0.2-0.3,0.5-0.4,0.8-0.3c0.3,0.1,0.5,0.3,0.5,0.6c0,0.1,0,0.2,0,0.3
		c0,0.3,0,0.6,0,1c0,0.2,0.2,0.3,0.4,0.2c0.1-0.1,0.1-0.1,0.1-0.2c0-0.4,0-0.8,0-1.1C65.7,21.8,65.6,21.5,65.4,21.3z"/>
	<path d="M59.6,22.2c-0.1,0-0.1-0.1-0.2-0.1c-0.1,0-0.3-0.1-0.4-0.1c-0.1,0-0.2,0-0.3-0.1c-0.1-0.1-0.1-0.2-0.1-0.3
		c0,0,0.1-0.1,0.1-0.1c0.1-0.1,0.2-0.1,0.4-0.1c0.1,0,0.2,0.1,0.3,0.1c0.1,0,0.1,0.1,0.2,0.1c0.1,0,0.1,0,0.2,0
		c0.1-0.1,0.1-0.2,0.1-0.3c-0.1-0.1-0.2-0.2-0.3-0.2c-0.3-0.2-0.7-0.2-1-0.1c-0.3,0.1-0.5,0.3-0.5,0.6c0,0.2,0,0.5,0.2,0.6
		c0.1,0.1,0.3,0.2,0.5,0.2c0.1,0,0.3,0,0.4,0.1c0.1,0,0.1,0,0.2,0.1c0.1,0,0.1,0.1,0.1,0.2c0,0.1-0.1,0.1-0.1,0.2
		c-0.2,0.1-0.3,0.1-0.5,0c-0.1,0-0.2-0.1-0.3-0.2c0,0-0.1-0.1-0.2-0.1c-0.1,0-0.1,0-0.2,0c-0.2,0-0.2,0.2-0.2,0.4
		c0,0.1,0.1,0.2,0.2,0.3c0.2,0.2,0.5,0.3,0.8,0.3c0.1,0,0.2,0,0.3-0.1c0.2-0.1,0.4-0.2,0.5-0.4C60.1,22.9,60,22.4,59.6,22.2z"/>
	<path d="M70.2,21c-0.1,0-0.3,0-0.4,0c-0.3,0.1-0.6,0.3-0.7,0.6c-0.1,0.2-0.1,0.4-0.1,0.5c0,0.2,0,0.4,0,0.6c0,0,0,0,0,0
		c0,0.2,0,0.4,0,0.6c0,0.1,0.1,0.2,0.2,0.3c0.1,0,0.3-0.1,0.3-0.2c0,0,0-0.1,0-0.1c0-0.3,0-0.6,0-0.9c0-0.1,0-0.2,0-0.3
		c0.1-0.3,0.2-0.4,0.5-0.5c0.1,0,0.2,0,0.3,0c0.1,0,0.3-0.1,0.3-0.3C70.5,21.1,70.4,21,70.2,21z"/>
	<path d="M73.6,21.4C73.6,21.4,73.6,21.4,73.6,21.4C73.6,21.4,73.6,21.4,73.6,21.4C73.6,21.4,73.6,21.4,73.6,21.4c0-0.1,0-0.1,0-0.1
		c0,0,0,0,0,0c0,0,0,0,0,0c0,0,0,0,0,0c0,0,0,0,0,0c0,0,0,0,0,0h-0.1c0,0,0,0,0,0c0,0,0,0,0,0v0.2c0,0,0,0,0,0c0,0,0,0,0,0
		c0,0,0,0,0,0c0,0,0,0,0,0v-0.1h0C73.5,21.4,73.5,21.4,73.6,21.4C73.5,21.4,73.5,21.4,73.6,21.4C73.5,21.4,73.6,21.4,73.6,21.4
		L73.6,21.4C73.6,21.5,73.6,21.5,73.6,21.4C73.6,21.5,73.6,21.5,73.6,21.4C73.6,21.5,73.6,21.5,73.6,21.4
		C73.6,21.5,73.6,21.5,73.6,21.4C73.6,21.5,73.6,21.5,73.6,21.4C73.6,21.5,73.6,21.5,73.6,21.4C73.6,21.5,73.6,21.5,73.6,21.4
		C73.6,21.4,73.6,21.4,73.6,21.4z M73.6,21.3C73.6,21.3,73.5,21.3,73.6,21.3L73.6,21.3L73.6,21.3L73.6,21.3
		C73.5,21.3,73.6,21.3,73.6,21.3C73.6,21.3,73.6,21.3,73.6,21.3C73.6,21.3,73.6,21.3,73.6,21.3C73.6,21.3,73.6,21.3,73.6,21.3
		C73.6,21.3,73.6,21.3,73.6,21.3z"/>
	<path d="M73.5,21.1c-0.1,0-0.2,0.1-0.2,0.2c0,0.1,0.1,0.2,0.2,0.2c0.1,0,0.2-0.1,0.2-0.2C73.8,21.2,73.7,21.1,73.5,21.1z
		 M73.5,21.6c-0.1,0-0.2-0.1-0.2-0.2c0-0.1,0.1-0.2,0.2-0.2c0.1,0,0.2,0.1,0.2,0.2C73.7,21.5,73.6,21.6,73.5,21.6z"/>
	<path d="M54.1,21.6c-0.1,0-0.3,0-0.4,0.1v-0.9c0,0,0,0,0,0c0,0,0,0,0,0c0,0,0,0,0,0h-0.4h0c0,0-0.1,0-0.1,0.1V23c0,0,0,0,0,0
		c0,0,0,0,0.1,0h0.4c0,0,0.1,0,0.1-0.1v0v0c0.1,0.1,0.2,0.1,0.4,0.1c0.4,0,0.7-0.3,0.7-0.7C54.8,22,54.5,21.6,54.1,21.6z M54,22.6
		c-0.1,0-0.3-0.1-0.3-0.3s0.1-0.3,0.3-0.3c0.1,0,0.3,0.1,0.3,0.3S54.1,22.6,54,22.6z"/>
	<polygon points="55.7,22.3 55.4,21.7 54.8,21.7 55.4,22.8 54.9,23.7 55.5,23.7 56.6,21.7 56,21.7 	"/>
</g>
</svg>
