<?xml version="1.0" encoding="utf-8"?>
<!-- Generator: Adobe Illustrator 24.0.0, SVG Export Plug-In . SVG Version: 6.00 Build 0)  -->
<svg version="1.1" id="Layer_1" xmlns="http://www.w3.org/2000/svg" xmlns:xlink="http://www.w3.org/1999/xlink" x="0px" y="0px"
	 viewBox="0 0 100 30" style="enable-background:new 0 0 100 30;" xml:space="preserve">
<g id="XMLID_14_">
	<g id="XMLID_29_">
		<path id="XMLID_40_" d="M27.263,7.839h-0.399c-0.593,0-0.644,0.054-0.644,0.644v11.398c0,0.589,0.054,0.644,0.644,0.644h0.399
			c0.593,0,0.644-0.054,0.644-0.644V8.483C27.907,7.89,27.853,7.839,27.263,7.839"/>
		<path id="XMLID_39_" d="M31.388,10.154c0-0.609-0.489-1.097-1.097-1.097c-0.628,0-1.113,0.489-1.113,1.097
			c0,0.52,0.368,0.965,0.849,1.082v1.966c-0.535,0.004-0.585,0.074-0.585,0.644v6.037c0,0.593,0.054,0.644,0.644,0.644h0.399
			c0.593,0,0.644-0.05,0.644-0.644v-6.04c0-0.57-0.05-0.64-0.585-0.644v-1.966C31.02,11.112,31.388,10.67,31.388,10.154"/>
		<path id="XMLID_38_" d="M35.719,13.197h-0.678v-2.035c0-0.593-0.05-0.644-0.644-0.644h-0.399c-0.593,0-0.644,0.054-0.644,0.644
			v2.035h-0.085c-0.574,0-0.628,0.05-0.628,0.644v0.295c0,0.593,0.054,0.644,0.628,0.644h0.085v5.098
			c0,0.593,0.05,0.644,0.644,0.644h0.399c0.593,0,0.644-0.054,0.644-0.644v-5.094h0.678c0.593,0,0.644-0.05,0.644-0.644v-0.295
			C36.363,13.252,36.312,13.197,35.719,13.197"/>
		<path id="XMLID_37_" d="M40.449,13.197H39.77v-2.035c0-0.593-0.05-0.644-0.644-0.644h-0.399c-0.593,0-0.644,0.054-0.644,0.644
			v2.035h-0.085c-0.574,0-0.628,0.05-0.628,0.644v0.295c0,0.593,0.054,0.644,0.628,0.644h0.089v5.098
			c0,0.593,0.05,0.644,0.644,0.644h0.399c0.593,0,0.644-0.054,0.644-0.644v-5.094h0.678c0.593,0,0.644-0.05,0.644-0.644v-0.295
			C41.096,13.252,41.042,13.197,40.449,13.197"/>
		<path id="XMLID_36_" d="M43.182,7.839h-0.399c-0.593,0-0.644,0.054-0.644,0.644v11.398c0,0.589,0.05,0.644,0.644,0.644h0.399
			c0.593,0,0.644-0.054,0.644-0.644V8.483C43.826,7.89,43.775,7.839,43.182,7.839"/>
		<path id="XMLID_35_" d="M46.714,15.896c0.209-0.834,0.868-1.357,1.687-1.357c0.868,0,1.481,0.489,1.706,1.357H46.714z
			 M51.847,16.819c0-2.315-1.341-3.811-3.447-3.811c-2.175,0-3.567,1.512-3.567,3.916c0,2.28,1.462,3.827,3.602,3.827
			c1.097,0,2.07-0.399,2.768-1.132c0.349-0.384,0.558-0.698,0.558-0.872c0-0.19-0.07-0.26-0.419-0.454l-0.314-0.174
			c-0.229-0.14-0.33-0.174-0.419-0.174c-0.155,0-0.26,0.07-0.364,0.244c-0.434,0.698-1.027,1.043-1.741,1.043
			c-1.078,0-1.811-0.768-1.896-1.966h4.594C51.727,17.272,51.847,17.183,51.847,16.819"/>
		<path id="XMLID_34_" d="M56.023,18.87h-1.078v-3.497h0.888c1.687,0,2.524,0.589,2.524,1.791
			C58.357,18.245,57.519,18.87,56.023,18.87 M54.945,10.538h0.609c1.182,0,1.826,0.589,1.826,1.671c0,1.113-0.644,1.706-1.896,1.706
			h-0.539L54.945,10.538L54.945,10.538z M58.093,14.275c0.644-0.574,0.942-1.252,0.942-2.07c0-1.078-0.523-2.14-1.322-2.698
			c-0.609-0.419-1.392-0.593-2.784-0.593h-1.097c-0.593,0-0.644,0.054-0.644,0.644v10.321c0,0.589,0.05,0.644,0.644,0.644h2.02
			c1.566,0,2.299-0.209,3.063-0.834c0.748-0.628,1.167-1.516,1.167-2.505C60.078,15.826,59.315,14.713,58.093,14.275"/>
		<path id="XMLID_33_" d="M63.036,10.154c0-0.609-0.489-1.097-1.097-1.097c-0.628,0-1.113,0.489-1.113,1.097
			c0,0.52,0.368,0.965,0.849,1.082v1.966c-0.535,0.004-0.585,0.074-0.585,0.644v6.037c0,0.593,0.05,0.644,0.644,0.644h0.399
			c0.593,0,0.644-0.05,0.644-0.644v-6.04c0-0.57-0.05-0.64-0.585-0.644v-1.966C62.672,11.112,63.036,10.67,63.036,10.154"/>
		<path id="XMLID_32_" d="M67.107,13.197h-0.678v-2.035c0-0.593-0.05-0.644-0.644-0.644h-0.399c-0.589,0-0.644,0.054-0.644,0.644
			v2.035h-0.089c-0.574,0-0.624,0.05-0.624,0.644v0.295c0,0.593,0.05,0.644,0.624,0.644h0.089v5.098
			c0,0.593,0.054,0.644,0.644,0.644h0.399c0.593,0,0.644-0.054,0.644-0.644v-5.094h0.678c0.593,0,0.644-0.05,0.644-0.644v-0.295
			C67.751,13.252,67.701,13.197,67.107,13.197"/>
		<path id="XMLID_31_" d="M70.953,15.877c-0.799-0.364-0.973-0.523-0.973-0.837c0-0.295,0.244-0.523,0.558-0.523
			c0.26,0,0.384,0.07,0.628,0.384c0.085,0.12,0.19,0.174,0.314,0.174c0.089,0,0.12-0.019,0.399-0.174l0.314-0.155
			c0.364-0.19,0.419-0.26,0.419-0.454c0-0.574-1.078-1.287-1.966-1.287c-1.287,0-2.26,0.938-2.26,2.21
			c0,0.903,0.349,1.357,1.427,1.896c1.582,0.783,1.687,0.868,1.687,1.341c0,0.469-0.349,0.783-0.868,0.783
			c-0.33,0-0.644-0.14-0.799-0.384c-0.33-0.454-0.364-0.489-0.539-0.469c-0.07,0-0.19,0.05-0.384,0.14l-0.33,0.155
			c-0.384,0.174-0.454,0.244-0.454,0.434c0,0.12,0.07,0.295,0.225,0.504c0.489,0.713,1.341,1.132,2.28,1.132
			c1.446,0,2.594-1.097,2.594-2.47C73.214,17.202,72.745,16.714,70.953,15.877"/>
		<path id="XMLID_30_" d="M73.117,12.209c-0.008-0.016-0.012-0.023-0.016-0.027c-0.004-0.004-0.016-0.004-0.031-0.004h-0.14
			c-0.019,0-0.031,0-0.035,0.004c-0.004,0.004-0.008,0.016-0.012,0.031l-0.128,0.748c0,0.012-0.004,0.019-0.004,0.023
			c0,0.008,0.004,0.016,0.008,0.019c0.008,0.004,0.016,0.004,0.031,0.004h0.132c0.016,0,0.027-0.004,0.031-0.008
			c0.004-0.004,0.008-0.016,0.012-0.031l0.066-0.442l0.178,0.446c0.008,0.016,0.012,0.023,0.016,0.027s0.016,0.004,0.031,0.004
			h0.019c0.016,0,0.027,0,0.031-0.004c0.004-0.004,0.008-0.012,0.016-0.027l0.19-0.45l0.054,0.442
			c0.004,0.019,0.008,0.027,0.008,0.031c0.004,0.004,0.016,0.008,0.035,0.008h0.132c0.016,0,0.027,0,0.031-0.004
			c0.004-0.004,0.008-0.008,0.008-0.019c0-0.004,0-0.012-0.004-0.019l-0.112-0.748c-0.004-0.016-0.008-0.027-0.012-0.031
			c-0.004-0.004-0.016-0.008-0.031-0.008h-0.143c-0.016,0-0.027,0-0.031,0.004c-0.004,0.004-0.008,0.012-0.016,0.027l-0.167,0.411
			L73.117,12.209z M72.651,12.36c0.019,0,0.031-0.004,0.035-0.008s0.008-0.016,0.008-0.035v-0.101c0-0.019-0.004-0.031-0.008-0.035
			c-0.004-0.004-0.016-0.008-0.035-0.008h-0.489c-0.019,0-0.031,0.004-0.035,0.008c-0.004,0.004-0.008,0.016-0.008,0.035v0.101
			c0,0.019,0.004,0.031,0.008,0.035s0.016,0.008,0.035,0.008h0.136v0.605c0,0.019,0.004,0.031,0.008,0.035s0.016,0.008,0.035,0.008
			h0.132c0.019,0,0.031-0.004,0.035-0.008s0.008-0.016,0.008-0.035V12.36H72.651z"/>
	</g>
</g>
</svg>
