<?xml version="1.0" encoding="utf-8"?>
<!-- Generator: Adobe Illustrator 24.0.0, SVG Export Plug-In . SVG Version: 6.00 Build 0)  -->
<svg version="1.1" id="Layer_1" xmlns="http://www.w3.org/2000/svg" xmlns:xlink="http://www.w3.org/1999/xlink" x="0px" y="0px"
	 viewBox="0 0 100 30" style="enable-background:new 0 0 100 30;" xml:space="preserve">
<g>
	<path d="M36.44,10.891c-0.012-0.229-0.064-0.449-0.171-0.651c-0.335-0.633-0.858-0.979-1.579-0.987
		c-0.859-0.009-1.717-0.003-2.576-0.002c-0.76,0-1.52-0.008-2.28,0.004c-0.803,0.013-1.482,0.58-1.662,1.359
		c-0.014,0.06-0.046,0.115-0.07,0.172c0,2.439,0,4.877,0,7.316c0.021,0.025,0.052,0.046,0.062,0.075
		c0.089,0.27,0.272,0.442,0.538,0.533c0.01,0.004,0.019,0.013,0.028,0.02c0.139,0,0.279,0,0.418,0
		c0.04-0.022,0.078-0.045,0.119-0.066c0.271-0.136,0.424-0.353,0.452-0.655c0.008-0.081,0.006-0.162,0.007-0.243
		c0-2.194,0-4.388,0-6.582c0-0.33,0.008-0.338,0.345-0.338c0.383,0,0.766-0.001,1.149,0c0.24,0.001,0.269,0.029,0.269,0.273
		c0,2.246,0.001,4.493-0.001,6.739c0,0.284,0.078,0.528,0.305,0.707c0.085,0.067,0.187,0.111,0.282,0.165c0.139,0,0.279,0,0.418,0
		c0.443-0.172,0.6-0.499,0.597-0.968c-0.013-2.199-0.006-4.398-0.006-6.598c0-0.299,0.02-0.319,0.313-0.319c0.389,0,0.778,0,1.166,0
		c0.26,0,0.29,0.03,0.29,0.29c0,2.205,0,4.41,0,6.615c0,0.064-0.001,0.128,0.001,0.191c0.01,0.364,0.19,0.61,0.522,0.751
		c0.026,0.011,0.052,0.025,0.078,0.037c0.139,0,0.279,0,0.418,0c0.039-0.022,0.078-0.046,0.118-0.066
		c0.278-0.139,0.429-0.363,0.453-0.672c0.005-0.064,0.004-0.128,0.004-0.191c0-2.222,0-4.444,0-6.666
		C36.445,11.054,36.444,10.972,36.44,10.891z"/>
	<path d="M73.753,14.677c-0.078-0.401-0.281-0.734-0.592-0.998c-0.071-0.06-0.091-0.116-0.069-0.209
		c0.028-0.118,0.041-0.241,0.041-0.362c0.004-0.708,0.009-1.417,0-2.125c-0.007-0.582-0.251-1.054-0.722-1.4
		C72.091,9.35,71.73,9.249,71.333,9.25c-1.091,0.004-2.183,0.001-3.274,0.001c-0.174,0-0.348-0.003-0.522,0.003
		c-0.364,0.014-0.664,0.27-0.733,0.628c-0.019,0.096-0.023,0.196-0.023,0.294c-0.001,2.548-0.001,5.097-0.001,7.645
		c0,0.046-0.002,0.093,0.001,0.139c0.024,0.328,0.178,0.569,0.48,0.711c0.036,0.017,0.069,0.038,0.104,0.057
		c1.661,0,3.321,0,4.982,0c0.021-0.01,0.04-0.025,0.062-0.029c0.714-0.139,1.403-0.794,1.395-1.781
		c-0.005-0.598-0.002-1.196-0.008-1.794C73.792,14.976,73.781,14.824,73.753,14.677z M68.376,11.084
		c0.001-0.174,0.064-0.236,0.246-0.237c0.47-0.003,0.939-0.001,1.409-0.001c0.406,0,0.812,0,1.218,0
		c0.052,0,0.105-0.001,0.156,0.005c0.079,0.009,0.123,0.059,0.133,0.137c0.003,0.023,0.002,0.046,0.002,0.069
		c0,0.615,0.001,1.229-0.001,1.844c-0.001,0.176-0.051,0.221-0.233,0.221c-0.447,0.001-0.893,0-1.34,0c-0.447,0-0.893,0.001-1.34,0
		c-0.189,0-0.251-0.059-0.252-0.248C68.373,12.279,68.374,11.681,68.376,11.084z M71.963,17.148c-1.113,0.002-2.227,0.002-3.34,0
		c-0.176,0-0.247-0.068-0.248-0.24c-0.003-0.609-0.003-1.218,0-1.826c0.001-0.157,0.073-0.22,0.244-0.221
		c0.557-0.002,1.113-0.001,1.67-0.001c0.551,0,1.102-0.001,1.652,0c0.196,0,0.259,0.061,0.26,0.259
		c0.003,0.597,0.004,1.194,0.003,1.792C72.205,17.094,72.151,17.148,71.963,17.148z"/>
	<path d="M44.438,13.507c0-0.297-0.073-0.576-0.222-0.831c-0.354-0.601-0.888-0.901-1.582-0.904
		c-1.445-0.005-2.891-0.002-4.336-0.001c-0.069,0-0.14,0.004-0.208,0.015c-0.381,0.06-0.653,0.367-0.673,0.754
		c-0.019,0.373,0.24,0.719,0.612,0.805c0.089,0.021,0.184,0.02,0.277,0.02c1.399,0.001,2.798,0.001,4.197,0.001
		c0.052,0,0.105-0.003,0.157,0.001c0.123,0.011,0.174,0.065,0.182,0.187c0.002,0.029,0,0.058,0,0.087
		c0.002,1.051,0.003,2.101,0.005,3.152c0,0.052,0.002,0.105-0.001,0.157c-0.007,0.136-0.055,0.185-0.192,0.196
		c-0.046,0.004-0.093,0.001-0.139,0.001c-0.766,0-1.532,0-2.299,0c-0.325,0-0.65,0.002-0.975-0.002
		c-0.17-0.002-0.22-0.053-0.222-0.219c-0.003-0.244-0.003-0.488,0-0.731c0.002-0.163,0.058-0.213,0.224-0.218
		c0.07-0.002,0.139,0,0.209,0c0.499,0,0.998,0.003,1.498-0.002c0.338-0.003,0.626-0.209,0.733-0.519
		c0.18-0.52-0.17-1.074-0.782-1.075c-0.882-0.002-1.765-0.003-2.647,0.002c-0.113,0.001-0.235,0.021-0.338,0.065
		c-0.325,0.14-0.49,0.396-0.49,0.752c-0.001,0.714,0,1.428,0,2.142c0,0.203-0.004,0.406,0.001,0.609
		c0.01,0.332,0.167,0.571,0.467,0.716c0.035,0.017,0.068,0.039,0.102,0.059c1.672,0,3.344,0,5.017,0
		c0.02-0.011,0.038-0.027,0.059-0.032c0.791-0.171,1.389-0.908,1.376-1.778C44.429,15.783,44.439,14.645,44.438,13.507z"/>
	<path d="M59.88,17.189c-0.103-0.031-0.217-0.038-0.326-0.038c-1.399-0.002-2.798-0.002-4.197-0.002
		c-0.052,0-0.105,0.002-0.157-0.002c-0.142-0.011-0.191-0.063-0.2-0.21C54.999,16.909,55,16.88,55,16.851c0-1.062,0-2.125,0-3.187
		c0-0.041-0.003-0.082,0.003-0.122c0.014-0.103,0.067-0.153,0.171-0.164c0.04-0.004,0.081-0.002,0.122-0.002c1.08,0,2.159,0,3.239,0
		c0.041,0,0.082-0.002,0.122,0.002c0.112,0.011,0.171,0.065,0.173,0.178c0.005,0.267,0.004,0.534,0,0.801
		c-0.002,0.096-0.055,0.148-0.149,0.162c-0.051,0.008-0.104,0.005-0.156,0.005c-0.505,0-1.01-0.003-1.515,0.002
		c-0.115,0.001-0.234,0.012-0.343,0.046c-0.363,0.113-0.592,0.486-0.536,0.855c0.061,0.405,0.367,0.688,0.771,0.69
		c0.917,0.005,1.834,0.006,2.751,0c0.443-0.003,0.774-0.348,0.776-0.794c0.003-0.604,0.003-1.207,0-1.811
		c-0.005-0.928-0.774-1.718-1.703-1.726c-1.201-0.011-2.403-0.004-3.605-0.002c-0.365,0.001-0.697,0.117-0.988,0.335
		c-0.49,0.366-0.724,0.862-0.724,1.471c0,1.115,0,2.229,0,3.344c0,0.075,0.004,0.151,0.012,0.226
		c0.07,0.708,0.558,1.299,1.241,1.506c0.066,0.02,0.131,0.043,0.196,0.065c1.661,0,3.321,0,4.982,0
		c0.052-0.025,0.104-0.049,0.155-0.075c0.292-0.148,0.461-0.455,0.434-0.79C60.403,17.56,60.183,17.278,59.88,17.189z"/>
	<path d="M81.188,12.207c-0.353-0.309-0.77-0.434-1.235-0.433c-1.109,0.003-2.217,0.001-3.326,0.001
		c-0.081,0-0.163,0.002-0.243,0.009c-0.898,0.073-1.601,0.806-1.609,1.708c-0.011,1.178-0.011,2.357,0,3.535
		c0.008,0.795,0.569,1.474,1.341,1.662c0.045,0.011,0.088,0.026,0.132,0.04c1.359,0,2.717,0,4.076,0
		c0.027-0.011,0.053-0.024,0.08-0.031c0.836-0.202,1.381-0.854,1.39-1.709c0.013-1.155,0.007-2.31,0.001-3.465
		C81.793,12.998,81.586,12.556,81.188,12.207z M80.205,16.825c0,0.292-0.028,0.32-0.317,0.32c-1.073,0-2.146-0.001-3.219-0.001
		c-0.035,0-0.07,0.001-0.104-0.001c-0.146-0.01-0.191-0.057-0.199-0.207c-0.002-0.035-0.001-0.07-0.001-0.104c0-1.05,0-2.1,0-3.15
		c0-0.041-0.002-0.081,0.001-0.122c0.01-0.124,0.061-0.176,0.184-0.188c0.046-0.005,0.093-0.002,0.139-0.002
		c0.534,0,1.067,0,1.601,0c0.522,0,1.044,0,1.566,0c0.041,0,0.081-0.001,0.122,0c0.168,0.007,0.218,0.055,0.227,0.218
		c0.002,0.035,0.001,0.07,0.001,0.104C80.205,14.736,80.205,15.78,80.205,16.825z"/>
	<path d="M52.428,16.007c-0.059-0.667-0.403-1.147-0.996-1.45c-0.242-0.124-0.505-0.165-0.775-0.175
		c-0.159-0.005-0.204-0.052-0.211-0.21c-0.002-0.046-0.001-0.093-0.001-0.139c0-0.488,0.004-0.975-0.002-1.463
		c-0.004-0.354-0.205-0.632-0.525-0.747c-0.312-0.112-0.646-0.026-0.871,0.226c-0.142,0.16-0.197,0.35-0.196,0.561
		c0.001,0.505,0.001,1.01,0,1.515c0,0.217-0.039,0.256-0.252,0.257c-0.447,0.001-0.894,0-1.341,0c-0.029,0-0.058,0.001-0.087-0.002
		c-0.099-0.012-0.145-0.057-0.155-0.154c-0.005-0.046-0.001-0.093-0.001-0.139c0-1.295,0-2.589,0-3.884
		c0-0.07,0.002-0.14-0.005-0.209c-0.052-0.535-0.557-0.872-1.054-0.703c-0.325,0.11-0.538,0.403-0.538,0.755
		c-0.002,1.231-0.001,2.461-0.001,3.692c0,1.393,0,2.786,0.001,4.18c0,0.368,0.179,0.631,0.515,0.772
		c0.026,0.011,0.05,0.026,0.075,0.039c0.139,0,0.279,0,0.418,0c0.024-0.014,0.048-0.03,0.073-0.042
		c0.347-0.151,0.513-0.421,0.515-0.794c0.003-0.54,0.001-1.079,0.001-1.619c0-0.046-0.001-0.093,0.002-0.139
		c0.006-0.088,0.06-0.136,0.141-0.153c0.039-0.008,0.081-0.005,0.121-0.005c1.097,0,2.193,0,3.29,0c0.035,0,0.07-0.002,0.104,0.002
		c0.103,0.013,0.155,0.064,0.169,0.167c0.007,0.051,0.004,0.104,0.004,0.156c0,0.516,0,1.033,0,1.549
		c0,0.452,0.153,0.681,0.569,0.855c0.01,0.004,0.019,0.013,0.028,0.02c0.139,0,0.279,0,0.418,0c0.007-0.008,0.013-0.021,0.023-0.025
		c0.401-0.153,0.564-0.453,0.556-0.87c-0.007-0.389-0.001-0.778-0.002-1.167C52.437,16.448,52.447,16.226,52.428,16.007z"/>
	<path d="M86.905,17.352c-0.157-0.145-0.345-0.204-0.557-0.204c-0.557,0.002-1.114,0.001-1.671,0c-0.052,0-0.105,0.003-0.156-0.004
		c-0.108-0.014-0.152-0.062-0.162-0.17c-0.005-0.052-0.002-0.104-0.002-0.157c0-1.039,0-2.078,0-3.116
		c0-0.316,0.013-0.327,0.338-0.328c0.319-0.001,0.639,0.011,0.957-0.011c0.415-0.028,0.721-0.388,0.711-0.803
		c-0.01-0.419-0.328-0.752-0.743-0.776c-0.081-0.005-0.162-0.002-0.244-0.002c-0.267,0-0.534,0.003-0.801-0.002
		c-0.17-0.003-0.213-0.051-0.217-0.222c-0.002-0.099,0.002-0.197-0.002-0.296c-0.012-0.27-0.114-0.497-0.342-0.652
		c-0.262-0.178-0.545-0.198-0.824-0.053c-0.287,0.149-0.427,0.398-0.427,0.723c0,1.903-0.003,3.807,0.002,5.71
		c0.002,0.807,0.524,1.475,1.301,1.693c0.043,0.012,0.085,0.031,0.127,0.046c0.801,0,1.603,0,2.404,0
		c0.039-0.022,0.077-0.046,0.118-0.066C87.227,18.412,87.326,17.74,86.905,17.352z"/>
	<path d="M64.977,11.773c-0.604-0.003-1.208-0.003-1.811,0.001c-0.215,0.001-0.426,0.039-0.63,0.116
		c-0.65,0.245-1.139,0.896-1.134,1.661c0.007,1.266,0.002,2.531,0.002,3.797c0,0.209-0.005,0.418,0.002,0.627
		c0.011,0.319,0.171,0.546,0.453,0.69c0.046,0.023,0.093,0.045,0.14,0.067c0.139,0,0.279,0,0.418,0
		c0.013-0.011,0.024-0.026,0.039-0.032C62.84,18.548,63,18.256,63,17.855c-0.002-1.382-0.001-2.763-0.001-4.145
		c0-0.046-0.002-0.093,0.001-0.139c0.007-0.146,0.056-0.194,0.203-0.202c0.046-0.003,0.093-0.001,0.139-0.001
		c0.563,0,1.126,0.006,1.689-0.002c0.588-0.009,0.96-0.624,0.696-1.146C65.574,11.915,65.313,11.774,64.977,11.773z"/>
	<path d="M25.463,12.607c-0.173-0.797-0.465-1.547-0.876-2.251c-0.431-0.737-0.971-1.383-1.617-1.941
		c-0.554-0.479-1.163-0.87-1.83-1.174c-0.927-0.422-1.9-0.651-2.919-0.687c-0.368-0.013-0.735,0.001-1.1,0.039
		c-0.24,0.025-0.478,0.063-0.715,0.111c-0.606,0.124-1.188,0.319-1.747,0.584c-0.718,0.34-1.367,0.782-1.948,1.325
		c-0.286,0.267-0.553,0.553-0.794,0.861c-1.017,1.303-1.566,2.779-1.644,4.43c-0.001,0.03-0.009,0.06-0.014,0.09
		c0,0.161,0,0.322,0,0.483c0.005,0.03,0.012,0.06,0.014,0.09c0.014,0.179,0.023,0.359,0.042,0.538
		c0.035,0.33,0.093,0.657,0.175,0.98c0.405,1.594,1.231,2.929,2.479,4.001c0.822,0.706,1.756,1.208,2.794,1.518
		c0.428,0.128,0.865,0.216,1.309,0.267c0.237,0.027,0.475,0.042,0.714,0.047c0.352,0.007,0.702-0.008,1.052-0.048
		c0.288-0.033,0.573-0.082,0.855-0.148c0.689-0.161,1.344-0.412,1.964-0.753c0.799-0.44,1.497-1.006,2.095-1.694
		c0.744-0.855,1.271-1.829,1.587-2.918c0.096-0.332,0.169-0.669,0.217-1.011c0.022-0.159,0.039-0.319,0.054-0.48
		c0.018-0.188,0.02-0.377,0.021-0.566c0.002-0.299-0.006-0.597-0.039-0.894C25.562,13.139,25.52,12.872,25.463,12.607z
		 M17.946,20.854c-3.66-0.002-6.613-2.968-6.614-6.62c0.004-3.678,2.989-6.617,6.617-6.618c3.652-0.001,6.619,2.966,6.62,6.618
		C24.57,17.861,21.632,20.856,17.946,20.854z"/>
	<path d="M22.131,11.249c-0.006-0.197-0.033-0.39-0.091-0.579c-0.107-0.351-0.301-0.648-0.563-0.902
		c-0.172-0.167-0.364-0.303-0.583-0.401C20.62,9.244,20.33,9.19,20.029,9.19c-1.385,0.001-2.769,0-4.154,0.001
		c-0.098,0-0.196,0.007-0.293,0.017c-0.25,0.028-0.486,0.103-0.706,0.223c-0.224,0.122-0.415,0.283-0.583,0.473
		c-0.213,0.242-0.366,0.517-0.45,0.829c-0.052,0.195-0.073,0.394-0.073,0.595c0,1.192,0,2.383,0,3.575c0,0.965,0,1.929,0,2.894
		c0,0.103,0.005,0.205,0.03,0.305c0.085,0.332,0.288,0.553,0.62,0.647c0.167,0.047,0.339,0.048,0.509,0.012
		c0.337-0.07,0.565-0.27,0.675-0.597c0.04-0.119,0.048-0.243,0.048-0.368c-0.001-2.212,0-4.423,0-6.635c0-0.013,0-0.026,0-0.04
		c0.001-0.011,0.002-0.022,0.003-0.033c0.101-0.01,1.335-0.005,1.368,0.005c0,0.02,0,0.04,0,0.061c0,2.219,0,4.438,0,6.657
		c0,0.106,0.008,0.211,0.036,0.313c0.079,0.296,0.255,0.506,0.549,0.607c0.165,0.057,0.336,0.064,0.507,0.04
		c0.347-0.047,0.581-0.237,0.703-0.564c0.048-0.128,0.06-0.262,0.06-0.397c0-1.05,0-2.099,0-3.149c0-1.171,0-2.342,0-3.513
		c0-0.02,0-0.04,0-0.062c0.459,0,0.912,0,1.372,0c0,0.027,0,0.049,0,0.07c0,1.96,0,3.92,0,5.88c0,0.253,0,0.506,0,0.76
		c0,0.091,0.003,0.182,0.023,0.271c0.071,0.32,0.258,0.543,0.566,0.657c0.166,0.061,0.34,0.073,0.515,0.048
		c0.381-0.055,0.622-0.276,0.737-0.639c0.035-0.11,0.042-0.224,0.042-0.338c0-2.153,0-4.306,0-6.46
		C22.133,11.308,22.132,11.279,22.131,11.249z"/>
</g>
</svg>
