<?xml version="1.0" encoding="utf-8"?>
<!-- Generator: Adobe Illustrator 24.0.0, SVG Export Plug-In . SVG Version: 6.00 Build 0)  -->
<svg version="1.1" id="Layer_1" xmlns="http://www.w3.org/2000/svg" xmlns:xlink="http://www.w3.org/1999/xlink" x="0px" y="0px"
	 viewBox="0 0 100 30" style="enable-background:new 0 0 100 30;" xml:space="preserve">
<g>
	<path d="M52.03,19.924c0-0.107-0.056-0.145-0.158-0.108c-0.273,0.1-0.546,0.203-0.819,0.306c-0.102,0.038-0.192,0.096-0.265,0.178
		c-0.253,0.283-0.144,0.65,0.229,0.742c0.314,0.079,0.607,0.019,0.869-0.175c0.083-0.061,0.129-0.138,0.124-0.244
		c-0.005-0.112-0.002-0.225-0.002-0.339h0.022C52.03,20.164,52.03,20.045,52.03,19.924"/>
	<path d="M68.722,16.796c-0.005,0.152-0.029,0.166-0.183,0.15c-0.066-0.007-0.076-0.037-0.073-0.091
		c0.003-0.056,0.002-0.112,0.003-0.169c0-0.052,0-0.105,0-0.182c-0.061,0.082-0.088,0.152-0.117,0.222
		c-0.015,0.038-0.02,0.094-0.081,0.075c-0.07-0.021-0.166,0.037-0.205-0.072c-0.029-0.082-0.066-0.162-0.102-0.243
		c-0.007,0-0.015,0-0.024,0.002c0,0.119-0.003,0.238,0.002,0.356c0.002,0.063-0.02,0.084-0.081,0.072
		c-0.036-0.007-0.071-0.01-0.107-0.012c-0.056-0.002-0.078-0.028-0.07-0.08c0.044-0.283,0.012-0.566,0.015-0.849
		c0-0.086,0.034-0.11,0.11-0.117c0.195-0.017,0.21-0.01,0.27,0.171c0.041,0.12,0.081,0.239,0.131,0.381
		c0.063-0.145,0.129-0.264,0.166-0.391c0.037-0.126,0.114-0.148,0.231-0.147c0.102,0.003,0.148,0.026,0.141,0.14
		C68.732,16.272,68.732,16.534,68.722,16.796 M67.59,15.991c0.002,0.052-0.003,0.103-0.087,0.103
		c-0.165-0.002-0.166,0.003-0.175,0.162c-0.01,0.183-0.022,0.368-0.022,0.552c0,0.105-0.066,0.089-0.129,0.086
		c-0.07-0.002-0.131-0.007-0.124-0.105c0.008-0.105,0.002-0.211,0.002-0.318c0.005,0,0.01,0,0.015,0c0-0.103-0.003-0.206,0-0.307
		c0.003-0.059-0.014-0.086-0.076-0.077c-0.014,0.002-0.029-0.003-0.042-0.005c-0.127-0.009-0.178-0.103-0.12-0.211
		c0.017-0.031,0.046-0.03,0.075-0.031c0.202-0.01,0.405,0,0.607,0.016C67.607,15.86,67.589,15.937,67.59,15.991 M66.851,17.423
		c-0.446,1.114-0.869,2.239-1.321,3.351c-0.197,0.48-0.363,0.974-0.563,1.455c-0.093,0.224-0.198,0.44-0.316,0.651
		c-0.187,0.335-0.485,0.505-0.858,0.564c-0.265,0.042-0.531,0.065-0.833,0.075c-0.078-0.005-0.215,0.044-0.295-0.016
		c-0.085-0.066-0.02-0.204-0.022-0.309c-0.003-0.124,0.015-0.248,0.012-0.37c-0.002-0.091,0.044-0.098,0.114-0.093
		c0.166,0.014,0.332,0.023,0.499-0.007c0.187-0.033,0.324-0.131,0.409-0.297c0.027-0.054,0.053-0.11,0.078-0.164
		c0.226-0.492,0.234-0.494,0.064-1.011c-0.363-1.111-0.66-2.241-1.009-3.355c-0.07-0.222-0.115-0.452-0.176-0.678
		c-0.019-0.068-0.019-0.093,0.066-0.091c0.341,0.014,0.68,0.021,1.021,0.026c0.08,0.002,0.1,0.042,0.117,0.108
		c0.219,0.831,0.441,1.663,0.692,2.485c0.005,0.016,0.015,0.031,0.017,0.049c0.007,0.051,0.042,0.059,0.085,0.065
		c0.051,0.005,0.066-0.024,0.081-0.065c0.305-0.805,0.68-1.584,0.93-2.408c0.032-0.107,0.087-0.14,0.197-0.133
		c0.31,0.019,0.623,0.012,0.933,0.038C66.88,17.304,66.886,17.334,66.851,17.423 M62.257,16.731
		c-0.17,0.148-0.183,0.344-0.149,0.547c0.017,0.103,0.049,0.203,0.078,0.318c-0.154-0.096-0.258-0.227-0.402-0.311
		c-0.248-0.143-0.519-0.206-0.797-0.258c-0.421-0.08-0.84-0.033-1.257,0.033c-0.071,0.01-0.11-0.028-0.149-0.063
		c-0.305-0.265-0.606-0.533-0.908-0.8c-0.095-0.086-0.212-0.101-0.332-0.107c-0.382-0.014-0.763-0.03-1.147-0.04
		c-0.088-0.003-0.075-0.049-0.068-0.107c0.019-0.164,0.027-0.33-0.005-0.496c-0.041-0.199-0.207-0.299-0.344-0.421
		c-0.271-0.243-0.546-0.48-0.821-0.719c-0.032-0.028-0.046-0.047-0.037-0.096c0.029-0.162-0.041-0.32-0.051-0.48
		c-0.002-0.021-0.007-0.042-0.014-0.082c0.127,0.089,0.244,0.161,0.385,0.175c0.115,0.012,0.229,0.028,0.344,0.033
		c0.278,0.012,0.556,0.01,0.833,0.03c0.183,0.01,0.368-0.068,0.455-0.224c0.059-0.105,0.073-0.22,0.075-0.337
		c0.047-0.012,0.07,0.021,0.095,0.044c0.163,0.143,0.324,0.29,0.489,0.433c0.097,0.086,0.221,0.105,0.343,0.117
		c0.11,0.01,0.224,0.017,0.334,0.019c0.351,0.003,0.701,0.042,1.052,0.026c0.075-0.005,0.132,0.019,0.183,0.072
		c0.258,0.26,0.556,0.47,0.872,0.657c0.17,0.1,0.365,0.131,0.556,0.164c0.265,0.044,0.533,0.052,0.799,0.04
		c0.148-0.007,0.297-0.014,0.439-0.054c0.07-0.019,0.1,0,0.098,0.075c-0.007,0.192,0.092,0.332,0.239,0.452
		c0.202,0.164,0.394,0.342,0.589,0.513c0.129,0.114,0.254,0.231,0.388,0.339c0.109,0.086,0.249,0.098,0.38,0.098
		c0.506,0,1.009-0.028,1.498-0.173c0.048-0.016,0.07-0.012,0.087,0.038c0.036,0.098,0.097,0.18,0.183,0.244
		c0.046,0.033,0.071,0.267,0.037,0.311c-0.036,0.045-0.088,0.033-0.132,0.026c-0.248-0.035-0.499-0.014-0.748-0.017
		c-0.266-0.005-0.458,0.131-0.546,0.382c-0.042,0.12-0.087,0.241-0.124,0.361c-0.019,0.058-0.036,0.059-0.08,0.021
		c-0.278-0.246-0.558-0.489-0.836-0.735c-0.112-0.098-0.246-0.133-0.39-0.136c-0.353-0.009-0.707-0.005-1.062-0.026
		C62.525,16.607,62.379,16.623,62.257,16.731 M62.052,21.499c-0.494,0.421-1.06,0.639-1.746,0.597c-0.18,0-0.388,0.002-0.578-0.065
		c-0.446-0.157-0.836-0.381-0.969-0.88c-0.178-0.665-0.302-1.339-0.358-2.024c-0.032-0.388,0.093-0.732,0.332-1.029
		c0.166-0.21,0.405-0.346,0.663-0.426c0.567-0.18,1.145-0.229,1.732-0.093c0.578,0.133,0.852,0.538,0.982,1.06
		c0.07,0.274,0.1,0.557,0.154,0.835c0.019,0.091-0.008,0.126-0.1,0.14c-0.784,0.114-1.557,0.288-2.344,0.37
		c-0.078,0.009-0.114,0.026-0.09,0.115c0.064,0.253,0.115,0.512,0.18,0.765c0.066,0.26,0.239,0.374,0.514,0.342
		c0.129-0.016,0.256-0.044,0.382-0.077c0.256-0.068,0.383-0.239,0.419-0.485c0.01-0.07,0.019-0.141,0.017-0.211
		c-0.002-0.098,0.046-0.138,0.139-0.152c0.297-0.045,0.592-0.093,0.887-0.147c0.076-0.014,0.088,0.031,0.103,0.077
		C62.496,20.612,62.459,21.15,62.052,21.499 M58.267,16.698c-0.49,0.667-0.964,1.346-1.527,1.959
		c-0.083,0.091-0.066,0.169-0.008,0.265c0.448,0.744,0.892,1.488,1.335,2.227c-0.204,0-0.407,0.002-0.611-0.002
		c-0.188-0.003-0.375-0.019-0.563-0.021c-0.09,0-0.136-0.033-0.176-0.108c-0.331-0.634-0.689-1.252-1.074-1.856
		c-0.032-0.051-0.056-0.093-0.132-0.075c-0.081,0.017-0.061,0.077-0.064,0.126c-0.032,0.589-0.063,1.179-0.092,1.769
		c-0.003,0.075-0.02,0.112-0.112,0.107c-0.314-0.021-0.628-0.03-0.943-0.047c-0.119-0.005-0.142-0.038-0.127-0.19
		c0.029-0.29,0.044-0.578,0.051-0.87c0.008-0.459-0.002-0.919,0.027-1.378c0.036-0.575,0.071-1.151,0.103-1.725
		c0.041-0.711,0.076-1.422,0.11-2.131c0.003-0.08,0.032-0.105,0.11-0.103c0.234,0.003,0.468-0.017,0.704-0.005
		c0.344,0.017,0.368,0.033,0.358,0.365c-0.036,1.079-0.09,2.157-0.166,3.232c-0.008,0.122-0.01,0.246,0.007,0.398
		c0.249-0.328,0.483-0.634,0.718-0.94c0.268-0.348,0.538-0.693,0.804-1.044c0.051-0.066,0.107-0.094,0.192-0.091
		c0.344,0.016,0.687,0.028,1.03,0.042c0.029,0,0.07-0.002,0.08,0.014C58.321,16.648,58.286,16.674,58.267,16.698 M53.943,14.807
		c-0.025,0.278-0.029,0.557-0.048,0.835c-0.027,0.433-0.036,0.866-0.078,1.298c-0.017,0.173-0.01,0.346-0.022,0.519
		c-0.008,0.126-0.029,0.253-0.025,0.381c0,0.016,0.005,0.037-0.015,0.045c-0.025,0.012-0.039-0.01-0.054-0.023
		c-0.142-0.126-0.292-0.243-0.426-0.377c-0.419-0.417-0.945-0.606-1.522-0.695c-0.565-0.086-1.113-0.023-1.647,0.168
		c-0.017,0.005-0.036,0.01-0.053,0.017c-0.175,0.07-0.176,0.07-0.175-0.112c0.002-0.18-0.036-0.36-0.022-0.54
		c0.007-0.091,0.027-0.178,0.014-0.272c-0.031-0.213-0.19-0.325-0.334-0.452c-0.207-0.182-0.414-0.361-0.621-0.543
		c-0.083-0.073-0.165-0.148-0.253-0.215c-0.117-0.089-0.265-0.086-0.402-0.11c-0.307-0.052-0.619-0.049-0.93-0.04
		c-0.212,0.005-0.426,0.021-0.631,0.07c-0.261,0.059-0.438,0.215-0.485,0.482c-0.049,0.283-0.156,0.55-0.231,0.826
		c-0.022,0.082-0.049,0.161-0.073,0.238c-0.036,0.007-0.042-0.014-0.044-0.028c-0.036-0.269-0.212-0.447-0.412-0.611
		c-0.173-0.143-0.344-0.29-0.512-0.44c-0.163-0.143-0.309-0.307-0.521-0.386c0.078-0.134,0.166-0.265,0.261-0.389
		c-0.048-0.037-0.097-0.073-0.142-0.112c0.046,0.038,0.095,0.075,0.142,0.112c0.309,0.051,0.619,0.1,0.935,0.087
		c0.234-0.009,0.467-0.038,0.694-0.096c0.183-0.044,0.31-0.227,0.331-0.416c0.022-0.211,0.015-0.423,0.02-0.641
		c0.093,0.023,0.148,0.096,0.2,0.155c0.153,0.173,0.353,0.204,0.567,0.211c0.285,0.009,0.568-0.028,0.85-0.07
		c0.076-0.01,0.126,0.007,0.175,0.049c0.212,0.185,0.426,0.37,0.636,0.559c0.095,0.086,0.209,0.126,0.331,0.141
		c0.275,0.033,0.55,0.033,0.824,0.019c0.222-0.012,0.444-0.037,0.64-0.162c0.098-0.063,0.171-0.148,0.202-0.255
		c0.032-0.103,0.064-0.065,0.114-0.019c0.163,0.148,0.319,0.307,0.512,0.423c0.327,0.194,0.677,0.325,1.059,0.381
		c0.36,0.052,0.702-0.024,1.045-0.112C53.95,14.671,53.955,14.671,53.943,14.807 M53.312,21.822
		c-0.048,0.056-0.129,0.023-0.197,0.024c-0.159,0.003-0.319-0.003-0.478,0.003c-0.078,0.002-0.126-0.023-0.166-0.089
		c-0.042-0.072-0.064-0.183-0.146-0.199c-0.08-0.017-0.131,0.086-0.197,0.133c-0.253,0.182-0.55,0.243-0.848,0.306
		c-0.512,0.108-0.964-0.052-1.389-0.306c-0.283-0.171-0.353-0.456-0.404-0.754c-0.064-0.377,0.068-0.69,0.309-0.967
		c0.1-0.115,0.249-0.166,0.375-0.25c0.377-0.246,0.806-0.379,1.228-0.524c0.139-0.049,0.282-0.091,0.422-0.136
		c0.139-0.045,0.161-0.077,0.153-0.215c-0.002-0.016-0.007-0.03-0.003-0.044c0.049-0.353-0.214-0.578-0.577-0.643
		c-0.446-0.08-0.857,0.187-0.918,0.601c-0.003,0.021-0.012,0.044-0.005,0.063c0.042,0.12-0.012,0.14-0.126,0.143
		c-0.151,0.005-0.304,0.009-0.456,0.01c-0.137-0.002-0.275-0.003-0.412,0c-0.061,0.002-0.087-0.023-0.087-0.079
		c-0.007-0.234-0.003-0.468,0.075-0.693c0.058-0.169,0.165-0.299,0.3-0.419c0.197-0.171,0.399-0.325,0.657-0.4
		c0.687-0.196,1.354-0.154,2.014,0.122c0.4,0.168,0.558,0.485,0.616,0.871c0.056,0.377,0.063,0.761,0.088,1.142
		c0.046,0.713,0.07,1.427,0.153,2.138C53.298,21.717,53.349,21.78,53.312,21.822 M48.374,21.623
		c-0.316,0.061-0.633,0.038-0.952,0.012c-0.059-0.005-0.076-0.042-0.088-0.089c-0.046-0.192-0.036-0.388-0.042-0.582
		c-0.027-0.887-0.053-1.776-0.076-2.663c-0.003-0.091-0.01-0.178-0.117-0.231c-0.271,0.781-0.556,1.551-0.785,2.34
		c-0.037,0.126-0.076,0.25-0.112,0.377c-0.019,0.068-0.051,0.107-0.132,0.114c-0.244,0.021-0.487,0.058-0.735,0.049
		c-0.073-0.003-0.105-0.031-0.131-0.098c-0.346-0.868-0.694-1.738-1.042-2.606c-0.014-0.033-0.029-0.065-0.042-0.098
		c-0.012-0.026-0.02-0.054-0.061-0.045c-0.034,0.009-0.075,0.007-0.088,0.051c-0.014,0.051-0.024,0.101-0.024,0.155
		c0.007,0.826,0.037,1.649,0.095,2.473c0.02,0.274,0.058,0.548,0.015,0.826c-0.007,0.051-0.022,0.07-0.075,0.08
		c-0.353,0.065-0.706,0.058-1.059,0.005c-0.046-0.005-0.064-0.026-0.064-0.077c-0.003-0.807-0.076-1.61-0.093-2.417
		c-0.019-0.85-0.039-1.699-0.066-2.548c-0.012-0.384-0.073-0.767-0.066-1.153c0-0.096,0.019-0.131,0.124-0.141
		c0.49-0.056,0.979-0.098,1.471-0.016c0.1,0.017,0.159,0.093,0.137,0.194c-0.005,0.023-0.022,0.045,0,0.068
		c0.144,0.161,0.17,0.37,0.239,0.562c0.295,0.819,0.582,1.642,0.87,2.462c0.042,0.122,0.073,0.248,0.132,0.374
		c0.046-0.112,0.102-0.222,0.137-0.339c0.321-1.05,0.638-2.099,0.955-3.15c0.01-0.033,0.029-0.07,0.024-0.101
		c-0.017-0.131,0.068-0.155,0.17-0.169c0.468-0.063,0.938-0.065,1.406,0.012c0.046,0.007,0.085,0.009,0.076,0.072
		c-0.042,0.297,0.012,0.592,0.015,0.889c0.003,0.358,0.005,0.716,0.014,1.072c0.019,0.807,0.036,1.614,0.063,2.42
		c0.02,0.571,0.061,1.144,0.066,1.715C48.536,21.591,48.538,21.591,48.374,21.623 M41.11,11.066c-0.097,0.134-0.182,0.278-0.28,0.41
		c-0.254,0.349-0.517,0.693-0.746,1.057c-0.234,0.37-0.49,0.723-0.741,1.079c-0.041,0.058-0.078,0.119-0.112,0.18
		c-0.061,0.108-0.093,0.215-0.056,0.346c0.047,0.166,0.054,0.342,0.1,0.506c0.075,0.278,0.1,0.562,0.173,0.838
		c0.141,0.52,0.232,1.051,0.37,1.572c0.105,0.395,0.198,0.791,0.305,1.184c0.126,0.465,0.239,0.933,0.349,1.402
		c0.031,0.134-0.051,0.204-0.129,0.279c-0.244,0.231-0.546,0.248-0.867,0.248c-0.222,0-0.422-0.072-0.631-0.112
		c-0.375-0.07-0.735-0.208-1.109-0.29c-0.617-0.136-1.23-0.299-1.851-0.43c-1.001-0.211-1.998-0.43-2.998-0.644
		c-0.748-0.162-1.493-0.33-2.241-0.489c-0.819-0.173-1.625-0.398-2.443-0.583c-0.307-0.07-0.443-0.283-0.524-0.555
		c-0.102-0.334-0.081-0.658,0.078-0.966c0.165-0.323,0.346-0.637,0.517-0.957c0.212-0.395,0.422-0.791,0.629-1.188
		c0.39-0.746,0.789-1.49,1.165-2.242c0.187-0.375,0.456-0.693,0.699-1.029c0.896-1.236,1.796-2.469,2.716-3.688
		c0.236-0.313,0.533-0.526,0.938-0.568c0.271-0.038,0.526,0.051,0.784,0.1c0.467,0.091,0.928,0.206,1.396,0.295
		c0.94,0.176,1.885,0.337,2.833,0.47c0.66,0.091,1.321,0.182,1.981,0.281c0.161,0.024,0.327,0.045,0.483,0.098
		c0.322,0.009,0.567,0.155,0.746,0.407c0.037,0.054,0.122,0.08,0.119,0.155c-0.01,0.229,0.029,0.466-0.117,0.671
		C42.138,9.626,41.629,10.35,41.11,11.066 M42.872,8.342c-0.008,0.007-0.014,0.007-0.014,0.003
		C42.859,8.349,42.864,8.349,42.872,8.342 M42.857,8.333v0.002V8.333 M43.788,6.802c0.507-0.059,1.014-0.108,1.525-0.024
		c0.109,0.019,0.168,0.089,0.148,0.197c-0.003,0.023-0.029,0.044-0.002,0.066c0.131,0.119,0.142,0.29,0.197,0.44
		c0.3,0.83,0.594,1.661,0.886,2.494c0.054,0.155,0.095,0.316,0.144,0.485c0.154-0.29,0.226-0.594,0.316-0.891
		c0.265-0.859,0.522-1.72,0.782-2.581c0.012-0.045,0.025-0.089,0.032-0.134c0.024-0.145,0.036-0.157,0.188-0.176
		c0.465-0.063,0.93-0.061,1.394,0.012c0.056,0.009,0.068,0.024,0.07,0.079c0.008,0.952,0.027,1.904,0.058,2.855
		c0.017,0.498,0.019,0.997,0.041,1.497c0.025,0.596,0.048,1.193,0.068,1.788c0.003,0.094-0.031,0.126-0.114,0.143
		c-0.336,0.066-0.67,0.047-1.006,0.019c-0.064-0.007-0.073-0.049-0.085-0.093c-0.049-0.175-0.034-0.353-0.039-0.529
		c-0.031-0.919-0.056-1.839-0.08-2.759c-0.003-0.08-0.041-0.131-0.114-0.182c-0.022,0.054-0.042,0.105-0.059,0.155
		c-0.3,0.847-0.601,1.696-0.843,2.562c-0.02,0.073-0.058,0.105-0.134,0.112c-0.234,0.023-0.467,0.052-0.702,0.052
		c-0.093,0-0.136-0.037-0.17-0.122c-0.349-0.88-0.702-1.759-1.055-2.637c-0.015-0.038-0.008-0.101-0.092-0.091
		c-0.08,0.01-0.09,0.066-0.092,0.12c-0.003,0.217,0,0.433,0,0.648c0,0.826,0.08,1.647,0.12,2.471
		c0.002,0.031-0.003,0.063-0.007,0.094c-0.019,0.253-0.02,0.251-0.28,0.281c-0.283,0.031-0.563,0.017-0.843-0.021
		c-0.056-0.007-0.08-0.024-0.081-0.086c-0.019-0.505-0.039-1.011-0.064-1.516c-0.051-1.05-0.063-2.101-0.088-3.152
		c-0.01-0.405-0.049-0.81-0.075-1.217c-0.005-0.094-0.003-0.19-0.007-0.286C43.724,6.831,43.734,6.807,43.788,6.802 M50.569,9.619
		c0.058-0.154,0.149-0.279,0.28-0.382c0.151-0.12,0.285-0.26,0.47-0.337c0.3-0.126,0.616-0.18,0.938-0.196
		c0.397-0.017,0.774,0.063,1.147,0.19c0.438,0.15,0.668,0.449,0.736,0.884c0.054,0.348,0.061,0.699,0.085,1.048
		c0.051,0.737,0.071,1.476,0.158,2.211c0,0.01,0.002,0.023,0.003,0.033c0.029,0.213,0.029,0.213-0.2,0.215
		c-0.151,0.002-0.304-0.003-0.456,0.002c-0.08,0.003-0.129-0.024-0.163-0.093c-0.025-0.051-0.063-0.096-0.088-0.147
		c-0.037-0.073-0.081-0.066-0.134-0.019c-0.37,0.341-0.843,0.43-1.316,0.44c-0.409,0.01-0.792-0.147-1.121-0.396
		c-0.195-0.148-0.261-0.365-0.309-0.592c-0.083-0.398,0.008-0.749,0.28-1.058c0.107-0.12,0.26-0.176,0.39-0.264
		c0.344-0.227,0.736-0.356,1.126-0.489c0.176-0.059,0.355-0.117,0.534-0.173c0.103-0.031,0.153-0.089,0.144-0.203
		c-0.014-0.183-0.01-0.365-0.166-0.508c-0.356-0.325-0.987-0.25-1.243,0.155c-0.075,0.119-0.11,0.246-0.088,0.384
		c0.01,0.061-0.01,0.07-0.064,0.075c-0.17,0.014-0.339,0.014-0.46,0.012c-0.195,0-0.339,0-0.485,0
		c-0.044,0.002-0.078-0.002-0.08-0.059C50.479,10.104,50.479,9.858,50.569,9.619 M55.332,10.7c0.027-1.287,0.142-2.569,0.197-3.856
		c0.008-0.211,0.02-0.424,0.025-0.636c0.002-0.091,0.027-0.136,0.132-0.131c0.21,0.012,0.419-0.017,0.629-0.003
		c0.117,0.007,0.229,0.028,0.343,0.047c0.064,0.012,0.081,0.045,0.08,0.103c-0.039,1.193-0.095,2.384-0.182,3.573
		c-0.005,0.08,0,0.161,0,0.243c0.01,0.002,0.022,0.003,0.034,0.005c0.285-0.374,0.57-0.747,0.857-1.119
		c0.215-0.281,0.434-0.559,0.648-0.84C58.145,8.019,58.201,7.994,58.287,8c0.348,0.017,0.694,0.028,1.042,0.037
		c0.081,0.002,0.087,0.026,0.044,0.086c-0.487,0.655-0.952,1.327-1.503,1.935c-0.126,0.138-0.127,0.161-0.034,0.314
		c0.439,0.732,0.879,1.463,1.316,2.195c0.005,0.009,0.005,0.019,0.008,0.042c-0.31-0.012-0.616-0.026-0.923-0.038
		c-0.049-0.002-0.102-0.014-0.151-0.005c-0.166,0.026-0.249-0.052-0.321-0.192c-0.316-0.615-0.668-1.207-1.038-1.79
		c-0.031-0.049-0.058-0.072-0.119-0.061c-0.071,0.012-0.063,0.059-0.064,0.103c-0.036,0.604-0.07,1.208-0.1,1.813
		c-0.003,0.07-0.02,0.089-0.092,0.086c-0.319-0.019-0.636-0.033-0.955-0.044c-0.103-0.003-0.141-0.047-0.132-0.147
		C55.32,11.789,55.32,11.244,55.332,10.7 M59.5,10.366c0.042-0.583,0.341-1.004,0.896-1.219c0.599-0.232,1.221-0.272,1.854-0.124
		c0.543,0.127,0.806,0.513,0.943,0.995c0.083,0.295,0.11,0.606,0.168,0.908c0.015,0.079-0.008,0.108-0.087,0.12
		c-0.782,0.115-1.557,0.288-2.344,0.372c-0.088,0.009-0.131,0.023-0.1,0.131c0.07,0.253,0.119,0.51,0.18,0.765
		c0.053,0.218,0.185,0.327,0.416,0.328c0.212,0.002,0.419-0.042,0.611-0.131c0.221-0.101,0.277-0.304,0.295-0.52
		c0.022-0.25,0.02-0.251,0.277-0.295c0.239-0.042,0.48-0.072,0.718-0.119c0.097-0.019,0.127,0.014,0.149,0.093
		c0.136,0.492,0.034,1.001-0.429,1.35c-0.461,0.346-0.97,0.541-1.559,0.515c-0.217-0.003-0.441,0.003-0.646-0.065
		c-0.434-0.145-0.818-0.353-0.967-0.828c-0.146-0.461-0.219-0.936-0.3-1.411C59.524,10.946,59.478,10.658,59.5,10.366 M63.824,8.564
		c0.158,0.009,0.317,0.003,0.477,0.003v0.03c0.163,0,0.326,0.003,0.489-0.002c0.09-0.003,0.126,0.028,0.146,0.112
		c0.188,0.753,0.404,1.497,0.614,2.242c0.027,0.096,0.061,0.189,0.09,0.285c0.012,0.042,0.032,0.065,0.083,0.065
		c0.049,0,0.07-0.024,0.085-0.065c0.307-0.81,0.682-1.596,0.938-2.427c0.027-0.089,0.07-0.117,0.166-0.112
		c0.322,0.014,0.643,0.01,0.965,0.037c0.098,0.009,0.103,0.038,0.071,0.119c-0.439,1.107-0.858,2.221-1.311,3.323
		c-0.197,0.48-0.358,0.976-0.562,1.456c-0.093,0.222-0.195,0.44-0.31,0.653c-0.19,0.355-0.494,0.54-0.891,0.599
		c-0.331,0.049-0.662,0.073-0.996,0.079c-0.156,0.002-0.158-0.005-0.153-0.154c0.007-0.176,0.019-0.353,0.02-0.531
		c0.002-0.086,0.025-0.117,0.12-0.108c0.17,0.016,0.339,0.024,0.509-0.009c0.173-0.035,0.309-0.122,0.385-0.279
		c0.097-0.199,0.183-0.402,0.275-0.601c0.024-0.052,0.014-0.101,0.002-0.155c-0.103-0.472-0.316-0.91-0.426-1.38
		c-0.187-0.8-0.482-1.568-0.697-2.361c-0.063-0.236-0.12-0.473-0.185-0.709C63.704,8.581,63.729,8.56,63.824,8.564 M71.748,16.452
		c-0.022-0.017-0.017-0.045-0.022-0.068c-0.076-0.473-0.292-0.877-0.641-1.212c-0.256-0.246-0.511-0.492-0.76-0.744
		c-0.17-0.168-0.353-0.314-0.57-0.419c-0.083-0.04-0.102-0.073-0.063-0.164c0.487-1.13,0.913-2.282,1.357-3.428
		c0.355-0.912,0.097-1.86-0.653-2.506c-0.261-0.224-0.526-0.445-0.775-0.681c-0.473-0.444-1.035-0.671-1.686-0.709
		c-0.275-0.016-0.55-0.012-0.824-0.026c-0.382-0.019-0.76,0-1.12,0.143c-0.046,0.017-0.076,0.003-0.112-0.012
		c-0.324-0.155-0.665-0.229-1.026-0.232c-0.326-0.003-0.651-0.014-0.977-0.033c-0.522-0.031-1.006,0.075-1.44,0.365
		c-0.073,0.049-0.139,0.063-0.222,0.049c-0.178-0.028-0.361-0.056-0.539-0.035c-0.246,0.028-0.422-0.054-0.59-0.224
		c-0.385-0.389-0.857-0.62-1.415-0.667c-0.046-0.005-0.059-0.03-0.08-0.059c-0.112-0.162-0.241-0.309-0.39-0.44
		c-0.321-0.278-0.64-0.555-0.955-0.836c-0.399-0.353-0.875-0.547-1.4-0.596c-0.504-0.049-1.013-0.019-1.52-0.01
		c-0.046,0-0.095,0.002-0.141,0.01c-0.894,0.192-1.491,0.713-1.776,1.565c-0.109,0.325-0.109,0.664-0.115,0.999
		c-0.002,0.089-0.032,0.096-0.109,0.084c-0.224-0.042-0.451-0.066-0.68-0.061c-0.064,0-0.095-0.024-0.126-0.075
		c-0.122-0.206-0.28-0.386-0.465-0.543c-0.304-0.262-0.604-0.527-0.906-0.795c-0.336-0.295-0.723-0.491-1.169-0.564
		c-0.64-0.105-1.281-0.131-1.925-0.059c-0.399,0.044-0.791,0.112-1.137,0.32c-0.144,0.087-0.251,0.1-0.405,0.019
		c-0.448-0.232-0.948-0.243-1.437-0.276c-0.512-0.033-1.02,0.04-1.527,0.1c-0.495,0.058-0.918,0.258-1.281,0.592
		c-0.09,0.082-0.137,0.229-0.265,0.243c-0.126,0.012-0.258-0.033-0.385-0.054c-1.052-0.182-2.102-0.361-3.152-0.543
		c-1.013-0.173-2.025-0.341-3.035-0.526c-0.807-0.147-1.576-0.054-2.307,0.316c-0.375,0.19-0.729,0.419-0.981,0.756
		c-1.174,1.577-2.339,3.159-3.505,4.74c-0.109,0.147-0.231,0.285-0.316,0.445c-0.597,1.13-1.194,2.26-1.788,3.391
		c-0.237,0.456-0.506,0.898-0.701,1.374c-0.304,0.735-0.426,1.498-0.224,2.275c0.285,1.097,0.989,1.846,2.117,2.117
		c2.07,0.499,4.153,0.947,6.231,1.418c1.522,0.344,3.042,0.69,4.563,1.034c0.723,0.164,1.445,0.203,2.17,0.017
		c0.083-0.021,0.114-0.019,0.139,0.073c0.114,0.414,0.339,0.761,0.667,1.048c0.271,0.239,0.55,0.472,0.816,0.716
		c0.316,0.288,0.663,0.515,1.089,0.606c0.69,0.147,1.384,0.159,2.081,0.044c0.516-0.087,0.969-0.285,1.33-0.66
		c0.054-0.058,0.08-0.014,0.112,0.016c0.293,0.269,0.631,0.466,1.026,0.547c0.68,0.138,1.366,0.145,2.048,0.005
		c0.085-0.017,0.156-0.012,0.236,0.026c0.468,0.234,0.969,0.365,1.488,0.435c0.421,0.058,0.83-0.024,1.24-0.093
		c0.156-0.028,0.305-0.1,0.465-0.096c0.358,0.012,0.716,0.019,1.074,0.002c0.612-0.031,1.135-0.264,1.569-0.683
		c0.061-0.059,0.119-0.08,0.2-0.073c0.198,0.017,0.4,0.026,0.594-0.021c0.202-0.047,0.39-0.044,0.594,0.005
		c0.373,0.093,0.762,0.056,1.145,0.084c0.081,0.005,0.149,0.023,0.215,0.075c0.699,0.55,1.493,0.85,2.395,0.863
		c0.058,0.002,0.095,0.024,0.132,0.059c0.251,0.22,0.506,0.435,0.75,0.662c0.319,0.293,0.673,0.522,1.101,0.63
		c0.107,0.026,0.215,0.049,0.322,0.075h0.957c0.178-0.042,0.363-0.042,0.543-0.063c0.846-0.1,1.595-0.4,2.192-1.009
		c0.382-0.389,0.645-0.854,0.85-1.348c0.226-0.538,0.455-1.074,0.645-1.629c0.17-0.498,0.395-0.978,0.587-1.47
		c0.136-0.349,0.275-0.699,0.405-1.05c0.032-0.087,0.081-0.115,0.17-0.124c0.67-0.077,1.204-0.381,1.596-0.917
		c0.271-0.372,0.394-0.791,0.407-1.245c-0.002-0.166-0.014-0.332,0.019-0.498V16.452z"/>
	<path d="M52.968,11.251c-0.268,0.098-0.534,0.197-0.801,0.297c-0.11,0.04-0.205,0.103-0.285,0.189
		c-0.239,0.264-0.156,0.622,0.183,0.726c0.334,0.103,0.65,0.045,0.928-0.171c0.07-0.054,0.109-0.119,0.109-0.21
		c0-0.12,0.012-0.239,0.017-0.36c0.003,0,0.005,0,0.007,0c0-0.12-0.002-0.241,0.002-0.361
		C53.129,11.258,53.071,11.214,52.968,11.251"/>
	<path d="M60.744,10.594c0.395-0.066,0.791-0.133,1.186-0.201c0.068-0.012,0.102-0.065,0.107-0.131
		c0.014-0.194-0.278-0.478-0.477-0.458c-0.171,0.017-0.344,0.044-0.512,0.082c-0.265,0.061-0.477,0.389-0.416,0.618
		C60.647,10.566,60.675,10.601,60.744,10.594"/>
	<path d="M60.942,18.824c0.014-0.187-0.275-0.473-0.468-0.456c-0.18,0.014-0.361,0.038-0.534,0.087
		c-0.222,0.061-0.407,0.3-0.412,0.522c-0.003,0.14,0.031,0.19,0.134,0.173c0.388-0.059,0.777-0.126,1.165-0.19
		C60.9,18.946,60.937,18.894,60.942,18.824"/>
	<path d="M39.545,8.35c-0.134-0.077-0.275-0.147-0.366-0.283c-0.051-0.079-0.17-0.079-0.248-0.009
		c-0.102,0.091-0.171,0.197-0.159,0.341c0.008,0.096-0.02,0.178-0.08,0.255c-0.083,0.108-0.129,0.231-0.117,0.372
		c0.014,0.164-0.022,0.32-0.107,0.465c-0.078,0.133-0.19,0.225-0.309,0.32c-0.254,0.201-0.497,0.416-0.774,0.59
		c-0.356,0.227-0.741,0.36-1.169,0.377c-0.524,0.021-1.021-0.093-1.486-0.318c-0.531-0.258-1.031-0.578-1.584-0.8
		c-0.165-0.066-0.312-0.093-0.458,0.012c-0.105,0.075-0.236,0.147-0.244,0.297c-0.007,0.136-0.01,0.274,0.022,0.409
		c0.146,0.587,0.419,1.098,0.926,1.47c0.304,0.222,0.628,0.396,0.979,0.533c0.536,0.211,1.092,0.323,1.668,0.351
		c0.205,0.009,0.411-0.019,0.614-0.038c0.5-0.051,0.974-0.19,1.422-0.409c0.243-0.119,0.461-0.274,0.672-0.442
		c0.244-0.204,0.444-0.442,0.582-0.726c0.071-0.227,0.148-0.452,0.137-0.695c-0.007-0.194-0.056-0.382-0.097-0.571
		c-0.053-0.243-0.08-0.478,0.12-0.679c0.032-0.031,0.037-0.08,0.046-0.126c0.031-0.168,0.053-0.337,0.103-0.503
		C39.662,8.464,39.627,8.397,39.545,8.35"/>
</g>
</svg>
