<?xml version="1.0" encoding="utf-8"?>
<!-- Generator: Adobe Illustrator 24.0.0, SVG Export Plug-In . SVG Version: 6.00 Build 0)  -->
<svg version="1.1" id="Layer_1" xmlns="http://www.w3.org/2000/svg" xmlns:xlink="http://www.w3.org/1999/xlink" x="0px" y="0px"
	 viewBox="0 0 100 30" style="enable-background:new 0 0 100 30;" xml:space="preserve">
<g id="Layer_2_1_">
	<g id="Layer_1-2">
		<polygon points="64.197,10.544 64.197,19.176 65.923,19.176 65.923,15.724 69.376,15.724 69.376,13.996 65.923,13.996 
			65.923,12.27 69.376,12.27 69.376,10.544 		"/>
		<polygon points="6.774,10.544 6.774,19.176 8.5,19.176 8.5,12.27 10.226,12.27 10.226,19.176 11.952,19.176 11.952,12.27 
			13.678,12.27 13.678,19.176 15.406,19.176 15.406,10.544 		"/>
		<polygon points="24.008,10.544 24.008,12.27 25.734,12.27 25.734,19.176 27.46,19.176 27.46,12.27 29.188,12.27 29.188,10.544 		
			"/>
		<polygon points="30.083,10.544 30.083,12.27 31.808,12.27 31.808,19.176 33.536,19.176 33.536,12.27 35.262,12.27 35.262,10.544 
					"/>
		<path d="M38.673,12.27h1.726v1.722h-1.726V12.27z M36.947,10.544v8.631h5.18V17.45h-3.448v-1.726h3.448v-5.18H36.947z"/>
		<polygon points="44.135,10.544 44.135,19.176 45.863,19.176 45.863,12.27 47.589,12.27 47.589,13.996 49.315,13.996 
			49.315,10.544 		"/>
		<path d="M72.728,12.27h1.726v5.18h-1.726V12.27z M71.002,19.176h5.178v-8.631h-5.178V19.176z"/>
		<polygon points="84.672,10.544 84.672,19.176 86.398,19.176 86.398,12.27 88.124,12.27 88.124,19.176 89.849,19.176 89.849,12.27 
			91.575,12.27 91.575,19.176 93.301,19.176 93.301,10.544 		"/>
		<path d="M59.098,13.485l0.789-0.288v2.375l-0.789,0.286V13.485z M59.887,10.832v1.576l-1.574,0.57v3.957l2.367-0.862v-5.529
			L59.887,10.832z"/>
		<path d="M52.943,17.312l0.789-0.278v0.789l-0.789,0.286V17.312z M52.156,15.231v0.789l1.576-0.574v0.789l-1.576,0.574v2.367
			l2.364-0.862v-3.943L52.156,15.231z"/>
		<polygon points="55.234,18.054 56.023,17.768 56.023,14.613 56.812,14.324 56.812,17.492 57.601,17.205 57.601,13.25 
			55.234,14.112 		"/>
		<path d="M18.942,15.724h1.726v1.726h-1.726V15.724z M17.223,10.544v1.726h3.448v1.722h-3.448v5.184H22.4v-8.631H17.223z"/>
		<polygon points="77.979,10.544 77.979,19.176 79.705,19.176 79.705,12.27 81.431,12.27 81.431,13.996 83.159,13.996 
			83.159,10.544 		"/>
	</g>
</g>
</svg>
