<?xml version="1.0" encoding="utf-8"?>
<!-- Generator: Adobe Illustrator 24.0.0, SVG Export Plug-In . SVG Version: 6.00 Build 0)  -->
<svg version="1.1" id="Layer_1" xmlns="http://www.w3.org/2000/svg" xmlns:xlink="http://www.w3.org/1999/xlink" x="0px" y="0px"
	 viewBox="0 0 100 30" style="enable-background:new 0 0 100 30;" xml:space="preserve">
<g>
	<path d="M76.349,10.425v9.149h0.639c2.166,0,3.922-1.756,3.922-3.922v-5.227H76.349z"/>
	<polygon points="32.329,19.575 38.688,19.575 35.495,10.879 	"/>
	<polygon points="35.798,10.425 39.157,19.575 43.667,19.575 40.307,10.425 	"/>
	<polygon points="59.163,10.425 59.163,19.575 63.92,19.575 67.279,10.425 	"/>
	<polygon points="64.396,19.575 68.033,19.575 66.24,14.543 	"/>
	<path d="M71.322,15.652c0,2.166,1.756,3.922,3.922,3.922h0.639v-9.149h-4.562V15.652z"/>
	<polygon points="47.579,19.575 52.087,19.575 55.447,10.425 50.938,10.425 	"/>
	<polygon points="50.462,10.425 46.018,10.425 48.282,16.372 	"/>
	<polygon points="19.089,19.575 28.238,19.575 19.089,10.425 	"/>
	<polygon points="28.238,18.888 28.238,10.425 23.977,14.657 	"/>
</g>
</svg>
