<?xml version="1.0" encoding="utf-8"?>
<!-- Generator: Adobe Illustrator 24.0.0, SVG Export Plug-In . SVG Version: 6.00 Build 0)  -->
<svg version="1.1" id="Layer_1" xmlns="http://www.w3.org/2000/svg" xmlns:xlink="http://www.w3.org/1999/xlink" x="0px" y="0px"
	 viewBox="0 0 100 30" style="enable-background:new 0 0 100 30;" xml:space="preserve">
<g>
	<polygon points="19.591,19.678 22.402,19.678 22.402,12.743 23.642,12.743 23.642,19.668 26.496,19.668 26.496,12.745 
		27.883,12.745 27.883,19.675 30.681,19.675 30.681,10.352 19.591,10.352 	"/>
	<path d="M35.586,16.191h7.069v-5.869h-9.487v9.342h9.492v-2.377h-7.074V16.191z M35.602,12.745h4.652v1.004h-4.652V12.745z"/>
	<path d="M69.121,19.661h9.338v-2.38h-7.066v-1.096h7.088v-5.837h-9.359V19.661z M71.404,12.745h4.797v1.005h-4.797V12.745z"/>
	<polygon points="57.024,19.668 66.46,19.668 66.46,13.839 60.656,13.839 60.656,16.236 64.192,16.236 64.192,17.253 59.571,17.253 
		59.571,12.673 66.484,12.673 66.484,10.334 57.024,10.334 	"/>
	<path d="M54.622,16.204v-5.872h-9.462v9.314h2.397v-3.446l2.095,0.021l2.412,3.36c0,0,2.003,0.019,2.962,0.019
		c-0.846-1.178-1.597-2.223-2.44-3.396H54.622z M52.213,13.749h-4.659v-1.008h4.659V13.749z"/>
	<path d="M80.031,10.844c0-0.112-0.094-0.207-0.21-0.207h-0.337v0.665h0.111V11.05h0.192l0.173,0.251h0.132l-0.185-0.269
		C79.982,10.999,80.031,10.924,80.031,10.844z M79.81,10.949h-0.215v-0.211h0.217c0.059,0,0.106,0.048,0.106,0.105
		C79.919,10.902,79.871,10.949,79.81,10.949z"/>
	<path d="M79.747,10.334c-0.365,0-0.662,0.285-0.662,0.635c0,0.35,0.297,0.635,0.662,0.635c0.365,0,0.662-0.285,0.662-0.635
		C80.409,10.619,80.112,10.334,79.747,10.334z M79.747,11.491c-0.3,0-0.544-0.234-0.544-0.522c0-0.288,0.244-0.522,0.544-0.522
		c0.3,0,0.544,0.234,0.544,0.522C80.291,11.257,80.047,11.491,79.747,11.491z"/>
</g>
</svg>
