<?xml version="1.0" encoding="utf-8"?>
<!-- Generator: Adobe Illustrator 24.0.0, SVG Export Plug-In . SVG Version: 6.00 Build 0)  -->
<svg version="1.1" id="Layer_1" xmlns="http://www.w3.org/2000/svg" xmlns:xlink="http://www.w3.org/1999/xlink" x="0px" y="0px"
	 viewBox="0 0 100 30" style="enable-background:new 0 0 100 30;" xml:space="preserve">
<g>
	<path d="M45.7,9.906c-0.509,0-0.892,0.383-0.892,0.892c0,0.508,0.392,0.907,0.892,0.907s0.906-0.406,0.906-0.907
		C46.606,10.298,46.208,9.906,45.7,9.906z"/>
	<rect x="45.001" y="12.662" width="1.398" height="6.579"/>
	<path d="M19.197,14.863c-0.61,0-1.106,0.493-1.106,1.103c0,0.61,0.495,1.106,1.106,1.106c0.608,0,1.104-0.496,1.104-1.106
		C20.3,15.356,19.805,14.863,19.197,14.863z"/>
	<path d="M41.316,12.495c-0.737,0-1.386,0.309-1.898,0.898c-0.533-0.604-1.146-0.898-1.864-0.898c-1.513,0-2.568,1.21-2.568,2.942
		v3.804h1.386v-3.869c0-0.878,0.486-1.492,1.183-1.492c0.588,0,1.181,0.512,1.181,1.492v3.869h1.399v-3.869
		c0-0.878,0.486-1.492,1.182-1.492c0.677,0,1.169,0.628,1.169,1.492v3.869h1.386v-3.805C43.872,13.705,42.82,12.495,41.316,12.495z"
		/>
	<path d="M52.272,17.41c-0.455,0.418-0.91,0.613-1.434,0.613c-1.114,0-2.02-0.929-2.02-2.071c0-1.134,0.906-2.057,2.02-2.057
		c0.521,0,0.962,0.189,1.435,0.615l0.186,0.167l0.999-1.018l-0.178-0.182c-0.638-0.652-1.46-0.98-2.442-0.98
		c-0.894,0-1.77,0.371-2.401,1.017c-0.632,0.63-0.978,1.497-0.978,2.439c0,0.944,0.346,1.81,0.976,2.437
		c0.644,0.658,1.496,1.022,2.404,1.022c0.873-0.001,1.689-0.341,2.429-1.01l0.209-0.189l-1.028-0.966L52.272,17.41z"/>
	<path d="M27.306,14.861c-0.61,0-1.103,0.494-1.103,1.104c0,0.61,0.494,1.106,1.103,1.106c0.612,0,1.105-0.496,1.105-1.106
		C28.411,15.356,27.919,14.861,27.306,14.861z"/>
	<path d="M27.402,10.496h-8.206c-3.017,0-5.47,2.454-5.47,5.471s2.453,5.47,5.47,5.47h8.206c3.017,0,5.469-2.453,5.469-5.47
		S30.418,10.496,27.402,10.496z M27.402,19.249h-8.206c-1.809,0-3.282-1.473-3.282-3.283c0-1.81,1.473-3.281,3.282-3.281h8.206
		c1.81,0,3.281,1.471,3.281,3.281C30.683,17.776,29.211,19.249,27.402,19.249z"/>
	<path d="M67.18,17.314c-0.529,0-0.959,0.436-0.959,0.969c0,0.528,0.43,0.957,0.959,0.957c0.533,0,0.968-0.429,0.968-0.957
		C68.147,17.75,67.713,17.314,67.18,17.314z"/>
	<path d="M78.127,9.906c-0.509,0-0.893,0.383-0.893,0.892c0,0.508,0.391,0.907,0.893,0.907c0.499,0,0.906-0.406,0.906-0.907
		C79.033,10.298,78.634,9.906,78.127,9.906z"/>
	<rect x="77.427" y="12.662" width="1.398" height="6.579"/>
	<path d="M84.06,14.087v-1.335h-1.727v-1.456h-1.413v1.456h-0.604v1.335h0.604v1.645c0,2.259,0.768,3.247,2.829,3.645l0.311,0.06
		V17.98h0l-0.225-0.032c-1.038-0.149-1.502-0.765-1.502-1.997v-1.863H84.06z"/>
	<path d="M67.18,12.5c-0.529,0-0.959,0.429-0.959,0.957c0,0.535,0.43,0.971,0.959,0.971c0.533,0,0.968-0.437,0.968-0.971
		C68.147,12.929,67.713,12.5,67.18,12.5z"/>
	<path d="M61.511,12.495c-0.906,0-1.759,0.362-2.404,1.02c-0.637,0.651-0.989,1.517-0.989,2.436c0,0.92,0.352,1.787,0.989,2.438
		c0.644,0.658,1.498,1.021,2.404,1.021c0.899,0,1.748-0.363,2.388-1.018c0.64-0.638,0.992-1.507,0.992-2.441
		c0-0.932-0.352-1.8-0.99-2.436C63.258,12.857,62.409,12.495,61.511,12.495z M61.498,18.01c-1.07,0-1.943-0.924-1.943-2.059
		c0-1.14,0.872-2.07,1.943-2.07c1.077-0.001,1.954,0.93,1.954,2.07C63.452,17.107,62.594,18.01,61.498,18.01z"/>
	<path d="M72.849,12.508c-0.74,0-1.396,0.208-1.993,0.634V9.531h-1.387l0.003,5.664c-0.013,0.149-0.013,0.298-0.013,0.435
		c0,2.224,1.394,3.779,3.391,3.779c0.9,0,1.747-0.362,2.389-1.017c0.64-0.638,0.992-1.507,0.992-2.441
		c0-0.919-0.354-1.785-0.992-2.436C74.604,12.865,73.755,12.508,72.849,12.508z M72.849,18.022c-1.132,0-2.02-0.903-2.02-2.057
		c0-1.142,0.907-2.071,2.02-2.071c1.114,0,2.021,0.929,2.021,2.071C74.87,17.099,73.963,18.022,72.849,18.022z"/>
	<path d="M54.427,15.951v3.29h1.476v-3.366c0-1.207,0.416-1.703,1.533-1.828l0.233-0.025v-1.38l-0.282,0.021
		C55.341,12.829,54.427,13.843,54.427,15.951z"/>
</g>
<g>
	<path d="M51.81-35.669c0-0.115-0.062-0.157-0.176-0.117c-0.305,0.108-0.609,0.22-0.914,0.331c-0.114,0.042-0.214,0.104-0.295,0.193
		c-0.282,0.307-0.161,0.704,0.255,0.804c0.35,0.085,0.677,0.021,0.969-0.189c0.093-0.066,0.144-0.149,0.138-0.265
		c-0.006-0.121-0.002-0.244-0.002-0.367h0.025C51.81-35.41,51.81-35.538,51.81-35.669"/>
	<path d="M70.43-39.059c-0.006,0.165-0.032,0.18-0.204,0.163c-0.074-0.008-0.085-0.04-0.081-0.098
		c0.004-0.061,0.002-0.121,0.004-0.184c0-0.057,0-0.114,0-0.197c-0.068,0.089-0.098,0.165-0.131,0.24
		c-0.017,0.042-0.023,0.102-0.091,0.081c-0.078-0.023-0.185,0.04-0.229-0.078c-0.032-0.089-0.074-0.176-0.114-0.263
		c-0.008,0-0.017,0-0.026,0.002c0,0.129-0.004,0.257,0.002,0.386c0.002,0.068-0.023,0.091-0.091,0.078
		c-0.04-0.008-0.079-0.011-0.119-0.013c-0.062-0.002-0.087-0.03-0.078-0.087c0.049-0.307,0.013-0.613,0.017-0.92
		c0-0.093,0.038-0.119,0.123-0.127c0.218-0.019,0.235-0.011,0.301,0.185c0.045,0.131,0.091,0.259,0.146,0.413
		c0.07-0.157,0.144-0.286,0.185-0.424c0.042-0.136,0.127-0.161,0.257-0.159c0.114,0.004,0.165,0.028,0.157,0.151
		C70.441-39.627,70.441-39.343,70.43-39.059 M69.168-39.931c0.002,0.057-0.004,0.112-0.097,0.112
		c-0.184-0.002-0.185,0.004-0.195,0.176c-0.011,0.199-0.025,0.399-0.025,0.598c0,0.114-0.074,0.097-0.144,0.093
		c-0.078-0.002-0.146-0.008-0.138-0.114c0.009-0.114,0.002-0.229,0.002-0.344c0.006,0,0.011,0,0.017,0c0-0.112-0.004-0.223,0-0.333
		c0.004-0.064-0.015-0.093-0.085-0.083c-0.015,0.002-0.032-0.004-0.047-0.006c-0.142-0.009-0.199-0.112-0.134-0.229
		c0.019-0.034,0.051-0.032,0.083-0.034c0.225-0.011,0.452,0,0.677,0.017C69.187-40.073,69.166-39.99,69.168-39.931 M68.343-38.379
		c-0.498,1.207-0.969,2.426-1.474,3.631c-0.22,0.52-0.405,1.056-0.628,1.576c-0.104,0.242-0.221,0.477-0.352,0.706
		c-0.208,0.363-0.541,0.547-0.958,0.611c-0.295,0.045-0.592,0.07-0.929,0.081c-0.087-0.006-0.24,0.047-0.329-0.017
		c-0.095-0.072-0.023-0.221-0.025-0.335c-0.004-0.134,0.017-0.269,0.013-0.401c-0.002-0.098,0.049-0.106,0.127-0.1
		c0.185,0.015,0.371,0.025,0.556-0.008c0.208-0.036,0.361-0.142,0.456-0.322c0.03-0.059,0.059-0.119,0.087-0.178
		c0.252-0.534,0.261-0.536,0.072-1.096c-0.405-1.204-0.736-2.428-1.126-3.635c-0.078-0.24-0.129-0.49-0.197-0.734
		c-0.021-0.074-0.021-0.1,0.074-0.098c0.38,0.015,0.759,0.023,1.139,0.028c0.089,0.002,0.112,0.045,0.131,0.117
		c0.244,0.901,0.492,1.802,0.772,2.693c0.006,0.017,0.017,0.034,0.019,0.053c0.008,0.055,0.047,0.064,0.095,0.07
		c0.057,0.006,0.074-0.026,0.091-0.07c0.341-0.872,0.759-1.716,1.037-2.61c0.036-0.115,0.097-0.151,0.22-0.144
		c0.346,0.021,0.695,0.013,1.041,0.042C68.375-38.508,68.382-38.476,68.343-38.379 M63.218-39.129
		c-0.189,0.161-0.204,0.373-0.167,0.592c0.019,0.112,0.055,0.22,0.087,0.344c-0.172-0.104-0.288-0.246-0.448-0.337
		c-0.276-0.155-0.579-0.223-0.889-0.28c-0.469-0.087-0.937-0.036-1.402,0.036c-0.079,0.011-0.123-0.03-0.167-0.068
		c-0.341-0.288-0.676-0.577-1.012-0.867c-0.106-0.093-0.237-0.11-0.371-0.115c-0.426-0.015-0.852-0.032-1.279-0.044
		c-0.098-0.004-0.083-0.053-0.076-0.115c0.021-0.178,0.03-0.358-0.006-0.537c-0.045-0.216-0.231-0.324-0.384-0.456
		c-0.303-0.263-0.609-0.52-0.916-0.78c-0.036-0.03-0.051-0.051-0.042-0.104c0.032-0.176-0.045-0.346-0.057-0.52
		c-0.002-0.023-0.008-0.045-0.015-0.089c0.142,0.097,0.273,0.174,0.43,0.189c0.129,0.013,0.255,0.03,0.384,0.036
		c0.31,0.013,0.621,0.011,0.929,0.032c0.204,0.011,0.411-0.074,0.507-0.242c0.066-0.114,0.081-0.238,0.083-0.365
		c0.053-0.013,0.078,0.023,0.106,0.047c0.182,0.155,0.361,0.314,0.545,0.469c0.108,0.093,0.246,0.114,0.382,0.127
		c0.123,0.011,0.25,0.019,0.373,0.021c0.392,0.004,0.782,0.045,1.173,0.028c0.083-0.006,0.148,0.021,0.204,0.078
		c0.288,0.282,0.621,0.509,0.973,0.712c0.189,0.108,0.407,0.142,0.621,0.178c0.295,0.047,0.594,0.057,0.891,0.044
		c0.165-0.008,0.331-0.015,0.49-0.059c0.078-0.021,0.112,0,0.11,0.081c-0.008,0.208,0.102,0.36,0.267,0.49
		c0.225,0.178,0.439,0.371,0.657,0.556c0.144,0.123,0.284,0.25,0.433,0.367c0.121,0.093,0.278,0.106,0.424,0.106
		c0.564,0,1.126-0.03,1.671-0.187c0.053-0.017,0.078-0.013,0.097,0.042c0.04,0.106,0.108,0.195,0.204,0.265
		c0.051,0.036,0.079,0.29,0.042,0.337c-0.04,0.049-0.098,0.036-0.148,0.028c-0.276-0.038-0.556-0.015-0.835-0.019
		c-0.297-0.006-0.511,0.142-0.609,0.414c-0.047,0.131-0.097,0.261-0.138,0.392c-0.021,0.062-0.04,0.064-0.089,0.023
		c-0.31-0.267-0.623-0.53-0.933-0.797c-0.125-0.106-0.274-0.144-0.435-0.148c-0.394-0.009-0.789-0.006-1.185-0.028
		C63.517-39.263,63.354-39.246,63.218-39.129 M62.989-33.963c-0.551,0.456-1.183,0.693-1.947,0.647c-0.201,0-0.433,0.002-0.645-0.07
		c-0.498-0.17-0.933-0.413-1.081-0.954c-0.199-0.721-0.337-1.451-0.399-2.193c-0.036-0.42,0.104-0.793,0.371-1.115
		c0.185-0.227,0.452-0.375,0.74-0.462c0.632-0.195,1.277-0.248,1.932-0.1c0.645,0.144,0.95,0.583,1.096,1.149
		c0.078,0.297,0.112,0.604,0.172,0.905c0.021,0.098-0.009,0.136-0.112,0.151c-0.874,0.123-1.737,0.312-2.615,0.401
		c-0.087,0.009-0.127,0.028-0.1,0.125c0.072,0.274,0.129,0.554,0.201,0.829c0.074,0.282,0.267,0.405,0.573,0.371
		c0.144-0.017,0.286-0.047,0.426-0.083c0.286-0.074,0.428-0.259,0.467-0.526c0.011-0.076,0.021-0.153,0.019-0.229
		c-0.002-0.106,0.051-0.149,0.155-0.165c0.331-0.049,0.66-0.1,0.99-0.159c0.085-0.015,0.098,0.034,0.115,0.083
		C63.485-34.924,63.443-34.341,62.989-33.963 M58.767-39.165c-0.547,0.723-1.075,1.459-1.703,2.123
		c-0.093,0.098-0.074,0.184-0.009,0.288c0.5,0.806,0.995,1.612,1.489,2.413c-0.227,0-0.454,0.002-0.681-0.002
		c-0.21-0.004-0.418-0.021-0.628-0.023c-0.1,0-0.151-0.036-0.197-0.117c-0.369-0.687-0.768-1.357-1.198-2.012
		c-0.036-0.055-0.062-0.1-0.148-0.081c-0.091,0.019-0.068,0.083-0.072,0.136c-0.036,0.638-0.07,1.277-0.102,1.917
		c-0.004,0.081-0.023,0.121-0.125,0.115c-0.35-0.023-0.7-0.032-1.052-0.051c-0.132-0.006-0.159-0.042-0.142-0.206
		c0.032-0.314,0.049-0.626,0.057-0.942c0.009-0.498-0.002-0.995,0.03-1.493c0.04-0.623,0.079-1.247,0.115-1.87
		c0.045-0.77,0.085-1.54,0.123-2.309c0.004-0.087,0.036-0.114,0.123-0.112c0.261,0.004,0.522-0.019,0.785-0.006
		c0.384,0.019,0.411,0.036,0.399,0.396c-0.04,1.169-0.1,2.337-0.185,3.503c-0.009,0.132-0.011,0.267,0.008,0.431
		c0.278-0.356,0.539-0.687,0.8-1.018c0.299-0.377,0.6-0.751,0.897-1.132c0.057-0.072,0.119-0.102,0.214-0.098
		c0.384,0.017,0.766,0.03,1.149,0.045c0.032,0,0.078-0.002,0.089,0.015C58.828-39.22,58.788-39.191,58.767-39.165 M53.944-41.214
		c-0.028,0.301-0.032,0.604-0.053,0.905c-0.03,0.469-0.04,0.939-0.087,1.406c-0.019,0.187-0.011,0.375-0.025,0.562
		c-0.009,0.136-0.032,0.274-0.028,0.413c0,0.017,0.006,0.04-0.017,0.049c-0.028,0.013-0.044-0.011-0.061-0.025
		c-0.159-0.136-0.325-0.263-0.475-0.409c-0.467-0.452-1.054-0.657-1.697-0.753c-0.63-0.093-1.241-0.025-1.838,0.182
		c-0.019,0.006-0.04,0.011-0.059,0.019c-0.195,0.076-0.197,0.076-0.195-0.121c0.002-0.195-0.04-0.39-0.025-0.585
		c0.008-0.098,0.03-0.193,0.015-0.295c-0.034-0.231-0.212-0.352-0.373-0.49c-0.231-0.197-0.462-0.392-0.693-0.589
		c-0.093-0.079-0.184-0.161-0.282-0.233c-0.131-0.097-0.295-0.093-0.448-0.119c-0.343-0.057-0.691-0.053-1.037-0.044
		c-0.237,0.006-0.475,0.023-0.704,0.076c-0.291,0.064-0.488,0.233-0.541,0.522c-0.055,0.307-0.174,0.596-0.257,0.895
		c-0.025,0.089-0.055,0.174-0.081,0.257c-0.04,0.008-0.047-0.015-0.049-0.03c-0.04-0.291-0.237-0.484-0.46-0.662
		c-0.193-0.155-0.384-0.314-0.571-0.477c-0.182-0.155-0.344-0.333-0.581-0.418c0.087-0.146,0.185-0.288,0.291-0.422
		c-0.053-0.04-0.108-0.079-0.159-0.121c0.051,0.042,0.106,0.081,0.159,0.121c0.344,0.055,0.691,0.108,1.043,0.095
		c0.261-0.009,0.52-0.042,0.774-0.104c0.204-0.047,0.346-0.246,0.369-0.45c0.025-0.229,0.017-0.458,0.023-0.695
		c0.104,0.025,0.165,0.104,0.223,0.168c0.17,0.187,0.394,0.221,0.632,0.229c0.318,0.009,0.634-0.03,0.948-0.076
		c0.085-0.011,0.14,0.008,0.195,0.053c0.237,0.201,0.475,0.401,0.71,0.606c0.106,0.093,0.233,0.136,0.369,0.153
		c0.307,0.036,0.613,0.036,0.92,0.021c0.248-0.013,0.496-0.04,0.713-0.176c0.11-0.068,0.191-0.161,0.225-0.276
		c0.036-0.112,0.072-0.07,0.127-0.021c0.182,0.161,0.356,0.333,0.571,0.458c0.365,0.21,0.755,0.352,1.181,0.413
		c0.401,0.057,0.783-0.026,1.166-0.121C53.951-41.362,53.957-41.362,53.944-41.214 M53.24-33.613
		c-0.053,0.061-0.144,0.025-0.22,0.026c-0.178,0.004-0.356-0.004-0.534,0.004c-0.087,0.002-0.14-0.025-0.185-0.097
		c-0.047-0.078-0.072-0.199-0.163-0.216c-0.089-0.019-0.146,0.093-0.22,0.144c-0.282,0.197-0.613,0.263-0.946,0.331
		c-0.571,0.117-1.075-0.057-1.55-0.331c-0.316-0.185-0.394-0.494-0.45-0.818c-0.072-0.409,0.076-0.747,0.344-1.048
		c0.112-0.125,0.278-0.18,0.418-0.271c0.42-0.267,0.899-0.411,1.37-0.568c0.155-0.053,0.314-0.098,0.471-0.148
		c0.155-0.049,0.18-0.083,0.17-0.233c-0.002-0.017-0.008-0.032-0.004-0.047c0.055-0.382-0.238-0.626-0.643-0.696
		c-0.498-0.087-0.956,0.202-1.024,0.651c-0.004,0.023-0.013,0.047-0.006,0.068c0.047,0.131-0.013,0.151-0.14,0.155
		c-0.168,0.006-0.339,0.009-0.509,0.011c-0.153-0.002-0.307-0.004-0.46,0c-0.068,0.002-0.097-0.025-0.097-0.085
		c-0.008-0.254-0.004-0.507,0.083-0.751c0.064-0.184,0.184-0.324,0.335-0.454c0.22-0.185,0.445-0.352,0.732-0.433
		c0.766-0.212,1.51-0.167,2.246,0.132c0.447,0.182,0.623,0.526,0.687,0.944c0.062,0.409,0.07,0.825,0.098,1.238
		c0.051,0.772,0.078,1.546,0.17,2.316C53.225-33.726,53.281-33.658,53.24-33.613 M47.731-33.828
		c-0.352,0.066-0.706,0.042-1.062,0.013c-0.066-0.006-0.085-0.045-0.098-0.097c-0.051-0.208-0.04-0.42-0.047-0.63
		c-0.03-0.961-0.059-1.925-0.085-2.886c-0.004-0.098-0.011-0.193-0.131-0.25c-0.303,0.846-0.621,1.68-0.876,2.536
		c-0.042,0.136-0.085,0.271-0.125,0.409c-0.021,0.074-0.057,0.115-0.148,0.123c-0.273,0.023-0.543,0.062-0.819,0.053
		c-0.081-0.004-0.117-0.034-0.146-0.106c-0.386-0.941-0.774-1.883-1.162-2.823c-0.015-0.036-0.032-0.07-0.047-0.106
		c-0.013-0.028-0.023-0.059-0.068-0.049c-0.038,0.009-0.083,0.008-0.098,0.055c-0.015,0.055-0.026,0.11-0.026,0.168
		c0.008,0.895,0.042,1.786,0.106,2.68c0.023,0.297,0.064,0.594,0.017,0.895c-0.008,0.055-0.025,0.076-0.083,0.087
		c-0.394,0.07-0.787,0.062-1.181,0.006c-0.051-0.006-0.072-0.028-0.072-0.083c-0.004-0.874-0.085-1.745-0.104-2.619
		c-0.021-0.922-0.044-1.841-0.074-2.761c-0.013-0.416-0.081-0.831-0.074-1.249c0-0.104,0.021-0.142,0.138-0.153
		c0.547-0.061,1.092-0.106,1.641-0.017c0.112,0.019,0.178,0.1,0.153,0.21c-0.006,0.025-0.025,0.049,0,0.074
		c0.161,0.174,0.189,0.401,0.267,0.609c0.329,0.888,0.649,1.779,0.971,2.668c0.047,0.132,0.081,0.269,0.148,0.405
		c0.051-0.121,0.114-0.24,0.153-0.367c0.358-1.137,0.712-2.275,1.065-3.414c0.011-0.036,0.032-0.076,0.026-0.11
		c-0.019-0.142,0.076-0.168,0.189-0.184c0.522-0.068,1.046-0.07,1.569,0.013c0.051,0.008,0.095,0.009,0.085,0.078
		c-0.047,0.322,0.013,0.642,0.017,0.963c0.004,0.388,0.006,0.776,0.015,1.162c0.021,0.874,0.04,1.749,0.07,2.623
		c0.023,0.619,0.068,1.24,0.074,1.858C47.913-33.862,47.915-33.862,47.731-33.828 M39.628-45.268
		c-0.108,0.146-0.202,0.301-0.312,0.445c-0.284,0.378-0.577,0.751-0.833,1.145c-0.261,0.401-0.547,0.783-0.827,1.169
		c-0.045,0.062-0.087,0.129-0.125,0.195c-0.068,0.117-0.104,0.233-0.062,0.375c0.053,0.18,0.061,0.371,0.112,0.549
		c0.083,0.301,0.112,0.609,0.193,0.908c0.157,0.564,0.259,1.139,0.413,1.703c0.117,0.428,0.221,0.857,0.341,1.283
		c0.14,0.503,0.267,1.011,0.39,1.52c0.034,0.146-0.057,0.221-0.144,0.303c-0.273,0.25-0.609,0.269-0.967,0.269
		c-0.248,0-0.471-0.078-0.704-0.121c-0.418-0.076-0.819-0.225-1.238-0.314c-0.689-0.148-1.372-0.324-2.065-0.466
		c-1.117-0.229-2.229-0.466-3.344-0.698c-0.835-0.176-1.665-0.358-2.5-0.53c-0.914-0.187-1.813-0.431-2.725-0.632
		c-0.343-0.076-0.494-0.307-0.585-0.602c-0.114-0.361-0.091-0.713,0.087-1.046c0.184-0.35,0.386-0.691,0.577-1.037
		c0.237-0.428,0.471-0.857,0.702-1.287c0.435-0.808,0.88-1.614,1.3-2.43c0.208-0.407,0.509-0.751,0.78-1.115
		c0.999-1.34,2.004-2.676,3.03-3.997c0.263-0.339,0.594-0.57,1.046-0.615c0.303-0.042,0.587,0.055,0.874,0.108
		c0.52,0.098,1.035,0.223,1.557,0.32c1.048,0.191,2.102,0.365,3.16,0.509c0.736,0.098,1.474,0.197,2.21,0.305
		c0.18,0.026,0.365,0.049,0.539,0.106c0.36,0.009,0.632,0.168,0.833,0.441c0.042,0.059,0.136,0.087,0.132,0.168
		c-0.011,0.248,0.032,0.505-0.131,0.727C40.775-46.829,40.207-46.044,39.628-45.268 M41.594-48.22
		c-0.009,0.008-0.015,0.008-0.015,0.004C41.579-48.212,41.585-48.212,41.594-48.22 M41.577-48.229v0.002V-48.229 M42.616-49.889
		c0.566-0.064,1.132-0.117,1.701-0.026c0.121,0.021,0.187,0.097,0.165,0.214c-0.004,0.025-0.032,0.047-0.002,0.072
		c0.146,0.129,0.159,0.314,0.22,0.477c0.335,0.899,0.662,1.8,0.988,2.702c0.061,0.168,0.106,0.343,0.161,0.526
		c0.172-0.314,0.252-0.643,0.352-0.965c0.295-0.931,0.583-1.864,0.872-2.797c0.013-0.049,0.028-0.097,0.036-0.146
		c0.026-0.157,0.04-0.17,0.21-0.191c0.519-0.068,1.037-0.066,1.556,0.013c0.062,0.009,0.076,0.026,0.078,0.085
		c0.009,1.031,0.03,2.063,0.064,3.094c0.019,0.539,0.021,1.081,0.045,1.622c0.028,0.645,0.053,1.292,0.076,1.938
		c0.004,0.102-0.034,0.136-0.127,0.155c-0.375,0.072-0.747,0.051-1.122,0.021c-0.072-0.008-0.081-0.053-0.095-0.1
		c-0.055-0.189-0.038-0.382-0.044-0.573c-0.034-0.995-0.062-1.993-0.089-2.99c-0.004-0.087-0.045-0.142-0.127-0.197
		c-0.025,0.059-0.047,0.114-0.066,0.168c-0.335,0.918-0.67,1.838-0.941,2.776c-0.023,0.079-0.064,0.114-0.149,0.121
		c-0.261,0.025-0.52,0.057-0.783,0.057c-0.104,0-0.151-0.04-0.189-0.132c-0.39-0.954-0.783-1.906-1.177-2.857
		c-0.017-0.042-0.009-0.11-0.102-0.098c-0.089,0.011-0.1,0.072-0.102,0.131c-0.004,0.235,0,0.469,0,0.702
		c0,0.895,0.089,1.785,0.134,2.678c0.002,0.034-0.004,0.068-0.008,0.102c-0.021,0.274-0.023,0.273-0.312,0.305
		c-0.316,0.034-0.628,0.019-0.941-0.023c-0.062-0.008-0.089-0.026-0.091-0.093c-0.021-0.547-0.044-1.096-0.072-1.643
		c-0.057-1.137-0.07-2.277-0.098-3.416c-0.011-0.439-0.055-0.878-0.083-1.319c-0.006-0.102-0.004-0.206-0.008-0.31
		C42.544-49.857,42.555-49.883,42.616-49.889 M50.18-46.837c0.064-0.167,0.167-0.303,0.312-0.414
		c0.168-0.131,0.318-0.282,0.524-0.365c0.335-0.136,0.687-0.195,1.046-0.212c0.443-0.019,0.863,0.068,1.279,0.206
		c0.488,0.163,0.746,0.486,0.821,0.958c0.061,0.377,0.068,0.757,0.095,1.135c0.057,0.799,0.079,1.599,0.176,2.396
		c0,0.011,0.002,0.025,0.004,0.036c0.032,0.231,0.032,0.231-0.223,0.233c-0.168,0.002-0.339-0.004-0.509,0.002
		c-0.089,0.004-0.144-0.026-0.182-0.1c-0.028-0.055-0.07-0.104-0.098-0.159c-0.042-0.079-0.091-0.072-0.149-0.021
		c-0.413,0.369-0.941,0.466-1.468,0.477c-0.456,0.011-0.884-0.159-1.251-0.43c-0.218-0.161-0.291-0.396-0.344-0.642
		c-0.093-0.431,0.009-0.812,0.312-1.147c0.119-0.131,0.29-0.191,0.435-0.286c0.384-0.246,0.821-0.386,1.257-0.53
		c0.197-0.064,0.396-0.127,0.596-0.187c0.115-0.034,0.17-0.097,0.161-0.22c-0.015-0.199-0.011-0.396-0.185-0.551
		c-0.397-0.352-1.101-0.271-1.387,0.168c-0.083,0.129-0.123,0.267-0.098,0.416c0.011,0.066-0.011,0.076-0.072,0.081
		c-0.189,0.015-0.378,0.015-0.513,0.013c-0.218,0-0.378,0-0.541,0c-0.049,0.002-0.087-0.002-0.089-0.064
		C50.079-46.31,50.079-46.577,50.18-46.837 M55.494-45.665c0.03-1.395,0.159-2.784,0.22-4.178c0.009-0.229,0.023-0.46,0.028-0.689
		c0.002-0.098,0.03-0.148,0.148-0.142c0.235,0.013,0.467-0.019,0.702-0.004c0.131,0.008,0.255,0.03,0.382,0.051
		c0.072,0.013,0.091,0.049,0.089,0.112c-0.044,1.292-0.106,2.583-0.202,3.872c-0.006,0.087,0,0.174,0,0.263
		c0.011,0.002,0.025,0.004,0.038,0.006c0.318-0.405,0.636-0.81,0.956-1.213c0.24-0.305,0.484-0.606,0.723-0.91
		c0.055-0.072,0.117-0.098,0.214-0.093c0.388,0.019,0.774,0.03,1.162,0.04c0.091,0.002,0.097,0.028,0.049,0.093
		c-0.543,0.71-1.062,1.438-1.677,2.097c-0.14,0.149-0.142,0.174-0.038,0.341c0.49,0.793,0.98,1.586,1.468,2.379
		c0.006,0.009,0.006,0.021,0.009,0.045c-0.346-0.013-0.687-0.028-1.029-0.042c-0.055-0.002-0.114-0.015-0.168-0.006
		c-0.185,0.028-0.278-0.057-0.358-0.208c-0.352-0.666-0.746-1.308-1.158-1.94c-0.034-0.053-0.064-0.078-0.132-0.066
		c-0.079,0.013-0.07,0.064-0.072,0.112c-0.04,0.655-0.078,1.31-0.112,1.964c-0.004,0.076-0.023,0.097-0.102,0.093
		c-0.356-0.021-0.71-0.036-1.065-0.047c-0.115-0.004-0.157-0.051-0.148-0.159C55.48-44.484,55.48-45.075,55.494-45.665
		 M60.143-46.027c0.047-0.632,0.38-1.088,0.999-1.321c0.668-0.252,1.363-0.295,2.068-0.134c0.606,0.138,0.899,0.556,1.052,1.079
		c0.093,0.32,0.123,0.657,0.187,0.984c0.017,0.085-0.009,0.117-0.097,0.131c-0.872,0.125-1.737,0.312-2.615,0.403
		c-0.098,0.009-0.146,0.025-0.112,0.142c0.078,0.274,0.132,0.553,0.201,0.829c0.059,0.237,0.206,0.354,0.464,0.356
		c0.237,0.002,0.467-0.045,0.681-0.142c0.246-0.11,0.308-0.329,0.329-0.564c0.025-0.271,0.023-0.273,0.308-0.32
		c0.267-0.045,0.536-0.078,0.8-0.129c0.108-0.021,0.142,0.015,0.167,0.1c0.151,0.534,0.038,1.084-0.479,1.463
		c-0.515,0.375-1.082,0.587-1.739,0.558c-0.242-0.004-0.492,0.004-0.721-0.07c-0.484-0.157-0.912-0.382-1.079-0.897
		c-0.163-0.5-0.244-1.014-0.335-1.529C60.17-45.398,60.118-45.711,60.143-46.027 M64.967-47.979
		c0.176,0.009,0.354,0.004,0.532,0.004v0.032c0.182,0,0.363,0.004,0.545-0.002c0.1-0.004,0.14,0.03,0.163,0.121
		c0.21,0.816,0.45,1.622,0.685,2.43c0.03,0.104,0.068,0.204,0.1,0.308c0.013,0.045,0.036,0.07,0.093,0.07
		c0.055,0,0.078-0.026,0.095-0.07c0.343-0.878,0.761-1.73,1.046-2.63c0.03-0.097,0.078-0.127,0.185-0.121
		c0.36,0.015,0.717,0.011,1.077,0.04c0.11,0.009,0.115,0.042,0.079,0.129c-0.49,1.2-0.958,2.407-1.463,3.601
		c-0.22,0.52-0.399,1.058-0.626,1.578c-0.104,0.24-0.218,0.477-0.346,0.708c-0.212,0.384-0.551,0.585-0.993,0.649
		c-0.369,0.053-0.738,0.079-1.111,0.085c-0.174,0.002-0.176-0.006-0.17-0.167c0.008-0.191,0.021-0.382,0.023-0.575
		c0.002-0.093,0.028-0.127,0.134-0.117c0.189,0.017,0.378,0.026,0.568-0.009c0.193-0.038,0.344-0.132,0.43-0.303
		c0.108-0.216,0.204-0.435,0.307-0.651c0.026-0.057,0.015-0.11,0.002-0.168c-0.115-0.511-0.352-0.986-0.475-1.495
		c-0.208-0.867-0.537-1.699-0.778-2.558c-0.07-0.255-0.134-0.513-0.206-0.768C64.832-47.961,64.861-47.983,64.967-47.979
		 M73.806-39.432c-0.025-0.019-0.019-0.049-0.025-0.074c-0.085-0.513-0.325-0.95-0.715-1.313c-0.286-0.267-0.57-0.534-0.848-0.806
		c-0.189-0.182-0.394-0.341-0.636-0.454c-0.093-0.044-0.114-0.079-0.07-0.178c0.543-1.224,1.018-2.473,1.514-3.715
		c0.396-0.988,0.108-2.015-0.729-2.716c-0.291-0.242-0.587-0.483-0.865-0.738c-0.528-0.481-1.154-0.727-1.881-0.768
		c-0.307-0.017-0.613-0.013-0.92-0.028c-0.426-0.021-0.848,0-1.249,0.155c-0.051,0.019-0.085,0.004-0.125-0.013
		c-0.361-0.168-0.742-0.248-1.145-0.252c-0.363-0.004-0.727-0.015-1.09-0.036c-0.583-0.034-1.122,0.081-1.607,0.396
		c-0.081,0.053-0.155,0.068-0.248,0.053c-0.199-0.03-0.403-0.061-0.602-0.038c-0.274,0.03-0.471-0.059-0.659-0.242
		c-0.43-0.422-0.956-0.672-1.578-0.723c-0.051-0.006-0.066-0.032-0.089-0.064c-0.125-0.176-0.269-0.335-0.435-0.477
		c-0.358-0.301-0.713-0.602-1.065-0.906c-0.445-0.382-0.976-0.592-1.561-0.645c-0.562-0.053-1.13-0.021-1.696-0.011
		c-0.051,0-0.106,0.002-0.157,0.011c-0.997,0.208-1.663,0.772-1.981,1.696c-0.121,0.352-0.121,0.719-0.129,1.082
		c-0.002,0.097-0.036,0.104-0.121,0.091c-0.25-0.045-0.503-0.072-0.759-0.066c-0.072,0-0.106-0.026-0.14-0.081
		c-0.136-0.223-0.312-0.418-0.519-0.589c-0.339-0.284-0.674-0.571-1.011-0.861c-0.375-0.32-0.806-0.532-1.304-0.611
		c-0.713-0.114-1.429-0.142-2.148-0.064c-0.445,0.047-0.882,0.121-1.268,0.346c-0.161,0.095-0.28,0.108-0.452,0.021
		c-0.5-0.252-1.058-0.263-1.603-0.299c-0.571-0.036-1.137,0.044-1.703,0.108c-0.553,0.062-1.024,0.28-1.429,0.642
		c-0.1,0.089-0.153,0.248-0.295,0.263c-0.14,0.013-0.288-0.036-0.43-0.059c-1.173-0.197-2.345-0.392-3.516-0.589
		c-1.13-0.187-2.259-0.369-3.385-0.57c-0.901-0.159-1.758-0.059-2.574,0.343c-0.418,0.206-0.814,0.454-1.094,0.819
		c-1.31,1.709-2.61,3.423-3.91,5.136c-0.121,0.159-0.257,0.308-0.352,0.483c-0.666,1.224-1.332,2.449-1.995,3.675
		c-0.265,0.494-0.564,0.973-0.782,1.489c-0.339,0.797-0.475,1.624-0.25,2.466c0.318,1.188,1.103,2,2.362,2.294
		c2.309,0.541,4.633,1.026,6.951,1.537c1.697,0.373,3.393,0.747,5.09,1.12c0.806,0.178,1.612,0.22,2.42,0.019
		c0.093-0.023,0.127-0.021,0.155,0.079c0.127,0.448,0.378,0.825,0.744,1.135c0.303,0.259,0.613,0.511,0.91,0.776
		c0.352,0.312,0.74,0.558,1.215,0.657c0.77,0.159,1.544,0.172,2.322,0.047c0.575-0.095,1.081-0.308,1.484-0.715
		c0.061-0.062,0.089-0.015,0.125,0.017c0.327,0.291,0.704,0.505,1.145,0.592c0.759,0.149,1.523,0.157,2.284,0.006
		c0.095-0.019,0.174-0.013,0.263,0.028c0.522,0.254,1.081,0.396,1.66,0.471c0.469,0.062,0.925-0.026,1.383-0.1
		c0.174-0.03,0.341-0.108,0.519-0.104c0.399,0.013,0.799,0.021,1.198,0.002c0.683-0.034,1.266-0.286,1.75-0.74
		c0.068-0.064,0.132-0.087,0.223-0.079c0.221,0.019,0.447,0.028,0.662-0.023c0.225-0.051,0.435-0.047,0.662,0.006
		c0.416,0.1,0.85,0.061,1.277,0.091c0.091,0.006,0.167,0.025,0.24,0.081c0.78,0.596,1.665,0.922,2.672,0.935
		c0.064,0.002,0.106,0.026,0.148,0.064c0.28,0.238,0.564,0.471,0.836,0.717c0.356,0.318,0.751,0.566,1.228,0.683
		c0.119,0.028,0.24,0.053,0.36,0.081h1.067c0.199-0.045,0.405-0.045,0.606-0.068c0.944-0.108,1.779-0.433,2.445-1.094
		c0.426-0.422,0.719-0.925,0.948-1.461c0.252-0.583,0.507-1.164,0.719-1.766c0.189-0.539,0.441-1.06,0.655-1.593
		c0.151-0.378,0.307-0.757,0.452-1.137c0.036-0.095,0.091-0.125,0.189-0.134c0.747-0.083,1.344-0.413,1.781-0.993
		c0.303-0.403,0.439-0.857,0.454-1.349c-0.002-0.18-0.015-0.36,0.021-0.539V-39.432z"/>
	<path d="M52.856-45.068c-0.299,0.106-0.596,0.214-0.893,0.322c-0.123,0.044-0.229,0.112-0.318,0.204
		c-0.267,0.286-0.174,0.674,0.204,0.787c0.373,0.112,0.725,0.049,1.035-0.185c0.078-0.059,0.121-0.129,0.121-0.227
		c0-0.131,0.013-0.259,0.019-0.39c0.004,0,0.006,0,0.008,0c0-0.131-0.002-0.261,0.002-0.392
		C53.035-45.06,52.971-45.107,52.856-45.068"/>
	<path d="M61.531-45.779c0.441-0.072,0.882-0.144,1.323-0.218c0.076-0.013,0.114-0.07,0.119-0.142
		c0.015-0.21-0.31-0.519-0.532-0.496c-0.191,0.019-0.384,0.047-0.571,0.089c-0.295,0.066-0.532,0.422-0.464,0.67
		C61.423-45.81,61.453-45.772,61.531-45.779"/>
	<path d="M61.752-36.861c0.015-0.202-0.307-0.513-0.522-0.494c-0.201,0.015-0.403,0.042-0.596,0.095
		c-0.248,0.066-0.454,0.325-0.46,0.566c-0.004,0.151,0.034,0.206,0.149,0.187c0.433-0.064,0.867-0.136,1.3-0.206
		C61.704-36.729,61.746-36.786,61.752-36.861"/>
	<path d="M37.883-48.211c-0.149-0.083-0.307-0.159-0.409-0.307c-0.057-0.085-0.189-0.085-0.276-0.009
		c-0.114,0.098-0.191,0.214-0.178,0.369c0.009,0.104-0.023,0.193-0.089,0.276c-0.093,0.117-0.144,0.25-0.131,0.403
		c0.015,0.178-0.025,0.346-0.119,0.503c-0.087,0.144-0.212,0.244-0.344,0.346c-0.284,0.218-0.554,0.45-0.863,0.64
		c-0.397,0.246-0.827,0.39-1.304,0.409c-0.585,0.023-1.139-0.1-1.658-0.344c-0.592-0.28-1.151-0.626-1.767-0.867
		c-0.184-0.072-0.348-0.1-0.511,0.013c-0.117,0.081-0.263,0.159-0.273,0.322c-0.008,0.148-0.011,0.297,0.025,0.443
		c0.163,0.636,0.467,1.19,1.033,1.593c0.339,0.24,0.7,0.43,1.092,0.577c0.598,0.229,1.219,0.35,1.86,0.38
		c0.229,0.009,0.458-0.021,0.685-0.042c0.558-0.055,1.086-0.206,1.586-0.443c0.271-0.129,0.515-0.297,0.749-0.479
		c0.273-0.221,0.496-0.479,0.649-0.787c0.079-0.246,0.165-0.49,0.153-0.753c-0.008-0.21-0.062-0.414-0.108-0.619
		c-0.059-0.263-0.089-0.519,0.134-0.736c0.036-0.034,0.042-0.087,0.051-0.136c0.034-0.182,0.059-0.365,0.115-0.545
		C38.013-48.088,37.973-48.16,37.883-48.211"/>
</g>
</svg>
