<?xml version="1.0" encoding="utf-8"?>
<!-- Generator: Adobe Illustrator 24.0.0, SVG Export Plug-In . SVG Version: 6.00 Build 0)  -->
<svg version="1.1" id="Layer_1" xmlns="http://www.w3.org/2000/svg" xmlns:xlink="http://www.w3.org/1999/xlink" x="0px" y="0px"
	 viewBox="0 0 100 30" style="enable-background:new 0 0 100 30;" xml:space="preserve">
<g>
	<path d="M60.191,16.111c0,0.901,0.005,1.802-0.002,2.703c-0.005,0.713-0.357,1.099-0.98,1.099c-0.622,0-0.971-0.382-0.975-1.105
		c-0.008-1.649-0.002-3.298-0.003-4.946c-0.001-1.287-0.827-2.153-2.059-2.165c-1.249-0.012-2.103,0.861-2.105,2.156
		c-0.002,1.649,0.001,3.298-0.001,4.946c-0.001,0.725-0.335,1.108-0.958,1.111c-0.624,0.003-0.972-0.384-0.973-1.099
		c-0.003-1.683,0.002-3.366-0.002-5.048c-0.002-0.819-0.359-1.45-1.087-1.823c-0.753-0.386-1.513-0.344-2.223,0.13
		c-0.579,0.387-0.851,0.94-0.846,1.644c0.01,1.581,0.003,3.162,0.003,4.742c0,0.153,0.003,0.306-0.01,0.458
		c-0.057,0.67-0.44,1.04-1.033,1.008c-0.559-0.031-0.918-0.434-0.92-1.067c-0.006-1.496-0.006-2.992,0-4.487
		c0.002-0.475-0.045-0.953,0.049-1.424c0.547-2.721,3.646-4.096,6.055-2.651c0.681,0.408,1.232,0.427,1.924,0.016
		c2.776-1.646,6.276,0.348,6.152,3.509C60.166,14.581,60.191,15.346,60.191,16.111z"/>
	<path d="M40.246,19.98c-0.476,0-0.952,0.009-1.427-0.003c-0.677-0.017-1.087-0.405-1.093-1.015
		c-0.006-0.614,0.395-1.011,1.075-1.022c0.9-0.014,1.801,0,2.701-0.006c0.669-0.004,1.187-0.389,1.326-0.971
		c0.139-0.582-0.157-1.166-0.785-1.437c-0.354-0.153-0.743-0.227-1.117-0.334c-1.658-0.475-2.571-1.841-2.271-3.399
		c0.316-1.647,2.095-2.662,3.674-2.097c0.573,0.205,0.862,0.743,0.694,1.293c-0.158,0.519-0.672,0.801-1.254,0.659
		c-0.397-0.097-0.736-0.068-1.005,0.278c-0.204,0.262-0.192,0.549-0.054,0.814c0.179,0.345,0.547,0.436,0.888,0.517
		c0.53,0.127,1.056,0.26,1.534,0.527c1.624,0.904,2.23,2.722,1.417,4.342c-0.589,1.174-1.587,1.816-2.928,1.853
		C41.163,19.99,40.704,19.98,40.246,19.98z"/>
	<path d="M31.086,7.122c-3.55,0-6.428,2.878-6.428,6.428s2.878,6.428,6.428,6.428s6.428-2.878,6.428-6.428
		S34.637,7.122,31.086,7.122z M31.086,17.953c-2.432,0-4.403-1.971-4.403-4.403c0-2.432,1.971-4.403,4.403-4.403
		s4.403,1.971,4.403,4.403C35.489,15.982,33.518,17.953,31.086,17.953z"/>
	<path d="M66.515,9.604c-2.9,0-5.251,2.351-5.251,5.251s2.351,5.251,5.251,5.251c2.9,0,5.251-2.351,5.251-5.251
		S69.415,9.604,66.515,9.604z M66.683,18.018c-1.747,0-3.163-1.416-3.163-3.163s1.416-3.163,3.163-3.163s3.163,1.416,3.163,3.163
		S68.43,18.018,66.683,18.018z"/>
</g>
</svg>
