<?xml version="1.0" encoding="utf-8"?>
<!-- Generator: Adobe Illustrator 23.1.1, SVG Export Plug-In . SVG Version: 6.00 Build 0)  -->
<svg version="1.1" id="Layer_1" xmlns="http://www.w3.org/2000/svg" xmlns:xlink="http://www.w3.org/1999/xlink" x="0px" y="0px"
	 viewBox="0 0 125 50" style="enable-background:new 0 0 125 50;" xml:space="preserve">
<style type="text/css">
	.st0{fill:#010101;}
	.st1{opacity:0.4;}
	.st2{fill:#310F3F;}
	.st3{fill:#E1BEAF;}
	.st4{fill:#93ACB2;}
	.st5{fill:#8B3E6F;}
	.st6{fill:#FDF165;}
	.st7{fill:#EC529C;}
	.st8{fill:#FFFFFF;}
	.st9{fill:#AAE0F7;}
	.st10{fill:#2F141A;}
	.st11{fill:#D38BBC;}
	.st12{fill:#51B848;}
	.st13{fill:#CCAD95;}
	.st14{fill:#453F39;}
	.st15{fill:#E5A3AD;}
	.st16{fill:#E6BA2A;}
	.st17{opacity:0.25;}
	.st18{fill:#0E8467;}
</style>
<g>
	<path class="st0" d="M68.531,13.231l-0.007-0.006c-0.485-0.428-1.032-0.758-1.625-0.984c-1.187-0.449-2.421-0.449-3.608,0
		c-0.595,0.225-1.133,0.557-1.6,0.987c-0.488,0.451-0.883,1.021-1.175,1.694c-0.291,0.672-0.439,1.455-0.439,2.326v11.087
		c0,0.911,0.148,1.704,0.44,2.358c0.292,0.654,0.689,1.205,1.171,1.63c0.468,0.451,1.008,0.794,1.604,1.019
		c0.592,0.224,1.2,0.338,1.804,0.338s1.211-0.114,1.804-0.338c0.595-0.225,1.143-0.567,1.629-1.016
		c0.469-0.431,0.855-0.981,1.147-1.633c0.292-0.654,0.44-1.448,0.44-2.358V17.248c0-0.871-0.148-1.654-0.439-2.326
		C69.384,14.251,68.999,13.682,68.531,13.231z M66.818,17.249v11.087c0,0.661-0.17,1.147-0.505,1.447
		c-0.346,0.31-0.745,0.461-1.219,0.461s-0.873-0.151-1.219-0.462c-0.335-0.299-0.504-0.786-0.504-1.447V17.249
		c0-0.661,0.17-1.147,0.504-1.447c0.347-0.31,0.745-0.461,1.219-0.461s0.872,0.151,1.219,0.461
		C66.648,16.102,66.818,16.589,66.818,17.249z"/>
	<polygon class="st0" points="70.012,15.341 73.327,15.341 73.327,33.505 76.623,33.505 76.623,15.341 79.938,15.341 79.938,12.08 
		70.012,12.08 	"/>
	<rect x="80.427" y="12.08" class="st0" width="3.295" height="21.425"/>
	<path class="st0" d="M92.396,12.336c-0.616-0.287-1.303-0.433-2.043-0.433c-0.872,0-1.637,0.161-2.274,0.48
		c-0.636,0.318-1.166,0.751-1.574,1.281c-0.429,0.531-0.754,1.171-0.967,1.903c-0.211,0.723-0.317,1.498-0.317,2.301
		c0,1.343,0.22,2.482,0.653,3.381c0.442,0.919,1.316,1.663,2.595,2.212l2.049,0.884c0.345,0.152,0.623,0.296,0.828,0.427
		c0.187,0.119,0.339,0.275,0.444,0.448c0.099,0.191,0.168,0.454,0.203,0.779c0.036,0.346,0.055,0.795,0.055,1.334
		c0,0.461-0.014,0.887-0.042,1.267c-0.026,0.351-0.107,0.654-0.242,0.901c-0.13,0.24-0.309,0.419-0.545,0.548
		c-0.24,0.13-0.588,0.195-1.036,0.195c-0.662,0-1.114-0.187-1.383-0.572c-0.286-0.409-0.425-0.856-0.425-1.366v-1.159h-3.295v1.336
		c0,0.734,0.133,1.422,0.396,2.044c0.262,0.621,0.621,1.174,1.067,1.642c0.45,0.473,0.994,0.847,1.617,1.111
		c0.623,0.265,1.304,0.4,2.023,0.4c0.946,0,1.763-0.166,2.427-0.494c0.666-0.329,1.213-0.788,1.625-1.367
		c0.389-0.55,0.674-1.226,0.849-2.009c0.171-0.77,0.258-1.615,0.258-2.509c0-0.766-0.038-1.464-0.114-2.077
		c-0.078-0.618-0.224-1.178-0.442-1.675c-0.236-0.475-0.565-0.9-0.978-1.261c-0.409-0.358-0.95-0.673-1.604-0.936l-2.191-0.914
		c-0.357-0.15-0.64-0.3-0.841-0.448c-0.187-0.136-0.331-0.3-0.427-0.485c-0.1-0.192-0.163-0.414-0.188-0.661
		c-0.027-0.268-0.041-0.608-0.041-1.01c0-0.34,0.027-0.671,0.082-0.981c0.051-0.298,0.146-0.566,0.278-0.791
		c0.134-0.211,0.306-0.383,0.526-0.525c0.206-0.134,0.489-0.201,0.838-0.201c0.657,0,1.107,0.213,1.376,0.65
		c0.287,0.464,0.432,1.026,0.432,1.671v0.893h3.295v-1.69c0-1.268-0.454-2.408-1.352-3.392
		C93.545,13.004,93.008,12.622,92.396,12.336z"/>
	<path class="st0" d="M61.281,37.136c-0.286,0.301-0.429,0.732-0.429,1.293v0.665h-0.907v0.497h0.907v4.989h0.609v-4.99h1.309
		v-0.497h-1.309v-0.682c0-0.383,0.093-0.679,0.279-0.887c0.186-0.209,0.446-0.313,0.781-0.313c0.199,0,0.383,0.02,0.552,0.061
		l0.046-0.503c-0.2-0.056-0.415-0.085-0.644-0.085C61.964,36.685,61.567,36.835,61.281,37.136z"/>
	<path class="st0" d="M65.704,38.992c-0.474,0-0.897,0.117-1.27,0.352c-0.374,0.235-0.662,0.563-0.867,0.987
		c-0.205,0.422-0.307,0.897-0.307,1.425v0.122c0,0.845,0.228,1.524,0.683,2.036c0.454,0.513,1.045,0.769,1.772,0.769
		c0.477,0,0.9-0.115,1.273-0.345c0.372-0.23,0.66-0.556,0.865-0.981c0.204-0.424,0.306-0.902,0.306-1.432v-0.127
		c0-0.845-0.226-1.524-0.679-2.036C67.026,39.248,66.434,38.992,65.704,38.992z M67.555,41.872c0,0.689-0.17,1.245-0.509,1.666
		c-0.34,0.421-0.783,0.631-1.331,0.631c-0.552,0-0.996-0.211-1.336-0.631s-0.509-0.959-0.509-1.615v-0.111
		c0-0.686,0.171-1.241,0.512-1.666c0.341-0.425,0.783-0.636,1.323-0.636c0.361,0,0.683,0.096,0.964,0.287
		c0.281,0.191,0.499,0.461,0.654,0.809c0.156,0.348,0.233,0.732,0.233,1.151L67.555,41.872L67.555,41.872z"/>
	<path class="st0" d="M69.755,39.965l-0.01-0.872h-0.594v5.486h0.604v-3.768c0.111-0.402,0.298-0.709,0.56-0.92
		c0.262-0.211,0.582-0.317,0.961-0.317c0.145,0,0.282,0.012,0.41,0.035l0.015-0.552c-0.098-0.043-0.231-0.065-0.4-0.065
		C70.591,38.992,70.076,39.316,69.755,39.965z"/>
	<path class="st0" d="M76.663,38.992c-0.426,0-0.822,0.121-1.186,0.363c-0.365,0.242-0.65,0.574-0.855,0.996
		s-0.307,0.898-0.307,1.425v0.218c0,0.51,0.104,0.971,0.314,1.382c0.21,0.411,0.503,0.731,0.88,0.961
		c0.377,0.23,0.799,0.345,1.265,0.345c0.848,0,1.496-0.323,1.942-0.969l-0.38-0.289c-0.203,0.26-0.429,0.449-0.678,0.568
		c-0.249,0.118-0.535,0.178-0.859,0.178c-0.541,0-0.99-0.207-1.347-0.621s-0.535-0.932-0.535-1.554v-0.117h3.914v-0.34
		c0-0.787-0.195-1.409-0.586-1.864C77.858,39.219,77.33,38.992,76.663,38.992z M78.23,41.359H74.94
		c0.068-0.565,0.257-1.014,0.571-1.349c0.313-0.335,0.697-0.502,1.153-0.502c0.46,0,0.832,0.165,1.116,0.497
		c0.284,0.331,0.435,0.761,0.451,1.288L78.23,41.359L78.23,41.359z"/>
	<path class="st0" d="M83.326,39.869c-0.389-0.585-0.953-0.877-1.693-0.877c-0.652,0-1.169,0.253-1.549,0.758
		c-0.38,0.506-0.571,1.184-0.571,2.036v0.071c0,0.866,0.194,1.552,0.581,2.061c0.387,0.509,0.897,0.763,1.529,0.763
		c0.753,0,1.325-0.277,1.714-0.832l0.026,0.73h0.568v-7.788h-0.604V39.869L83.326,39.869L83.326,39.869z M83.326,43.165
		c-0.314,0.659-0.845,0.989-1.592,0.989c-0.51,0-0.906-0.202-1.186-0.606c-0.28-0.404-0.421-0.956-0.421-1.656
		c0-0.781,0.142-1.372,0.426-1.773c0.284-0.4,0.682-0.601,1.191-0.601c0.741,0,1.268,0.357,1.582,1.07L83.326,43.165L83.326,43.165
		L83.326,43.165z"/>
	<path class="st0" d="M88.786,43.063c-0.233,0.727-0.789,1.091-1.668,1.091c-0.845,0-1.268-0.522-1.268-1.567v-3.493h-0.604v3.57
		c0.007,0.666,0.162,1.169,0.466,1.508c0.304,0.34,0.748,0.51,1.333,0.51c0.801,0,1.384-0.265,1.749-0.796l0.01,0.695h0.588v-5.487
		h-0.609L88.786,43.063L88.786,43.063L88.786,43.063z"/>
	<path class="st0" d="M91.46,40.102c0.303-0.396,0.727-0.593,1.275-0.593c0.429,0,0.785,0.132,1.068,0.396
		c0.283,0.264,0.437,0.61,0.464,1.039h0.583c-0.027-0.585-0.236-1.056-0.626-1.414c-0.391-0.358-0.887-0.537-1.488-0.537
		c-0.473,0-0.887,0.113-1.24,0.34c-0.353,0.227-0.624,0.548-0.813,0.964c-0.189,0.416-0.284,0.894-0.284,1.435v0.183
		c0,0.845,0.21,1.518,0.631,2.018c0.421,0.5,0.991,0.751,1.711,0.751c0.365,0,0.707-0.078,1.027-0.234
		c0.32-0.156,0.575-0.37,0.769-0.646c0.193-0.275,0.298-0.581,0.314-0.915h-0.583c-0.023,0.379-0.178,0.687-0.464,0.926
		c-0.286,0.238-0.639,0.358-1.062,0.358c-0.551,0-0.978-0.196-1.28-0.588c-0.302-0.392-0.454-0.938-0.454-1.638v-0.178
		C91.006,41.052,91.157,40.498,91.46,40.102z"/>
	<path class="st0" d="M99.746,40.731c-0.01-0.548-0.192-0.974-0.545-1.28c-0.353-0.306-0.835-0.459-1.448-0.459
		c-0.591,0-1.09,0.16-1.495,0.479c-0.405,0.319-0.608,0.697-0.608,1.133l0.608,0.005c0-0.304,0.139-0.565,0.416-0.781
		c0.277-0.217,0.627-0.325,1.05-0.325c0.463,0,0.815,0.113,1.057,0.337c0.241,0.225,0.362,0.533,0.362,0.926v0.624h-1.1
		c-0.794,0-1.414,0.156-1.858,0.467c-0.444,0.311-0.666,0.734-0.666,1.268c0,0.449,0.163,0.822,0.489,1.116
		c0.326,0.293,0.753,0.441,1.28,0.441c0.368,0,0.718-0.076,1.047-0.226c0.33-0.15,0.601-0.365,0.813-0.641
		c0.017,0.338,0.056,0.593,0.117,0.766h0.649v-0.061c-0.111-0.264-0.167-0.661-0.167-1.191L99.746,40.731L99.746,40.731
		L99.746,40.731z M99.143,43.063c-0.145,0.328-0.378,0.59-0.697,0.786c-0.319,0.196-0.683,0.294-1.088,0.294
		c-0.365,0-0.661-0.101-0.89-0.304c-0.228-0.203-0.342-0.458-0.342-0.766c0-0.376,0.171-0.67,0.512-0.885
		c0.341-0.215,0.814-0.325,1.42-0.332h1.085L99.143,43.063L99.143,43.063z"/>
	<path class="st0" d="M102.763,44.154c-0.257,0-0.441-0.075-0.55-0.224c-0.11-0.149-0.165-0.376-0.165-0.68v-3.66h1.136v-0.497
		h-1.136v-1.404h-0.608v1.404h-1.009v0.497h1.009v3.661c0,0.47,0.095,0.826,0.284,1.068c0.189,0.242,0.491,0.363,0.907,0.363
		c0.274,0,0.49-0.029,0.649-0.085l-0.026-0.493C103.028,44.137,102.864,44.154,102.763,44.154z"/>
	<path class="st0" d="M106.19,38.992c-0.474,0-0.897,0.117-1.27,0.352c-0.374,0.235-0.662,0.563-0.867,0.987
		c-0.205,0.422-0.307,0.897-0.307,1.425v0.122c0,0.845,0.228,1.524,0.683,2.036c0.454,0.513,1.045,0.769,1.772,0.769
		c0.477,0,0.9-0.115,1.273-0.345c0.372-0.23,0.66-0.556,0.865-0.981c0.204-0.424,0.306-0.902,0.306-1.432v-0.127
		c0-0.845-0.226-1.524-0.679-2.036C107.512,39.248,106.919,38.992,106.19,38.992z M108.04,41.872c0,0.689-0.17,1.245-0.509,1.666
		c-0.34,0.421-0.783,0.631-1.331,0.631c-0.552,0-0.996-0.211-1.336-0.631s-0.509-0.959-0.509-1.615v-0.111
		c0-0.686,0.171-1.241,0.512-1.666c0.341-0.425,0.783-0.636,1.323-0.636c0.361,0,0.683,0.096,0.964,0.287
		c0.281,0.191,0.499,0.461,0.654,0.809c0.156,0.348,0.233,0.732,0.233,1.151L108.04,41.872L108.04,41.872z"/>
	<path class="st0" d="M110.239,39.965l-0.01-0.872h-0.594v5.486h0.604v-3.768c0.111-0.402,0.298-0.709,0.56-0.92
		c0.262-0.211,0.582-0.317,0.961-0.317c0.145,0,0.282,0.012,0.41,0.035l0.015-0.552c-0.098-0.043-0.231-0.065-0.4-0.065
		C111.076,38.992,110.56,39.316,110.239,39.965z"/>
	<path class="st0" d="M115.981,41.917c-0.265-0.142-0.664-0.275-1.196-0.4c-0.532-0.125-0.9-0.263-1.1-0.413
		c-0.201-0.15-0.302-0.363-0.302-0.636c0-0.284,0.121-0.515,0.363-0.692c0.241-0.178,0.562-0.266,0.961-0.266
		c0.409,0,0.748,0.107,1.017,0.319c0.269,0.213,0.403,0.48,0.403,0.801h0.609c0-0.487-0.185-0.881-0.555-1.184
		c-0.37-0.302-0.861-0.454-1.473-0.454c-0.565,0-1.028,0.141-1.39,0.423c-0.361,0.283-0.543,0.639-0.543,1.072
		c0,0.274,0.065,0.507,0.196,0.7c0.13,0.193,0.329,0.356,0.598,0.489c0.269,0.134,0.647,0.252,1.134,0.355
		c0.487,0.104,0.851,0.246,1.093,0.428c0.241,0.183,0.362,0.424,0.362,0.725c0,0.284-0.13,0.519-0.39,0.704
		c-0.261,0.186-0.602,0.279-1.024,0.279c-0.453,0-0.817-0.099-1.093-0.297c-0.275-0.198-0.425-0.474-0.448-0.829h-0.609
		c0,0.474,0.199,0.865,0.596,1.174c0.397,0.309,0.915,0.465,1.554,0.465c0.601,0,1.089-0.139,1.463-0.416
		c0.374-0.277,0.561-0.647,0.561-1.11c0-0.284-0.064-0.526-0.192-0.725C116.443,42.23,116.246,42.059,115.981,41.917z"/>
	<path class="st0" d="M118.576,43.928c-0.076-0.08-0.178-0.12-0.307-0.12s-0.23,0.04-0.304,0.12
		c-0.075,0.08-0.112,0.178-0.112,0.293c0,0.113,0.037,0.207,0.112,0.283c0.074,0.077,0.175,0.115,0.304,0.115
		c0.129,0,0.231-0.038,0.307-0.115c0.076-0.077,0.114-0.171,0.114-0.283C118.69,44.107,118.652,44.009,118.576,43.928z"/>
	<polygon class="st0" points="118.518,42.52 118.554,37.196 117.925,37.196 117.955,42.52 	"/>
	<polygon class="st0" points="119.681,36.827 120.423,36.827 120.423,38.814 120.72,38.814 120.72,36.827 121.465,36.827 
		121.465,36.562 119.681,36.562 	"/>
	<path class="st0" d="M122.892,38.129c-0.054,0.159-0.094,0.279-0.12,0.361c-0.023-0.074-0.059-0.185-0.108-0.334l-0.533-1.595
		h-0.448v2.252h0.287v-1.917l0.652,1.917h0.269l0.654-1.885v1.885h0.287v-2.252h-0.4L122.892,38.129z"/>
	<g>
		<g class="st1">
			<path class="st2" d="M48.071,43.553c0-0.889-10.235-1.609-22.861-1.609S2.349,42.664,2.349,43.553
				c0,0.53,3.631,0.999,9.236,1.292c-0.093,0.049-0.143,0.1-0.143,0.152c0,0.402,2.931,0.728,6.547,0.728
				c3.108,0,5.708-0.241,6.378-0.564c0.28,0.001,0.56,0.001,0.842,0.001c0.839,0,1.668-0.003,2.484-0.009
				c0.643,0.327,3.261,0.572,6.395,0.572c3.616,0,6.547-0.326,6.547-0.728c0-0.082-0.124-0.161-0.348-0.234
				C45.059,44.467,48.071,44.035,48.071,43.553z"/>
		</g>
		<g>
			<path class="st3" d="M43.53,14.158c0.386,0.168,0.739,0.453,1.16,0.469c0.047,0.002,0.091,0.002,0.134,0.001
				c1.03-0.026,0.974-0.841,1.529-1.481c0.186-0.214,0.431-0.37,0.686-0.493c1.839-0.89,4.81,0.113,4.634,2.452
				c-0.058,0.774-0.399,1.5-0.798,2.166c-1.056,1.761-2.837,2.493-4.148,3.991c-0.31,0.354-0.661,0.669-1.012,0.981
				c-0.368,0.327-0.591,0.622-0.857,1.035c-0.65,1.009-1.416,1.962-2.078,2.974c-0.61,0.932-1.198,1.878-1.762,2.839
				c-0.226,0.385-0.761,1.684-1.389,1.501c-0.701-0.204-0.439-2.244-0.734-2.782c-0.537-0.982-1-1.517-0.884-2.722
				c0.064-0.665,0.372-1.204,0.773-1.713c0.253-0.322,0.458-0.696,0.683-1.037c0.128-0.195,0.615-0.71,0.615-0.934
				c0.319-0.484,0.609-1.017,0.995-1.449c0.466-0.521,0.861-1.112,1.253-1.696c0.192-0.287,0.379-0.591,0.433-0.931
				c0.076-0.487-0.157-0.851-0.271-1.299C42.294,15.256,42.236,13.596,43.53,14.158z"/>
		</g>
		<g>
			<path class="st0" d="M39.88,30.959c0.266-0.435,0.526-0.875,0.782-1.317c0.258-0.44,0.512-0.883,0.764-1.326
				c0.505-0.887,1.002-1.78,1.534-2.655c0.535-0.874,1.1-1.733,1.732-2.548c0.632-0.814,1.327-1.584,2.087-2.287
				c0.379-0.352,0.774-0.687,1.184-1.004c0.399-0.312,0.787-0.63,1.155-0.969c0.368-0.338,0.715-0.696,1.024-1.078
				c0.158-0.188,0.297-0.388,0.43-0.59c0.126-0.205,0.244-0.414,0.335-0.631c0.183-0.434,0.282-0.892,0.257-1.354
				c-0.021-0.462-0.155-0.921-0.336-1.374c-0.091-0.226-0.195-0.452-0.304-0.678c-0.11-0.225-0.224-0.456-0.338-0.679
				c-0.114-0.224-0.231-0.443-0.357-0.646c-0.126-0.202-0.263-0.388-0.414-0.514c-0.152-0.127-0.307-0.19-0.501-0.196
				c-0.193-0.006-0.414,0.041-0.635,0.113c-0.056,0.019-0.111,0.037-0.167,0.059l-0.083,0.032c-0.025,0.011-0.05,0.02-0.074,0.032
				c-0.097,0.044-0.187,0.096-0.269,0.158c-0.164,0.122-0.296,0.285-0.407,0.48c-0.219,0.392-0.353,0.877-0.481,1.361
				c-0.034,0.128-0.058,0.227-0.077,0.345c-0.018,0.115-0.031,0.233-0.041,0.356c-0.023,0.246-0.022,0.5-0.079,0.798
				c-0.032,0.147-0.08,0.322-0.219,0.487c-0.069,0.08-0.16,0.148-0.254,0.191c-0.094,0.043-0.187,0.065-0.274,0.076
				c-0.173,0.02-0.325,0.004-0.467-0.019c-0.071-0.012-0.141-0.026-0.208-0.043l-0.102-0.026c-0.043-0.012-0.084-0.026-0.122-0.041
				c-0.154-0.062-0.277-0.141-0.392-0.221c-0.115-0.08-0.22-0.164-0.321-0.247c-0.202-0.166-0.392-0.334-0.583-0.48
				c-0.188-0.145-0.39-0.275-0.555-0.312c-0.082-0.018-0.139-0.013-0.194,0.012c-0.055,0.024-0.117,0.08-0.174,0.159
				c-0.057,0.078-0.107,0.178-0.144,0.269c-0.035,0.094-0.053,0.189-0.058,0.287c-0.011,0.197,0.05,0.412,0.135,0.637
				c0.086,0.226,0.197,0.462,0.283,0.725c0.042,0.132,0.079,0.27,0.1,0.414c0.021,0.145,0.026,0.295,0.013,0.444
				c-0.031,0.299-0.138,0.583-0.287,0.822c-0.037,0.06-0.074,0.121-0.116,0.176c-0.041,0.057-0.082,0.113-0.119,0.161
				c-0.076,0.101-0.152,0.2-0.227,0.303c-0.602,0.817-1.197,1.649-1.791,2.478l-1.787,2.488c-0.299,0.414-0.6,0.827-0.908,1.235
				c-0.309,0.409-0.613,0.817-0.947,1.213l-0.19-0.156c0.311-0.396,0.603-0.816,0.896-1.232l0.87-1.257l1.725-2.529
				c0.576-0.843,1.144-1.69,1.738-2.527c0.074-0.104,0.152-0.209,0.227-0.313c0.04-0.054,0.074-0.102,0.106-0.149
				c0.035-0.047,0.063-0.096,0.092-0.145c0.117-0.196,0.187-0.404,0.206-0.613c0.015-0.21-0.023-0.425-0.101-0.646
				c-0.075-0.221-0.186-0.447-0.286-0.696c-0.097-0.248-0.194-0.533-0.185-0.849c0.004-0.156,0.033-0.314,0.085-0.461
				c0.057-0.146,0.12-0.278,0.212-0.407c0.091-0.127,0.214-0.26,0.392-0.344c0.087-0.042,0.186-0.068,0.282-0.075
				c0.096-0.008,0.188,0.001,0.273,0.019c0.17,0.037,0.309,0.104,0.435,0.176c0.126,0.073,0.24,0.152,0.348,0.233
				c0.215,0.162,0.41,0.331,0.604,0.487c0.191,0.153,0.39,0.303,0.561,0.37c0.021,0.009,0.04,0.014,0.059,0.019l0.084,0.02
				c0.057,0.013,0.113,0.023,0.167,0.031c0.109,0.017,0.214,0.022,0.295,0.01c0.04-0.005,0.071-0.016,0.094-0.026
				c0.022-0.011,0.035-0.022,0.049-0.039c0.028-0.031,0.06-0.109,0.078-0.21c0.037-0.204,0.041-0.464,0.061-0.726
				c0.01-0.132,0.023-0.268,0.044-0.405c0.02-0.135,0.055-0.284,0.086-0.403c0.064-0.251,0.131-0.504,0.213-0.757
				c0.083-0.254,0.181-0.51,0.32-0.762c0.139-0.25,0.33-0.495,0.575-0.681c0.122-0.093,0.253-0.17,0.388-0.232
				c0.034-0.016,0.068-0.03,0.101-0.044l0.096-0.037c0.063-0.026,0.129-0.048,0.193-0.07c0.262-0.087,0.547-0.159,0.865-0.148
				c0.158,0.005,0.325,0.036,0.48,0.098c0.156,0.061,0.297,0.151,0.416,0.252c0.24,0.204,0.402,0.44,0.547,0.67
				c0.143,0.231,0.265,0.463,0.383,0.694c0.118,0.232,0.23,0.458,0.343,0.692c0.113,0.234,0.222,0.472,0.321,0.719
				c0.199,0.492,0.35,1.029,0.37,1.59c0.025,0.561-0.104,1.124-0.325,1.626c-0.11,0.252-0.246,0.487-0.391,0.715
				c-0.15,0.222-0.306,0.44-0.479,0.641c-0.341,0.407-0.717,0.773-1.107,1.117c-0.391,0.344-0.8,0.664-1.212,0.972
				c-0.404,0.3-0.793,0.62-1.172,0.951c-1.521,1.324-2.773,2.934-3.893,4.63c-0.563,0.848-1.106,1.712-1.652,2.575
				c-0.273,0.431-0.548,0.862-0.827,1.29C40.461,30.118,40.173,30.541,39.88,30.959z"/>
		</g>
		<g>
			<path class="st3" d="M11.256,41.623c-0.2,0.318-0.368,0.657-0.565,0.973c-0.149,0.239-0.174,0.496-0.419,0.671
				c-0.473,0.338-0.743,0.226-1.278,0.11c-0.506-0.11-1.004-0.258-1.492-0.429c-0.505-0.177-1.061-0.005-1.579,0.071
				c-0.484,0.071-0.949,0.342-1.423,0.467c-0.72,0.19-1.453,0.107-2.151-0.133c-0.461-0.158-1.824-1.304-0.876-1.747
				c0.426-0.2,0.903-0.363,1.344-0.539c0.4-0.16,0.823-0.363,1.223-0.56c0.381-0.188,0.804-0.259,1.129-0.547
				c0.314-0.278,0.662-0.448,1.029-0.66c0.483-0.278,0.951-0.582,1.402-0.91c0.239-0.174,0.503-0.315,0.735-0.497
				c0.186-0.146,0.3-0.33,0.456-0.51c0.447-0.519,0.917-1.029,1.359-1.543c0.479-0.556,0.79-1.419,1.056-2.095
				c0.321-0.813,0.652-1.65,0.762-2.522c0.091-0.726,0.1-1.48,0.344-2.177c0.182-0.52,0.933-1.046,1.499-0.918
				c0.459,0.104,0.887,0.515,1.364,0.662c1.172,0.362,1.611,1.314,1.74,2.455c0.146,1.29-0.514,2.239-1.096,3.331
				c-0.755,1.417-1.143,3.01-1.99,4.38c-0.335,0.541-0.754,1.039-1.267,1.42C12.042,40.761,11.611,41.061,11.256,41.623z"/>
		</g>
		<g>
			<path class="st0" d="M12.12,27.308c0.078,0.502,0.131,1.01,0.147,1.52c0.013,0.51-0.003,1.022-0.05,1.531
				c-0.094,1.019-0.312,2.033-0.669,3c-0.177,0.484-0.384,0.958-0.621,1.417c-0.238,0.459-0.509,0.9-0.804,1.326
				c-0.591,0.849-1.281,1.629-2.057,2.318c-0.779,0.69-1.653,1.271-2.577,1.742c-0.922,0.475-1.904,0.824-2.852,1.165
				c-0.235,0.087-0.469,0.174-0.684,0.273c-0.107,0.049-0.209,0.102-0.298,0.158c-0.086,0.056-0.161,0.118-0.191,0.166
				c-0.033,0.05-0.033,0.067-0.028,0.124c0.012,0.057,0.047,0.141,0.104,0.226c0.055,0.087,0.13,0.173,0.201,0.255
				c0.075,0.078,0.154,0.152,0.24,0.216c0.171,0.128,0.364,0.224,0.574,0.287c0.211,0.061,0.438,0.091,0.67,0.1
				c0.467,0.016,0.955-0.054,1.446-0.14c0.492-0.087,0.991-0.195,1.505-0.275c0.129-0.02,0.258-0.039,0.389-0.054
				c0.066-0.007,0.125-0.017,0.217-0.02c0.083-0.003,0.158,0.002,0.231,0.009c0.29,0.03,0.544,0.093,0.797,0.157
				c0.5,0.13,0.983,0.28,1.454,0.367c0.232,0.042,0.47,0.068,0.65,0.04c0.09-0.013,0.149-0.043,0.174-0.068
				c0.014-0.014,0.023-0.024,0.035-0.052c0.026-0.061,0.053-0.123,0.082-0.183c0.225-0.481,0.491-0.936,0.805-1.364
				c0.315-0.426,0.678-0.828,1.126-1.154c0.224-0.161,0.474-0.3,0.745-0.398c0.274-0.093,0.569-0.144,0.869-0.122
				c0.155,0.011,0.308,0.047,0.448,0.097c0.139,0.049,0.269,0.117,0.368,0.162c0.046,0.022,0.094,0.035,0.08,0.031
				c-0.003,0-0.031,0.002-0.048,0.012c-0.019,0.012-0.023,0.016-0.021,0.015c0.007-0.005,0.029-0.046,0.046-0.09
				c0.018-0.044,0.035-0.098,0.05-0.152c0.03-0.108,0.057-0.235,0.079-0.344c0.009-0.045,0.011-0.084,0.01-0.103
				c-0.004-0.02,0.002,0,0.014,0.006c0.01,0.005-0.008-0.009-0.048-0.016c-0.039-0.008-0.093-0.012-0.153-0.015
				c-0.061-0.003-0.127-0.004-0.203-0.012c-0.076-0.008-0.162-0.017-0.271-0.065c-0.053-0.025-0.113-0.063-0.162-0.119
				c-0.049-0.056-0.082-0.124-0.098-0.184c-0.031-0.123-0.018-0.217-0.005-0.299c0.015-0.081,0.039-0.156,0.059-0.214l0.061-0.187
				c0.039-0.126,0.087-0.243,0.13-0.365c0.044-0.121,0.089-0.241,0.136-0.36c0.373-0.952,0.771-1.887,1.174-2.822
				c0.404-0.934,0.817-1.863,1.239-2.789c0.209-0.463,0.425-0.925,0.643-1.384c0.221-0.459,0.439-0.917,0.682-1.371l0.218,0.114
				c-0.441,0.906-0.831,1.847-1.234,2.777c-0.399,0.933-0.789,1.87-1.171,2.81c-0.381,0.94-0.756,1.883-1.103,2.832
				c-0.044,0.118-0.087,0.237-0.127,0.355s-0.086,0.237-0.12,0.355l-0.055,0.176c-0.021,0.062-0.032,0.11-0.039,0.154
				c-0.007,0.042-0.003,0.079,0,0.078c0.001,0-0.002-0.01-0.009-0.017c-0.007-0.009-0.012-0.011-0.008-0.01
				c0.008,0.004,0.05,0.012,0.1,0.014c0.051,0.003,0.111,0.002,0.178,0.003c0.067,0.001,0.14,0.002,0.227,0.015
				c0.084,0.014,0.192,0.038,0.302,0.123c0.054,0.042,0.101,0.1,0.131,0.161c0.031,0.06,0.048,0.12,0.057,0.174
				c0.016,0.108,0.008,0.196-0.004,0.276c-0.025,0.14-0.05,0.262-0.086,0.4c-0.018,0.068-0.038,0.136-0.066,0.21
				c-0.03,0.074-0.06,0.151-0.133,0.244c-0.04,0.046-0.088,0.097-0.166,0.135c-0.074,0.038-0.166,0.053-0.232,0.048
				c-0.141-0.01-0.213-0.049-0.283-0.076c-0.132-0.059-0.23-0.107-0.33-0.141c-0.1-0.035-0.196-0.055-0.296-0.061
				c-0.208-0.013-0.423,0.026-0.629,0.098c-0.205,0.077-0.404,0.188-0.59,0.326c-0.372,0.277-0.696,0.639-0.98,1.032
				c-0.284,0.393-0.532,0.821-0.734,1.261c-0.025,0.055-0.049,0.11-0.073,0.165c-0.036,0.09-0.1,0.188-0.177,0.261
				c-0.159,0.153-0.351,0.213-0.51,0.239c-0.324,0.048-0.599,0.008-0.865-0.035c-0.529-0.094-1.02-0.245-1.504-0.365
				c-0.24-0.059-0.481-0.117-0.697-0.139c-0.053-0.005-0.104-0.008-0.149-0.006c-0.035,0-0.102,0.009-0.162,0.016
				c-0.121,0.014-0.243,0.031-0.365,0.05c-0.489,0.076-0.984,0.182-1.493,0.272c-0.508,0.088-1.032,0.166-1.582,0.148
				c-0.274-0.01-0.556-0.046-0.832-0.127c-0.276-0.082-0.546-0.214-0.781-0.391c-0.118-0.088-0.225-0.189-0.325-0.294
				c-0.048-0.054-0.094-0.109-0.14-0.165c-0.044-0.057-0.087-0.117-0.128-0.18c-0.081-0.128-0.159-0.276-0.194-0.469
				c-0.015-0.098-0.016-0.207,0.009-0.314c0.023-0.108,0.074-0.205,0.13-0.284c0.115-0.161,0.249-0.254,0.375-0.336
				c0.127-0.078,0.252-0.14,0.376-0.196c0.248-0.111,0.491-0.199,0.733-0.286c0.483-0.171,0.959-0.332,1.427-0.513
				c0.468-0.179,0.925-0.377,1.372-0.595c0.894-0.436,1.735-0.974,2.49-1.618c0.753-0.649,1.446-1.376,2.04-2.177
				c0.595-0.801,1.092-1.675,1.475-2.601c0.38-0.926,0.652-1.901,0.8-2.899C12.177,29.339,12.203,28.321,12.12,27.308z"/>
		</g>
		<g>
			<g>
				<path class="st4" d="M14.103,34.949c0.167,0.854,4.017,7.322,8.365,8.135c-0.258-0.704-0.313-1.007-0.313-1.007
					s3.256,1.857,10.491,0.2c-0.504-0.178-0.978-0.495-0.978-0.495s4.921-1.361,6.603-4.726c1.947-3.897-4.939-2.243-4.939-2.243
					L17.48,33.652L14.103,34.949z"/>
			</g>
			<g>
				<path class="st0" d="M14.171,34.986c0.014,0,0.019-0.014,0.018-0.013l0.013,0.042c0.01,0.028,0.019,0.056,0.031,0.084
					c0.022,0.057,0.047,0.113,0.073,0.169c0.052,0.112,0.108,0.222,0.166,0.332c0.117,0.22,0.241,0.435,0.37,0.649
					c0.259,0.426,0.536,0.842,0.826,1.248c0.58,0.812,1.213,1.587,1.9,2.309c0.688,0.719,1.433,1.387,2.252,1.943
					c0.817,0.552,1.719,0.996,2.678,1.169l0,0l-0.188,0.222c-0.047-0.172-0.091-0.345-0.131-0.519
					c-0.02-0.087-0.039-0.174-0.056-0.262c-0.017-0.089-0.033-0.174-0.044-0.269v0l-0.029-0.153l0.143,0.072
					c0.383,0.192,0.811,0.327,1.234,0.438c0.426,0.109,0.86,0.193,1.297,0.253c0.874,0.122,1.759,0.155,2.641,0.135
					c0.883-0.022,1.764-0.105,2.639-0.229c0.875-0.125,1.743-0.296,2.603-0.5l0,0l-0.019,0.337
					c-0.176-0.081-0.342-0.173-0.501-0.273c-0.16-0.1-0.312-0.206-0.461-0.322l0,0l-0.134-0.089l0.157-0.05
					c0.612-0.196,1.216-0.439,1.8-0.713c0.585-0.274,1.155-0.579,1.697-0.926c0.541-0.348,1.057-0.735,1.526-1.17
					c0.468-0.436,0.888-0.923,1.22-1.465c0.163-0.271,0.313-0.554,0.421-0.846c0.109-0.29,0.179-0.597,0.147-0.884
					c-0.017-0.143-0.061-0.278-0.135-0.396c-0.074-0.118-0.178-0.218-0.298-0.301c-0.242-0.166-0.545-0.258-0.851-0.315
					c-0.619-0.11-1.267-0.094-1.906-0.04c-0.639,0.058-1.281,0.16-1.905,0.3l-0.023,0.005l-0.021-0.002l-7.924-0.601l-7.922-0.625
					l0,0l0.034-0.005C16.398,34.151,15.289,34.569,14.171,34.986z M14.035,34.911c1.133-0.447,2.276-0.894,3.417-1.332l0.016-0.006
					l0.017,0.001l0,0l7.929,0.537l7.927,0.561l-0.043,0.004c0.645-0.147,1.29-0.249,1.946-0.311c0.655-0.057,1.32-0.077,1.985,0.039
					c0.33,0.062,0.666,0.158,0.965,0.36c0.148,0.101,0.284,0.23,0.383,0.387c0.099,0.158,0.158,0.339,0.179,0.519
					c0.04,0.363-0.045,0.708-0.162,1.024c-0.119,0.318-0.278,0.612-0.451,0.896c-0.352,0.566-0.793,1.07-1.279,1.517
					c-0.486,0.449-1.022,0.837-1.581,1.181c-0.56,0.343-1.143,0.647-1.744,0.908c-0.602,0.259-1.213,0.49-1.848,0.663l0.022-0.139
					l0,0c0.158,0.083,0.324,0.159,0.49,0.226c0.166,0.067,0.335,0.125,0.503,0.168l0.613,0.157l-0.633,0.179l0,0
					c-0.873,0.191-1.753,0.348-2.641,0.457c-0.887,0.109-1.78,0.177-2.674,0.183c-0.894,0.004-1.79-0.046-2.675-0.186
					c-0.443-0.069-0.881-0.162-1.313-0.281c-0.432-0.123-0.856-0.262-1.265-0.477l0.115-0.081l0,0
					c0.023,0.078,0.054,0.162,0.084,0.243c0.031,0.081,0.063,0.162,0.097,0.243c0.067,0.161,0.139,0.32,0.213,0.478l0.123,0.264
					l-0.312-0.042l0,0c-1.019-0.201-1.949-0.68-2.781-1.26c-0.833-0.584-1.58-1.275-2.266-2.014
					c-0.685-0.741-1.312-1.534-1.886-2.362c-0.286-0.414-0.56-0.838-0.815-1.273c-0.127-0.217-0.251-0.438-0.365-0.663
					c-0.057-0.113-0.113-0.226-0.165-0.343c-0.026-0.058-0.051-0.117-0.074-0.178c-0.012-0.03-0.022-0.061-0.033-0.093l-0.014-0.048
					C14.03,34.986,14.029,34.942,14.035,34.911z"/>
			</g>
		</g>
		<g>
			<path class="st5" d="M17.5,32.7c-1.297,2.145,1.032,6.3,3.717,7.292c-0.194-0.646,0.159-1.466,0.159-1.466
				s0.333,3.422,7.085,2.908c-0.413-0.263-0.783-0.978-0.605-0.919c2.634,0.859,5.556-0.835,5.252-1.035
				c-0.782-0.514,0.96-0.275,2.72-2.358c-2.319-0.919-1.75-4.477-1.75-4.477l-3.387-0.349l-10.352-0.06L17.5,32.7z"/>
		</g>
		<g>
			<g>
				<path class="st4" d="M14.149,34.483c-3.159-5.143-2.688-9.451-2.022-12.691c0,0,0.568,0.631,1.246,0.762
					c-0.38-1.173-0.76-2.535-0.126-4.197l0.842,0.707c0,0-0.2-4.139,5.327-6.671l-0.371,1.881c0,0,2.875-5.048,13.693-2.587
					c-1.137,0.697-1.629,1.701-1.629,1.701s5.808-1.844,9.524,5.933c-1.014-0.595-1.881-0.427-1.881-0.427s3.92,4.009,2.743,8.942
					l-0.723-0.801c0,0,0.716,4.643-1.838,8.192c0,0-2.471-2.446-6.253-2.419s-13.33-0.591-13.913-0.483S14.149,34.483,14.149,34.483
					z"/>
			</g>
			<g>
				<path class="st0" d="M14.127,34.56c-0.169-0.237-0.346-0.517-0.47-0.747c-0.14-0.239-0.267-0.484-0.397-0.728
					c-0.252-0.493-0.481-0.997-0.687-1.512c-0.412-1.029-0.713-2.104-0.894-3.2c-0.18-1.096-0.238-2.213-0.181-3.324
					c0.053-1.111,0.217-2.213,0.431-3.298l0.075-0.381l0.273,0.286l0,0c0.064,0.083,0.148,0.175,0.23,0.257
					c0.083,0.083,0.172,0.161,0.265,0.233c0.186,0.144,0.391,0.263,0.616,0.33l-0.091,0.102l0,0
					c-0.239-0.675-0.453-1.375-0.512-2.109c-0.03-0.365-0.022-0.736,0.027-1.103c0.049-0.366,0.139-0.727,0.26-1.077l0.084-0.243
					l0.209,0.167l0,0l0.773,0.789l-0.13,0.065l0,0c-0.007-0.198,0.007-0.386,0.029-0.576c0.022-0.19,0.055-0.378,0.096-0.563
					c0.082-0.372,0.198-0.737,0.345-1.089c0.146-0.352,0.322-0.692,0.522-1.018c0.201-0.324,0.428-0.633,0.673-0.926
					c0.243-0.296,0.514-0.565,0.792-0.826c0.143-0.126,0.283-0.256,0.435-0.373l0.223-0.179l0.23-0.17
					c0.617-0.449,1.279-0.834,1.967-1.162l0.399-0.19l-0.079,0.442l0,0l-0.517,1.852l-0.146-0.055l0,0
					c0.168-0.275,0.37-0.508,0.587-0.733c0.217-0.223,0.452-0.427,0.696-0.618c0.493-0.378,1.029-0.698,1.593-0.956
					c0.563-0.26,1.15-0.465,1.749-0.624c0.6-0.156,1.21-0.264,1.824-0.342c1.23-0.139,2.472-0.146,3.703-0.043
					c1.231,0.102,2.452,0.299,3.657,0.559l0.492,0.106L32.85,11.87h0c-0.165,0.092-0.329,0.189-0.483,0.302
					c-0.156,0.11-0.304,0.233-0.446,0.364c-0.142,0.13-0.275,0.271-0.4,0.419c-0.124,0.148-0.243,0.306-0.34,0.468l-0.095-0.111h0
					c0.504-0.146,1.016-0.202,1.532-0.213c0.515-0.009,1.032,0.04,1.539,0.141c1.014,0.203,1.98,0.63,2.832,1.217
					c0.853,0.587,1.597,1.324,2.23,2.139c0.636,0.814,1.167,1.704,1.622,2.626l0.311,0.631l-0.635-0.334l0,0
					c-0.127-0.085-0.258-0.169-0.396-0.236c-0.137-0.073-0.282-0.128-0.43-0.178c-0.148-0.048-0.301-0.084-0.457-0.108
					c-0.154-0.023-0.317-0.035-0.466-0.024l0.042-0.133l0,0c0.567,0.596,1.051,1.254,1.482,1.95
					c0.428,0.697,0.791,1.436,1.065,2.211c0.274,0.774,0.457,1.586,0.522,2.411c0.066,0.825,0.006,1.663-0.175,2.475l0,0
					l-0.146,0.41l-0.221-0.316l-0.623-0.891l0,0l0.137-0.065c0.104,0.718,0.129,1.437,0.11,2.158
					c-0.022,0.72-0.095,1.44-0.231,2.151c-0.136,0.71-0.331,1.412-0.602,2.087c-0.265,0.677-0.616,1.323-1.03,1.926l0,0
					l-0.132,0.191l-0.173-0.165c-0.18-0.173-0.39-0.344-0.598-0.501c-0.211-0.159-0.428-0.309-0.652-0.449
					c-0.448-0.281-0.917-0.529-1.405-0.733c-0.487-0.207-0.992-0.368-1.507-0.489c-0.515-0.117-1.041-0.188-1.569-0.212
					c-0.132-0.005-0.264-0.006-0.397-0.008l-0.406-0.002l-0.811-0.013c-0.54-0.012-1.08-0.03-1.619-0.049
					c-1.078-0.039-2.156-0.089-3.234-0.142c-2.155-0.104-4.308-0.229-6.461-0.323c-0.269-0.011-0.538-0.021-0.806-0.027
					c-0.134-0.003-0.269-0.005-0.399-0.003c-0.069,0.003-0.122,0.001-0.178,0.017c-0.057,0.015-0.12,0.037-0.182,0.059
					c-0.496,0.189-0.986,0.419-1.474,0.645c-0.487,0.228-0.973,0.462-1.457,0.698l-0.727,0.358l-0.362,0.179l-0.181,0.09
					l-0.091,0.045l-0.045,0.022l-0.022,0.011l-0.013,0.006C14.175,34.559,14.148,34.563,14.127,34.56z M14.17,34.407
					c-0.013-0.007-0.033-0.007-0.045-0.001l0.01-0.005l0.022-0.012l0.045-0.023l0.09-0.046l0.18-0.092l0.361-0.183l0.723-0.363
					c0.483-0.241,0.967-0.479,1.454-0.713c0.489-0.231,0.973-0.465,1.483-0.665c0.065-0.024,0.129-0.048,0.202-0.067
					c0.074-0.022,0.157-0.022,0.222-0.025c0.139-0.004,0.274-0.003,0.409-0.001c0.271,0.004,0.541,0.011,0.811,0.02
					c2.157,0.074,4.311,0.179,6.466,0.262c1.077,0.042,2.154,0.082,3.231,0.111c0.539,0.014,1.077,0.027,1.615,0.034l0.807,0.005
					l0.403-0.002c0.136,0.001,0.274,0.001,0.412,0.004c0.549,0.019,1.097,0.089,1.635,0.205c0.536,0.121,1.064,0.283,1.571,0.494
					c0.509,0.207,0.999,0.46,1.467,0.748c0.234,0.144,0.462,0.298,0.683,0.462c0.223,0.165,0.434,0.333,0.645,0.532l-0.304,0.026
					l0,0c0.411-0.565,0.766-1.174,1.041-1.822c0.28-0.645,0.491-1.322,0.643-2.012c0.153-0.691,0.244-1.396,0.287-2.104
					c0.039-0.707,0.033-1.424-0.048-2.125l-0.03-0.255l0.167,0.19l0,0l0.823,0.711l-0.367,0.094l0,0
					c0.192-0.765,0.273-1.56,0.231-2.352c-0.04-0.792-0.195-1.58-0.44-2.34c-0.246-0.761-0.58-1.494-0.981-2.19
					c-0.403-0.693-0.866-1.361-1.401-1.955l0,0l-0.113-0.098l0.155-0.035c0.174-0.04,0.34-0.052,0.513-0.054
					c0.171,0,0.343,0.013,0.512,0.041c0.169,0.03,0.339,0.067,0.503,0.123c0.166,0.052,0.326,0.122,0.484,0.196l0,0l-0.323,0.297
					c-0.422-0.91-0.917-1.788-1.514-2.591c-0.594-0.804-1.294-1.533-2.102-2.119c-0.807-0.586-1.727-1.02-2.703-1.241
					c-0.487-0.11-0.987-0.17-1.488-0.174c-0.499-0.002-1.008,0.042-1.485,0.168h0l-0.177,0.069l0.082-0.179
					c0.087-0.19,0.189-0.363,0.302-0.533c0.113-0.169,0.235-0.333,0.37-0.487c0.134-0.155,0.276-0.304,0.43-0.441
					c0.152-0.14,0.317-0.265,0.486-0.387h0l0.065,0.391c-1.185-0.278-2.385-0.495-3.595-0.617c-1.209-0.124-2.43-0.139-3.638-0.025
					c-0.603,0.065-1.203,0.16-1.792,0.302c-0.588,0.144-1.165,0.335-1.72,0.578c-0.555,0.242-1.083,0.545-1.569,0.904
					c-0.242,0.181-0.474,0.376-0.688,0.588c-0.212,0.212-0.417,0.443-0.573,0.688l0,0l-0.203,0.419l0.056-0.474l0.225-1.91l0,0
					l0.319,0.252c-0.676,0.296-1.328,0.646-1.937,1.06l-0.228,0.156l-0.221,0.165c-0.149,0.108-0.287,0.229-0.43,0.345
					c-0.276,0.243-0.546,0.494-0.789,0.77c-0.245,0.274-0.473,0.564-0.677,0.87c-0.203,0.307-0.383,0.63-0.535,0.965
					c-0.153,0.335-0.277,0.684-0.368,1.041c-0.091,0.355-0.154,0.727-0.157,1.087l0,0l0.025,0.171l-0.155-0.107l-0.91-0.625l0,0
					l0.294-0.076c-0.129,0.321-0.23,0.653-0.293,0.994c-0.063,0.34-0.088,0.688-0.077,1.037c0.021,0.7,0.193,1.392,0.398,2.075l0,0
					l0.049,0.12l-0.14-0.017c-0.261-0.032-0.509-0.126-0.739-0.249c-0.114-0.062-0.225-0.131-0.331-0.206
					c-0.108-0.077-0.206-0.152-0.311-0.25l0,0l0.348-0.095c-0.231,1.07-0.412,2.148-0.484,3.236
					c-0.076,1.087-0.039,2.182,0.117,3.261c0.157,1.079,0.433,2.141,0.821,3.164c0.193,0.511,0.411,1.014,0.651,1.506
					c0.124,0.244,0.245,0.49,0.379,0.729c0.065,0.119,0.134,0.245,0.191,0.346C14.059,34.181,14.113,34.291,14.17,34.407z"/>
			</g>
		</g>
		<g>
			
				<ellipse transform="matrix(0.0207 -0.9998 0.9998 0.0207 -0.793 52.7504)" class="st6" cx="26.53" cy="26.78" rx="6.584" ry="3.391"/>
		</g>
		<g>
			<path class="st7" d="M22.236,19.408c-6.37-1.487-7.543,3.604-7.543,3.604s-0.997-0.839-0.904-3.398
				c0.696,1.873,1.296,2.072,1.723,2.191c0.165,0.046,0,0-0.068-0.157c-1.187-2.739,0.856-6.514,2.87-7.797
				c-0.595,1.992-0.32,3.19,0.211,4.592c0.105-0.418-0.322-6.55,11.991-6.295c0,0-1.614,1.628-1.713,3.034
				c2.051-1.154,6.891-0.414,10.388,2.755c0,0-1.69-0.472-2.273,0.398c2.917,1.786,4.409,5.291,3.997,7.731
				c-1.04-1.291-4.513-6.667-5.967-5.291c-2.029-2.292-6.543,0.202-8.265,3.306C26.683,24.079,23.516,19.706,22.236,19.408z"/>
		</g>
		<g>
			<g>
				<path class="st8" d="M24.637,25.97c0.096,3.346-0.332,6.185-3.008,6.552c-2.08,0.286-4.125-2.273-4.665-5.242
					c-0.603-3.316-0.815-6.18,2.959-7.167S24.509,21.507,24.637,25.97z"/>
			</g>
			<g>
				<path class="st0" d="M24.763,25.966c0.025,0.704,0.029,1.411-0.016,2.119c-0.047,0.707-0.139,1.418-0.352,2.108
					c-0.108,0.344-0.246,0.683-0.435,0.998c-0.187,0.315-0.425,0.608-0.715,0.844c-0.288,0.238-0.626,0.415-0.978,0.53
					c-0.177,0.057-0.357,0.1-0.539,0.129c-0.183,0.031-0.376,0.043-0.564,0.033c-0.379-0.017-0.747-0.126-1.082-0.286
					c-0.336-0.159-0.64-0.372-0.913-0.613c-0.545-0.484-0.981-1.069-1.324-1.696c-0.344-0.627-0.604-1.296-0.785-1.983
					c-0.09-0.343-0.159-0.694-0.214-1.041c-0.057-0.347-0.11-0.695-0.155-1.045c-0.091-0.698-0.155-1.404-0.125-2.113
					c0.03-0.705,0.172-1.426,0.534-2.052c0.182-0.31,0.415-0.591,0.685-0.827c0.269-0.239,0.576-0.43,0.896-0.587
					c0.32-0.158,0.656-0.278,0.997-0.374c0.341-0.095,0.687-0.171,1.039-0.219c0.351-0.045,0.708-0.068,1.063-0.035
					c0.354,0.034,0.708,0.123,1.027,0.291c0.319,0.167,0.594,0.413,0.809,0.7c0.216,0.287,0.378,0.609,0.507,0.941
					c0.254,0.666,0.384,1.369,0.476,2.068C24.688,24.558,24.733,25.263,24.763,25.966z M24.511,25.974
					c-0.012-0.7-0.039-1.4-0.11-2.094c-0.073-0.693-0.183-1.386-0.415-2.04c-0.117-0.325-0.265-0.641-0.469-0.918
					c-0.202-0.278-0.459-0.515-0.761-0.678c-0.3-0.166-0.641-0.254-0.985-0.284c-0.344-0.031-0.694-0.01-1.037,0.044
					c-0.686,0.113-1.363,0.314-1.982,0.621c-0.309,0.156-0.598,0.346-0.857,0.57c-0.259,0.225-0.482,0.49-0.656,0.785
					c-0.354,0.591-0.506,1.286-0.542,1.978c-0.021,0.348-0.01,0.697,0.016,1.045c0.027,0.348,0.065,0.696,0.119,1.042
					c0.054,0.346,0.116,0.691,0.182,1.035c0.063,0.345,0.141,0.682,0.244,1.014c0.204,0.664,0.485,1.303,0.841,1.893
					c0.359,0.587,0.786,1.136,1.305,1.571c0.26,0.215,0.54,0.404,0.839,0.545c0.3,0.14,0.619,0.229,0.942,0.249
					c0.162,0.01,0.322,0.002,0.486-0.024c0.165-0.025,0.328-0.06,0.487-0.109c0.316-0.097,0.614-0.247,0.871-0.452
					c0.521-0.409,0.859-1.022,1.069-1.669c0.211-0.651,0.312-1.341,0.368-2.034C24.519,27.372,24.525,26.673,24.511,25.974z"/>
			</g>
		</g>
		<g>
			<path class="st0" d="M25.613,25.821c0.169,3.365-0.37,5.909-3.052,6.238c-1.979,0.243-4.082-1.958-4.621-4.927
				c-0.603-3.316-0.815-6.18,2.959-7.167C24.672,18.977,25.369,20.958,25.613,25.821z"/>
			<path class="st0" d="M22.255,32.144c-1.941,0-3.862-2.157-4.38-5c-0.613-3.372-0.811-6.244,3.007-7.243
				c1.48-0.387,2.5-0.325,3.213,0.197c1.122,0.822,1.438,2.798,1.585,5.72l0,0c0.096,1.918-0.05,3.279-0.462,4.286
				c-0.491,1.202-1.357,1.863-2.648,2.022C22.465,32.138,22.36,32.144,22.255,32.144z M22.542,19.784
				c-0.465,0-1.003,0.082-1.626,0.245c-3.708,0.97-3.512,3.786-2.91,7.091c0.533,2.93,2.574,5.114,4.548,4.873
				c2.27-0.278,3.194-2.181,2.993-6.169l0,0c-0.145-2.883-0.452-4.829-1.53-5.619C23.633,19.924,23.15,19.784,22.542,19.784z"/>
		</g>
		<g>
			<g>
				<path class="st8" d="M28.601,26.638c0.396,3.345,1.935,6.348,4.625,6.093c2.091-0.198,3.411-3.079,3.343-6.17
					c-0.07-3.223-0.621-6.202-4.522-6.3C28.146,20.163,27.993,21.518,28.601,26.638z"/>
			</g>
			<g>
				<path class="st0" d="M28.715,26.624c0.09,0.697,0.229,1.387,0.43,2.057c0.202,0.669,0.465,1.322,0.818,1.916
					c0.353,0.592,0.803,1.133,1.369,1.499c0.563,0.368,1.243,0.522,1.909,0.446c0.325-0.035,0.639-0.147,0.922-0.316
					c0.284-0.169,0.535-0.395,0.758-0.648c0.444-0.512,0.762-1.136,0.993-1.787c0.23-0.653,0.372-1.339,0.443-2.031
					c0.037-0.346,0.056-0.695,0.056-1.043c-0.001-0.349-0.01-0.704-0.027-1.054c-0.036-0.701-0.107-1.401-0.268-2.079
					c-0.162-0.675-0.423-1.333-0.854-1.872c-0.214-0.269-0.47-0.504-0.757-0.694c-0.287-0.191-0.605-0.334-0.936-0.439
					c-0.331-0.105-0.676-0.168-1.023-0.205c-0.347-0.036-0.7-0.042-1.052-0.04c-0.352,0.003-0.703,0.022-1.049,0.073
					c-0.344,0.052-0.687,0.139-0.989,0.303c-0.303,0.161-0.555,0.408-0.713,0.712c-0.161,0.303-0.24,0.647-0.283,0.992
					c-0.083,0.694-0.04,1.402,0.017,2.104C28.538,25.22,28.625,25.922,28.715,26.624z M28.486,26.651
					c-0.076-0.705-0.148-1.411-0.195-2.12c-0.043-0.709-0.071-1.424,0.024-2.138c0.05-0.355,0.139-0.712,0.312-1.036
					c0.169-0.326,0.445-0.596,0.769-0.766c0.323-0.174,0.678-0.262,1.031-0.322c0.354-0.057,0.712-0.079,1.068-0.087
					c0.356-0.006,0.713-0.004,1.07,0.028c0.357,0.034,0.713,0.095,1.059,0.2c0.346,0.104,0.68,0.252,0.988,0.447
					c0.307,0.195,0.585,0.439,0.817,0.72c0.469,0.563,0.755,1.25,0.936,1.944c0.181,0.698,0.266,1.412,0.316,2.124
					c0.024,0.357,0.04,0.71,0.048,1.069c0.006,0.36-0.007,0.719-0.039,1.078c-0.066,0.717-0.207,1.429-0.441,2.115
					c-0.236,0.684-0.563,1.349-1.044,1.915c-0.24,0.282-0.523,0.535-0.849,0.727c-0.325,0.193-0.694,0.323-1.074,0.363
					c-0.372,0.039-0.752,0.021-1.118-0.069c-0.366-0.088-0.713-0.248-1.023-0.454c-0.622-0.417-1.09-1.006-1.447-1.634
					c-0.359-0.631-0.615-1.309-0.809-1.998C28.692,28.066,28.564,27.361,28.486,26.651z"/>
			</g>
		</g>
		<g>
			<g>
				<path class="st0" d="M29.6,26.226c0.464,3.337,2.103,6.943,4.6,5.91c1.475-0.61,3.278-2.838,3.374-5.854
					c0.134-4.256-0.621-6.202-4.522-6.3C29.15,19.884,28.912,21.273,29.6,26.226z"/>
			</g>
			<g>
				<path class="st0" d="M29.725,26.209c0.101,0.689,0.248,1.371,0.444,2.037c0.198,0.665,0.444,1.317,0.767,1.926
					c0.161,0.304,0.343,0.596,0.55,0.865c0.207,0.269,0.443,0.513,0.711,0.707c0.267,0.193,0.569,0.33,0.884,0.375
					c0.315,0.048,0.64,0,0.945-0.113c0.306-0.113,0.594-0.291,0.862-0.492c0.27-0.201,0.517-0.436,0.746-0.688
					c0.23-0.252,0.44-0.522,0.629-0.808c0.188-0.286,0.355-0.587,0.504-0.896c0.297-0.62,0.508-1.285,0.623-1.968
					c0.06-0.342,0.09-0.686,0.102-1.036c0.013-0.35,0.022-0.7,0.02-1.049c0-0.35-0.017-0.699-0.048-1.047
					c-0.032-0.347-0.075-0.694-0.154-1.033c-0.077-0.339-0.181-0.671-0.329-0.983c-0.148-0.311-0.34-0.6-0.58-0.843
					c-0.239-0.244-0.521-0.444-0.83-0.594c-0.309-0.15-0.639-0.257-0.975-0.335c-0.676-0.152-1.377-0.195-2.075-0.196
					c-0.349,0.002-0.699,0.016-1.043,0.068c-0.343,0.052-0.684,0.133-0.991,0.288c-0.307,0.153-0.57,0.387-0.742,0.68
					c-0.175,0.293-0.265,0.631-0.313,0.972c-0.048,0.342-0.057,0.69-0.049,1.038c0.008,0.348,0.034,0.696,0.068,1.044
					C29.521,24.822,29.62,25.516,29.725,26.209z M29.475,26.243c-0.087-0.697-0.169-1.396-0.219-2.1
					c-0.025-0.352-0.042-0.704-0.041-1.059c0.001-0.354,0.018-0.709,0.078-1.061c0.06-0.351,0.162-0.702,0.351-1.013
					c0.188-0.311,0.475-0.557,0.799-0.712c0.325-0.155,0.673-0.243,1.023-0.296c0.351-0.051,0.704-0.074,1.056-0.084
					c0.703-0.014,1.415,0.008,2.112,0.159c0.348,0.074,0.691,0.184,1.013,0.345c0.322,0.159,0.621,0.37,0.869,0.631
					c0.249,0.261,0.445,0.568,0.594,0.893c0.149,0.325,0.252,0.668,0.327,1.014c0.15,0.694,0.197,1.4,0.219,2.104
					c0.011,0.352,0.012,0.704,0.008,1.056c-0.005,0.352-0.022,0.709-0.066,1.061c-0.087,0.706-0.273,1.402-0.553,2.062
					c-0.279,0.66-0.662,1.278-1.134,1.826c-0.479,0.537-1.049,1.022-1.757,1.283c-0.353,0.126-0.746,0.178-1.126,0.115
					c-0.38-0.06-0.732-0.231-1.029-0.453c-0.298-0.224-0.549-0.494-0.767-0.783c-0.217-0.29-0.404-0.599-0.567-0.917
					c-0.327-0.637-0.57-1.309-0.763-1.991C29.708,27.641,29.569,26.945,29.475,26.243z"/>
			</g>
		</g>
		<g>
			<g>
				<path class="st9" d="M13.384,26.573c1.297-2.326,5.654-8.409,11.671-4.755c0.35-4.786-6.638-5.913-10.166-1.452
					c1.348,0.128,1.49,0.29,1.49,0.29S13.897,21.204,13.384,26.573z"/>
			</g>
			<g>
				<g>
					<path class="st0" d="M13.407,26.5c-0.001-0.02-0.008-0.039-0.016-0.051c-0.009-0.012-0.015-0.017-0.014-0.022
						c-0.002-0.001,0.013-0.026,0.021-0.04l0.027-0.049l0.109-0.197c0.073-0.131,0.151-0.259,0.228-0.387
						c0.157-0.256,0.32-0.507,0.491-0.754c0.34-0.495,0.714-0.966,1.116-1.415c0.802-0.896,1.731-1.699,2.809-2.273
						c0.538-0.285,1.112-0.51,1.709-0.65c0.597-0.137,1.216-0.191,1.826-0.143c0.612,0.042,1.212,0.186,1.78,0.398
						c0.569,0.213,1.104,0.502,1.604,0.835l0,0l-0.116,0.06c0.016-0.556-0.054-1.115-0.258-1.622
						c-0.101-0.253-0.227-0.495-0.383-0.717c-0.155-0.222-0.338-0.423-0.539-0.604c-0.404-0.361-0.887-0.628-1.4-0.81
						c-0.514-0.179-1.058-0.28-1.606-0.302c-1.097-0.046-2.204,0.193-3.205,0.656c-1.004,0.462-1.904,1.152-2.639,2l-0.052-0.123
						c0.256,0.009,0.512,0.022,0.77,0.047c0.129,0.013,0.258,0.027,0.389,0.05c0.065,0.011,0.131,0.025,0.199,0.041
						c0.034,0.009,0.068,0.018,0.104,0.031c0.018,0.006,0.037,0.014,0.057,0.023c0.011,0.005,0.021,0.009,0.033,0.017
						c0.016,0.011,0.017,0.005,0.058,0.044l0.001,0.001l0.191,0.21l-0.282,0.066c-0.045,0.011-0.116,0.035-0.174,0.061
						c-0.061,0.026-0.122,0.056-0.181,0.087c-0.119,0.065-0.234,0.141-0.343,0.225c-0.221,0.166-0.418,0.366-0.597,0.581
						c-0.357,0.433-0.639,0.934-0.861,1.46c-0.222,0.526-0.391,1.077-0.517,1.638c-0.064,0.281-0.118,0.564-0.165,0.848
						l-0.064,0.418c-0.009,0.058-0.022,0.11-0.043,0.167C13.449,26.365,13.425,26.43,13.407,26.5z M13.362,26.646
						c-0.003-0.074-0.011-0.153-0.016-0.24c-0.005-0.087-0.004-0.179,0.004-0.265l0.006-0.064l0.007-0.055l0.013-0.109l0.027-0.217
						c0.039-0.289,0.087-0.577,0.144-0.864c0.113-0.574,0.27-1.141,0.485-1.689c0.213-0.548,0.492-1.078,0.861-1.551
						c0.186-0.235,0.392-0.457,0.63-0.646c0.118-0.096,0.243-0.184,0.377-0.261c0.067-0.038,0.135-0.075,0.208-0.107
						c0.074-0.033,0.139-0.061,0.235-0.087l-0.091,0.277l0,0.001c0.029,0.028,0.017,0.014,0.019,0.017
						c-0.001-0.001-0.006-0.004-0.009-0.006c-0.009-0.005-0.018-0.011-0.03-0.017c-0.022-0.012-0.049-0.022-0.075-0.033
						c-0.054-0.021-0.111-0.04-0.17-0.057c-0.117-0.035-0.239-0.065-0.361-0.092c-0.245-0.054-0.495-0.098-0.745-0.138l-0.127-0.02
						l0.074-0.103c0.67-0.926,1.568-1.705,2.609-2.218c1.037-0.516,2.206-0.785,3.373-0.73c0.582,0.028,1.165,0.134,1.715,0.341
						c0.549,0.204,1.07,0.506,1.498,0.915c0.431,0.404,0.76,0.918,0.944,1.475c0.184,0.558,0.231,1.151,0.165,1.722l-0.014,0.119
						l-0.102-0.059l0,0c-1.037-0.565-2.166-0.965-3.326-1.023c-1.158-0.066-2.32,0.219-3.349,0.764
						c-0.517,0.269-1.006,0.595-1.464,0.961c-0.459,0.365-0.892,0.766-1.296,1.195c-0.406,0.428-0.78,0.887-1.138,1.357
						c-0.178,0.236-0.349,0.478-0.515,0.723c-0.083,0.123-0.163,0.247-0.243,0.372l-0.118,0.188l-0.064,0.104
						c-0.017,0.026-0.042,0.055-0.07,0.075C13.406,26.62,13.381,26.634,13.362,26.646z"/>
				</g>
			</g>
		</g>
		<g>
			<g>
				<path class="st9" d="M39.985,26.921c-1.2-2.378-5.3-8.636-11.464-5.234c-0.151-4.796,6.878-5.632,10.218-1.029
					c-1.352,0.072-1.5,0.228-1.5,0.228S39.696,21.535,39.985,26.921z"/>
			</g>
			<g>
				<g>
					<path class="st0" d="M40.004,26.995c-0.018-0.013-0.043-0.028-0.069-0.049s-0.05-0.051-0.066-0.078l-0.06-0.107l-0.11-0.193
						c-0.074-0.128-0.15-0.255-0.227-0.382c-0.155-0.252-0.316-0.501-0.484-0.744c-0.339-0.485-0.693-0.958-1.081-1.403
						c-0.386-0.445-0.802-0.864-1.246-1.248c-0.443-0.385-0.918-0.73-1.423-1.021c-1.006-0.587-2.155-0.919-3.314-0.902
						c-1.162,0.01-2.307,0.362-3.366,0.884l0,0l-0.104,0.055l-0.009-0.119c-0.043-0.573,0.029-1.164,0.236-1.713
						c0.207-0.549,0.556-1.049,1.004-1.435c0.444-0.391,0.977-0.671,1.534-0.852c0.558-0.184,1.144-0.265,1.727-0.269
						c1.168-0.007,2.325,0.311,3.34,0.87c1.018,0.556,1.883,1.371,2.514,2.324l0.07,0.106l-0.128,0.015
						c-0.252,0.03-0.503,0.063-0.751,0.107c-0.123,0.022-0.246,0.047-0.365,0.077c-0.059,0.015-0.117,0.032-0.172,0.05
						c-0.026,0.01-0.053,0.019-0.076,0.03c-0.012,0.005-0.022,0.011-0.03,0.015c-0.003,0.002-0.008,0.005-0.009,0.006
						c0.003-0.003-0.011,0.012,0.02-0.016l0.001-0.001l-0.08-0.28c0.094,0.03,0.158,0.06,0.231,0.096
						c0.07,0.035,0.137,0.075,0.203,0.116c0.13,0.083,0.252,0.177,0.366,0.277c0.23,0.2,0.427,0.43,0.603,0.672
						c0.349,0.487,0.605,1.028,0.796,1.585c0.192,0.557,0.325,1.13,0.414,1.708c0.045,0.289,0.081,0.579,0.108,0.869l0.018,0.218
						l0.009,0.109l0.004,0.055l0.003,0.064c0.004,0.086,0.002,0.178-0.007,0.265C40.021,26.842,40.01,26.921,40.004,26.995z
						 M39.965,26.847c-0.016-0.07-0.036-0.137-0.055-0.195c-0.019-0.058-0.03-0.11-0.037-0.169l-0.046-0.42
						c-0.035-0.286-0.078-0.571-0.13-0.854c-0.103-0.566-0.249-1.123-0.449-1.658c-0.199-0.535-0.46-1.046-0.799-1.494
						c-0.17-0.222-0.359-0.43-0.573-0.606c-0.106-0.088-0.217-0.17-0.334-0.239c-0.058-0.034-0.117-0.067-0.177-0.095
						c-0.057-0.028-0.126-0.055-0.171-0.068l-0.279-0.078l0.199-0.202l0.001-0.001c0.043-0.038,0.043-0.031,0.06-0.042
						c0.013-0.007,0.022-0.01,0.034-0.016c0.02-0.008,0.04-0.015,0.058-0.02c0.037-0.012,0.071-0.019,0.106-0.027
						c0.068-0.014,0.135-0.025,0.2-0.033c0.132-0.017,0.261-0.026,0.391-0.034c0.258-0.014,0.515-0.017,0.771-0.015l-0.058,0.121
						c-0.699-0.877-1.569-1.604-2.553-2.108c-0.982-0.504-2.078-0.788-3.175-0.788c-0.548-0.001-1.096,0.077-1.617,0.235
						c-0.52,0.16-1.014,0.407-1.433,0.751c-0.209,0.172-0.4,0.366-0.564,0.581c-0.165,0.215-0.301,0.452-0.412,0.7
						c-0.225,0.499-0.318,1.053-0.325,1.61l-0.113-0.065l0,0c0.513-0.312,1.06-0.579,1.637-0.768
						c0.577-0.188,1.183-0.307,1.795-0.324c0.612-0.022,1.228,0.057,1.819,0.218c0.591,0.164,1.154,0.413,1.68,0.72
						c1.052,0.618,1.948,1.459,2.712,2.387c0.383,0.465,0.737,0.952,1.056,1.46c0.161,0.253,0.313,0.512,0.459,0.774
						c0.073,0.131,0.145,0.262,0.212,0.396l0.101,0.201l0.025,0.051c0.007,0.014,0.021,0.04,0.019,0.041
						c0,0.006-0.006,0.01-0.015,0.022C39.974,26.809,39.967,26.827,39.965,26.847z"/>
				</g>
			</g>
		</g>
		<g>
			
				<ellipse transform="matrix(0.0207 -0.9998 0.9998 0.0207 -0.9553 46.0545)" class="st8" cx="23.031" cy="23.515" rx="1.653" ry="1.159"/>
			<path class="st0" d="M23.014,25.261c-0.006,0-0.013,0-0.019,0c-0.689-0.014-1.234-0.809-1.213-1.77
				c0.02-0.961,0.594-1.732,1.286-1.718c0.689,0.014,1.234,0.809,1.213,1.77C24.262,24.495,23.695,25.261,23.014,25.261z
				 M23.049,21.954c-0.582,0-1.067,0.686-1.085,1.54c-0.018,0.861,0.447,1.572,1.035,1.584c0.005,0,0.01,0,0.015,0
				c0.582,0,1.067-0.686,1.085-1.54c0.018-0.861-0.447-1.572-1.035-1.584C23.059,21.954,23.054,21.954,23.049,21.954z"/>
		</g>
		<g>
			
				<ellipse transform="matrix(0.0207 -0.9998 0.9998 0.0207 -5.1321 47.5986)" class="st8" cx="21.731" cy="26.419" rx="0.827" ry="0.579"/>
			<path class="st0" d="M21.723,27.292c-0.003,0-0.006,0-0.009,0c-0.344-0.007-0.617-0.404-0.607-0.885
				c0.005-0.23,0.073-0.446,0.191-0.607c0.122-0.166,0.287-0.254,0.452-0.252c0.345,0.007,0.617,0.404,0.607,0.885
				C22.346,26.91,22.063,27.292,21.723,27.292z M21.74,25.639c-0.137,0-0.268,0.076-0.37,0.215
				c-0.107,0.146-0.169,0.343-0.173,0.555c-0.009,0.43,0.223,0.786,0.518,0.792c0.003,0,0.005,0,0.008,0
				c0.291,0,0.534-0.343,0.543-0.77l0,0c0.009-0.43-0.223-0.786-0.518-0.792C21.745,25.639,21.742,25.639,21.74,25.639z"/>
		</g>
		<g>
			
				<ellipse transform="matrix(0.0207 -0.9998 0.9998 0.0207 10.2001 57.4423)" class="st8" cx="34.422" cy="23.514" rx="1.653" ry="1.159"/>
			<path class="st0" d="M34.405,25.261c-0.006,0-0.013,0-0.019,0c-0.689-0.014-1.234-0.809-1.213-1.77
				c0.009-0.46,0.145-0.891,0.381-1.213c0.243-0.332,0.569-0.511,0.905-0.504c0.689,0.014,1.234,0.809,1.213,1.77l0,0
				C35.653,24.495,35.086,25.261,34.405,25.261z M34.44,21.954c-0.274,0-0.535,0.152-0.739,0.43
				c-0.214,0.293-0.337,0.687-0.346,1.11c-0.018,0.861,0.447,1.572,1.035,1.584c0.005,0,0.01,0,0.015,0
				c0.582,0,1.067-0.686,1.085-1.54c0.018-0.861-0.447-1.572-1.035-1.584C34.45,21.954,34.445,21.954,34.44,21.954z"/>
		</g>
		<g>
			
				<ellipse transform="matrix(0.0207 -0.9998 0.9998 0.0207 6.0229 58.9858)" class="st8" cx="33.121" cy="26.418" rx="0.827" ry="0.579"/>
			<path class="st0" d="M33.114,27.292c-0.003,0-0.006,0-0.009,0c-0.344-0.007-0.617-0.404-0.607-0.885
				c0.005-0.23,0.073-0.446,0.191-0.607c0.122-0.166,0.287-0.255,0.452-0.252c0.344,0.007,0.617,0.404,0.607,0.885
				c-0.005,0.23-0.072,0.446-0.191,0.607C33.437,27.203,33.28,27.292,33.114,27.292z M33.131,25.639
				c-0.137,0-0.268,0.076-0.37,0.215c-0.107,0.146-0.169,0.343-0.173,0.555c-0.009,0.43,0.223,0.786,0.518,0.792
				c0.14,0.001,0.274-0.074,0.377-0.215c0.107-0.146,0.169-0.343,0.173-0.555l0,0c0.009-0.43-0.223-0.786-0.518-0.792
				C33.136,25.639,33.133,25.639,33.131,25.639z"/>
		</g>
		<g>
			<path class="st10" d="M26.702,37.236c-0.211,0.006-0.421,0.017-0.625,0.024c-0.528,0.017-0.699,0.183-1.36,0.452
				c-0.325,0.132-0.675,0.271-0.847,0.576c-0.545-0.209-0.839-0.752-1.261-1.134c-0.648-0.584-0.653-1.304-0.799-1.654
				c-0.202-0.485,0.13-0.096,0.202-0.567c0.009-0.057,0.022-0.121,0.071-0.15c0.034-0.02,0.075-0.018,0.114-0.013
				c0.585,0.07,0.998,0.584,1.49,0.909c0.161,0.106,0.404-0.099,0.582-0.027c0.19,0.076,0.37-0.108,0.532-0.007
				c0.356,0.221,0.888,0.224,1.293,0.238c0.504,0.017,1.008,0.007,1.51-0.029c0.418-0.03,0.579,0.082,0.937-0.124l1.974-0.892
				c0.216-0.124,0.502-0.136,0.689,0.028c0.001,0.001,0.002,0.002,0.004,0.003c0.039,0.038,0.047,0.097,0.049,0.152
				c0.03,0.609-0.186,1.226-0.588,1.683c-0.26,0.295-0.434,0.624-0.609,0.972c-0.107,0.215-0.496,0.559-0.734,0.366
				c-0.422-0.342-0.909-0.546-1.437-0.697C27.51,37.236,27.104,37.225,26.702,37.236z"/>
		</g>
		<g>
			<path class="st11" d="M26.724,39.066c-0.4-0.019-0.8-0.07-1.192-0.153c-0.376-0.079-0.725-0.213-1.091-0.321
				c-0.235-0.069-0.767-0.172-0.402-0.485c0.275-0.236,0.609-0.404,0.944-0.537c0.351-0.139,0.665-0.158,1.026-0.238
				c0.474-0.105,0.862-0.148,1.341-0.066c0.456,0.078,0.839,0.245,1.278,0.393c0.255,0.086,0.529,0.179,0.687,0.413
				c0.121,0.179-1.314,0.908-1.447,0.941c-0.124,0.031-0.252,0.042-0.379,0.049C27.234,39.077,26.979,39.078,26.724,39.066z"/>
		</g>
		<g>
			<path class="st0" d="M21.833,35.038c0.144,0.522,0.367,1.015,0.673,1.449c0.302,0.436,0.683,0.811,1.111,1.119
				c0.43,0.305,0.906,0.548,1.408,0.712c0.501,0.167,1.025,0.267,1.552,0.285c0.527,0.023,1.057-0.031,1.563-0.173
				c0.508-0.135,0.988-0.365,1.414-0.673c0.424-0.31,0.79-0.705,1.07-1.161c0.286-0.454,0.482-0.966,0.625-1.499l0.089,0.015
				c-0.056,0.557-0.205,1.112-0.458,1.626c-0.255,0.513-0.619,0.98-1.069,1.349c-0.447,0.375-0.977,0.643-1.531,0.82
				c-0.557,0.17-1.142,0.243-1.722,0.226c-1.158-0.04-2.31-0.426-3.229-1.143c-0.459-0.356-0.854-0.796-1.151-1.293
				c-0.295-0.498-0.491-1.051-0.566-1.615L21.833,35.038z"/>
		</g>
		<g>
			<path class="st0" d="M23.859,38.287c0.314-0.407,0.76-0.711,1.24-0.909c0.122-0.046,0.244-0.09,0.368-0.13l0.379-0.096
				l0.386-0.057c0.13-0.009,0.26-0.019,0.39-0.025c0.52-0.008,1.042,0.065,1.533,0.235c0.49,0.167,0.955,0.428,1.312,0.797
				l-0.045,0.055c-0.422-0.269-0.878-0.452-1.35-0.57c-0.472-0.115-0.958-0.169-1.442-0.156c-0.121,0.009-0.242,0.013-0.362,0.02
				l-0.36,0.046l-0.356,0.069c-0.117,0.031-0.232,0.066-0.35,0.096c-0.461,0.146-0.902,0.365-1.298,0.672L23.859,38.287z"/>
		</g>
		<g>
			<g>
				<path class="st12" d="M33.567,29.896c-3.829,0.037-5.89,1.304-7.129,1.316c-1.239,0.012-3.325-1.214-7.153-1.177
					s-4.299,2.8-9.07,3.696c5.721,3.659,8.94-0.158,11.508,1.328c2.567,1.486,6.968,1.443,9.505-0.093s7.331,3.965,11.859-1.048
					C38.065,33.398,37.396,29.859,33.567,29.896z"/>
			</g>
			<g>
				<path class="st0" d="M33.569,30.05c-1.011,0.022-2.018,0.143-3.001,0.365c-0.491,0.11-0.978,0.241-1.461,0.388
					c-0.483,0.148-0.962,0.311-1.459,0.459c-0.248,0.074-0.504,0.14-0.774,0.187c-0.136,0.022-0.275,0.039-0.422,0.042
					c-0.146,0.001-0.287-0.013-0.424-0.031c-0.542-0.086-1.028-0.244-1.519-0.381c-0.975-0.286-1.951-0.524-2.948-0.656
					c-0.498-0.067-0.999-0.11-1.501-0.131c-0.251-0.011-0.503-0.014-0.754-0.014l-0.37,0.009c-0.122,0.01-0.246,0.015-0.368,0.03
					c-0.488,0.055-0.97,0.156-1.428,0.335c-0.461,0.172-0.897,0.411-1.325,0.676c-0.428,0.265-0.849,0.555-1.283,0.83
					c-0.434,0.277-0.885,0.533-1.352,0.755c-0.936,0.444-1.936,0.739-2.949,0.901l0,0l0.03-0.152
					c0.614,0.369,1.253,0.693,1.917,0.948c0.664,0.254,1.355,0.433,2.056,0.517c0.7,0.089,1.41,0.083,2.112,0
					c0.704-0.081,1.398-0.238,2.103-0.396c0.704-0.151,1.433-0.321,2.209-0.251c0.385,0.035,0.774,0.144,1.12,0.332l0.236,0.127
					c0.075,0.043,0.155,0.078,0.232,0.116c0.077,0.039,0.158,0.072,0.238,0.107c0.079,0.036,0.161,0.067,0.242,0.098
					c0.65,0.252,1.337,0.419,2.033,0.516c0.697,0.1,1.404,0.127,2.109,0.101c0.704-0.028,1.406-0.121,2.09-0.282
					c0.681-0.166,1.349-0.395,1.957-0.728l0.233-0.131c0.088-0.051,0.181-0.094,0.276-0.13c0.19-0.074,0.388-0.117,0.584-0.139
					c0.395-0.042,0.778,0.002,1.143,0.077c0.732,0.152,1.413,0.405,2.095,0.632c0.68,0.23,1.36,0.446,2.053,0.583
					c0.692,0.138,1.4,0.188,2.095,0.106c0.694-0.083,1.371-0.312,1.98-0.668c0.61-0.354,1.159-0.817,1.651-1.335l0,0l0.053,0.139
					c-0.439-0.049-0.876-0.118-1.307-0.218c-0.43-0.104-0.853-0.239-1.264-0.405c-0.825-0.327-1.586-0.796-2.299-1.31
					c-0.716-0.511-1.403-1.059-2.17-1.45c-0.383-0.196-0.784-0.349-1.199-0.444C34.423,30.08,33.996,30.042,33.569,30.05z
					 M33.566,29.743c0.449,0.001,0.901,0.049,1.339,0.158c0.438,0.109,0.858,0.28,1.252,0.491c0.792,0.422,1.468,0.995,2.174,1.507
					c0.701,0.518,1.439,0.986,2.243,1.316c0.401,0.165,0.816,0.297,1.237,0.401c0.423,0.1,0.852,0.17,1.285,0.219l0.165,0.019
					l-0.112,0.12l0,0c-0.476,0.548-1.019,1.05-1.646,1.438c-0.623,0.391-1.331,0.658-2.065,0.77
					c-0.735,0.116-1.484,0.07-2.206-0.058c-0.724-0.127-1.425-0.336-2.114-0.554c-0.688-0.215-1.369-0.45-2.052-0.577
					c-0.34-0.061-0.682-0.096-1.005-0.057c-0.161,0.019-0.317,0.056-0.463,0.114c-0.073,0.029-0.143,0.063-0.211,0.103l-0.236,0.137
					c-0.653,0.365-1.356,0.622-2.073,0.798c-0.718,0.173-1.451,0.272-2.187,0.305c-0.735,0.033-1.474-0.002-2.203-0.109
					c-0.729-0.105-1.452-0.282-2.144-0.556c-0.087-0.034-0.173-0.069-0.257-0.109c-0.085-0.038-0.17-0.075-0.254-0.118
					c-0.083-0.043-0.168-0.082-0.249-0.129l-0.238-0.132c-0.286-0.159-0.603-0.253-0.935-0.288
					c-0.332-0.036-0.677-0.015-1.023,0.028c-0.347,0.043-0.697,0.109-1.049,0.178c-0.704,0.14-1.421,0.287-2.152,0.354
					c-0.73,0.07-1.472,0.062-2.2-0.05c-0.727-0.113-1.435-0.326-2.106-0.612c-0.673-0.284-1.309-0.644-1.909-1.049l-0.172-0.116
					l0.201-0.036l0,0c0.991-0.216,1.956-0.537,2.846-1.006c0.445-0.235,0.872-0.501,1.292-0.783c0.42-0.283,0.832-0.583,1.264-0.867
					c0.431-0.283,0.887-0.55,1.378-0.748c0.488-0.204,1.009-0.334,1.534-0.399c0.131-0.018,0.263-0.025,0.394-0.037l0.394-0.015
					c0.259-0.002,0.517-0.001,0.776,0.007c0.517,0.017,1.034,0.055,1.548,0.119c1.028,0.125,2.043,0.362,3.029,0.64
					c0.491,0.133,0.982,0.283,1.45,0.351c0.235,0.032,0.442,0.029,0.677-0.011c0.233-0.039,0.472-0.102,0.713-0.168
					c0.966-0.28,1.97-0.57,2.989-0.738C31.505,29.821,32.537,29.743,33.566,29.743z"/>
			</g>
		</g>
		<g class="st1">
			<path class="st2" d="M28.44,21.809c0.851-0.232,7.043-2.017,11.095,6.026c0.014-1.817-0.13-2.039-0.951-3.047
				s-1.76-2.564-3.476-3.292s-3.054-0.933-4.288-0.676C29.116,21.173,28.44,21.809,28.44,21.809z"/>
		</g>
		<g class="st1">
			<path class="st2" d="M25.056,21.818c-1.214-0.722-6.936-1.84-11.353,6.475c-0.048-1.655,0.02-2.432,0.689-3.287
				c0.67-0.854,1.942-2.497,3.94-3.582c1.312-0.713,2.239-0.943,3.742-0.7C23.577,20.968,25.056,21.818,25.056,21.818z"/>
		</g>
		<g class="st1">
			<path class="st2" d="M14.511,35.875c0.061,0.613,1.781,0.177,2.229,0.158c0.74-0.031,1.486-0.091,2.212-0.242
				c1.643-0.34,2.155-0.227,3.061,0.19c-0.204-0.48-0.002-1.047-0.002-1.047s-0.961-0.382-2.049-0.224
				c-1.088,0.158-2.21,0.727-3.367,0.657c-0.403-0.024-1.788-0.01-2.27-0.047C14.324,35.347,14.508,35.851,14.511,35.875z"/>
		</g>
		<g class="st1">
			<path class="st2" d="M31.168,35.792c0.998-0.271,1.481-0.608,2.238-0.182c1.449,0.816,4.491,1.43,4.865,1.446
				c0.374,0.016,0.316-0.87,0.316-0.87s-1.294-0.133-2.848-0.634c-1.555-0.501-3.059-0.976-3.627-0.856
				c-0.567,0.12-0.884,0.271-0.884,0.271S31.315,35.486,31.168,35.792z"/>
		</g>
		<g class="st1">
			<path class="st2" d="M24.665,38.335c0.324-0.354,3.595-0.442,4.273-0.059c0.442-0.148,0.442-0.148,0.442-0.148
				s-0.413-0.589-1.739-0.707c-1.326-0.118-2.432-0.071-3.603,0.686C24.252,38.306,24.665,38.335,24.665,38.335z"/>
		</g>
		<g>
			<g>
				<path class="st3" d="M24.181,41.725c0.93,1.194-3.293,4.126-5.229,3.323c-1.631-0.676-5.924-3.314-7.578-5.554
					c-2.034-2.754,6.266-10.548,7.727-7.156C20.948,36.621,21.937,38.842,24.181,41.725z"/>
			</g>
			<g>
				<path class="st0" d="M24.423,41.536c0.096,0.119,0.165,0.272,0.189,0.426c0.026,0.154,0.013,0.303-0.017,0.435
					c-0.063,0.266-0.184,0.48-0.315,0.675c-0.267,0.386-0.587,0.699-0.927,0.982c-0.34,0.283-0.705,0.529-1.089,0.745
					c-0.383,0.216-0.786,0.403-1.212,0.541c-0.426,0.138-0.876,0.235-1.356,0.231c-0.239-0.004-0.487-0.034-0.733-0.114
					c-0.06-0.018-0.126-0.046-0.178-0.067l-0.152-0.067c-0.099-0.046-0.198-0.092-0.295-0.14c-0.773-0.383-1.499-0.818-2.213-1.278
					c-0.713-0.459-1.405-0.948-2.076-1.469c-0.67-0.521-1.319-1.071-1.921-1.68c-0.3-0.305-0.589-0.625-0.851-0.972l-0.098-0.13
					c-0.034-0.047-0.069-0.1-0.099-0.151c-0.061-0.105-0.112-0.216-0.151-0.33c-0.078-0.228-0.11-0.466-0.11-0.696
					c0.001-0.463,0.119-0.899,0.275-1.305c0.158-0.408,0.361-0.79,0.587-1.154c0.451-0.73,0.992-1.392,1.584-2.002
					c0.592-0.609,1.236-1.169,1.942-1.648c0.354-0.238,0.722-0.457,1.112-0.64c0.39-0.18,0.804-0.329,1.25-0.379
					c0.222-0.024,0.454-0.021,0.682,0.035c0.227,0.055,0.449,0.167,0.624,0.331c0.176,0.162,0.303,0.367,0.393,0.573l0.255,0.574
					c0.341,0.765,0.683,1.53,1.035,2.289c0.356,0.757,0.724,1.506,1.118,2.239c0.395,0.733,0.816,1.448,1.275,2.139
					C23.411,40.219,23.905,40.887,24.423,41.536z M23.94,41.913c-0.511-0.674-0.999-1.369-1.449-2.087
					c-0.452-0.717-0.864-1.459-1.242-2.214c-0.379-0.755-0.728-1.522-1.065-2.292c-0.339-0.77-0.665-1.543-0.99-2.316l-0.243-0.58
					c-0.073-0.18-0.173-0.338-0.304-0.462c-0.261-0.253-0.653-0.331-1.041-0.289c-0.39,0.042-0.778,0.179-1.146,0.35
					c-0.37,0.173-0.724,0.383-1.063,0.618c-0.678,0.47-1.303,1.02-1.872,1.62c-0.565,0.603-1.079,1.257-1.497,1.963
					c-0.206,0.354-0.387,0.721-0.522,1.1c-0.133,0.377-0.223,0.77-0.213,1.148c0.005,0.188,0.036,0.371,0.099,0.538
					c0.031,0.083,0.07,0.163,0.117,0.238c0.024,0.038,0.048,0.072,0.076,0.109l0.094,0.118c0.253,0.315,0.536,0.611,0.834,0.894
					c0.596,0.565,1.246,1.08,1.916,1.567c0.671,0.486,1.365,0.943,2.072,1.377c0.354,0.216,0.712,0.425,1.074,0.625
					c0.361,0.2,0.726,0.396,1.093,0.569c0.092,0.044,0.184,0.085,0.275,0.126l0.137,0.058c0.045,0.017,0.075,0.03,0.117,0.042
					c0.154,0.048,0.327,0.069,0.507,0.068c0.36,0,0.741-0.081,1.112-0.197c0.743-0.24,1.467-0.621,2.1-1.098
					c0.314-0.239,0.611-0.508,0.83-0.806c0.108-0.148,0.197-0.305,0.235-0.448c0.02-0.071,0.025-0.135,0.017-0.189
					C23.989,42.004,23.973,41.959,23.94,41.913z"/>
			</g>
		</g>
		<g>
			<g>
				<path class="st3" d="M29.025,41.725c-0.93,1.194,3.293,4.126,5.229,3.323c1.631-0.676,5.924-3.314,7.578-5.554
					c2.034-2.754-6.266-10.548-7.727-7.156C32.258,36.621,31.27,38.842,29.025,41.725z"/>
			</g>
			<g>
				<path class="st0" d="M29.267,41.913c-0.033,0.047-0.05,0.091-0.057,0.146c-0.007,0.054-0.002,0.118,0.017,0.189
					c0.038,0.143,0.127,0.3,0.235,0.448c0.219,0.299,0.516,0.567,0.83,0.806c0.633,0.477,1.357,0.858,2.1,1.098
					c0.371,0.117,0.752,0.198,1.112,0.197c0.179,0.001,0.352-0.02,0.507-0.068c0.041-0.012,0.071-0.024,0.117-0.042l0.137-0.058
					c0.092-0.041,0.183-0.082,0.275-0.126c0.368-0.173,0.732-0.368,1.093-0.569c0.362-0.2,0.72-0.409,1.074-0.625
					c0.707-0.434,1.4-0.891,2.072-1.377c0.67-0.487,1.32-1.002,1.916-1.567c0.297-0.283,0.58-0.579,0.834-0.894l0.094-0.118
					c0.029-0.037,0.052-0.071,0.076-0.109c0.047-0.074,0.086-0.154,0.117-0.238c0.063-0.167,0.094-0.35,0.099-0.538
					c0.01-0.378-0.079-0.77-0.213-1.148c-0.135-0.378-0.316-0.746-0.522-1.1c-0.418-0.705-0.932-1.36-1.497-1.963
					c-0.569-0.6-1.194-1.151-1.872-1.62c-0.339-0.235-0.693-0.445-1.063-0.618c-0.369-0.171-0.756-0.308-1.146-0.35
					c-0.388-0.042-0.779,0.035-1.041,0.289c-0.132,0.125-0.231,0.283-0.304,0.462l-0.243,0.58c-0.325,0.774-0.652,1.547-0.99,2.316
					c-0.337,0.77-0.686,1.538-1.065,2.292c-0.378,0.755-0.79,1.497-1.242,2.214C30.265,40.544,29.778,41.239,29.267,41.913z
					 M28.783,41.536c0.518-0.65,1.012-1.317,1.47-2.009c0.459-0.691,0.88-1.407,1.275-2.139c0.395-0.733,0.763-1.483,1.118-2.239
					c0.352-0.758,0.695-1.523,1.035-2.289l0.255-0.574c0.09-0.205,0.217-0.411,0.393-0.573c0.174-0.164,0.396-0.276,0.624-0.331
					c0.228-0.056,0.46-0.059,0.682-0.035c0.446,0.05,0.86,0.198,1.25,0.379c0.39,0.183,0.758,0.402,1.112,0.64
					c0.706,0.478,1.35,1.038,1.942,1.648c0.592,0.609,1.133,1.272,1.584,2.002c0.226,0.365,0.429,0.747,0.587,1.154
					c0.156,0.407,0.274,0.843,0.275,1.305c0,0.23-0.031,0.468-0.11,0.696c-0.039,0.114-0.09,0.225-0.151,0.33
					c-0.03,0.052-0.065,0.104-0.099,0.151l-0.098,0.13c-0.262,0.347-0.551,0.667-0.851,0.972c-0.602,0.609-1.252,1.159-1.921,1.68
					c-0.67,0.521-1.363,1.01-2.076,1.469c-0.713,0.459-1.44,0.895-2.213,1.278c-0.096,0.048-0.196,0.094-0.295,0.14l-0.152,0.067
					c-0.052,0.022-0.119,0.049-0.178,0.067c-0.245,0.08-0.494,0.111-0.733,0.114c-0.48,0.004-0.93-0.093-1.356-0.231
					c-0.426-0.139-0.829-0.325-1.212-0.541c-0.383-0.216-0.748-0.462-1.089-0.745c-0.34-0.283-0.66-0.596-0.927-0.982
					c-0.13-0.195-0.252-0.409-0.315-0.675c-0.03-0.132-0.043-0.281-0.017-0.435C28.619,41.808,28.687,41.656,28.783,41.536z"/>
			</g>
		</g>
		<g class="st1">
			<path class="st2" d="M43.585,14.269c0.091,0.091,2.669,3.476,2.508,4.559c-0.228,1.527-4.286,6.36-4.286,6.36l-0.314,2.649
				l-0.689-0.734l0.023,2.348c0,0,2.325-4.057,2.735-4.627c0.41-0.57,5.448-5.494,5.448-5.494L43.585,14.269z"/>
		</g>
		<g class="st1">
			<path class="st2" d="M11.294,38.948c-0.602,0.904-1.205,3.25-1.877,3.405c-1.078,0.248-1.838-1.04-3.291-0.422
				s-3.69,1.172-4.105,1.143c0.622,0.285,1.057,0.29,1.221,0.32c0.163,0.03,2.522-0.444,3.75-0.537
				c0.634-0.048,3.131,0.666,3.131,0.666s0.457-0.982,0.786-1.379s1.427-1.623,1.427-1.623L11.294,38.948z"/>
		</g>
		<g class="st1">
			<path class="st2" d="M14.59,42.102c0.661,0.387,3.488,1.496,4.695,1.573c1.436,0.091,3.83-0.843,4.604-2.188
				c0,0,0.524,0.547,0.365,0.935s-0.98,1.55-1.755,1.938c-0.775,0.387-2.849,1.208-3.602,0.843
				C18.146,44.837,14.59,42.102,14.59,42.102z"/>
		</g>
		<g class="st1">
			<path class="st2" d="M38.73,42.01c-0.661,0.387-3.488,1.496-4.695,1.573c-1.436,0.091-3.83-0.843-4.604-2.188
				c0,0-0.524,0.547-0.365,0.935s0.98,1.55,1.755,1.938c0.775,0.387,2.849,1.208,3.602,0.843C35.174,44.746,38.73,42.01,38.73,42.01
				z"/>
		</g>
		<g>
			<g>
				<path class="st13" d="M39.197,10.272c0,0-0.115-3.119-0.19-4.613c-0.061-1.221-0.083-1.198,1.159-1.259
					c1.242-0.061,4.613-0.19,4.613-0.19l3.846,3.625l-5.5,6.016L39.197,10.272z"/>
			</g>
			<g>
				<path class="st0" d="M39.146,10.296c-0.08-0.938-0.133-1.897-0.179-2.856c-0.026-0.479-0.04-0.961-0.06-1.441l-0.03-0.718
					c-0.004-0.121-0.007-0.242,0.003-0.37c0.004-0.032,0.005-0.064,0.01-0.097l0.022-0.101c0.012-0.035,0.027-0.07,0.042-0.104
					c0.022-0.033,0.044-0.068,0.071-0.096c0.058-0.057,0.126-0.094,0.192-0.118c0.033-0.01,0.065-0.021,0.098-0.029l0.095-0.018
					c0.125-0.02,0.246-0.028,0.366-0.035c0.24-0.014,0.477-0.022,0.715-0.03l1.428-0.048c0.952-0.035,1.904-0.054,2.857-0.082l0,0
					l0.023-0.001l0.017,0.016l3.846,3.625l0.04,0.038l-0.037,0.04l-5.5,6.016l-0.038,0.041l-0.041-0.037L39.146,10.296z
					 M39.247,10.249l3.916,3.56l-0.078,0.004l5.5-6.016l0.003,0.078l-3.846-3.625l0.04,0.015l0,0
					c-0.951,0.051-1.902,0.11-2.853,0.154l-1.426,0.07L39.79,4.527c-0.117,0.008-0.234,0.017-0.344,0.035
					c-0.111,0.017-0.211,0.049-0.264,0.103c-0.054,0.051-0.075,0.153-0.082,0.263c-0.008,0.109-0.005,0.227-0.001,0.344l0.033,0.709
					c0.019,0.472,0.044,0.942,0.057,1.414C39.223,8.339,39.249,9.284,39.247,10.249z"/>
			</g>
		</g>
		<g>
			<g>
				<g>
					<path class="st14" d="M39.64,6.297c0.169-0.183-0.033-0.81,0.204-1.071c0.254-0.28,0.887-0.087,1.057-0.272
						c0.076-0.083,0.026-0.344-0.029-0.587C40.6,4.379,40.358,4.39,40.167,4.399c-1.242,0.061-1.221,0.038-1.159,1.259
						c0.01,0.206,0.022,0.443,0.033,0.699C39.289,6.374,39.561,6.384,39.64,6.297z"/>
				</g>
				<g>
					<path class="st0" d="M39.599,6.26c0.053-0.064,0.059-0.19,0.061-0.302c0.002-0.116-0.002-0.235,0.006-0.357
						c0.01-0.12,0.025-0.25,0.101-0.365c0.078-0.115,0.208-0.177,0.329-0.202c0.122-0.027,0.243-0.032,0.361-0.037
						c0.117-0.005,0.236-0.008,0.334-0.039c0.022-0.009,0.045-0.019,0.058-0.033c0.01-0.007,0.013-0.011,0.017-0.018
						c0.004-0.007,0.007-0.017,0.01-0.028c0.01-0.046,0.009-0.102,0.003-0.158c-0.011-0.113-0.036-0.227-0.062-0.341v0l0.057,0.043
						c-0.299,0.023-0.598,0.043-0.898,0.061c-0.149,0.011-0.299,0.017-0.443,0.036c-0.143,0.017-0.29,0.046-0.37,0.124
						c-0.078,0.077-0.094,0.225-0.1,0.368c-0.006,0.145,0.004,0.295,0.007,0.444c0.012,0.3,0.018,0.6,0.024,0.9l-0.052-0.053l0,0
						c0.102,0.007,0.203,0.013,0.302,0.011c0.049-0.001,0.099-0.004,0.145-0.012C39.536,6.294,39.582,6.278,39.599,6.26z
						 M39.681,6.335C39.623,6.39,39.563,6.399,39.51,6.41c-0.055,0.009-0.109,0.012-0.161,0.013
						c-0.106,0.002-0.209-0.004-0.312-0.011l0,0l-0.048-0.002L38.984,6.36c-0.024-0.299-0.043-0.598-0.062-0.898
						c-0.009-0.151-0.017-0.3-0.014-0.456c0-0.038,0.002-0.078,0.006-0.117c0.002-0.039,0.008-0.079,0.017-0.121
						c0.013-0.081,0.053-0.17,0.118-0.238c0.035-0.031,0.072-0.062,0.112-0.078c0.039-0.023,0.079-0.034,0.119-0.045
						c0.079-0.022,0.157-0.034,0.234-0.042c0.154-0.017,0.304-0.024,0.454-0.03c0.3-0.012,0.6-0.018,0.9-0.023l0.048-0.001
						l0.009,0.044v0c0.026,0.116,0.052,0.233,0.064,0.355c0.005,0.061,0.009,0.124-0.006,0.195c-0.005,0.018-0.01,0.036-0.021,0.055
						c-0.01,0.019-0.026,0.038-0.041,0.048c-0.029,0.027-0.062,0.041-0.094,0.054C40.7,5.104,40.58,5.102,40.462,5.109
						c-0.117,0.005-0.233,0.011-0.342,0.035c-0.109,0.022-0.205,0.073-0.261,0.155c-0.057,0.083-0.074,0.198-0.082,0.31
						c-0.008,0.114-0.004,0.231-0.006,0.351c-0.002,0.061-0.003,0.121-0.013,0.184C39.747,6.206,39.734,6.275,39.681,6.335z"/>
				</g>
			</g>
		</g>
		<g>
			<g>
				<path class="st15" d="M52.196,22.183l-2.812-2.589c-0.454-0.418-0.483-1.131-0.065-1.586l4.054-4.403
					c0.418-0.454,1.131-0.483,1.586-0.065l2.812,2.589c0.454,0.418,0.483,1.131,0.065,1.586l-4.054,4.403
					C53.363,22.572,52.65,22.601,52.196,22.183z"/>
			</g>
			<g>
				<path class="st0" d="M52.133,22.251l-2.437-2.273l-0.304-0.284c-0.102-0.093-0.209-0.206-0.278-0.334
					c-0.146-0.256-0.19-0.566-0.124-0.852c0.032-0.143,0.092-0.28,0.174-0.401c0.085-0.124,0.186-0.219,0.278-0.322l0.566-0.611
					l2.263-2.446c0.38-0.408,0.748-0.816,1.138-1.223c0.213-0.196,0.502-0.305,0.791-0.304c0.289-0.001,0.577,0.109,0.791,0.305
					l2.454,2.254l0.307,0.282c0.103,0.092,0.209,0.201,0.28,0.327c0.149,0.252,0.195,0.56,0.137,0.848
					c-0.029,0.144-0.085,0.284-0.165,0.409c-0.019,0.032-0.04,0.062-0.065,0.091c-0.023,0.029-0.047,0.059-0.069,0.084l-0.138,0.157
					l-0.551,0.626c-0.37,0.414-0.743,0.826-1.12,1.234c-0.375,0.41-0.752,0.817-1.13,1.224l-0.568,0.61l-0.284,0.304l-0.142,0.152
					l-0.071,0.076l-0.081,0.079c-0.225,0.204-0.528,0.318-0.829,0.315C52.653,22.574,52.353,22.456,52.133,22.251z M52.258,22.115
					c0.189,0.171,0.443,0.267,0.696,0.264c0.254-0.001,0.505-0.1,0.689-0.272l0.067-0.068l0.07-0.077l0.14-0.154l0.28-0.309
					l0.561-0.616c0.374-0.411,0.749-0.82,1.126-1.228c0.375-0.409,0.756-0.814,1.137-1.218l0.578-0.6
					c0.096-0.102,0.199-0.197,0.271-0.3c0.075-0.105,0.13-0.225,0.162-0.352c0.065-0.253,0.026-0.533-0.102-0.763
					c-0.065-0.117-0.15-0.214-0.254-0.307l-0.306-0.283l-2.449-2.26c-0.196-0.181-0.461-0.283-0.727-0.283
					c-0.267-0.001-0.532,0.102-0.727,0.282c-0.377,0.397-0.751,0.815-1.126,1.222l-2.251,2.457l-0.562,0.615
					c-0.093,0.104-0.193,0.202-0.265,0.309c-0.073,0.109-0.125,0.231-0.153,0.359c-0.057,0.256-0.016,0.532,0.115,0.758
					c0.066,0.116,0.151,0.208,0.255,0.3l0.308,0.28L52.258,22.115z"/>
			</g>
		</g>
		<g>
			<path class="st16" d="M44.834,4.31c-0.635-0.585,1.11,2.622,0.698,3.07s-2.552-0.574-3.167,0.104
				c-0.574,0.632,0.519,2.708,0.109,3.152c-0.41,0.445-3.6-0.744-3.156-0.336c0.492,0.453,7.965,7.334,7.965,7.334l1.25-1.358
				l0.067-0.072l2.958-3.213l0.061-0.065l1.181-1.283C52.799,11.644,45.536,4.956,44.834,4.31z"/>
		</g>
		<g class="st17">
			<polygon class="st8" points="52.725,11.696 51.512,12.989 45.618,7.439 44.738,4.205 			"/>
		</g>
		<g>
			
				<rect x="48.51" y="6.073" transform="matrix(0.6774 -0.7356 0.7356 0.6774 8.1585 39.0182)" class="st0" width="0.111" height="8.268"/>
		</g>
		<g>
			
				<rect x="45.481" y="9.342" transform="matrix(0.6775 -0.7355 0.7355 0.6775 4.7685 37.8405)" class="st0" width="0.111" height="8.28"/>
		</g>
		<g>
			<g>
				
					<rect x="47.706" y="14.058" transform="matrix(0.6774 -0.7356 0.7356 0.6774 4.7525 43.3701)" class="st18" width="8.238" height="4.417"/>
			</g>
			<g>
				<path class="st0" d="M50.661,20.845l-3.322-2.97l-0.078-0.07l0.072-0.078l5.588-6.052l0.064-0.069l0.068,0.064l3.224,3.02
					l0.04,0.038l-0.037,0.04L50.661,20.845z M50.657,20.734l5.541-6.042l0.003,0.078l-3.275-2.964l0.131-0.005l-5.571,6.068
					l-0.006-0.148L50.657,20.734z"/>
			</g>
		</g>
		<g>
			<g>
				<g>
					<polygon class="st18" points="47.507,13.552 48.385,14.361 49.392,14.15 49.52,13.129 48.641,12.32 47.634,12.531 					"/>
				</g>
				<g>
					<path class="st0" d="M47.551,13.535l0.866,0.791l-0.042-0.012l0.996-0.264l-0.08,0.087l0.181-1.014l0.015,0.041l-0.879-0.809
						l0.042,0.012l-0.994,0.269l0.084-0.091L47.551,13.535z M47.462,13.568l0.066-1.05l0.005-0.079l0.079-0.012l1.019-0.153
						l0.026-0.004l0.017,0.015l0.879,0.809l0.017,0.016l-0.002,0.026l-0.074,1.027l-0.005,0.075l-0.074,0.012l-1.017,0.159
						l-0.026,0.004l-0.017-0.016L47.462,13.568z"/>
				</g>
			</g>
			<g>
				<g>
					<path class="st8" d="M47.804,13.219l0.51-0.554l0.148,0.136l0.096,0.56c0.03,0.144,0.072,0.24,0.124,0.288
						c0.042,0.039,0.081,0.061,0.117,0.066c0.036,0.005,0.067-0.006,0.093-0.035c0.026-0.028,0.032-0.064,0.019-0.109
						c-0.013-0.044-0.042-0.087-0.086-0.127l0.17-0.184c0.06,0.056,0.104,0.119,0.133,0.19c0.029,0.071,0.037,0.142,0.026,0.211
						s-0.041,0.131-0.091,0.185c-0.079,0.086-0.164,0.129-0.256,0.13c-0.091,0.001-0.183-0.04-0.275-0.125
						c-0.039-0.035-0.071-0.076-0.097-0.121c-0.026-0.045-0.048-0.099-0.065-0.16c-0.017-0.061-0.035-0.151-0.052-0.267
						l-0.052-0.237l-0.287,0.312L47.804,13.219z"/>
				</g>
			</g>
		</g>
		<g class="st17">
			
				<rect x="53.004" y="11.828" transform="matrix(0.6834 -0.7301 0.7301 0.6834 6.6181 43.5971)" class="st8" width="1.135" height="4.681"/>
		</g>
		<g>
			
				<rect x="46.616" y="15.105" transform="matrix(0.6774 -0.7356 0.7356 0.6774 5.1195 42.2782)" class="st16" width="8.295" height="0.394"/>
			<path class="st0" d="M48.104,18.524l-0.331-0.304l0.019-0.021l5.638-6.122l0.331,0.304l-0.019,0.021L48.104,18.524z
				 M47.852,18.217l0.249,0.229l5.581-6.061l-0.249-0.229L47.852,18.217z"/>
		</g>
		<g>
			
				<rect x="48.733" y="17.055" transform="matrix(0.6774 -0.7356 0.7356 0.6774 4.3683 44.4642)" class="st16" width="8.295" height="0.394"/>
			<path class="st0" d="M50.221,20.474l-0.331-0.304l0.019-0.021l5.638-6.123l0.331,0.304l-0.019,0.021L50.221,20.474z
				 M49.968,20.166l0.249,0.229l5.581-6.061l-0.249-0.229L49.968,20.166z"/>
		</g>
		<g>
			<path class="st0" d="M53.573,13.048c0.139,0.078,0.265,0.17,0.387,0.265c0.123,0.095,0.24,0.197,0.354,0.302
				c0.113,0.106,0.224,0.214,0.329,0.329c0.105,0.114,0.207,0.233,0.297,0.364c-0.138-0.079-0.264-0.171-0.387-0.266
				c-0.123-0.095-0.24-0.197-0.355-0.301c-0.113-0.105-0.225-0.213-0.33-0.328C53.764,13.298,53.663,13.179,53.573,13.048z"/>
		</g>
		<g>
			<path class="st0" d="M48.735,18.303c0.139,0.078,0.265,0.17,0.387,0.265c0.123,0.095,0.24,0.197,0.354,0.302
				c0.113,0.106,0.224,0.214,0.329,0.329c0.105,0.114,0.207,0.233,0.297,0.364c-0.138-0.079-0.264-0.171-0.387-0.266
				c-0.123-0.095-0.24-0.197-0.355-0.301c-0.113-0.105-0.225-0.213-0.33-0.328C48.926,18.553,48.825,18.434,48.735,18.303z"/>
		</g>
		<g>
			<path class="st0" d="M52.968,13.705c0.139,0.078,0.265,0.17,0.387,0.265c0.123,0.095,0.24,0.197,0.354,0.302
				c0.113,0.106,0.224,0.214,0.329,0.329c0.105,0.114,0.207,0.233,0.297,0.364c-0.138-0.079-0.264-0.171-0.387-0.266
				c-0.123-0.095-0.24-0.197-0.355-0.301c-0.113-0.105-0.225-0.213-0.33-0.328C53.159,13.955,53.058,13.836,52.968,13.705z"/>
		</g>
		<g>
			<path class="st0" d="M52.364,14.362c0.139,0.078,0.265,0.17,0.387,0.265c0.123,0.095,0.24,0.197,0.354,0.302
				c0.113,0.106,0.224,0.214,0.329,0.329c0.105,0.114,0.207,0.233,0.297,0.364c-0.138-0.079-0.264-0.171-0.387-0.266
				c-0.123-0.095-0.24-0.197-0.355-0.301c-0.113-0.105-0.225-0.213-0.33-0.328C52.554,14.612,52.453,14.493,52.364,14.362z"/>
		</g>
		<g>
			<path class="st0" d="M51.759,15.018c0.139,0.078,0.265,0.17,0.387,0.265c0.123,0.095,0.24,0.197,0.354,0.302
				c0.113,0.106,0.224,0.214,0.329,0.329c0.105,0.114,0.207,0.233,0.297,0.364c-0.138-0.079-0.264-0.171-0.387-0.266
				c-0.123-0.095-0.24-0.197-0.355-0.301c-0.113-0.105-0.225-0.213-0.33-0.328C51.95,15.269,51.848,15.15,51.759,15.018z"/>
		</g>
		<g>
			<path class="st0" d="M51.154,15.675c0.139,0.078,0.265,0.17,0.387,0.265c0.123,0.095,0.24,0.197,0.354,0.302
				c0.113,0.106,0.224,0.214,0.329,0.329c0.105,0.114,0.207,0.233,0.297,0.364c-0.138-0.079-0.264-0.171-0.387-0.266
				c-0.123-0.095-0.24-0.197-0.355-0.301c-0.113-0.105-0.225-0.213-0.33-0.328C51.345,15.926,51.244,15.807,51.154,15.675z"/>
		</g>
		<g>
			<path class="st0" d="M50.549,16.332c0.139,0.078,0.265,0.17,0.387,0.265c0.123,0.095,0.24,0.197,0.354,0.302
				c0.113,0.106,0.224,0.214,0.329,0.329c0.105,0.114,0.207,0.233,0.297,0.364c-0.138-0.079-0.264-0.171-0.387-0.266
				c-0.123-0.095-0.24-0.197-0.355-0.301c-0.113-0.105-0.225-0.213-0.33-0.328C50.74,16.583,50.639,16.464,50.549,16.332z"/>
		</g>
		<g>
			<path class="st0" d="M49.944,16.989c0.139,0.078,0.265,0.17,0.387,0.265c0.123,0.095,0.24,0.197,0.354,0.302
				c0.113,0.106,0.224,0.214,0.329,0.329c0.105,0.114,0.207,0.233,0.297,0.364c-0.138-0.079-0.264-0.171-0.387-0.266
				c-0.123-0.095-0.24-0.197-0.355-0.301c-0.113-0.105-0.225-0.213-0.33-0.328C50.136,17.239,50.034,17.121,49.944,16.989z"/>
		</g>
		<g>
			<path class="st0" d="M49.34,17.646c0.139,0.078,0.265,0.17,0.387,0.265c0.123,0.095,0.24,0.197,0.354,0.302
				c0.113,0.106,0.224,0.214,0.329,0.329c0.105,0.114,0.207,0.233,0.297,0.364c-0.138-0.079-0.264-0.171-0.387-0.266
				c-0.123-0.095-0.24-0.197-0.355-0.301c-0.113-0.105-0.225-0.213-0.33-0.328C49.531,17.896,49.429,17.777,49.34,17.646z"/>
		</g>
		<g>
			<path class="st0" d="M50.661,20.845l-3.322-2.97l-0.078-0.07l0.072-0.078l5.588-6.052l0.064-0.069l0.068,0.064l3.224,3.02
				l0.039,0.037l-0.036,0.042c-0.452,0.522-0.913,1.039-1.378,1.555c-0.464,0.518-0.937,1.025-1.406,1.537
				c-0.471,0.509-0.946,1.012-1.418,1.513l-0.709,0.743L50.661,20.845z M50.657,20.734l0.689-0.785l0.686-0.772
				c0.457-0.509,0.913-1.016,1.372-1.517c0.461-0.497,0.917-1.001,1.384-1.493c0.465-0.495,0.933-0.987,1.412-1.475l0.003,0.078
				l-3.275-2.964l0.131-0.005l-5.571,6.068l-0.006-0.148L50.657,20.734z"/>
		</g>
		<g>
			<path class="st0" d="M44.783,4.366c-0.021-0.019-0.044-0.038-0.061-0.047c-0.005-0.006-0.02,0,0.013-0.004
				c0.019-0.004,0.034-0.024,0.035-0.028c0.002-0.005,0.001-0.004,0.001-0.002c0,0.034,0.017,0.101,0.034,0.157
				c0.035,0.116,0.083,0.232,0.13,0.348c0.094,0.232,0.203,0.46,0.304,0.691c0.102,0.231,0.204,0.464,0.297,0.702
				c0.094,0.239,0.178,0.482,0.227,0.752c0.011,0.069,0.019,0.139,0.02,0.216c-0.001,0.077-0.003,0.161-0.05,0.266
				c-0.057,0.12-0.157,0.178-0.24,0.213c-0.086,0.035-0.164,0.046-0.239,0.052c-0.148,0.013-0.283-0.002-0.413-0.018
				c-0.131-0.017-0.257-0.041-0.382-0.068c-0.249-0.053-0.493-0.111-0.736-0.158c-0.243-0.045-0.487-0.089-0.726-0.081
				c-0.235,0.003-0.476,0.067-0.593,0.238c-0.058,0.085-0.087,0.196-0.099,0.31c-0.01,0.115-0.004,0.235,0.009,0.356
				c0.065,0.483,0.23,0.957,0.352,1.456c0.03,0.126,0.055,0.253,0.073,0.388c0.015,0.135,0.026,0.275-0.014,0.443
				c-0.024,0.084-0.06,0.177-0.158,0.259c-0.096,0.071-0.182,0.088-0.259,0.102c-0.154,0.024-0.289,0.015-0.422,0.002
				c-0.265-0.026-0.514-0.09-0.761-0.15c-0.247-0.063-0.491-0.133-0.733-0.204c-0.243-0.069-0.485-0.137-0.728-0.192
				c-0.061-0.014-0.121-0.027-0.181-0.037c-0.057-0.01-0.126-0.019-0.158-0.015c-0.002,0-0.004,0.001,0.005-0.002
				c0.004-0.002,0.012-0.006,0.021-0.017c0.011-0.011,0.017-0.031,0.018-0.044c0-0.029-0.007-0.032-0.006-0.034
				c0-0.001,0.001,0.002,0.004,0.005c0.011,0.012,0.041,0.038,0.062,0.058l0.139,0.128l1.111,1.023l2.222,2.045l2.232,2.035
				c0.748,0.674,1.493,1.352,2.244,2.022l0,0l-0.201,0.009l5.507-5.999l0,0l0.009,0.219c-0.649-0.627-1.307-1.244-1.961-1.867
				l-1.976-1.85c-0.656-0.619-1.324-1.226-1.986-1.839L44.783,4.366z M44.885,4.254l1.993,1.831
				c0.665,0.609,1.326,1.224,1.997,1.827l2.007,1.817c0.674,0.6,1.343,1.205,2.022,1.8l0.114,0.1l-0.105,0.119l0,0l-5.525,5.982
				l-0.097,0.105l-0.104-0.096l0,0c-0.73-0.694-1.466-1.381-2.2-2.07l-2.212-2.057l-2.222-2.047l-1.112-1.022l-0.139-0.128
				c-0.024-0.023-0.043-0.037-0.075-0.071c-0.008-0.009-0.016-0.018-0.024-0.032c-0.008-0.015-0.022-0.033-0.021-0.078
				c0-0.022,0.012-0.049,0.027-0.066c0.014-0.016,0.029-0.025,0.04-0.03c0.023-0.011,0.037-0.012,0.05-0.014
				c0.093-0.008,0.149,0.007,0.217,0.016c0.065,0.011,0.127,0.024,0.19,0.037l0.741,0.16c0.491,0.095,0.991,0.19,1.469,0.217
				c0.117,0.005,0.236,0.005,0.331-0.011c0.046-0.008,0.086-0.025,0.09-0.031c-0.002,0.001,0.006-0.007,0.012-0.017
				c0.007-0.01,0.013-0.026,0.018-0.045c0.023-0.077,0.02-0.194,0.011-0.308c-0.009-0.116-0.028-0.236-0.048-0.357
				c-0.078-0.487-0.205-0.984-0.235-1.505c-0.008-0.13-0.009-0.263,0.009-0.398c0.017-0.134,0.052-0.275,0.139-0.399
				c0.087-0.124,0.213-0.211,0.345-0.26c0.132-0.049,0.267-0.072,0.399-0.083c0.53-0.036,1.036,0.06,1.53,0.12
				c0.244,0.028,0.496,0.064,0.705,0.045c0.051-0.005,0.098-0.014,0.129-0.028c0.032-0.013,0.044-0.03,0.041-0.026
				c0.007-0.01,0.017-0.055,0.017-0.102c0.001-0.049-0.004-0.104-0.011-0.16c-0.03-0.227-0.096-0.467-0.161-0.705
				c-0.068-0.239-0.145-0.477-0.224-0.715c-0.081-0.238-0.159-0.478-0.243-0.717c-0.041-0.12-0.08-0.241-0.117-0.365
				c-0.016-0.066-0.037-0.121-0.035-0.213c0.001-0.013,0.003-0.028,0.011-0.048c0.007-0.019,0.033-0.052,0.068-0.06
				c0.033-0.008,0.053-0.001,0.067,0.004c0.015,0.005,0.025,0.011,0.035,0.017C44.835,4.208,44.86,4.231,44.885,4.254z"/>
		</g>
		<g class="st1">
			<path class="st2" d="M56.464,14.93l-0.225-0.201l-4.265,4.658c-2.789-2.582-6.515-5.946-9.46-8.72
				c-0.039-0.036-0.796,0.067-0.796,0.067l-1.515-0.344l-1.011-0.17l13.215,12.164l0.889,0.091l1.026-0.912
				c0,0-0.852-0.791-2.119-1.964L56.464,14.93z"/>
		</g>
		<g class="st17">
			<path class="st8" d="M40.523,5.045l-1.55-0.38c0,0-0.03-0.137,0.228-0.152s1.748,0.167,1.748,0.167l-0.03,0.304L40.523,5.045z"/>
		</g>
		<g>
			<g>
				<path class="st0" d="M39.599,6.26c0.053-0.064,0.059-0.19,0.061-0.302c0.002-0.116-0.002-0.235,0.006-0.357
					c0.01-0.12,0.025-0.25,0.101-0.365c0.078-0.115,0.208-0.177,0.329-0.202c0.122-0.027,0.243-0.032,0.361-0.037
					c0.117-0.005,0.236-0.008,0.334-0.039c0.022-0.009,0.045-0.019,0.058-0.033c0.01-0.007,0.013-0.011,0.017-0.018
					c0.004-0.007,0.007-0.017,0.01-0.028c0.01-0.046,0.009-0.102,0.003-0.158c-0.011-0.113-0.036-0.227-0.062-0.341v0l0.057,0.043
					c-0.299,0.023-0.598,0.043-0.898,0.061c-0.149,0.011-0.299,0.017-0.443,0.036c-0.143,0.017-0.29,0.046-0.37,0.124
					c-0.078,0.077-0.094,0.225-0.1,0.368c-0.006,0.145,0.004,0.295,0.007,0.444c0.012,0.3,0.018,0.6,0.024,0.9l-0.052-0.053l0,0
					c0.102,0.007,0.203,0.013,0.302,0.011c0.049-0.001,0.099-0.004,0.145-0.012C39.536,6.294,39.582,6.278,39.599,6.26z
					 M39.681,6.335C39.623,6.39,39.563,6.399,39.51,6.41c-0.055,0.009-0.109,0.012-0.161,0.013
					c-0.106,0.002-0.209-0.004-0.312-0.011l0,0l-0.048-0.002L38.984,6.36c-0.024-0.299-0.043-0.598-0.062-0.898
					c-0.009-0.151-0.017-0.3-0.014-0.456c0-0.038,0.002-0.078,0.006-0.117c0.002-0.039,0.008-0.079,0.017-0.121
					c0.013-0.081,0.053-0.17,0.118-0.238c0.035-0.031,0.072-0.062,0.112-0.078c0.039-0.023,0.079-0.034,0.119-0.045
					c0.079-0.022,0.157-0.034,0.234-0.042c0.154-0.017,0.304-0.024,0.454-0.03c0.3-0.012,0.6-0.018,0.9-0.023l0.048-0.001
					l0.009,0.044v0c0.026,0.116,0.052,0.233,0.064,0.355c0.005,0.061,0.009,0.124-0.006,0.195c-0.005,0.018-0.01,0.036-0.021,0.055
					c-0.01,0.019-0.026,0.038-0.041,0.048c-0.029,0.027-0.062,0.041-0.094,0.054C40.7,5.104,40.58,5.102,40.462,5.109
					c-0.117,0.005-0.233,0.011-0.342,0.035c-0.109,0.022-0.205,0.073-0.261,0.155c-0.057,0.083-0.074,0.198-0.082,0.31
					c-0.008,0.114-0.004,0.231-0.006,0.351c-0.002,0.061-0.003,0.121-0.013,0.184C39.747,6.206,39.734,6.275,39.681,6.335z"/>
			</g>
		</g>
		<g>
			<path class="st18" d="M46.109,11.325c0.028-0.016,0.072-0.002,0.109-0.003c0.026,0,0.051-0.003,0.077-0.005
				c-0.006-0.025-0.005-0.055-0.019-0.074c-0.029-0.039-0.063-0.075-0.099-0.107c-0.079-0.071-0.161-0.139-0.258-0.222
				c-0.006,0.043-0.016,0.065-0.009,0.075c0.04,0.052,0.006,0.083-0.03,0.108c-0.102,0.074-0.287,0.078-0.389-0.006
				c-0.074-0.061-0.075-0.13,0.001-0.191c0.057-0.046,0.118-0.086,0.182-0.122c0.156-0.089,0.317-0.144,0.503-0.094
				c0.202,0.055,0.285,0.254,0.148,0.443c0.05,0.022,0.096,0.062,0.133,0.055c0.089-0.017,0.175-0.054,0.261-0.084
				c0.045-0.016,0.038-0.044,0.008-0.065c-0.017-0.012-0.047-0.016-0.069-0.011c-0.073,0.015-0.101-0.018-0.106-0.085
				c-0.001-0.019-0.002-0.038-0.008-0.056c-0.091-0.264-0.458-0.488-0.739-0.458c-0.185,0.02-0.343,0.086-0.474,0.222
				c-0.111,0.115-0.147,0.332-0.059,0.461c0.096,0.139,0.238,0.225,0.395,0.269C45.814,11.415,45.967,11.405,46.109,11.325z"/>
			<path class="st18" d="M42.923,8.273c0.175-0.061,0.267-0.209,0.248-0.391c-0.005-0.046-0.02-0.103-0.051-0.133
				c-0.129-0.125-0.262-0.243-0.389-0.357c-0.135,0.035-0.256,0.096-0.327,0.201c-0.052,0.076-0.078,0.173-0.092,0.274
				c0.122-0.057,0.244-0.113,0.366-0.17c0.054-0.025,0.106-0.057,0.163-0.068c0.033-0.007,0.075,0.015,0.109,0.033
				c0.025,0.013,0.041,0.042,0.063,0.063c0.04,0.039,0.04,0.074,0.002,0.119c-0.134,0.164-0.312,0.245-0.514,0.283
				c-0.061-0.012-0.128,0.002-0.19-0.008c0.002,0.047-0.002,0.093,0.004,0.14c0.002,0.014,0.006,0.029,0.008,0.043
				c0.06,0.043,0.148,0.074,0.219,0.067C42.671,8.357,42.799,8.316,42.923,8.273z"/>
			<path class="st18" d="M45.552,9.912c-0.126-0.172-0.297-0.265-0.515-0.262c-0.165,0.001-0.39,0.057-0.507,0.148
				c-0.198,0.154-0.247,0.399-0.075,0.586c0.272,0.298,0.829,0.216,1.048-0.009C45.634,10.241,45.662,10.063,45.552,9.912z
				 M45.44,10.05c-0.088,0.134-0.222,0.204-0.366,0.256c-0.093,0.034-0.192,0.051-0.273,0.072c-0.066-0.013-0.115-0.018-0.161-0.033
				c-0.095-0.03-0.119-0.122-0.052-0.202c0.097-0.115,0.226-0.187,0.363-0.239c0.07-0.027,0.147-0.033,0.22-0.055
				c0.091-0.027,0.165,0.009,0.238,0.054C45.479,9.946,45.485,9.982,45.44,10.05z"/>
			<path class="st18" d="M44.771,9.539c0.074-0.037,0.099-0.19,0.04-0.245c-0.149-0.142-0.3-0.282-0.452-0.421
				c-0.026-0.023-0.057-0.039-0.087-0.059c-0.004,0.004-0.008,0.009-0.011,0.013c0.009,0.023,0.017,0.047,0.03,0.083
				c-0.067,0.03-0.13,0.058-0.194,0.087c-0.153,0.069-0.304,0.143-0.459,0.204c-0.08,0.031-0.165,0.097-0.265,0.017
				c0.089,0.144,0.216,0.242,0.326,0.356c0.009-0.003,0.018-0.006,0.027-0.009c-0.002-0.04-0.004-0.081-0.007-0.122
				c-0.005-0.009-0.009-0.017-0.014-0.025c0.109-0.042,0.218-0.085,0.328-0.126c0.061-0.023,0.078,0.007,0.06,0.06
				c-0.022,0.064-0.052,0.125-0.078,0.187c-0.047,0.114-0.093,0.228-0.14,0.343c0.106,0.04,0.198,0.079,0.293,0.108
				c0.031,0.009,0.07-0.007,0.105-0.011c-0.012-0.028-0.016-0.062-0.036-0.083c-0.048-0.05-0.047-0.098-0.019-0.156
				c0.025-0.051,0.04-0.106,0.061-0.159c0.012-0.029,0.026-0.056,0.039-0.083c0.058,0.023,0.106,0.04,0.154,0.061
				C44.577,9.605,44.676,9.586,44.771,9.539z M44.231,9.274c-0.048-0.026-0.034-0.066,0.007-0.087
				c0.065-0.033,0.131-0.061,0.199-0.087c0.095-0.037,0.138,0.035,0.182,0.095c0.017,0.023,0.032,0.076,0.022,0.084
				c-0.049,0.042-0.107,0.074-0.162,0.109C44.385,9.346,44.305,9.314,44.231,9.274z"/>
			<path class="st18" d="M43.485,8.998c-0.096-0.02-0.199,0.058-0.291-0.014c-0.081-0.063-0.162-0.126-0.254-0.198
				c0.039-0.037,0.064-0.07,0.097-0.091c0.057-0.035,0.123-0.058,0.178-0.096c0.057-0.039,0.103-0.028,0.146,0.014
				c0.039,0.039,0.074,0.084,0.114,0.132c-0.023,0.021-0.043,0.035-0.058,0.053c-0.012,0.014-0.018,0.034-0.027,0.051
				c0.019,0.007,0.043,0.025,0.056,0.019c0.098-0.047,0.194-0.098,0.291-0.148c-0.002-0.01-0.004-0.021-0.006-0.031
				c-0.025-0.002-0.052-0.011-0.074-0.004c-0.08,0.026-0.204-0.042-0.22-0.127c-0.003-0.014,0.009-0.039,0.022-0.046
				c0.079-0.041,0.159-0.082,0.242-0.114c0.022-0.009,0.06,0.008,0.083,0.024c0.029,0.019,0.052,0.048,0.077,0.073
				c0.127,0.128,0.126,0.128,0.004,0.26C43.86,8.762,43.857,8.77,43.845,8.79c0.027,0.013,0.062,0.044,0.078,0.036
				c0.094-0.048,0.184-0.104,0.286-0.165c-0.056-0.02-0.1-0.024-0.127-0.048c-0.129-0.112-0.255-0.228-0.38-0.344
				c-0.077-0.071-0.151-0.144-0.226-0.217c-0.009,0.003-0.017,0.005-0.026,0.008c0.047,0.082,0.01,0.119-0.058,0.152
				c-0.17,0.083-0.339,0.167-0.502,0.262c-0.093,0.054-0.171,0.066-0.257-0.006c-0.014-0.012-0.048-0.002-0.097-0.002
				c0.043,0.053,0.065,0.088,0.094,0.115c0.097,0.091,0.196,0.179,0.295,0.269c0.091,0.082,0.18,0.165,0.272,0.245
				c0.018,0.016,0.052,0.033,0.07,0.026c0.077-0.029,0.151-0.067,0.226-0.102C43.491,9.014,43.488,9.006,43.485,8.998z"/>
			<path class="st18" d="M47.02,11.339c-0.026,0.02-0.052,0.055-0.084,0.062c-0.11,0.026-0.222,0.045-0.333,0.065
				c-0.152,0.026-0.303,0.057-0.455,0.072c-0.079,0.008-0.162,0.059-0.243-0.002c-0.013-0.01-0.035-0.009-0.052-0.013
				c0.003,0.02-0.001,0.047,0.01,0.058c0.088,0.088,0.179,0.174,0.272,0.257c0.015,0.013,0.042,0.012,0.064,0.017
				c-0.002-0.022-0.004-0.043-0.005-0.065c-0.003-0.034-0.019-0.091-0.006-0.099c0.048-0.029,0.115-0.07,0.16-0.056
				c0.072,0.022,0.135,0.08,0.198,0.128c0.068,0.052,0.072,0.081,0.008,0.136c-0.035,0.03-0.085,0.042-0.13,0.057
				c-0.024,0.008-0.052,0.004-0.09,0.005c0.008,0.026,0.008,0.039,0.015,0.045c0.096,0.096,0.191,0.192,0.291,0.284
				c0.016,0.015,0.053,0.007,0.08,0.01c-0.003-0.024,0.002-0.057-0.011-0.072c-0.057-0.063-0.031-0.113,0.018-0.161
				c0.091-0.089,0.186-0.174,0.273-0.266c0.096-0.102,0.186-0.21,0.27-0.308C47.201,11.452,47.109,11.394,47.02,11.339z
				 M46.822,11.651c-0.043,0.04-0.092,0.075-0.142,0.108c-0.01,0.006-0.035-0.003-0.049-0.012c-0.025-0.017-0.048-0.037-0.067-0.06
				c-0.016-0.019-0.039-0.05-0.034-0.065c0.009-0.023,0.038-0.047,0.063-0.053c0.057-0.014,0.118-0.017,0.194-0.028
				c0.013,0.009,0.045,0.019,0.056,0.042C46.851,11.598,46.837,11.636,46.822,11.651z"/>
		</g>
	</g>
</g>
</svg>
