<?xml version="1.0" encoding="utf-8"?>
<!-- Generator: Adobe Illustrator 24.0.0, SVG Export Plug-In . SVG Version: 6.00 Build 0)  -->
<svg version="1.1" id="Layer_1" xmlns="http://www.w3.org/2000/svg" xmlns:xlink="http://www.w3.org/1999/xlink" x="0px" y="0px"
	 viewBox="0 0 100 30" style="enable-background:new 0 0 100 30;" xml:space="preserve">
<g>
	<path d="M55.598,9.147c-1.122,0-2.134,0.233-3.017,0.692v1.614c0.746-0.419,1.772-0.791,2.661-0.791
		c2.362,0,3.948,1.586,3.948,3.946c0,2.351-1.642,3.991-3.995,3.991c-2.341,0-3.854-1.826-3.854-4.65V6.648h-1.675v7.661
		c0,3.417,2.273,5.8,5.527,5.8c3.337,0,5.671-2.365,5.671-5.753c0-1.4-0.562-2.718-1.584-3.706
		C58.292,9.695,56.951,9.147,55.598,9.147z"/>
	<path d="M75.443,16.811v-4.946H73.77v4.697c0,2.082,1.181,3.322,3.158,3.322h2.591v-1.513h-2.306
		C75.973,18.371,75.443,17.905,75.443,16.811z"/>
	<path d="M43.268,9.145c-1.508,0-2.925,0.541-3.988,1.525c-1.099,1.017-1.704,2.424-1.704,3.958c0,1.017,0.254,1.955,0.755,2.788
		h2.057c-0.675-0.713-1.045-1.687-1.045-2.788c0-2.299,1.649-3.967,3.925-3.967c2.275,0,3.925,1.668,3.925,3.967
		s-1.649,3.967-3.925,3.967H31.943l5.685-7.141c0.207-0.233,0.306-0.579,0.306-1.054c0-0.798-0.72-1.257-1.974-1.257H24.943
		c-1.508,0-2.925,0.541-3.988,1.525c-1.097,1.019-1.699,2.426-1.699,3.96c0,1.534,0.605,2.941,1.704,3.958
		c1.064,0.984,2.48,1.525,3.988,1.525c1.508,0,2.925-0.541,3.988-1.525c1.101-1.017,1.704-2.424,1.704-3.958
		c0-1.012-0.252-1.948-0.751-2.781h-2.054c0.673,0.713,1.038,1.685,1.038,2.781c0,2.299-1.649,3.967-3.925,3.967
		s-3.925-1.668-3.925-3.967c-0.002-2.297,1.649-3.967,3.925-3.967h11.287l-4.894,6.224c-0.746,0.871-1.097,1.351-1.097,1.993
		c0,1.073,0.941,1.233,1.499,1.233h11.525c1.508,0,2.925-0.541,3.988-1.525c1.101-1.016,1.704-2.424,1.704-3.958
		c0-1.534-0.605-2.941-1.704-3.958C46.193,9.686,44.776,9.145,43.268,9.145z"/>
	<path d="M70.071,11.848c0.673,0.713,1.038,1.685,1.038,2.781c0,2.299-1.652,3.967-3.925,3.967c-2.275,0-3.925-1.668-3.925-3.967
		c-0.002-2.299,1.647-3.97,3.922-3.97h10.779V9.147h-2.612V6.375h-1.482v2.772h-6.685c-1.508,0-2.925,0.541-3.988,1.525
		c-1.101,1.017-1.704,2.424-1.704,3.958s0.605,2.941,1.704,3.958c1.064,0.984,2.48,1.525,3.988,1.525
		c1.508,0,2.925-0.541,3.988-1.525c1.101-1.017,1.706-2.424,1.706-3.958c0-1.014-0.252-1.948-0.751-2.781H70.071z"/>
	<path d="M79.768,8.985c-0.539,0-0.977,0.421-0.977,0.939s0.438,0.937,0.977,0.937s0.977-0.419,0.977-0.937
		S80.307,8.987,79.768,8.985z"/>
	<path d="M76.323,8.427V8.194h0.082l0.141,0.233h0.108L76.5,8.192c0.087-0.009,0.151-0.047,0.151-0.146
		c0-0.115-0.075-0.16-0.214-0.16h-0.207v0.541H76.323z M76.321,7.959h0.115c0.056,0,0.12,0.009,0.12,0.075
		c0,0.075-0.054,0.085-0.12,0.085h-0.115V7.959z"/>
	<path d="M76.42,8.632c0.273,0,0.499-0.214,0.499-0.478c0-0.264-0.224-0.478-0.499-0.478s-0.501,0.216-0.499,0.478
		C75.921,8.418,76.144,8.632,76.42,8.632z M76.42,7.766c0.224,0,0.405,0.174,0.405,0.388c0,0.216-0.179,0.388-0.405,0.388
		c-0.226,0-0.407-0.172-0.405-0.388C76.015,7.938,76.196,7.766,76.42,7.766z"/>
</g>
</svg>
