<?xml version="1.0" encoding="utf-8"?>
<!-- Generator: Adobe Illustrator 24.0.0, SVG Export Plug-In . SVG Version: 6.00 Build 0)  -->
<svg version="1.1" id="Layer_1" xmlns="http://www.w3.org/2000/svg" xmlns:xlink="http://www.w3.org/1999/xlink" x="0px" y="0px"
	 viewBox="0 0 100 30" style="enable-background:new 0 0 100 30;" xml:space="preserve">
<g>
	<path d="M37.86,12.598c-0.253-1.567-1.572-2.644-3.029-2.671c-0.414-0.008-0.828-0.01-1.241-0.002c-0.954,0.02-1.75,0.39-2.388,1.1
		c-0.013,0.015-0.025,0.032-0.04,0.046c-0.037,0.034-0.073,0.029-0.103-0.009c-0.017-0.022-0.029-0.048-0.043-0.072
		c-0.111-0.196-0.224-0.39-0.332-0.587c-0.035-0.064-0.08-0.09-0.153-0.088c-0.185,0.004-0.369,0.002-0.555,0.002
		c-0.092,0-0.184,0-0.302,0c0,0.074,0,0.129,0,0.184c0,4.563,0,9.126,0,13.689c0,0.032-0.001,0.064,0.001,0.096
		c0.004,0.079,0.013,0.088,0.092,0.094c0.024,0.002,0.048,0.001,0.072,0.001c0.61,0,1.221,0,1.831,0c0.173,0,0.173,0,0.173-0.171
		c0-1.422,0-2.843,0-4.266c0-0.181,0.012-0.188,0.169-0.099c0.488,0.277,1.01,0.427,1.573,0.431
		c0.369,0.003,0.739,0.002,1.108,0.003c0.226,0.001,0.449-0.015,0.671-0.061c1.475-0.303,2.532-1.596,2.533-3.1
		c0.001-1.346,0.002-2.691-0.002-4.037C37.895,12.917,37.885,12.755,37.86,12.598z M35.728,15.103c0,0.518,0.004,1.036-0.001,1.554
		c-0.006,0.569-0.258,1-0.755,1.282c-0.191,0.109-0.401,0.163-0.622,0.163c-0.373,0.003-0.747,0.005-1.12,0
		c-0.694-0.01-1.286-0.548-1.367-1.238c-0.011-0.095-0.017-0.192-0.018-0.288c-0.001-1.004-0.003-2.008,0-3.012
		c0.001-0.473,0.174-0.87,0.548-1.168c0.249-0.2,0.537-0.301,0.858-0.301c0.357-0.001,0.715-0.002,1.072,0
		c0.75,0.004,1.372,0.593,1.4,1.345c0.017,0.461,0.005,0.924,0.006,1.385C35.728,14.918,35.728,15.011,35.728,15.103z"/>
	<path d="M74.359,13.114c-0.001-0.18-0.016-0.362-0.044-0.539c-0.238-1.49-1.503-2.605-3.009-2.648
		c-0.426-0.012-0.852-0.012-1.278-0.001c-0.945,0.024-1.733,0.395-2.365,1.097c-0.013,0.015-0.025,0.031-0.04,0.046
		c-0.036,0.035-0.072,0.031-0.103-0.008c-0.019-0.025-0.034-0.054-0.05-0.083c-0.109-0.192-0.219-0.383-0.325-0.576
		c-0.035-0.062-0.078-0.092-0.153-0.09c-0.25,0.004-0.499,0.002-0.748,0.003c-0.03,0-0.062,0.007-0.086,0.01
		c-0.008,0.016-0.014,0.023-0.016,0.029c-0.003,0.016-0.006,0.032-0.006,0.047c0,4.627,0,9.254,0,13.881
		c0,0.019,0.004,0.04,0.008,0.059c0.001,0.003,0.003,0.007,0.006,0.01c0.003,0.003,0.005,0.006,0.018,0.019
		c0.037,0.002,0.084,0.006,0.132,0.006c0.514,0.001,1.028,0,1.542,0c0.104,0,0.209,0,0.313,0c0.149-0.001,0.152-0.003,0.153-0.158
		c0-0.028,0-0.056,0-0.084c0-1.394,0-2.788,0-4.181c0-0.051,0-0.103,0-0.187c0.067,0.029,0.107,0.043,0.143,0.063
		c0.498,0.285,1.031,0.441,1.606,0.442c0.369,0.002,0.739,0.001,1.108,0.003c0.266,0.001,0.529-0.025,0.787-0.09
		c1.418-0.355,2.406-1.619,2.407-3.082C74.362,15.773,74.362,14.444,74.359,13.114z M72.191,16.652
		c-0.002,0.493-0.199,0.896-0.599,1.189c-0.236,0.174-0.505,0.26-0.799,0.262c-0.353,0.002-0.707,0.002-1.06,0
		c-0.795-0.003-1.419-0.628-1.423-1.424c-0.003-0.526-0.001-1.052-0.001-1.578c0-0.53-0.003-1.06,0.001-1.59
		c0.004-0.654,0.445-1.217,1.075-1.373c0.108-0.027,0.222-0.039,0.333-0.04c0.353-0.005,0.707-0.003,1.06-0.002
		c0.703,0.003,1.289,0.512,1.393,1.208c0.012,0.079,0.02,0.159,0.02,0.239C72.192,14.58,72.194,15.615,72.191,16.652z"/>
	<path d="M64.242,12.988c-0.001-0.176-0.009-0.355-0.039-0.528c-0.25-1.454-1.519-2.475-2.935-2.461
		c-0.619,0.006-1.237-0.003-1.856,0.003c-0.176,0.002-0.354,0.016-0.527,0.046c-1.396,0.239-2.434,1.476-2.435,2.894
		c0,1.462-0.002,2.924,0.002,4.386c0,0.172,0.016,0.346,0.045,0.515c0.237,1.406,1.47,2.448,2.893,2.451
		c0.639,0.001,1.278,0.001,1.916,0c0.491-0.001,0.958-0.111,1.384-0.356c1.009-0.581,1.533-1.458,1.551-2.624
		c0.012-0.723,0.003-1.446,0.003-2.169C64.244,14.426,64.246,13.707,64.242,12.988z M61.686,17.871
		c-0.264,0.26-0.583,0.392-0.955,0.392c-0.237,0-0.474-0.001-0.711,0c-0.592,0.003-1.018-0.274-1.302-0.781
		c-0.131-0.235-0.194-0.492-0.195-0.762c-0.001-1.057-0.009-2.114,0.003-3.17c0.007-0.602,0.272-1.073,0.803-1.378
		c0.188-0.108,0.394-0.157,0.612-0.156c0.257,0,0.514,0.003,0.771-0.001c0.475-0.008,0.844,0.196,1.128,0.565
		c0.206,0.269,0.321,0.576,0.325,0.915c0.007,0.546,0.002,1.093,0.002,1.639c0.001,0,0.002,0,0.003,0c0,0.514,0,1.028,0,1.543
		C62.171,17.142,62.018,17.544,61.686,17.871z"/>
	<path d="M52.47,12.477c0.005-0.079,0.013-0.087,0.094-0.09c0.028-0.002,0.056,0,0.084,0c0.855,0,1.711,0,2.566,0
		c0.047,0,0.094,0,0.137,0c0.039-0.12,0.037-2.065-0.002-2.172c-0.043,0-0.09,0-0.138,0c-0.86,0-1.719,0-2.579-0.001
		c-0.051,0-0.1-0.007-0.163-0.011c0-0.065,0-0.116,0-0.168c0-1.337,0-2.675,0-4.012c0-0.036-0.001-0.072-0.001-0.109
		c0-0.05-0.026-0.073-0.074-0.074C52.369,5.84,52.346,5.84,52.321,5.84c-0.626,0-1.253,0-1.879,0c-0.043,0-0.086,0.006-0.142,0.01
		c0,0.053,0,0.096,0,0.14c0,3.406,0,6.812,0,10.217c0,0.377,0.059,0.743,0.172,1.102c0.488,1.547,1.917,2.595,3.539,2.596
		c0.405,0,0.812,0,1.217,0c0.043,0,0.086,0,0.138,0c0.005-0.05,0.012-0.084,0.012-0.119c0.001-0.643,0.001-1.285,0-1.928
		c0-0.038-0.008-0.076-0.013-0.122c-0.056,0-0.099,0-0.143,0c-0.341,0-0.683,0.004-1.024-0.001
		c-0.561-0.008-1.017-0.237-1.364-0.678c-0.255-0.324-0.366-0.698-0.365-1.11c0.003-1.137,0.001-2.273,0.001-3.41
		C52.47,12.518,52.469,12.497,52.47,12.477z"/>
	<path d="M41.68,10.215c-0.065,0-0.112,0-0.16,0c-0.571,0-1.141,0-1.712,0c-0.052,0-0.104-0.002-0.157,0.001
		c-0.078,0.004-0.09,0.016-0.096,0.092c-0.002,0.024,0,0.048,0,0.072c0,3.122,0,6.243,0,9.365c0,0.028,0,0.056,0.001,0.084
		c0.002,0.048,0.029,0.073,0.076,0.076c0.032,0.002,0.064,0.001,0.096,0.001c0.486,0,0.973,0,1.458,0
		c0.137,0,0.273,0.002,0.41-0.001c0.078-0.002,0.088-0.015,0.094-0.093c0.002-0.02,0.001-0.04,0.001-0.06c0-3.13,0-6.259,0-9.389
		C41.691,10.32,41.684,10.277,41.68,10.215z"/>
	<path d="M48.335,14.128c-1.633,0-3.254,0-4.874,0c-0.027,0.099-0.029,1.984,0.001,2.107c0.039,0,0.082,0,0.125,0
		c0.346,0,0.69,0,1.036,0c1.197,0,2.393,0,3.589,0c0.134,0,0.137-0.003,0.137-0.132c0-0.614,0.001-1.229-0.001-1.843
		C48.349,14.216,48.34,14.174,48.335,14.128z"/>
	<path d="M39.693,7.995c0.623,0.001,1.246,0.001,1.868,0c0.12,0,0.13-0.011,0.13-0.131c0.001-0.63,0.001-1.262,0-1.892
		c0-0.124-0.006-0.13-0.13-0.13c-0.623-0.001-1.246-0.001-1.868,0c-0.13,0-0.138,0.008-0.138,0.136c-0.001,0.309,0,0.619,0,0.928
		c0,0.318-0.001,0.635,0,0.952C39.556,7.983,39.566,7.995,39.693,7.995z"/>
</g>
</svg>
