<?xml version="1.0" encoding="utf-8"?>
<!-- Generator: Adobe Illustrator 24.0.0, SVG Export Plug-In . SVG Version: 6.00 Build 0)  -->
<svg version="1.1" id="Layer_1" xmlns="http://www.w3.org/2000/svg" xmlns:xlink="http://www.w3.org/1999/xlink" x="0px" y="0px"
	 viewBox="0 0 100 30" style="enable-background:new 0 0 100 30;" xml:space="preserve">
<g>
	<path d="M94.08,11.207c-1.123-0.026-1.653-0.016-2.777-0.02c-0.356-0.001-0.362,0-0.363,0.346
		c-0.002,2.512,0.001,5.025-0.005,7.537c-0.001,0.211,0.064,0.277,0.276,0.276c1.08-0.009,1.565,0.006,2.645-0.01
		c2.269,0,4.108-1.839,4.108-4.108C97.964,12.959,96.348,11.207,94.08,11.207z M93.82,17.515l0.08-0.009
		c-0.499,0.012-0.405,0-0.904,0.008c-0.179,0.003-0.227-0.079-0.226-0.241c0.004-0.676,0.002-1.352,0.002-2.028c0,0,0,0,0.001,0
		c0-0.661,0.005-1.322-0.003-1.984c-0.002-0.18,0.048-0.247,0.236-0.243c0.521,0.011,0.449-0.01,0.97,0.007
		c1.243,0,2.251,1.008,2.251,2.251C96.224,16.521,95.063,17.515,93.82,17.515z"/>
	<path d="M88.256,14.556c-0.326-1.943-2.011-3.425-4.046-3.425c-2.269,0-4.108,1.839-4.108,4.108c0,0.803,0.234,1.55,0.633,2.183
		h-6.026V11.11h-1.924v3.474c-0.314-1.957-2.005-3.453-4.051-3.453c-2.062,0-3.765,1.521-4.058,3.502V11.11h-1.924v1.785
		c-0.042-0.111-0.082-0.218-0.121-0.322c-0.091-0.241-0.247-0.446-0.42-0.627c-0.173-0.179-0.377-0.331-0.582-0.475
		c-0.354-0.248-0.765-0.361-1.187-0.365c-1.767-0.013-3.534-0.006-5.301-0.007c-0.024,0-0.048,0.005-0.091,0.009
		c0,0.698,0,1.391,0,2.084l0.007,3.988c0,0.723,0,1.417,0,2.118c0.061,0,0.105,0,0.148,0c1.646,0,3.292-0.003,4.938,0.002
		c0.37,0.001,0.734-0.017,1.08-0.154c0.136-0.054,0.267-0.126,0.393-0.201c0.104-0.063,0.198-0.143,0.297-0.215
		c0.314-0.23,0.544-0.527,0.706-0.877c0.049-0.105,0.09-0.216,0.133-0.329v1.82h1.924v-3.502c0.294,1.981,1.996,3.502,4.058,3.502
		c2.045,0,3.737-1.497,4.051-3.453v1.529v1.924h1.924h6.311v-1.521c0.753,0.928,1.901,1.521,3.189,1.521
		c2.035,0,3.721-1.482,4.046-3.425v3.425h1.924V11.11h-1.924V14.556z M60.748,17.222c-0.139,0.131-0.285,0.19-0.47,0.189
		c-1.054-0.002-2.109-0.003-3.163,0.001c-0.11,0-0.142-0.027-0.142-0.141c0.004-1.381,0.004-2.763,0-4.144
		c0-0.116,0.035-0.14,0.143-0.14c1.047,0.004,2.094,0.003,3.141,0.001c0.235,0,0.426,0.084,0.559,0.275
		c0.185,0.266,0.137,0.683-0.166,0.881c-0.146,0.096-0.29,0.113-0.448,0.114c-0.669,0-1.337,0.003-2.006-0.003
		c-0.11-0.001-0.17,0.047-0.208,0.13c-0.074,0.157-0.136,0.32-0.206,0.479c-0.088,0.2-0.178,0.4-0.268,0.6
		c-0.084,0.189-0.169,0.379-0.253,0.568c-0.014,0.032-0.028,0.063-0.052,0.114c0.062,0,0.109,0,0.157,0c0.959,0,1.918,0,2.877,0
		c0.195,0,0.366,0.061,0.504,0.199C60.976,16.572,60.99,16.995,60.748,17.222z M68.734,17.489c-1.243,0-2.251-1.008-2.251-2.251
		c0-1.243,1.008-2.251,2.251-2.251c1.243,0,2.251,1.008,2.251,2.251C70.985,16.481,69.977,17.489,68.734,17.489z M84.21,17.489
		c-1.243,0-2.251-1.008-2.251-2.251c0-1.243,1.008-2.251,2.251-2.251c1.243,0,2.251,1.008,2.251,2.251
		C86.46,16.481,85.453,17.489,84.21,17.489z"/>
	<path d="M48.614,15.421c-0.101-0.153-0.207-0.307-0.339-0.432c-0.149-0.142-0.338-0.241-0.494-0.377
		c-0.224-0.195-0.498-0.274-0.772-0.331c-0.266-0.055-0.545-0.067-0.818-0.07c-0.789-0.009-1.579-0.003-2.368-0.003
		c-0.15,0-0.284-0.019-0.424-0.102c-0.338-0.201-0.376-0.637-0.175-0.914c0.131-0.18,0.322-0.255,0.549-0.255
		c1.254,0.003,2.508,0.001,3.762,0.002c0.115,0,0.198,0.005,0.258-0.144c0.108-0.27,0.267-0.52,0.403-0.779
		c0.102-0.194,0.203-0.389,0.302-0.585c0.062-0.123,0.12-0.249,0.187-0.389c-0.066,0-0.106,0-0.146,0
		c-1.556,0-3.113,0.002-4.67-0.002c-0.374-0.001-0.735,0.048-1.089,0.176c-0.299,0.108-0.548,0.287-0.784,0.491
		c-0.117,0.101-0.235,0.2-0.336,0.286c0-0.286,0-0.613,0-0.946c-0.041-0.002-0.073-0.006-0.105-0.006c-2.715,0-5.429,0-8.144-0.002
		c-0.067,0-0.109,0.02-0.139,0.079c-0.078,0.154-0.159,0.306-0.238,0.459c-0.163,0.318-0.326,0.636-0.494,0.964
		c-0.934-1.065-2.105-1.537-3.519-1.461c-1.416,0.077-2.473,0.76-3.286,1.877c-0.059-0.158-0.112-0.298-0.165-0.438
		c-0.092-0.242-0.248-0.448-0.422-0.629c-0.173-0.18-0.379-0.332-0.584-0.477c-0.355-0.249-0.768-0.363-1.192-0.366
		c-1.774-0.013-3.548-0.006-5.322-0.007c-0.024,0-0.049,0.005-0.091,0.009c0,0.701,0,1.397,0,2.092
		c-0.863-1.311-2.036-2.065-3.62-2.1c-1.578-0.034-2.792,0.648-3.694,1.927c-0.018-0.028-0.039-0.05-0.049-0.075
		c-0.047-0.127-0.088-0.256-0.135-0.383c-0.091-0.243-0.25-0.447-0.424-0.629c-0.281-0.295-0.599-0.541-0.999-0.677
		c-0.249-0.085-0.502-0.157-0.758-0.158c-1.804-0.01-3.607-0.006-5.411-0.007c0,2.744,0,5.488,0,8.233c0.644,0,1.288,0,1.946,0
		c0-2.122,0-4.226,0-6.331c0.04-0.002,0.065-0.005,0.091-0.005c1.07,0,2.139-0.001,3.209,0.002c0.076,0,0.156,0.021,0.228,0.048
		c0.24,0.088,0.383,0.261,0.411,0.518c0.017,0.159-0.008,0.311-0.113,0.438c-0.168,0.206-0.383,0.279-0.652,0.273
		c-0.675-0.015-1.35-0.006-2.025-0.003c-0.037,0-0.087,0.017-0.108,0.044c-0.036,0.047-0.054,0.108-0.079,0.163
		C5.693,14.611,5.608,14.8,5.525,14.99c-0.088,0.2-0.173,0.402-0.264,0.601c-0.067,0.148-0.143,0.292-0.208,0.44
		c-0.015,0.033-0.015,0.093,0.005,0.117c0.088,0.104,0.187,0.198,0.282,0.297c0.268,0.282,0.537,0.563,0.803,0.847
		c0.196,0.208,0.389,0.42,0.585,0.628c0.2,0.212,0.402,0.422,0.603,0.634c0.194,0.204,0.394,0.403,0.577,0.616
		c0.066,0.077,0.125,0.106,0.222,0.106c0.664-0.003,1.328-0.002,1.992-0.002c0.18,0,0.361,0,0.575,0
		c-1.01-1.063-2-2.106-3.021-3.181c0.92,0.097,1.703-0.128,2.323-0.781c0.05,0.301,0.081,0.595,0.151,0.88
		c0.06,0.245,0.153,0.485,0.253,0.718c0.075,0.174,0.167,0.346,0.281,0.497c0.176,0.231,0.375,0.445,0.57,0.661
		c0.221,0.246,0.481,0.447,0.765,0.613c0.277,0.161,0.557,0.324,0.875,0.399c0.231,0.054,0.457,0.144,0.69,0.165
		c0.482,0.043,0.966,0.063,1.449-0.03c0.26-0.05,0.515-0.105,0.76-0.205c0.361-0.147,0.703-0.326,1.012-0.57
		c0.322-0.254,0.616-0.531,0.856-0.864c0.096-0.133,0.191-0.267,0.306-0.428c0,0.726,0,1.422,0,2.127c0.061,0,0.105,0,0.149,0
		c1.652,0,3.305-0.003,4.957,0.002c0.371,0.001,0.736-0.017,1.084-0.154c0.137-0.054,0.268-0.126,0.395-0.202
		c0.105-0.063,0.199-0.144,0.298-0.216c0.315-0.231,0.546-0.529,0.709-0.881c0.061-0.132,0.109-0.27,0.165-0.413
		c0.022,0.016,0.048,0.027,0.06,0.046c0.134,0.209,0.291,0.396,0.466,0.573c0.259,0.26,0.536,0.488,0.848,0.683
		c0.339,0.212,0.698,0.372,1.082,0.467c0.285,0.07,0.58,0.108,0.873,0.131c0.395,0.032,0.79-0.003,1.175-0.1
		c0.266-0.067,0.539-0.124,0.787-0.234c0.332-0.146,0.654-0.322,0.928-0.57c0.142-0.128,0.289-0.253,0.416-0.395
		c0.202-0.227,0.411-0.453,0.576-0.706c0.185-0.283,0.315-0.598,0.416-0.926c0.092-0.301,0.146-0.608,0.16-0.918
		c0.013-0.273-0.009-0.549-0.04-0.821c-0.025-0.222-0.074-0.442-0.131-0.659c-0.08-0.306-0.218-0.59-0.38-0.862
		c-0.031-0.053-0.06-0.108-0.094-0.169c0.82,0,1.622,0,2.432,0c0,2.111,0,4.212,0,6.315c0.655,0,1.301,0,1.957,0
		c0-2.111,0-4.212,0-6.325c0.053,0,0.096,0,0.14,0c0.572,0,1.143-0.002,1.715,0.002c0.077,0.001,0.123-0.028,0.156-0.085
		c0.029-0.049,0.047-0.103,0.073-0.154c0.117-0.231,0.236-0.461,0.354-0.692c0.007,0,0.014,0,0.021,0.001c0,2.419,0,4.837,0,7.262
		c0.06,0,0.1,0,0.14,0c2.154,0.001,4.308-0.002,6.462,0.004c0.399,0.001,0.783-0.045,1.15-0.204
		c0.242-0.105,0.458-0.254,0.655-0.426c0.224-0.195,0.4-0.428,0.553-0.686c0.128-0.215,0.228-0.44,0.259-0.674
		c0.056-0.417,0.075-0.84-0.043-1.256C48.832,15.811,48.737,15.608,48.614,15.421z M16.118,16.44
		c-0.25,0.329-0.563,0.591-0.956,0.762c-0.303,0.132-0.608,0.18-0.931,0.184c-0.165-0.012-0.337,0-0.494-0.043
		c-0.219-0.061-0.434-0.149-0.637-0.252c-0.287-0.145-0.517-0.368-0.708-0.623c-0.165-0.221-0.291-0.464-0.364-0.736
		c-0.084-0.311-0.088-0.626-0.039-0.937c0.031-0.2,0.101-0.399,0.185-0.584c0.129-0.286,0.325-0.53,0.569-0.728
		c0.227-0.183,0.468-0.339,0.751-0.432c0.334-0.109,0.674-0.139,1.017-0.103c0.216,0.022,0.429,0.075,0.635,0.165
		c0.296,0.13,0.553,0.308,0.771,0.542c0.235,0.252,0.434,0.53,0.499,0.878c0.044,0.231,0.1,0.466,0.095,0.698
		C16.504,15.669,16.384,16.089,16.118,16.44z M23.682,17.189c-0.139,0.131-0.286,0.191-0.472,0.19
		c-1.059-0.002-2.117-0.003-3.176,0.001c-0.11,0-0.142-0.027-0.142-0.142c0.004-1.387,0.004-2.774,0-4.16
		c0-0.117,0.035-0.141,0.144-0.141c1.051,0.004,2.102,0.003,3.153,0.001c0.236,0,0.428,0.084,0.561,0.276
		c0.186,0.267,0.137,0.685-0.166,0.885c-0.147,0.096-0.291,0.114-0.45,0.114c-0.671,0-1.343,0.003-2.014-0.003
		c-0.11-0.001-0.17,0.047-0.209,0.13c-0.074,0.158-0.137,0.321-0.207,0.481c-0.088,0.201-0.179,0.401-0.269,0.602
		c-0.085,0.19-0.169,0.38-0.254,0.571c-0.014,0.032-0.029,0.063-0.052,0.114c0.062,0,0.11,0,0.157,0c0.963,0,1.925,0,2.888,0
		c0.195,0,0.367,0.061,0.506,0.2C23.91,16.535,23.925,16.96,23.682,17.189z M31.435,16.001c-0.111,0.284-0.289,0.529-0.505,0.751
		c-0.225,0.232-0.502,0.378-0.782,0.52c-0.092,0.046-0.199,0.073-0.302,0.085c-0.232,0.028-0.466,0.064-0.697,0.055
		c-0.412-0.015-0.789-0.155-1.133-0.388c-0.225-0.152-0.421-0.338-0.572-0.556c-0.127-0.183-0.217-0.393-0.304-0.6
		c-0.124-0.296-0.139-0.61-0.104-0.926c0.028-0.247,0.109-0.478,0.21-0.706c0.136-0.309,0.352-0.55,0.604-0.758
		c0.236-0.196,0.497-0.364,0.807-0.421c0.235-0.044,0.475-0.106,0.71-0.096c0.262,0.011,0.526,0.047,0.782,0.15
		c0.312,0.126,0.576,0.31,0.809,0.541c0.187,0.186,0.338,0.402,0.443,0.652c0.12,0.286,0.2,0.574,0.172,0.902
		C31.612,15.474,31.536,15.744,31.435,16.001z M46.862,17.197c-0.147,0.147-0.314,0.182-0.508,0.182
		c-1.357-0.002-2.713,0-4.07-0.004c-0.11,0-0.178,0.028-0.225,0.126c-0.079,0.167-0.165,0.331-0.249,0.496
		c-0.041,0.081-0.083,0.161-0.124,0.241c-0.006-0.002-0.011-0.004-0.017-0.006c0-1.037,0-2.075,0-3.127
		c0.117,0.121,0.217,0.247,0.339,0.346c0.157,0.127,0.326,0.242,0.5,0.345c0.13,0.076,0.275,0.129,0.415,0.185
		c0.251,0.099,0.515,0.127,0.782,0.127c0.896,0,1.792,0,2.688,0c0.332,0,0.561,0.203,0.64,0.472
		C47.098,16.802,47.043,17.017,46.862,17.197z"/>
</g>
</svg>
