<?xml version="1.0" encoding="utf-8"?>
<!-- Generator: Adobe Illustrator 24.0.0, SVG Export Plug-In . SVG Version: 6.00 Build 0)  -->
<svg version="1.1" id="Layer_1" xmlns="http://www.w3.org/2000/svg" xmlns:xlink="http://www.w3.org/1999/xlink" x="0px" y="0px"
	 viewBox="0 0 100 30" style="enable-background:new 0 0 100 30;" xml:space="preserve">
<g>
	<path d="M56.898,15.405c-0.101-0.153-0.207-0.307-0.339-0.432c-0.149-0.142-0.338-0.241-0.494-0.377
		c-0.224-0.195-0.498-0.274-0.772-0.331c-0.266-0.055-0.545-0.067-0.818-0.07c-0.789-0.009-1.579-0.003-2.368-0.003
		c-0.15,0-0.284-0.019-0.424-0.102c-0.338-0.201-0.376-0.637-0.175-0.914c0.131-0.18,0.322-0.255,0.549-0.255
		c1.254,0.003,2.508,0.001,3.762,0.002c0.115,0,0.198,0.005,0.258-0.144c0.108-0.27,0.267-0.52,0.403-0.779
		c0.102-0.194,0.203-0.389,0.302-0.585c0.062-0.123,0.12-0.249,0.187-0.389c-0.066,0-0.106,0-0.146,0
		c-1.556,0-3.113,0.002-4.67-0.002c-0.374-0.001-0.735,0.048-1.089,0.176c-0.299,0.108-0.548,0.287-0.784,0.491
		c-0.117,0.101-0.235,0.2-0.336,0.286c0-0.286,0-0.613,0-0.946c-0.041-0.002-0.073-0.006-0.105-0.006c-2.715,0-5.429,0-8.144-0.002
		c-0.067,0-0.109,0.02-0.139,0.079c-0.078,0.154-0.159,0.306-0.238,0.459c-0.163,0.318-0.326,0.636-0.494,0.964
		c-0.934-1.065-2.105-1.537-3.519-1.461c-1.416,0.077-2.473,0.76-3.286,1.877c-0.059-0.158-0.112-0.298-0.165-0.438
		c-0.092-0.242-0.248-0.448-0.422-0.629c-0.173-0.18-0.379-0.332-0.584-0.477c-0.355-0.249-0.768-0.363-1.192-0.366
		c-1.774-0.013-3.548-0.006-5.322-0.007c-0.024,0-0.049,0.005-0.091,0.009c0,0.701,0,1.397,0,2.092
		c-0.863-1.311-2.036-2.065-3.62-2.1c-1.578-0.034-2.792,0.648-3.694,1.927c-0.018-0.028-0.039-0.05-0.049-0.075
		c-0.047-0.127-0.088-0.256-0.135-0.383c-0.091-0.243-0.25-0.447-0.424-0.629c-0.281-0.295-0.599-0.541-0.999-0.677
		c-0.249-0.085-0.502-0.157-0.758-0.158c-1.804-0.01-3.607-0.006-5.411-0.007c0,2.744,0,5.488,0,8.233c0.644,0,1.288,0,1.946,0
		c0-2.122,0-4.225,0-6.331c0.04-0.002,0.065-0.005,0.091-0.005c1.07,0,2.139-0.001,3.209,0.002c0.076,0,0.156,0.021,0.228,0.048
		c0.24,0.088,0.383,0.261,0.411,0.518c0.017,0.159-0.008,0.311-0.113,0.438c-0.168,0.206-0.383,0.279-0.652,0.273
		c-0.675-0.015-1.35-0.006-2.025-0.003c-0.037,0-0.087,0.017-0.108,0.044c-0.036,0.047-0.054,0.108-0.079,0.163
		c-0.085,0.189-0.169,0.379-0.253,0.568c-0.088,0.2-0.173,0.402-0.264,0.601c-0.067,0.148-0.143,0.292-0.208,0.44
		c-0.015,0.033-0.015,0.093,0.005,0.117c0.088,0.104,0.187,0.198,0.282,0.297c0.268,0.282,0.537,0.563,0.803,0.847
		c0.196,0.208,0.389,0.42,0.585,0.628c0.2,0.212,0.402,0.422,0.603,0.634c0.194,0.204,0.394,0.403,0.577,0.616
		c0.066,0.077,0.125,0.106,0.222,0.106c0.664-0.003,1.328-0.002,1.992-0.002c0.18,0,0.361,0,0.575,0
		c-1.01-1.063-2-2.106-3.021-3.181c0.92,0.097,1.703-0.128,2.323-0.781c0.05,0.301,0.081,0.595,0.151,0.88
		c0.06,0.245,0.153,0.485,0.253,0.718c0.075,0.174,0.167,0.346,0.281,0.497c0.176,0.231,0.375,0.445,0.57,0.661
		c0.221,0.246,0.481,0.447,0.765,0.613c0.277,0.161,0.557,0.324,0.875,0.399c0.231,0.054,0.457,0.144,0.69,0.165
		c0.482,0.043,0.966,0.063,1.449-0.03c0.26-0.05,0.515-0.105,0.76-0.205c0.361-0.147,0.703-0.326,1.012-0.57
		c0.322-0.254,0.616-0.531,0.856-0.864c0.096-0.133,0.191-0.267,0.306-0.428c0,0.726,0,1.422,0,2.127c0.061,0,0.105,0,0.149,0
		c1.652,0,3.305-0.003,4.957,0.002c0.371,0.001,0.736-0.017,1.084-0.154c0.137-0.054,0.268-0.126,0.395-0.202
		c0.105-0.063,0.199-0.144,0.298-0.216c0.315-0.231,0.546-0.529,0.709-0.881c0.061-0.132,0.109-0.27,0.165-0.413
		c0.022,0.016,0.048,0.027,0.06,0.046c0.134,0.209,0.291,0.396,0.466,0.573c0.259,0.26,0.536,0.488,0.848,0.683
		c0.339,0.212,0.698,0.372,1.082,0.467c0.285,0.07,0.58,0.108,0.873,0.131c0.395,0.032,0.79-0.003,1.175-0.1
		c0.266-0.067,0.539-0.124,0.787-0.234c0.332-0.146,0.654-0.322,0.928-0.57c0.142-0.128,0.289-0.253,0.416-0.395
		c0.202-0.227,0.411-0.453,0.576-0.706c0.185-0.283,0.315-0.598,0.416-0.926c0.092-0.301,0.146-0.608,0.16-0.918
		c0.013-0.273-0.009-0.549-0.04-0.821c-0.025-0.222-0.074-0.442-0.131-0.659c-0.08-0.306-0.218-0.59-0.38-0.862
		c-0.031-0.053-0.06-0.108-0.094-0.169c0.82,0,1.622,0,2.432,0c0,2.111,0,4.212,0,6.315c0.655,0,1.301,0,1.957,0
		c0-2.111,0-4.212,0-6.325c0.053,0,0.096,0,0.14,0c0.572,0,1.143-0.002,1.715,0.002c0.077,0.001,0.123-0.028,0.156-0.085
		c0.029-0.049,0.047-0.103,0.073-0.154c0.117-0.231,0.236-0.461,0.354-0.692c0.007,0,0.014,0,0.021,0.001c0,2.419,0,4.837,0,7.262
		c0.06,0,0.1,0,0.14,0c2.154,0.001,4.308-0.002,6.462,0.004c0.399,0.001,0.783-0.045,1.15-0.204
		c0.242-0.105,0.458-0.254,0.655-0.426c0.224-0.195,0.4-0.428,0.553-0.686c0.128-0.215,0.228-0.44,0.259-0.674
		c0.056-0.417,0.075-0.84-0.043-1.256C57.116,15.795,57.021,15.592,56.898,15.405z M24.402,16.423
		c-0.25,0.329-0.563,0.591-0.956,0.762c-0.303,0.132-0.608,0.18-0.931,0.184c-0.165-0.012-0.337,0-0.494-0.043
		c-0.219-0.061-0.434-0.149-0.637-0.252c-0.287-0.145-0.517-0.368-0.708-0.623c-0.165-0.221-0.291-0.464-0.364-0.736
		c-0.084-0.311-0.088-0.626-0.039-0.937c0.031-0.2,0.101-0.399,0.185-0.584c0.129-0.286,0.325-0.53,0.569-0.727
		c0.227-0.183,0.468-0.339,0.751-0.432c0.334-0.109,0.674-0.139,1.017-0.103c0.216,0.022,0.429,0.075,0.635,0.165
		c0.296,0.13,0.553,0.308,0.771,0.542c0.235,0.252,0.434,0.53,0.499,0.878c0.044,0.231,0.1,0.466,0.095,0.698
		C24.788,15.652,24.668,16.073,24.402,16.423z M31.966,17.172c-0.139,0.131-0.286,0.191-0.472,0.19
		c-1.059-0.002-2.117-0.003-3.176,0.001c-0.11,0-0.142-0.027-0.142-0.142c0.004-1.387,0.004-2.774,0-4.16
		c0-0.117,0.035-0.141,0.144-0.141c1.051,0.004,2.102,0.003,3.153,0.001c0.236-0.001,0.428,0.084,0.561,0.276
		c0.186,0.267,0.137,0.685-0.166,0.885c-0.147,0.096-0.291,0.114-0.45,0.114c-0.671,0-1.343,0.003-2.014-0.003
		c-0.11-0.001-0.17,0.047-0.209,0.13c-0.074,0.158-0.137,0.321-0.207,0.481c-0.088,0.201-0.179,0.401-0.269,0.602
		c-0.085,0.19-0.169,0.38-0.254,0.571c-0.014,0.032-0.029,0.063-0.052,0.114c0.062,0,0.11,0,0.157,0c0.963,0,1.925,0,2.888,0
		c0.195,0,0.367,0.061,0.506,0.2C32.194,16.519,32.209,16.943,31.966,17.172z M39.719,15.984c-0.111,0.284-0.289,0.529-0.505,0.751
		c-0.225,0.232-0.502,0.378-0.782,0.52c-0.092,0.046-0.199,0.073-0.302,0.085c-0.232,0.028-0.466,0.064-0.697,0.055
		c-0.412-0.015-0.789-0.155-1.133-0.387c-0.225-0.152-0.421-0.338-0.572-0.556c-0.127-0.183-0.217-0.393-0.304-0.6
		c-0.124-0.296-0.139-0.61-0.104-0.926c0.028-0.247,0.109-0.478,0.21-0.706c0.136-0.309,0.352-0.55,0.604-0.758
		c0.236-0.196,0.497-0.364,0.807-0.421c0.235-0.044,0.475-0.106,0.71-0.096c0.262,0.011,0.526,0.047,0.782,0.15
		c0.312,0.126,0.576,0.31,0.809,0.541c0.187,0.186,0.338,0.402,0.443,0.652c0.12,0.286,0.2,0.574,0.172,0.902
		C39.896,15.458,39.82,15.728,39.719,15.984z M55.146,17.18c-0.147,0.147-0.314,0.182-0.508,0.182c-1.357-0.002-2.713,0-4.07-0.004
		c-0.11,0-0.178,0.028-0.225,0.126c-0.079,0.167-0.165,0.331-0.249,0.496c-0.041,0.081-0.083,0.161-0.124,0.241
		c-0.006-0.002-0.011-0.004-0.017-0.006c0-1.037,0-2.075,0-3.127c0.117,0.121,0.217,0.247,0.339,0.346
		c0.157,0.127,0.326,0.242,0.5,0.345c0.13,0.076,0.275,0.129,0.415,0.185c0.251,0.099,0.515,0.127,0.782,0.127
		c0.896,0,1.792,0,2.688,0c0.332,0,0.561,0.203,0.64,0.472C55.382,16.785,55.327,17.001,55.146,17.18z"/>
	<path d="M89.525,11.589c-0.052-0.117-0.122-0.224-0.196-0.315c-0.115-0.141-0.271-0.248-0.437-0.337
		c-0.066-0.035-0.145-0.043-0.196-0.083c-0.064-0.05-0.127-0.053-0.195-0.057c-0.116-0.007-0.23-0.011-0.343-0.052
		c-0.062-0.022-0.148-0.022-0.206,0.004c-0.081,0.036-0.16,0.038-0.242,0.045c-0.087,0.008-0.185-0.02-0.252,0.067
		c-0.006,0.008-0.024,0.008-0.036,0.008c-0.156-0.002-0.239,0.144-0.376,0.181c-0.216,0.187-0.409,0.397-0.596,0.611
		c-0.234,0.268-0.459,0.545-0.687,0.817c-0.043,0.051-0.1,0.059-0.144,0.012c-0.08-0.086-0.157-0.175-0.233-0.264
		c-0.06-0.071-0.114-0.149-0.176-0.219c-0.158-0.178-0.325-0.348-0.476-0.532c-0.166-0.202-0.351-0.38-0.571-0.519
		c-0.067-0.042-0.133-0.1-0.223-0.088c-0.011,0.001-0.029-0.002-0.035-0.01c-0.057-0.077-0.142-0.054-0.217-0.064
		c-0.082-0.01-0.169-0.005-0.244-0.033c-0.113-0.042-0.218-0.035-0.329-0.007c-0.056,0.014-0.113,0.024-0.17,0.034
		c-0.098,0.017-0.209-0.021-0.288,0.073c-0.004,0.005-0.016,0.005-0.024,0.005c-0.104-0.004-0.173,0.063-0.247,0.119
		c-0.016,0.012-0.036,0.018-0.053,0.03c-0.055,0.038-0.116,0.071-0.163,0.118c-0.097,0.096-0.196,0.189-0.266,0.313
		c-0.087,0.154-0.182,0.299-0.19,0.482c-0.001,0.02-0.01,0.039-0.016,0.062c-0.043,0-0.081,0-0.102,0
		c-0.056-0.105-0.102-0.195-0.152-0.283c-0.031-0.055-0.065-0.109-0.103-0.16c-0.04-0.055-0.084-0.106-0.129-0.157
		c-0.11-0.126-0.225-0.241-0.374-0.329c-0.146-0.087-0.228-0.15-0.389-0.196c-0.016-0.005-0.036-0.009-0.044-0.02
		c-0.037-0.054-0.093-0.048-0.146-0.051c-0.107-0.006-0.211-0.017-0.317-0.05c-0.085-0.026-0.187-0.002-0.281,0.007
		c-0.056,0.005-0.111,0.028-0.167,0.037c-0.098,0.015-0.209-0.022-0.288,0.071c-0.006,0.007-0.024,0.007-0.036,0.008
		c-0.062,0.005-0.111,0.032-0.166,0.063c-0.165,0.093-0.326,0.19-0.466,0.318c-0.063,0.058-0.14,0.113-0.178,0.186
		c-0.056,0.108-0.146,0.191-0.193,0.307c-0.032,0.079-0.088,0.152-0.121,0.234c-0.029,0.072-0.045,0.155-0.092,0.213
		c-0.067,0.083-0.083,0.185-0.125,0.275c-0.07,0.148-0.137,0.299-0.207,0.448c-0.032,0.067-0.073,0.132-0.096,0.205
		c-0.031,0.096-0.057,0.196-0.099,0.287c-0.056,0.121-0.129,0.234-0.189,0.353c-0.034,0.068-0.074,0.14-0.082,0.213
		c-0.012,0.106-0.08,0.183-0.113,0.278c-0.052,0.151-0.164,0.278-0.195,0.44c-0.003,0.015-0.016,0.028-0.023,0.043
		c-0.042,0.087-0.084,0.173-0.124,0.261c-0.035,0.078-0.064,0.158-0.101,0.235c-0.047,0.098-0.12,0.185-0.13,0.299
		c-0.001,0.016-0.012,0.031-0.019,0.046c-0.04,0.078-0.082,0.155-0.119,0.235c-0.046,0.1-0.086,0.202-0.128,0.303
		c-0.035,0.083-0.075,0.164-0.104,0.249c-0.048,0.139-0.173,0.199-0.297,0.122c-0.065-0.041-0.129-0.052-0.2-0.055
		c-0.129-0.005-0.258-0.014-0.386-0.014c-0.849-0.002-1.697-0.002-2.546-0.003c-0.129,0-0.258,0.002-0.387,0
		c-0.096-0.001-0.144-0.048-0.149-0.143c-0.003-0.054-0.002-0.108-0.002-0.162c0.001-1.231,0.004-2.463,0.002-3.694
		c0-0.185,0.006-0.368-0.06-0.552c-0.063-0.176-0.118-0.348-0.227-0.505c-0.086-0.125-0.189-0.221-0.311-0.302
		c-0.12-0.079-0.233-0.178-0.387-0.188c-0.019-0.001-0.036-0.018-0.055-0.026c-0.036-0.015-0.072-0.035-0.11-0.04
		c-0.086-0.011-0.179,0.001-0.259-0.025c-0.087-0.028-0.17-0.035-0.257-0.026c-0.102,0.011-0.204,0.031-0.306,0.043
		c-0.092,0.011-0.193-0.014-0.268,0.067c-0.007,0.008-0.023,0.009-0.035,0.01c-0.149,0.011-0.259,0.099-0.37,0.186
		c-0.016,0.012-0.031,0.028-0.049,0.035c-0.098,0.039-0.156,0.125-0.216,0.2c-0.079,0.097-0.134,0.213-0.204,0.328
		c-0.034-0.002-0.08,0.01-0.104-0.008c-0.081-0.058-0.155-0.125-0.229-0.192c-0.103-0.094-0.22-0.167-0.336-0.243
		c-0.077-0.05-0.163-0.087-0.246-0.126c-0.081-0.038-0.168-0.064-0.245-0.107c-0.087-0.049-0.176-0.08-0.276-0.079
		c-0.01,0-0.024-0.01-0.03-0.019c-0.034-0.051-0.087-0.043-0.135-0.045c-0.203-0.01-0.408,0.001-0.606-0.061
		c-0.027-0.008-0.058-0.005-0.087-0.004c-0.279,0.003-0.557,0.004-0.836,0.009c-0.939,0.015-1.88-0.042-2.818,0.053
		c-0.068,0.007-0.14-0.011-0.192,0.059c-0.013,0.017-0.054,0.013-0.083,0.019c-0.024,0.005-0.056,0.002-0.072,0.016
		c-0.115,0.102-0.258,0.159-0.374,0.265c-0.193,0.176-0.32,0.387-0.397,0.626c-0.062,0.192-0.089,0.393-0.089,0.599
		c0.004,1.627,0.001,3.253,0.001,4.88c0,0.316,0.002,0.632,0.005,0.948c0.001,0.053,0.006,0.108,0.021,0.159
		c0.032,0.11,0.065,0.221,0.11,0.326c0.053,0.123,0.098,0.261,0.185,0.357c0.148,0.161,0.29,0.343,0.524,0.395
		c0.008,0.002,0.015,0.007,0.022,0.012c0.094,0.072,0.212,0.095,0.319,0.114c0.162,0.029,0.331,0.024,0.497,0.02
		c0.162-0.004,0.334,0.035,0.482-0.072c0.104-0.002,0.202-0.018,0.291-0.081c0.069-0.049,0.156-0.072,0.221-0.125
		c0.176-0.142,0.31-0.314,0.417-0.52c0.125-0.242,0.155-0.497,0.171-0.751c0.024-0.381,0.006-0.765,0.007-1.148
		c0-0.182,0.023-0.2,0.204-0.159c0.02,0.005,0.041,0.009,0.059,0.019c0.083,0.048,0.173,0.054,0.265,0.053
		c0.374,0,0.749-0.008,1.123,0.002c0.265,0.007,0.514-0.083,0.774-0.103c0.008-0.001,0.016-0.003,0.024-0.006
		c0.159-0.061,0.319-0.121,0.477-0.184c0.056-0.022,0.11-0.051,0.164-0.08c0.096-0.053,0.195-0.102,0.286-0.163
		c0.093-0.063,0.176-0.142,0.267-0.209c0.024-0.017,0.062-0.015,0.107-0.024c0.004,0.071,0.012,0.132,0.012,0.193
		c0.001,0.591-0.002,1.181,0.002,1.772c0.001,0.18-0.032,0.366,0.068,0.535c0.006,0.01,0.006,0.024,0.007,0.036
		c0.009,0.074,0.033,0.14,0.069,0.208c0.086,0.165,0.18,0.322,0.326,0.44c0.165,0.134,0.328,0.273,0.553,0.291
		c0.008,0.001,0.017,0.002,0.024,0.006c0.11,0.076,0.237,0.068,0.361,0.068c1.29,0.002,2.579,0.003,3.869,0.002
		c0.474,0,0.948-0.006,1.423-0.009c0.063,0,0.119-0.016,0.178-0.044c0.104-0.049,0.225-0.055,0.324-0.006
		c0.071,0.035,0.138,0.054,0.211,0.054c0.399,0.003,0.799,0.005,1.198,0.003c0.106,0,0.217,0.011,0.309-0.067
		c0.014-0.012,0.041-0.004,0.06-0.012c0.08-0.035,0.172-0.057,0.236-0.111c0.119-0.101,0.236-0.203,0.342-0.322
		c0.148-0.164,0.244-0.352,0.337-0.544c0.065-0.134,0.078-0.158,0.226-0.159c0.474-0.004,0.948-0.005,1.422-0.006
		c0.087,0,0.175,0.001,0.262,0.009c0.034,0.003,0.08,0.016,0.097,0.041c0.038,0.056,0.063,0.121,0.091,0.183
		c0.034,0.073,0.055,0.155,0.101,0.218c0.106,0.145,0.195,0.302,0.339,0.421c0.145,0.12,0.276,0.254,0.476,0.276
		c0.012,0.001,0.028,0.003,0.035,0.011c0.061,0.068,0.143,0.059,0.22,0.06c0.262,0.004,0.524,0.01,0.786,0.003
		c0.208-0.006,0.425,0.044,0.62-0.076c0.163-0.009,0.276-0.118,0.4-0.203c0.149-0.102,0.249-0.251,0.36-0.421
		c0.055,0.073,0.098,0.13,0.139,0.187c0.083,0.114,0.193,0.198,0.307,0.279c0.032,0.023,0.061,0.056,0.097,0.066
		c0.105,0.028,0.191,0.115,0.311,0.097c0.016-0.002,0.035,0.022,0.054,0.029c0.03,0.012,0.062,0.031,0.092,0.03
		c0.354-0.003,0.711,0.073,1.059-0.058c0.082-0.031,0.171-0.037,0.254-0.085c0.134-0.079,0.255-0.169,0.362-0.28
		c0.097-0.101,0.174-0.214,0.229-0.342c0.026-0.06,0.032-0.136,0.073-0.179c0.064-0.067,0.051-0.144,0.061-0.219
		c0.008-0.062,0.001-0.128,0.021-0.185c0.046-0.134,0.036-0.27,0.037-0.407c0.004-0.649,0.008-1.298,0.008-1.947
		c0-0.097,0.028-0.177,0.091-0.247c0.035-0.039,0.074-0.073,0.108-0.113c0.162-0.192,0.323-0.386,0.484-0.578
		c0.178-0.213,0.357-0.425,0.536-0.637c0.069-0.082,0.141-0.162,0.211-0.244c0.136-0.161,0.276-0.319,0.406-0.485
		c0.103-0.131,0.222-0.251,0.285-0.411c0.024-0.06,0.044-0.124,0.081-0.176c0.082-0.115,0.101-0.252,0.121-0.382
		C89.71,12.257,89.672,11.919,89.525,11.589z M69.113,14.201c-0.006,0.097-0.036,0.195-0.068,0.288
		c-0.029,0.083-0.074,0.16-0.113,0.24c-0.005,0.011-0.013,0.021-0.017,0.033c-0.111,0.274-0.299,0.488-0.508,0.691
		c-0.127,0.123-0.268,0.224-0.414,0.319c-0.141,0.092-0.296,0.157-0.456,0.217c-0.197,0.074-0.4,0.052-0.597,0.089
		c-0.363,0.068-0.73,0.036-1.095,0.043c-0.189,0.004-0.372-0.046-0.533-0.139c-0.164-0.094-0.264-0.245-0.324-0.432
		c-0.052-0.164-0.055-0.327-0.044-0.491c0.011-0.169,0.06-0.335,0.153-0.476c0.049-0.074,0.118-0.144,0.212-0.177
		c0.069-0.024,0.138-0.052,0.2-0.09c0.08-0.049,0.166-0.047,0.253-0.048c0.291-0.003,0.582-0.003,0.874-0.006
		c0.098-0.001,0.201,0.013,0.287-0.055c0.009-0.007,0.024-0.009,0.036-0.008c0.145,0.019,0.213-0.092,0.29-0.179
		c0.075-0.086,0.079-0.197,0.068-0.306c-0.019-0.181-0.193-0.345-0.393-0.372c-0.13-0.018-0.26-0.042-0.391-0.05
		c-0.133-0.009-0.266-0.002-0.399-0.002c-0.507-0.001-1.015-0.002-1.522-0.002c-0.033,0-0.068,0-0.099,0.01
		c-0.057,0.019-0.104,0.051-0.102,0.123c0.002,0.091,0.001,0.183,0.001,0.274c0,1.435-0.001,2.871-0.002,4.306
		c0,0.083-0.004,0.167-0.011,0.249c-0.019,0.214-0.116,0.385-0.295,0.504c-0.16,0.106-0.335,0.17-0.532,0.161
		c-0.087-0.004-0.176,0.006-0.262-0.005c-0.231-0.029-0.444-0.101-0.583-0.305c-0.041-0.06-0.087-0.125-0.102-0.194
		c-0.036-0.173-0.076-0.35-0.077-0.526c-0.008-0.899-0.004-1.797-0.004-2.696c0.001,0,0.001,0,0.002,0
		c0-0.899-0.002-1.797,0.002-2.696c0.001-0.224,0.044-0.446,0.138-0.65c0.038-0.083,0.119-0.148,0.184-0.218
		c0.044-0.048,0.094-0.092,0.168-0.084c0.008,0.001,0.019-0.001,0.024-0.006c0.083-0.086,0.191-0.069,0.292-0.069
		c1.281,0.001,2.563,0.004,3.844,0.008c0.073,0,0.152-0.012,0.206,0.059c0.006,0.008,0.023,0.011,0.035,0.011
		c0.164,0.011,0.305,0.096,0.443,0.168c0.168,0.087,0.32,0.207,0.461,0.34c0.157,0.147,0.303,0.301,0.433,0.471
		c0.092,0.121,0.148,0.261,0.212,0.398c0.098,0.209,0.108,0.437,0.163,0.655C69.205,13.796,69.126,13.994,69.113,14.201z
		 M75.621,17.372c-0.071,0.123-0.126,0.255-0.196,0.379c-0.055,0.099-0.057,0.215-0.096,0.312c-0.071,0.176-0.047,0.35-0.051,0.527
		c-0.001,0.058,0.006,0.111,0.045,0.164c0.025,0.034,0.018,0.091,0.027,0.151c-0.089,0.006-0.163,0.014-0.237,0.014
		c-1.527,0-3.054,0-4.581-0.001c-0.083,0-0.166-0.007-0.249-0.013c-0.17-0.012-0.311-0.085-0.443-0.193
		c-0.105-0.086-0.144-0.195-0.194-0.312c-0.096-0.222-0.064-0.449-0.065-0.673c-0.005-0.799-0.003-1.598-0.003-2.396
		c0-0.071-0.002-0.142,0.006-0.212c0.004-0.037,0.027-0.072,0.044-0.108c0.005-0.011,0.022-0.02,0.021-0.029
		c-0.005-0.084,0.061-0.143,0.078-0.218c0.033-0.145,0.051-0.294,0.093-0.436c0.072-0.24,0.065-0.485,0.053-0.729
		c-0.009-0.185-0.047-0.368-0.072-0.552c-0.082-0.099-0.036-0.245-0.127-0.34c-0.013-0.146-0.129-0.269-0.094-0.428
		c0.013-0.06,0.006-0.123,0.047-0.176c0.016-0.021,0.025-0.055,0.024-0.082c-0.008-0.191,0.135-0.29,0.252-0.396
		c0.117-0.106,0.263-0.167,0.43-0.159c0.116,0.006,0.233,0.002,0.349,0.001c0.25-0.004,0.447,0.111,0.592,0.301
		c0.094,0.122,0.148,0.272,0.163,0.43c0.007,0.074,0.01,0.149,0.01,0.224c0,1.477,0,2.954,0,4.431c0,0.029-0.001,0.058,0,0.087
		c0.004,0.105,0.045,0.151,0.152,0.155c0.125,0.005,0.25,0.004,0.374,0.004c1.077,0.001,2.155,0.001,3.232,0.003
		c0.096,0,0.191,0.006,0.287,0.011C75.647,17.122,75.7,17.236,75.621,17.372z M83.305,18.843c-0.144,0.071-0.287,0.071-0.434,0.074
		c-0.216,0.004-0.432-0.005-0.649-0.004c-0.218,0-0.367-0.122-0.498-0.275c-0.073-0.086-0.128-0.183-0.169-0.292
		c-0.048-0.126-0.128-0.24-0.189-0.362c-0.043-0.087-0.076-0.179-0.111-0.263c-0.13-0.075-0.268-0.079-0.411-0.079
		c-0.728,0.003-1.456,0.003-2.184,0.002c-0.076,0-0.15,0.003-0.214,0.048c-0.033,0.024-0.075,0.052-0.085,0.087
		c-0.02,0.067-0.066,0.125-0.082,0.187c-0.039,0.149-0.116,0.279-0.18,0.413c-0.068,0.144-0.183,0.267-0.306,0.374
		c-0.128,0.111-0.274,0.171-0.451,0.166c-0.27-0.008-0.541-0.004-0.811,0.001c-0.217,0.004-0.36-0.115-0.482-0.271
		c-0.016-0.021-0.02-0.054-0.022-0.082c-0.004-0.062,0.004-0.126-0.007-0.187c-0.024-0.141,0.051-0.254,0.096-0.375
		c0.038-0.103,0.088-0.201,0.135-0.3c0.04-0.083,0.087-0.162,0.124-0.246c0.062-0.142,0.115-0.288,0.177-0.43
		c0.033-0.076,0.075-0.148,0.114-0.222c0.004-0.007,0.014-0.011,0.017-0.018c0.032-0.091,0.061-0.183,0.096-0.272
		c0.017-0.044,0.048-0.083,0.068-0.126c0.048-0.104,0.092-0.21,0.14-0.314c0.049-0.107,0.101-0.213,0.151-0.319
		c0.004-0.007,0.008-0.016,0.007-0.024c-0.014-0.104,0.079-0.163,0.104-0.253c0.027-0.096,0.076-0.188,0.124-0.276
		c0.05-0.092,0.089-0.192,0.127-0.286c0.054-0.135,0.143-0.255,0.175-0.4c0.014-0.063,0.036-0.135,0.079-0.177
		c0.077-0.073,0.038-0.198,0.132-0.257c0.007-0.159,0.132-0.269,0.17-0.419c0.035-0.138,0.124-0.262,0.191-0.392
		c0.033-0.064,0.031-0.137,0.079-0.202c0.053-0.073,0.063-0.176,0.1-0.262c0.033-0.076,0.077-0.147,0.116-0.221
		c0.009-0.018,0.018-0.036,0.022-0.055c0.009-0.039,0.003-0.084,0.052-0.106c0.011-0.005,0.016-0.027,0.021-0.043
		c0.093-0.332,0.298-0.579,0.578-0.773c0.133-0.092,0.272-0.155,0.438-0.148c0.112,0.005,0.225-0.001,0.337,0.002
		c0.081,0.003,0.16-0.003,0.233,0.062c0.042,0.037,0.129,0.018,0.167,0.085c0.112,0.009,0.163,0.105,0.231,0.171
		c0.122,0.119,0.216,0.259,0.279,0.421c0.034,0.086,0.098,0.161,0.127,0.248c0.023,0.07,0.046,0.137,0.082,0.202
		c0.049,0.087,0.095,0.177,0.133,0.269c0.039,0.093,0.066,0.19,0.1,0.284c0.009,0.026,0.023,0.05,0.036,0.074
		c0.01,0.017,0.027,0.031,0.032,0.05c0.048,0.153,0.115,0.296,0.206,0.429c0.007,0.01,0.013,0.022,0.014,0.034
		c0.012,0.129,0.111,0.226,0.14,0.341c0.037,0.151,0.143,0.266,0.176,0.417c0.018,0.084,0.077,0.158,0.115,0.238
		c0.036,0.076,0.065,0.157,0.106,0.23c0.08,0.145,0.105,0.312,0.204,0.451c0.049,0.069,0.063,0.163,0.095,0.245
		c0.024,0.061,0.047,0.121,0.076,0.18c0.065,0.131,0.137,0.259,0.198,0.392c0.04,0.088,0.065,0.182,0.1,0.272
		c0.026,0.068,0.046,0.142,0.089,0.198c0.088,0.114,0.095,0.266,0.192,0.374c0.014,0.016,0.01,0.048,0.015,0.072
		c0.005,0.024,0.007,0.05,0.018,0.072c0.079,0.164,0.171,0.321,0.226,0.497c0.02,0.063,0.07,0.116,0.105,0.175
		c0.01,0.017,0.017,0.037,0.02,0.057c0.01,0.06,0.005,0.123,0.064,0.169c0.017,0.013,0.015,0.054,0.016,0.083
		c0.003,0.066,0.003,0.133,0.001,0.2C83.585,18.65,83.482,18.756,83.305,18.843z M84.023,17.247
		c-0.109,0.015-0.104,0.014-0.131-0.064c-0.029-0.083-0.067-0.164-0.102-0.244c-0.067-0.153-0.135-0.305-0.204-0.457
		c-0.042-0.091-0.091-0.179-0.13-0.272c-0.025-0.059-0.041-0.12-0.075-0.179c-0.07-0.122-0.093-0.273-0.172-0.386
		c-0.061-0.086-0.049-0.194-0.125-0.273c-0.039-0.041-0.046-0.117-0.078-0.175c-0.085-0.157-0.162-0.321-0.224-0.489
		c-0.062-0.168-0.129-0.332-0.215-0.488c-0.024-0.043-0.034-0.093,0.012-0.152c0.064,0.069,0.126,0.131,0.183,0.198
		c0.081,0.093,0.158,0.19,0.238,0.284c0.12,0.141,0.241,0.282,0.361,0.423c0.163,0.191,0.327,0.382,0.487,0.575
		c0.062,0.075,0.117,0.156,0.172,0.237c0.012,0.019,0.011,0.048,0.011,0.073c0.002,0.449,0.002,0.898,0.003,1.347
		C84.033,17.215,84.028,17.227,84.023,17.247z M88.978,12.484c-0.002,0.056-0.076,0.229-0.105,0.283
		c-0.138,0.255-0.331,0.467-0.515,0.686c-0.104,0.124-0.216,0.241-0.321,0.365c-0.108,0.128-0.212,0.259-0.317,0.389
		c-0.035,0.044-0.067,0.091-0.103,0.134c-0.156,0.181-0.313,0.362-0.47,0.542c-0.128,0.147-0.265,0.287-0.382,0.443
		c-0.1,0.134-0.167,0.281-0.164,0.465c0.009,0.694,0.003,1.389,0,2.084c0,0.137-0.006,0.275-0.016,0.411
		c-0.003,0.047-0.028,0.092-0.044,0.138c-0.004,0.012-0.018,0.022-0.018,0.032c0.001,0.143-0.116,0.204-0.2,0.287
		c-0.053,0.053-0.125,0.071-0.192,0.102c-0.233,0.104-0.473,0.081-0.709,0.055c-0.145-0.016-0.296-0.059-0.41-0.168
		c-0.11-0.105-0.189-0.225-0.233-0.377c-0.053-0.184-0.058-0.367-0.058-0.554c0-0.329,0-0.657,0-0.986c0,0-0.001,0-0.001,0
		c0-0.383,0-0.765,0-1.148c0-0.095-0.003-0.183-0.078-0.262c-0.123-0.129-0.233-0.271-0.349-0.407
		c-0.068-0.08-0.134-0.162-0.202-0.241c-0.135-0.157-0.274-0.312-0.407-0.471c-0.161-0.195-0.316-0.395-0.477-0.591
		c-0.105-0.128-0.219-0.249-0.322-0.379c-0.124-0.157-0.267-0.298-0.367-0.476c-0.069-0.123-0.139-0.238-0.131-0.386
		c0.006-0.104,0.007-0.208,0.002-0.312c-0.008-0.21,0.11-0.358,0.242-0.498c0.032-0.034,0.082-0.053,0.127-0.072
		c0.115-0.049,0.22-0.123,0.357-0.11c0.12,0.011,0.241,0.002,0.362,0.008c0.079,0.004,0.168-0.017,0.226,0.064
		c0.002,0.003,0.008,0.004,0.012,0.004c0.185,0.005,0.279,0.153,0.381,0.268c0.197,0.22,0.388,0.446,0.578,0.672
		c0.169,0.202,0.325,0.415,0.5,0.611c0.13,0.144,0.251,0.294,0.37,0.447c0.059,0.075,0.173,0.087,0.238,0.018
		c0.072-0.076,0.136-0.159,0.203-0.24c0.113-0.138,0.225-0.277,0.339-0.415c0.074-0.089,0.152-0.173,0.218-0.271
		c0.084-0.125,0.205-0.224,0.304-0.339c0.092-0.107,0.176-0.221,0.267-0.329c0.048-0.057,0.099-0.112,0.154-0.162
		c0.079-0.073,0.155-0.151,0.244-0.208c0.112-0.071,0.23-0.136,0.375-0.124c0.116,0.01,0.233,0.006,0.349-0.003
		c0.185-0.014,0.325,0.084,0.463,0.18c0.203,0.142,0.268,0.357,0.284,0.592C88.986,12.317,88.981,12.401,88.978,12.484z"/>
	<path d="M80.151,15.015c-0.039-0.089-0.068-0.182-0.11-0.27c-0.044-0.092-0.113-0.171-0.13-0.276
		c-0.008-0.052-0.055-0.066-0.094-0.065c-0.037,0.001-0.088,0.017-0.106,0.044c-0.039,0.061-0.06,0.133-0.09,0.2
		c-0.06,0.133-0.123,0.266-0.183,0.399c-0.043,0.095-0.082,0.192-0.122,0.289c-0.011,0.026-0.014,0.058-0.031,0.079
		c-0.043,0.053-0.05,0.111-0.038,0.189c0.035,0.007,0.062,0.018,0.09,0.018c0.32,0.001,0.639,0.002,0.959-0.001
		c0.04,0,0.079-0.027,0.121-0.042c-0.057-0.123-0.105-0.23-0.155-0.336C80.226,15.166,80.185,15.093,80.151,15.015z"/>
</g>
</svg>
