<?xml version="1.0" encoding="utf-8"?>
<!-- Generator: Adobe Illustrator 24.0.0, SVG Export Plug-In . SVG Version: 6.00 Build 0)  -->
<svg version="1.1" id="Layer_1" xmlns="http://www.w3.org/2000/svg" xmlns:xlink="http://www.w3.org/1999/xlink" x="0px" y="0px"
	 viewBox="0 0 100 30" style="enable-background:new 0 0 100 30;" xml:space="preserve">
<g id="XMLID_128_">
	<g id="XMLID_241_">
		<path id="XMLID_242_" d="M76.526,19.643c0,0.799-0.642,1.432-1.457,1.432c-0.816,0-1.467-0.633-1.467-1.432
			c0-0.798,0.651-1.423,1.475-1.423C75.884,18.221,76.526,18.845,76.526,19.643z M73.967,19.643c0,0.634,0.478,1.137,1.111,1.137
			c0.615,0.009,1.084-0.503,1.084-1.128c0-0.632-0.469-1.145-1.101-1.145C74.444,18.507,73.967,19.019,73.967,19.643z
			 M74.843,20.381h-0.33v-1.423c0.131-0.018,0.313-0.043,0.547-0.043c0.269,0,0.39,0.043,0.485,0.112
			c0.087,0.061,0.147,0.166,0.147,0.304c0,0.173-0.13,0.286-0.295,0.338v0.017c0.139,0.044,0.208,0.156,0.252,0.348
			c0.043,0.217,0.078,0.295,0.105,0.347h-0.348c-0.043-0.052-0.069-0.173-0.112-0.347c-0.026-0.148-0.113-0.217-0.295-0.217h-0.156
			V20.381z M74.852,19.582h0.157c0.182,0,0.329-0.06,0.329-0.208c0-0.13-0.095-0.217-0.303-0.217c-0.087,0-0.147,0.008-0.183,0.017
			V19.582z"/>
	</g>
	<g id="XMLID_129_">
		<g id="XMLID_133_">
			<g>
				<path d="M65.933,7.782c-2.695-0.937-5.768-0.651-8.216,0.105l1.337,8.756L53.3,7.265l-5.718,11.351
					c-1.544-5.417-2.365-11.243-2.365-11.243l-4.903,8.178l-5.438-8.648l-0.916,8.821c-0.035-0.094-0.06-0.145-0.06-0.145
					l-0.002-0.026c-0.053-0.112-0.132-0.26-0.175-0.329c-0.786-1.424-3.435-2.265-5.306-2.905c-4.744-1.624-3.296-3.294-0.724-3.692
					c1.795-0.28,3.831,0.043,5.11,0.841l0.657-1.916c-3.587-1.887-11.556-1.36-10.264,3.598c0.746,2.866,6.789,3.276,8.218,4.951
					c0.119,0.141,0.283,0.34,0.361,0.522c0.107,0.247,0.142,0.531,0.029,0.887c-0.017,0.053-0.043,0.227-0.078,0.296
					c-0.051,0.102-0.108,0.204-0.15,0.257c-0.914,1.157-2.751,1.201-4.434,0.996c-1.929-0.235-3.653-1.186-3.753-1.409l-0.81,2.038
					c3.049,1.646,8.835,2.62,10.993-0.414c0.009-0.012,0.014-0.021,0.022-0.033l-0.202,1.949l2.291-0.039l0.708-7.989l4.028,6.362
					l3.76-6.362c0,0,0.399,1.648,1.126,4.675c0.614,2.556,0.999,3.526,0.999,3.526l1.972-0.154l1.95-3.926h6.965l2.604,3.924
					l2.154-0.004l-1.159-6.848c1.432,1.991,5.39,4.621,8.502,5.714l-0.208,1.186l2.252,0.052l1.98-11.692l4.765,0.053l0.742-1.914
					L65.933,7.782z M51.176,15.371l2.294-4.616l2.452,4.616H51.176z M60.387,11.805l-0.404-2.591
					c1.368-0.82,5.781-0.325,5.287,1.042C64.774,11.623,60.478,12.209,60.387,11.805z M69.643,18.224
					c-2.721-0.964-6.9-4.101-7.056-4.752c1.536-0.116,4.817-0.989,4.465-3.801l3.919,0.026L69.643,18.224z"/>
			</g>
		</g>
		<path id="XMLID_132_" d="M39.05,12.676"/>
		<path id="XMLID_131_" d="M39.05,12.676"/>
		<path id="XMLID_130_" d="M40.777,15.551"/>
	</g>
</g>
</svg>
