<?xml version="1.0" encoding="utf-8"?>
<!-- Generator: Adobe Illustrator 24.0.0, SVG Export Plug-In . SVG Version: 6.00 Build 0)  -->
<svg version="1.1" id="Layer_1" xmlns="http://www.w3.org/2000/svg" xmlns:xlink="http://www.w3.org/1999/xlink" x="0px" y="0px"
	 viewBox="0 0 100 30" style="enable-background:new 0 0 100 30;" xml:space="preserve">
<g>
	<path d="M73.735,14.341c-0.016,0.01-0.021,0.026-0.023,0.044c-0.06,0.618-0.355,1.111-0.812,1.515
		c-0.383,0.338-0.834,0.536-1.339,0.601c-1.316,0.17-2.524-0.657-2.8-1.894c-0.169-0.757-0.001-1.448,0.494-2.043
		c0.567-0.681,1.314-0.978,2.191-0.908c1.093,0.087,1.946,0.844,2.211,1.796c0.028,0.101,0.053,0.202,0.054,0.308
		c0,0.029-0.004,0.062,0.024,0.085C73.735,14.01,73.735,14.175,73.735,14.341z M71.183,15.545c0.385-0.006,0.703-0.106,0.986-0.314
		c0.65-0.477,0.784-1.363,0.296-2c-0.617-0.805-1.878-0.813-2.498,0.016c-0.386,0.516-0.379,1.19,0.016,1.697
		C70.295,15.345,70.718,15.525,71.183,15.545z"/>
	<path d="M26.437,5.922c0.004-0.008,0.005-0.016,0.003-0.025c2.824,0,5.647,0,8.471,0c0.009,0.002,0.015,0.008,0.016,0.018
		c-0.061,0.003-0.122,0.008-0.182,0.008c-1.528,0-3.056,0-4.585,0C28.919,5.922,27.678,5.922,26.437,5.922z"/>
	<path d="M26.437,5.922c1.241,0,2.482,0.001,3.723,0.001c1.528,0,3.056,0,4.585,0c0.061,0,0.122-0.005,0.182-0.008
		c0.174-0.011,0.349,0.001,0.522,0.015c0.499,0.041,0.993,0.122,1.477,0.252c1.144,0.307,2.175,0.835,3.089,1.588
		c0.943,0.776,1.679,1.715,2.204,2.818c0.345,0.724,0.577,1.483,0.696,2.276c0.072,0.483,0.11,0.969,0.094,1.458
		c-0.037,1.118-0.278,2.189-0.748,3.207c-0.448,0.969-1.059,1.82-1.838,2.549c-1.097,1.025-2.379,1.703-3.846,2.029
		c-0.736,0.164-1.481,0.225-2.232,0.177c-1.852-0.117-3.489-0.775-4.894-1.989c-1.165-1.007-1.979-2.249-2.449-3.715
		c-0.165-0.515-0.272-1.043-0.332-1.581c-0.05-0.447-0.063-0.896-0.038-1.344c0.051-0.933,0.254-1.834,0.615-2.698
		c0.304-0.728,0.704-1.399,1.202-2.011c0.159-0.196,0.281-0.408,0.323-0.66c0.055-0.327-0.064-0.589-0.302-0.805
		c-0.097-0.088-0.209-0.156-0.323-0.22c-0.568-0.322-1.136-0.645-1.704-0.967c-0.042-0.024-0.084-0.046-0.117-0.082
		c-0.091-0.098-0.077-0.201,0.039-0.269C26.386,5.926,26.41,5.919,26.437,5.922z M28.444,14.096c-0.026,3.4,2.724,6.378,6.368,6.379
		c3.603,0.001,6.344-2.913,6.377-6.31c0.034-3.513-2.8-6.433-6.367-6.438C31.244,7.722,28.423,10.649,28.444,14.096z"/>
	<path d="M51.044,16.08c-0.021,0.044-0.01,0.092-0.011,0.138c-0.001,0.518-0.001,1.037-0.001,1.555c0,0.057-0.001,0.113-0.01,0.169
		c-0.043,0.273-0.259,0.446-0.534,0.425c-0.25-0.019-0.439-0.23-0.439-0.497c-0.001-1.285-0.01-2.57,0.002-3.855
		c0.011-1.099,0.806-2.078,1.911-2.316c1.349-0.29,2.668,0.607,2.9,1.969c0.224,1.316-0.63,2.544-1.901,2.805
		c-0.633,0.13-1.228,0.018-1.778-0.323c-0.037-0.023-0.073-0.047-0.111-0.069C51.066,16.077,51.056,16.08,51.044,16.08z
		 M53.918,14.093c0.007-0.75-0.584-1.464-1.443-1.466c-0.87-0.001-1.442,0.727-1.446,1.449c-0.004,0.755,0.605,1.463,1.443,1.466
		C53.262,15.545,53.915,14.889,53.918,14.093z"/>
	<path d="M61.869,15.027c0.039,0.06,0.094,0.108,0.15,0.154c0.642,0.529,1.58,0.474,2.158-0.126
		c0.033-0.034,0.064-0.072,0.097-0.106c0.192-0.197,0.479-0.211,0.683-0.034c0.192,0.167,0.221,0.463,0.058,0.673
		c-0.145,0.187-0.319,0.345-0.514,0.479c-0.397,0.273-0.835,0.429-1.317,0.448c-0.981,0.04-1.759-0.34-2.298-1.16
		c-0.653-0.994-0.43-2.347,0.486-3.106c0.543-0.45,1.17-0.662,1.867-0.594c1.004,0.099,1.73,0.612,2.142,1.546
		c0.112,0.254,0.034,0.474-0.121,0.606c-0.068,0.058-0.149,0.088-0.232,0.116c-0.478,0.164-0.955,0.328-1.433,0.491
		c-0.543,0.186-1.087,0.372-1.63,0.559C61.934,14.986,61.896,14.986,61.869,15.027z M61.507,14.086
		c0.15-0.035,2.608-0.883,2.695-0.929c-0.293-0.401-1.019-0.684-1.706-0.44C61.783,12.971,61.461,13.642,61.507,14.086z"/>
	<path d="M56.436,12.018c0.047-0.001,0.079-0.034,0.115-0.055c0.913-0.529,2.063-0.392,2.81,0.346
		c0.424,0.419,0.65,0.93,0.651,1.533c0.001,0.697-0.001,1.394,0.001,2.091c0.001,0.197-0.081,0.346-0.251,0.441
		c-0.325,0.18-0.719-0.045-0.722-0.417c-0.006-0.588-0.001-1.176-0.002-1.764c0-0.152,0.011-0.305-0.011-0.457
		c-0.079-0.546-0.397-0.888-0.911-1.05c-0.564-0.178-1.188,0.051-1.502,0.539c-0.126,0.195-0.188,0.409-0.188,0.642
		c0.001,0.684,0.001,1.368,0,2.052c0,0.23-0.118,0.408-0.313,0.483c-0.251,0.096-0.524-0.022-0.624-0.274
		c-0.039-0.098-0.049-0.202-0.049-0.307c0.001-1.394,0.001-2.788,0.001-4.182c0-0.431-0.001-0.863,0-1.294
		c0.001-0.221,0.118-0.388,0.319-0.461c0.202-0.073,0.42-0.016,0.555,0.149c0.08,0.098,0.113,0.213,0.113,0.34
		c-0.001,0.505-0.001,1.011,0,1.516C56.427,11.931,56.417,11.975,56.436,12.018z"/>
	<path d="M47.845,16.621c-0.614,0.002-1.105-0.159-1.532-0.503c-0.189-0.152-0.346-0.333-0.431-0.564
		c-0.105-0.287,0.055-0.578,0.348-0.647c0.105-0.025,0.198,0.004,0.29,0.048c0.113,0.053,0.195,0.144,0.282,0.23
		c0.172,0.17,0.363,0.313,0.594,0.394c0.319,0.111,0.633,0.107,0.934-0.059c0.124-0.068,0.209-0.168,0.237-0.312
		c0.027-0.138-0.017-0.248-0.129-0.331c-0.104-0.076-0.226-0.111-0.348-0.144c-0.257-0.068-0.522-0.095-0.78-0.157
		c-0.321-0.077-0.626-0.189-0.88-0.409c-0.349-0.301-0.481-0.692-0.418-1.138c0.082-0.582,0.443-0.958,0.973-1.162
		c0.625-0.241,1.248-0.191,1.847,0.104c0.207,0.101,0.378,0.249,0.493,0.453c0.129,0.228,0.088,0.482-0.103,0.638
		c-0.111,0.092-0.238,0.121-0.379,0.084c-0.121-0.031-0.223-0.097-0.323-0.167c-0.188-0.131-0.388-0.234-0.616-0.272
		c-0.23-0.038-0.451-0.006-0.659,0.103c-0.074,0.039-0.138,0.09-0.188,0.159c-0.139,0.192-0.092,0.421,0.114,0.534
		c0.162,0.089,0.343,0.125,0.522,0.159c0.273,0.052,0.55,0.09,0.815,0.18c0.141,0.048,0.275,0.109,0.404,0.182
		c0.674,0.386,0.766,1.153,0.517,1.678c-0.195,0.41-0.527,0.662-0.947,0.808C48.256,16.591,48.02,16.627,47.845,16.621z"/>
	<path d="M65.892,14.923c0-0.335-0.01-0.671,0.003-1.006c0.013-0.346,0.095-0.68,0.246-0.994c0.264-0.551,0.706-0.882,1.289-1.037
		c0.263-0.07,0.531-0.094,0.802-0.087c0.268,0.007,0.48,0.226,0.477,0.49c-0.003,0.256-0.214,0.476-0.473,0.483
		c-0.157,0.004-0.313,0.015-0.467,0.046c-0.483,0.098-0.756,0.403-0.856,0.874c-0.036,0.17-0.053,0.343-0.052,0.518
		c0.001,0.558,0.001,1.115,0,1.673c0,0.065,0.001,0.13-0.018,0.194c-0.072,0.242-0.286,0.386-0.54,0.354
		c-0.224-0.028-0.422-0.229-0.418-0.476c0.005-0.344,0.001-0.688,0.001-1.032C65.888,14.923,65.89,14.923,65.892,14.923z"/>
	<path d="M36.084,14.109c-0.013,0.656-0.15,1.277-0.521,1.832c-0.129,0.193-0.285,0.363-0.473,0.501
		c-0.543,0.396-1.215,0.356-1.725-0.103c-0.309-0.278-0.514-0.622-0.654-1.009c-0.195-0.538-0.247-1.092-0.184-1.659
		c0.06-0.538,0.224-1.037,0.542-1.479c0.16-0.222,0.352-0.41,0.596-0.539c0.456-0.24,0.904-0.221,1.34,0.05
		c0.28,0.174,0.487,0.419,0.651,0.702c0.241,0.418,0.37,0.871,0.411,1.35C36.075,13.874,36.089,13.991,36.084,14.109z"/>
	<path d="M39.873,14.09c-0.014,0.502-0.117,0.968-0.412,1.375c-0.13,0.179-0.29,0.324-0.493,0.416
		c-0.356,0.162-0.758,0.081-1.07-0.217c-0.223-0.212-0.368-0.474-0.458-0.765c-0.202-0.66-0.169-1.305,0.139-1.929
		c0.082-0.165,0.191-0.311,0.325-0.438c0.406-0.387,0.965-0.389,1.373-0.003c0.275,0.26,0.428,0.588,0.518,0.95
		C39.848,13.682,39.867,13.89,39.873,14.09z"/>
</g>
</svg>
