<?xml version="1.0" encoding="utf-8"?>
<!-- Generator: Adobe Illustrator 23.1.1, SVG Export Plug-In . SVG Version: 6.00 Build 0)  -->
<svg version="1.1" id="Layer_1" xmlns="http://www.w3.org/2000/svg" xmlns:xlink="http://www.w3.org/1999/xlink" x="0px" y="0px"
	 viewBox="0 0 400 100" style="enable-background:new 0 0 400 100;" xml:space="preserve">
<style type="text/css">
	.st0{fill:#E31B23;}
	.st1{fill:#FFFFFF;}
	.st2{clip-path:url(#SVGID_2_);fill:url(#SVGID_3_);}
	.st3{opacity:0.85;}
	.st4{clip-path:url(#SVGID_5_);}
	.st5{filter:url(#Adobe_OpacityMaskFilter);}
	.st6{enable-background:new    ;}
	.st7{clip-path:url(#SVGID_7_);}
	.st8{clip-path:url(#SVGID_7_);mask:url(#SVGID_8_);}
	.st9{clip-path:url(#SVGID_12_);fill:#FFFFFF;}
	.st10{fill:#66B245;}
	.st11{fill:#17479E;}
</style>
<g>
	<g>
		<rect x="4.902" y="33.935" class="st0" width="59.984" height="59.984"/>
		<g>
			<polygon class="st1" points="11.698,41.856 14.427,49.86 16.97,49.86 19.568,41.874 20.297,49.86 23.157,49.86 21.867,37.863 
				18.559,37.863 15.848,46.119 12.951,37.863 9.642,37.863 8.427,49.86 11.137,49.86 			"/>
			<path class="st1" d="M28.803,50.129c2.231,0,3.454-1.133,3.507-1.169l-1.097-1.798c-0.054,0.036-0.953,0.647-2.014,0.647
				c-1.475,0-2.177-1.007-2.177-2.428c0-1.367,0.936-2.392,2.339-2.392c0.863,0,1.601,0.485,1.673,0.54l1.132-1.745
				c-0.126-0.18-1.222-1.115-3.219-1.115c-2.698,0-4.82,2.032-4.82,4.766C24.127,48.044,25.907,50.129,28.803,50.129z"/>
			<polygon class="st1" points="11.304,74.574 15.279,74.574 15.279,79.592 18.229,79.592 18.229,67.596 15.279,67.596 
				15.279,72.182 11.304,72.182 11.304,67.596 8.354,67.596 8.354,79.592 11.304,79.592 			"/>
			<path class="st1" d="M21.721,67.668c-0.846,0-1.529,0.665-1.529,1.51c0,0.846,0.683,1.53,1.529,1.53
				c0.845,0,1.511-0.684,1.511-1.53C23.232,68.333,22.566,67.668,21.721,67.668z"/>
			<rect x="20.264" y="72.049" class="st1" width="2.878" height="7.544"/>
			<rect x="25.192" y="67.596" class="st1" width="2.878" height="11.996"/>
			<rect x="30.11" y="67.596" class="st1" width="2.877" height="11.996"/>
			<path class="st1" d="M13.75,65.032c2.986,0,4.371-1.223,4.514-1.313v-5.217h-4.783v2.141h2.176v1.726
				c-0.18,0.055-0.738,0.217-1.601,0.217c-1.889,0-3.597-1.242-3.597-3.922c0-2.374,1.529-3.795,3.633-3.795
				c1.601,0,2.5,0.665,2.806,0.864l1.277-1.908c-0.27-0.269-1.475-1.403-4.228-1.403c-3.722,0-6.475,2.411-6.475,6.404
				C7.472,62.658,10.081,65.032,13.75,65.032z"/>
			<polygon class="st1" points="44.472,61.59 42.997,55.834 40.569,55.834 39.093,61.59 37.691,55.834 34.957,55.834 37.511,64.756 
				40.335,64.756 41.666,59.252 43.123,64.756 46.055,64.756 48.447,55.834 45.821,55.834 			"/>
			<path class="st1" d="M25.475,57.921l0.533-2.336c0,0-0.099-0.016-0.17-0.023c-0.07-0.007-0.191-0.01-0.191-0.01
				c-1.844,0-2.937,1.374-2.991,1.464v-1.193h-2.387v8.968h2.893V59.15C23.488,58.644,24.209,57.921,25.475,57.921z"/>
			<path class="st1" d="M30.357,55.607c-1.293,0-2.254,0.318-2.844,0.593c-0.192,0.091-0.345,0.176-0.456,0.244l0.887,1.752
				c0.108-0.047,0.25-0.105,0.416-0.165c0.467-0.165,1.137-0.344,1.852-0.344c0.634,0,0.908,0.162,1.068,0.289
				c0.291,0.232,0.217,0.773,0.217,1.063h-0.199c-0.941,0-4.938,0.244-4.938,3.062c0,1.718,1.103,2.93,2.912,2.93
				c1.411,0,2.333-0.796,2.532-0.958v0.759h2.388v-5.245c0-1.104,0.054-2.154-0.724-2.931C32.763,55.95,31.732,55.607,30.357,55.607
				z M31.533,62.462c-0.09,0.054-0.687,0.507-1.664,0.507c-0.47,0-1.122-0.217-1.122-1.086c0-0.361,0.145-0.596,0.308-0.759
				c0.524-0.525,1.791-0.488,2.478-0.488V62.462z"/>
			<polygon class="st1" points="10.077,86.84 13.249,86.84 13.249,85.474 10.077,85.474 10.077,83.583 13.444,83.583 13.444,82.192 
				8.369,82.192 8.369,90.329 13.541,90.329 13.541,88.913 10.077,88.913 			"/>
			<path class="st1" d="M18.646,84.388c-0.073-0.025-0.536-0.232-1.207-0.232c-1.525,0-2.891,1.305-2.891,3.257
				c0,1.805,1.061,3.074,2.696,3.074c1,0,1.549-0.475,1.61-0.524v0.366h1.439v-8.064h-1.647V84.388z M18.646,88.828
				c-0.036,0.036-0.488,0.317-1.012,0.317c-0.769,0-1.427-0.622-1.427-1.781c0-1.232,0.658-1.854,1.524-1.854
				c0.476,0,0.866,0.22,0.915,0.244V88.828z"/>
			<path class="st1" d="M25.372,88.718c-0.098,0.074-0.586,0.378-1.11,0.378c-0.391,0-0.573-0.146-0.647-0.219
				c-0.219-0.22-0.255-0.61-0.255-1.391v-3.159h-1.648v3.232c0,0.782-0.024,1.683,0.647,2.355c0.39,0.39,0.927,0.586,1.562,0.586
				c0.853,0,1.597-0.55,1.695-0.623v0.452h1.403v-6.002h-1.647V88.718z"/>
			<path class="st1" d="M31.471,89.145c-1.098,0-1.634-0.804-1.634-1.854c0-0.854,0.586-1.805,1.683-1.805
				c0.684,0,1.184,0.353,1.269,0.415l0.659-1.013c-0.086-0.122-0.805-0.732-2.075-0.732c-1.804,0-3.183,1.354-3.183,3.221
				c0,1.781,1.196,3.123,3.074,3.123c1.416,0,2.257-0.721,2.281-0.745l-0.634-1.049C32.862,88.73,32.24,89.145,31.471,89.145z"/>
			<path class="st1" d="M43.548,89.121c-0.721,0-0.757-0.549-0.757-1.025v-2.403h1.707v-1.366h-1.707v-1.671h-1.647v1.671h-1.037
				v1.366h1.037v2.342c0,0.842,0,1.416,0.512,1.928c0.403,0.402,1.013,0.537,1.549,0.537c0.891,0,1.464-0.354,1.513-0.391
				l-0.415-1.134C44.193,89.011,43.925,89.121,43.548,89.121z"/>
			<path class="st1" d="M46.694,82.265c-0.525,0-0.939,0.415-0.939,0.94c0,0.524,0.414,0.939,0.939,0.939
				c0.525,0,0.94-0.415,0.94-0.939C47.634,82.68,47.219,82.265,46.694,82.265z"/>
			<rect x="45.877" y="84.888" class="st1" width="1.647" height="5.441"/>
			<path class="st1" d="M51.793,84.156c-1.829,0-3.11,1.342-3.11,3.208c0,1.843,1.22,3.136,2.989,3.136
				c1.853,0,3.122-1.318,3.122-3.233C54.794,85.461,53.562,84.156,51.793,84.156z M51.781,89.133c-0.854,0-1.452-0.732-1.452-1.83
				c0-1.073,0.55-1.793,1.391-1.793s1.427,0.733,1.427,1.831C53.147,88.425,52.635,89.133,51.781,89.133z"/>
			<path class="st1" d="M60.611,84.741c-0.39-0.39-0.927-0.585-1.561-0.585c-0.855,0-1.598,0.549-1.696,0.622v-0.451h-1.403v6.002
				h1.647v-4.392c0.098-0.073,0.586-0.378,1.11-0.378c0.39,0,0.574,0.146,0.646,0.219c0.22,0.22,0.257,0.61,0.257,1.391v3.16h1.647
				v-3.233C61.258,86.315,61.294,85.425,60.611,84.741z"/>
			<path class="st1" d="M36.819,84.175c-1.378,0-2.195,0.573-2.28,0.647l0.548,1.048c0.086-0.049,0.806-0.439,1.598-0.439
				c0.452,0,0.72,0.11,0.855,0.244c0.171,0.171,0.182,0.342,0.182,0.708h-0.171c-0.732,0-3.342,0.036-3.342,2.171
				c0,1.135,0.744,1.928,1.94,1.928c0.951,0,1.585-0.488,1.696-0.562v0.427h1.427v-3.598c0-0.781,0.011-1.403-0.488-1.903
				C38.199,84.26,37.331,84.175,36.819,84.175z M37.722,88.871c-0.073,0.036-0.476,0.366-1.146,0.366
				c-0.403,0-0.928-0.171-0.928-0.793c0-0.756,0.757-0.939,1.818-0.939h0.256V88.871z"/>
		</g>
	</g>
	<g>
		<g>
			<defs>
				<path id="SVGID_1_" d="M148.713,75.781h0.045l-0.045-0.005L148.713,75.781z M154.257,74.214l0.001,0.001v0.008l-0.012,0.036
					l0.012,0.003l-0.001-0.038l0.002-0.006l0.002-0.011L154.257,74.214z M150.879,71.034l0.008,0.006l-0.005-0.007l-0.055-0.068
					L150.879,71.034z M159.561,69.394l0.004,0.001l0.006-0.018L159.561,69.394z M159.109,63.032l0.003-0.002l-0.004-0.003
					L159.109,63.032z M173.939,62.021l0.013,0.001l-0.006-0.014L173.939,62.021z M173.937,62.025l0.002-0.004l-0.005-0.001
					l0.001,0.001l-0.059-0.018L173.937,62.025z M173.854,61.998L173.854,61.998l0.022,0.006l-0.02-0.007l-0.007-0.003
					L173.854,61.998z M152.953,58.454L152.953,58.454l0.002-0.001L152.953,58.454z M151.039,57.887l-0.629-0.301l0.388,0.369
					l-1.03,0.089l0.987,0.152l-1.969,1.394l2.14-1.251l-0.756,1.23l1.061-1.281l0.915,0.57l-0.907-0.988l0.009-0.474L151.039,57.887
					z M169.39,54.953l0.008-0.002l-0.003-0.003L169.39,54.953z M173.305,54.02l0.004-0.001l-0.003-0.003L173.305,54.02z
					 M164.157,52.841l-0.696,0.933l0.906-0.832l1.137,0.974l-0.783-0.946l0.8,0.344l-0.001-0.001l-0.829-0.531l0.278-0.621
					l-0.474,0.479l-0.572-0.508l0.326,0.415l-1.268-0.536L164.157,52.841z M174.996,51.662l0.011,0.002l-0.002-0.008L174.996,51.662
					z M148.745,53.347l-1.872,0.096l1.804,0.213l-0.16,1.219l0.527-1.389l1.453,1.346l-1.244-1.533l1.177-0.662l-1.436,0.464
					l-1.07-1.862L148.745,53.347z M170.97,50.668l0.001,0.211v0.001v-0.001L170.97,50.668L170.97,50.668z M161.809,49.721
					l0.002-0.002v-0.002L161.809,49.721z M162.818,45.459l-0.033,0.042l-0.031,0.07l0.034-0.067l0.032-0.042l-0.001-0.001
					l0.018-0.029L162.818,45.459z M162.848,45.414l-0.01,0.018l0.014-0.02L162.848,45.414z M162.847,45.414l0.004-0.002
					l-0.011-0.014L162.847,45.414z M175.562,51.181l-2.615-1.971l2.484,2.318l-0.08,2.683l0.365-2.498l0.926,1.635l-0.663-1.719
					l2.445-0.176l-2.57-0.201l0.224-6.614L175.562,51.181z M161.974,43.916l3.435,1.544l-1.47,0.152l1.964,0.096l1.735,2.299
					l-1.456-2.303l3.028-0.592l-3.121,0.151l-0.375-0.903l-0.007,0.152l0.075,0.841l-3.872-1.488L161.974,43.916z M161.83,43.844
					l0.066,0.016l0.013,0.005l-0.01-0.008l-0.001,0.001l-0.065-0.016l-0.016-0.01L161.83,43.844z M151.216,43.874l-1.324-0.881
					l-0.017,0.014l0.008,0.009l1.26,1.018l-1.864,0.028l1.915,0.151l0.011,1.023l0.142-0.715l1.979,0.471l-1.794-0.687l0.924-1.439
					l-0.94,1.112l-0.701-1.751L151.216,43.874z M144.749,43.814l-1.037-0.983l0.698,1.057l-2.347-0.376l2.546,0.725l-2.186,2.783
					l2.533-2.512l0.092,2.616l0.267-2.858l2.709-1.007l-2.887,0.733l0.867-3.543L144.749,43.814z M158.788,59.859l1.061,1.922
					l-0.361,0.841L158.788,59.859z M160.817,58.244l3.292,0.961l0.081,0.475L160.817,58.244z M154.683,50.845l0.188-0.059
					l1.161,2.692L154.683,50.845z M157.277,54.205l-1.251-3.537l0.826,3.501l-1.82-3.42l1.061-0.319l0.78,1.72l-0.55-1.89
					l0.479,0.398l-0.285-0.441l0.216-0.063l-0.259-0.072l0.291-0.559l-0.566,0.474l-0.087-0.801l-0.181,0.801l-1.154-1.68
					l1.002,1.961l-0.79,0.371l-0.78-1.418l0.631,1.484l-0.173,0.09l-2.998-5.839l3.794,8.684l-9.652-8.583l0.015,0.058l8.941,9.31
					l-4.457-3.334l4.994,4.43l-5.233-1.802l5.56,2.475l-10.976-1.856l10.223,2.066l-12.372-0.506l0.048-0.105l1.269-1.795
					l1.264-1.176l-1.548,0.926l-1.202-2.953l0.871,3.145l-2.491-0.018l2.415,0.509l-0.788,1.457l-0.264,0.001l0.224,0.06
					l-0.373,0.686l-0.046,0.058l0.005,0.02l-0.003-0.02l0.045-0.009l0.51-0.725l0.02-0.008l0.012-0.002l11.305,1.148l-8.056,0.08
					l8.84,0.176l-2.894,0.597l2.879-0.008l-1.595,0.5l2.304-0.473l-13.161,6.288l11.181-4.77l-3.034,1.861l2.91-1.53l-5.561,4.564
					l7.112-4.774l-7.035,7.319l0.176,0.33l7.009-6.919L151.64,65.3l4.073-5.134l-1.376,2.618l2.046-2.908l-0.454,1.777l0.972-1.512
					l-1.217,4.628l1.058-2.889l0.025,0.566l0.14,1.632l-0.304,8.103l0.729-9.436l0.691,5.944l-0.363-5.47l0.011,0.001l0.3,1.99
					l0.049-4.322l0.299,1.145l-0.126-1.128l0.915,2.122l-0.649-2.794l0.887,2.698l-0.124,0.279l-0.861-0.026l0.745,0.195
					l-0.717,2.07l0.893-1.985l0.258,1.085l-0.075-1.184l0.438,1.332l-0.263-1.486l0.209-0.34l-0.258,0.139l-0.024-0.251l0.309-0.936
					l0.124,0.178l-0.491-1.261l6.444,11.395l-5.489-11.157l4.924,7.785l-4.541-7.818l5.681,4.971l1.25,0.507l-6.784-6.578
					l5.65,4.813l0.009-0.017l-0.006-0.012l-4.854-4.705l1.056,0.345l-1.412-1.177l2.719,0.634l-1.141,1.039l1.022-0.594
					l-0.087,1.522l0.268-1.5l1.399,1.818l-0.829-2.174l0.719-0.252l8.343,2.407l-0.089-0.053l-7.551-2.602l0.333-0.102l-0.444,0.043
					l-1.125-0.372l0.505-0.944l-0.81,0.852l-4.283-1.484l5.998,0.027l-5.748-0.431l8.756-1.974l-8.352,1.524l9.719-3.333
					l-0.083,1.278l-1.71-0.508l1.314,0.799l-0.84,1.388l1.008-1.01l0.597,4.13l-0.174-4.457l2.729-0.992l-2.724,0.751l0.039-1.436
					l4.01-1.399l-3.995,1.119l0.044-1.927l-0.033,0.064l-0.147,1.896l-9.983,2.876l3.033-2.652l-2.949,1.594l1.65-1.865
					l-2.178,1.795l5.33-8.697l-5.414,6.772l1.529-2.941l-2.832,4.521l-0.002,0.001l3.78-8.673l-4.229,8.37l0.823-4.029l-0.781,3.045
					l-0.004-2.199l-0.283,2.351l-0.258-3.321l-0.174,2.564l-1.74-13.257L157.277,54.205z M155.852,37.967l-0.532-0.508l0.363,0.608
					l-2.634-1.53l2.69,1.801l-2.64,0.769l-0.001,0.001l2.753-0.443l-0.589,1.21l0.87-1.143l2.789,2.216l-2.673-2.457l1.363-0.167
					l-1.273-0.033l1.312-0.92l-1.564,0.868l0.919-2.304L155.852,37.967z"/>
			</defs>
			<clipPath id="SVGID_2_">
				<use xlink:href="#SVGID_1_"  style="overflow:visible;"/>
			</clipPath>
			
				<radialGradient id="SVGID_3_" cx="-133.9516" cy="472.7714" r="0.5166" gradientTransform="matrix(41.5465 0 0 -42.4732 5723.1128 20137.2285)" gradientUnits="userSpaceOnUse">
				<stop  offset="0" style="stop-color:#FCF8C3"/>
				<stop  offset="0.1124" style="stop-color:#FCE650"/>
				<stop  offset="0.2754" style="stop-color:#F9A71C"/>
				<stop  offset="1" style="stop-color:#F15C27"/>
			</radialGradient>
			<rect x="140.72" y="35.935" class="st2" width="37.702" height="39.846"/>
		</g>
		<g>
			<g class="st3">
				<g>
					<defs>
						<rect id="SVGID_4_" x="153.844" y="53.406" width="7.404" height="7.404"/>
					</defs>
					<clipPath id="SVGID_5_">
						<use xlink:href="#SVGID_4_"  style="overflow:visible;"/>
					</clipPath>
					<g class="st4">
						<defs>
							<rect id="SVGID_6_" x="153.844" y="53.406" width="7.404" height="7.404"/>
						</defs>
						<clipPath id="SVGID_7_">
							<use xlink:href="#SVGID_6_"  style="overflow:visible;"/>
						</clipPath>
						<defs>
							<filter id="Adobe_OpacityMaskFilter" filterUnits="userSpaceOnUse" x="153.844" y="53.405" width="7.405" height="7.405">
								<feFlood  style="flood-color:white;flood-opacity:1" result="back"/>
								<feBlend  in="SourceGraphic" in2="back" mode="normal"/>
							</filter>
						</defs>
						<mask maskUnits="userSpaceOnUse" x="153.844" y="53.405" width="7.405" height="7.405" id="SVGID_8_">
							<g class="st5">
								<g class="st6">
									<g>
										<defs>
											<rect id="SVGID_9_" x="153.197" y="52.759" width="8.763" height="8.763"/>
										</defs>
										<clipPath id="SVGID_10_" class="st7">
											<use xlink:href="#SVGID_9_"  style="overflow:visible;"/>
										</clipPath>
										<g transform="matrix(1 0 0 1 0 -3.814697e-06)" style="clip-path:url(#SVGID_10_);">
											
												<image style="overflow:visible;" width="113" height="113" xlink:href="466984B1A51D348F.jpg"  transform="matrix(0.0775 0 0 0.0775 153.1972 52.7591)">
											</image>
										</g>
									</g>
								</g>
							</g>
						</mask>
						<g class="st8">
							<g>
								<defs>
									<rect id="SVGID_11_" x="153.844" y="53.406" width="7.404" height="7.404"/>
								</defs>
								<clipPath id="SVGID_12_">
									<use xlink:href="#SVGID_11_"  style="overflow:visible;"/>
								</clipPath>
								<polygon class="st9" points="157.544,55.918 153.844,53.418 156.356,57.11 153.856,60.81 157.547,58.298 161.248,60.798 
									158.76,57.106 161.235,53.405 								"/>
							</g>
						</g>
					</g>
				</g>
			</g>
			<path class="st10" d="M248.795,57.501c-1.315,0-2.425,1.129-2.425,2.465c0,1.337,1.088,2.425,2.425,2.425
				c1.359,0,2.464-1.088,2.464-2.425C251.259,58.607,250.154,57.501,248.795,57.501"/>
			<path class="st10" d="M246.88,64.165v18.296c-0.005,0.033-0.007,0.065-0.007,0.099c0,1.069,0.87,1.94,1.94,1.94
				c1.07,0,1.94-0.87,1.94-1.94l-0.003-18.396H246.88z"/>
			<path class="st10" d="M217.321,67.945l-0.123-0.034c-3.157-0.854-5.884-1.591-5.884-3.83c0-2.173,2.017-3.69,4.905-3.69
				c2.907,0,5.472,1.06,7.222,2.983l0.362,0.399l2.562-3.126l-0.283-0.298c-2.387-2.515-5.626-3.79-9.628-3.79
				c-5.471,0-9.442,3.246-9.442,7.717c0,5.451,4.834,6.716,9.1,7.831l0.114,0.03c3.364,0.917,6.27,1.71,6.27,4.487
				c0,0.675-0.274,4.043-5.689,4.043c-3.286,0-5.63-1.474-7.018-2.71l-0.064-0.053c-0.005-0.005-0.011-0.01-0.016-0.015
				c-0.053-0.049-0.108-0.094-0.166-0.136l-0.105-0.088l-0.009,0.01c-0.323-0.207-0.7-0.318-1.09-0.318
				c-0.567,0-1.113,0.24-1.496,0.658c-0.671,0.732-0.702,1.827-0.122,2.593l-0.016,0.015l0.131,0.125
				c0.042,0.046,0.086,0.09,0.133,0.133c0.019,0.018,0.038,0.033,0.059,0.049l0.019,0.018c2.454,2.323,5.788,3.551,9.642,3.551
				c7.453,0,10.108-4.209,10.108-8.148C226.798,70.466,221.542,69.068,217.321,67.945"/>
			<path class="st10" d="M238.015,67.252c1.876,0,3.331,0.745,4.445,2.278l0.307,0.422l2.658-2.446l-0.26-0.337
				c-1.827-2.371-4.149-3.475-7.307-3.475c-5.744,0-9.913,4.367-9.913,10.384c0,6.039,4.169,10.422,9.913,10.422
				c2.944,0,5.227-1.005,6.981-3.073l0.024-0.027c0.022-0.026,0.044-0.053,0.065-0.079l0.22-0.262l-0.035-0.029
				c0.145-0.287,0.211-0.608,0.188-0.937c-0.034-0.48-0.252-0.918-0.615-1.234c-0.328-0.285-0.747-0.442-1.181-0.442
				c-0.522,0-1.018,0.226-1.353,0.613l-0.038,0.046c-1.095,1.256-2.436,1.867-4.099,1.867c-3.637,0-6.081-2.759-6.081-6.865
				C231.934,69.995,234.378,67.252,238.015,67.252"/>
			<path class="st10" d="M284.781,63.694c-2.432,0-4.746,1.178-6.277,2.544v-2.074h-3.87l-0.003,18.395
				c0,1.07,0.87,1.941,1.94,1.941c1.069,0,1.94-0.871,1.94-1.941c0-0.032-0.003-0.063-0.007-0.098V69.88
				c0.983-1.288,2.969-2.628,5.14-2.628c2.642,0,3.769,1.174,3.769,3.926l-0.001,11.242c-0.007,0.047-0.012,0.092-0.012,0.141
				c0,1.07,0.87,1.941,1.94,1.941c0.91,0,1.675-0.63,1.884-1.475h0.059v-12.75C291.283,65.971,289.035,63.694,284.781,63.694"/>
			<path class="st10" d="M262.829,63.694c-5.584,0-9.795,4.464-9.795,10.384c0,6.137,4.157,10.423,10.109,10.423
				c2.974,0,5.484-0.905,7.461-2.688c0.12-0.083,0.22-0.17,0.303-0.267c0.29-0.333,0.432-0.758,0.401-1.199
				c-0.03-0.44-0.231-0.842-0.564-1.131c-0.527-0.457-1.337-0.521-1.927-0.169l-0.022-0.021l-0.312,0.267
				c-1.366,1.173-3.212,1.845-5.065,1.845c-3.889,0-5.928-2.745-6.307-5.616h15.28v-1.21
				C272.389,68.061,268.458,63.694,262.829,63.694 M257.101,72.437c0.449-3.936,3.598-5.38,5.688-5.38c2.2,0,5.453,1.444,5.747,5.38
				H257.101z"/>
			<path class="st10" d="M330.758,74.313c0-6.252-3.931-10.619-9.56-10.619c-5.584,0-9.795,4.464-9.795,10.384
				c0,6.137,4.157,10.423,10.108,10.423c2.973,0,5.482-0.904,7.459-2.685c0.038-0.024,0.076-0.05,0.112-0.079
				c0.703-0.584,0.799-1.631,0.214-2.333c-0.316-0.38-0.781-0.598-1.276-0.598c-0.292,0-0.577,0.077-0.828,0.222l-0.014-0.014
				l-0.104,0.089c-0.039,0.027-0.076,0.056-0.113,0.086c-0.034,0.028-0.065,0.059-0.103,0.1l-0.007,0.006
				c-1.366,1.173-3.212,1.845-5.066,1.845c-3.888,0-5.927-2.745-6.307-5.616h15.28V74.313z M315.471,72.437
				c0.448-3.936,3.597-5.38,5.688-5.38c2.201,0,5.453,1.444,5.748,5.38H315.471z"/>
			<path class="st10" d="M303.636,67.252c1.877,0,3.331,0.745,4.445,2.278l0.307,0.422l2.659-2.446l-0.26-0.337
				c-1.828-2.371-4.149-3.475-7.307-3.475c-5.744,0-9.913,4.367-9.913,10.384c0,6.039,4.169,10.422,9.913,10.422
				c2.939,0,5.219-1.001,6.971-3.06l0.03-0.033c0.026-0.03,0.051-0.061,0.075-0.093l0.224-0.266l-0.041-0.031
				c0.349-0.714,0.192-1.604-0.436-2.15c-0.58-0.504-1.475-0.569-2.119-0.174l-0.061-0.065l-0.327,0.382l-0.066,0.067l-0.007,0.014
				c-1.091,1.246-2.429,1.85-4.086,1.85c-3.637,0-6.081-2.759-6.081-6.865C297.555,69.995,299.999,67.252,303.636,67.252"/>
			<path class="st11" d="M120.375,70.949l-0.342-0.061c-2.05-0.362-2.883-0.536-2.883-1.228c0-0.716,1.018-1.255,2.367-1.255
				c2.437,0,4.642,1.076,5.746,2.141c0.032,0.031,0.076,0.045,0.12,0.039c0.044-0.006,0.083-0.033,0.105-0.071l2.429-4.199
				c0.037-0.064,0.02-0.145-0.04-0.189c-1.662-1.215-4.469-2.663-8.4-2.663c-2.634,0-4.854,0.69-6.422,1.994
				c-1.448,1.204-2.244,2.872-2.244,4.696c0,5.293,4.978,6.083,8.271,6.605c1.695,0.295,3.297,0.574,3.297,1.423
				c0,1.14-1.377,1.379-2.532,1.379c-1.513,0-3.526-0.573-5.245-1.491c-0.443-0.286-0.951-0.437-1.469-0.437
				c-1.497,0-2.715,1.218-2.715,2.715c0,0.961,0.52,1.851,1.36,2.339c0.012,0.015,0.026,0.027,0.043,0.037
				c2.167,1.208,4.972,1.901,7.697,1.901c5.59,0,9.201-2.641,9.201-6.731C128.719,72.471,123.698,71.555,120.375,70.949"/>
			<path class="st11" d="M84.341,56.527c0-0.08-0.064-0.144-0.144-0.144h-7.081c-0.08,0-0.144,0.064-0.144,0.144V81.57
				c0,2.034,1.655,3.69,3.69,3.69c2.034,0,3.69-1.655,3.69-3.69c0-0.055-0.004-0.11-0.008-0.164L84.341,56.527z"/>
			<path class="st11" d="M101.24,63.464c-3.679,0-5.876,1.808-6.731,2.695v-2.057c0-0.08-0.064-0.144-0.144-0.144h-6.34
				c-0.08,0-0.144,0.065-0.144,0.144l0.001,17.538c-0.011,0.11-0.017,0.221-0.017,0.333c0,1.832,1.491,3.323,3.324,3.323
				c1.832,0,3.323-1.491,3.323-3.323c0-0.017-0.001-0.033-0.004-0.07V71.193c1.016-1.222,2.269-1.842,3.726-1.842
				c2.121,0,3.108,1.001,3.108,3.149l0.001,9.113c-0.013,0.118-0.02,0.238-0.02,0.36c0,1.832,1.491,3.323,3.324,3.323
				c1.832,0,3.323-1.491,3.323-3.329v-12.06C107.971,65.812,105.518,63.464,101.24,63.464"/>
			<path class="st11" d="M190.036,63.464c-6.113,0-10.724,4.54-10.724,10.56c0,6.241,4.528,10.6,11.012,10.6
				c2.351,0,4.736-0.52,6.552-1.428c0.02-0.006,0.038-0.011,0.059-0.02c1.305-0.554,1.916-2.066,1.362-3.371
				c-0.404-0.952-1.333-1.567-2.368-1.567c-0.345,0-0.682,0.069-1.001,0.205c-0.002,0.001-0.008,0.004-0.013,0.007
				c-0.007,0.003-0.013,0.005-0.019,0.008c-1.229,0.643-2.878,0.979-3.871,0.979c-2.774,0-4.388-1.606-4.802-3.253h13.982
				c0.08,0,0.144-0.064,0.144-0.144v-1.359C200.348,67.971,196.204,63.464,190.036,63.464 M186.134,71.78
				c0.325-1.544,1.506-3.129,3.901-3.129c3.155,0,3.818,2.34,3.951,3.129H186.134z"/>
			<path class="st11" d="M143.107,63.464c-2.254,0-4.231,0.882-5.744,2.557v-1.919c0-0.08-0.064-0.144-0.144-0.144h-6.34
				c-0.08,0-0.144,0.065-0.144,0.144v24.615l-0.003,0.046c-0.004,0.052-0.007,0.104-0.007,0.157c0,1.832,1.491,3.324,3.324,3.324
				c1.832,0,3.323-1.491,3.323-3.324c0-0.052-0.003-0.102-0.007-0.153l-0.003-6.741c1.557,1.725,3.488,2.599,5.744,2.599
				c5.389,0,8.871-4.161,8.871-10.601C151.978,67.608,148.496,63.464,143.107,63.464 M145.227,74.024c0,2.82-1.696,4.713-4.22,4.713
				c-1.295,0-2.883-0.751-3.644-1.717v-5.954c0.742-0.981,2.298-1.716,3.644-1.716C143.492,69.35,145.227,71.272,145.227,74.024"/>
			<path class="st11" d="M180.233,66.107c-0.239-1.51-1.52-2.605-3.046-2.605c-0.162,0-0.325,0.013-0.487,0.038
				c-0.136,0.022-0.278,0.056-0.438,0.106c-1.653,0.4-3.287,1.343-4.361,2.501v-2.046c0-0.08-0.065-0.144-0.144-0.144h-6.341
				c-0.079,0-0.144,0.065-0.144,0.144l0.001,17.595c-0.007,0.091-0.014,0.182-0.014,0.275c0,1.833,1.491,3.323,3.324,3.323
				s3.324-1.49,3.324-3.323c0-0.028-0.002-0.056-0.004-0.084l-0.003-10.533c0.824-1.061,2.968-1.716,4.508-1.716
				c0.117,0,0.227,0.005,0.338,0.009c0.143,0.02,0.289,0.03,0.433,0.03h0.001c0.162,0,0.324-0.013,0.484-0.038
				c0.815-0.129,1.531-0.568,2.015-1.235C180.167,67.738,180.362,66.922,180.233,66.107"/>
			<path class="st11" d="M161.075,81.81l0.001-17.708c0-0.038-0.015-0.075-0.042-0.102c-0.027-0.027-0.064-0.042-0.102-0.042h-6.34
				c-0.08,0-0.144,0.065-0.144,0.144v17.635l-0.003,0.038c-0.004,0.066-0.009,0.131-0.009,0.197c0,1.832,1.491,3.323,3.324,3.323
				c1.832,0,3.323-1.491,3.323-3.323c0-0.04-0.002-0.08-0.005-0.119L161.075,81.81z"/>
		</g>
	</g>
</g>
</svg>
