<?xml version="1.0" encoding="utf-8"?>
<!-- Generator: Adobe Illustrator 23.1.1, SVG Export Plug-In . SVG Version: 6.00 Build 0)  -->
<svg version="1.1" id="Layer_1" xmlns="http://www.w3.org/2000/svg" xmlns:xlink="http://www.w3.org/1999/xlink" x="0px" y="0px"
	 viewBox="0 0 400 100" style="enable-background:new 0 0 400 100;" xml:space="preserve">
<style type="text/css">
	.st0{fill:#001631;}
	.st1{fill:#B7C726;}
</style>
<g>
	<path class="st0" d="M19.172,19.678V49.79c3.381,2.024,6.952,3.842,10.678,5.31V19.678H19.172z"/>
	<path class="st1" d="M56.092,61.745c-1.527,1.134-2.743,1.591-4.696,2.146c-2.029,0.582-4.125,0.869-6.269,0.869
		c-3.148,0-6.19-0.548-9.13-1.644c-2.374-0.887-4.424-2.078-6.147-3.579v4.1H19.172V52.309c3.822,2.147,6.669,3.447,10.907,5.058
		C38.125,60.431,47.228,61.903,56.092,61.745"/>
	<path class="st1" d="M75.259,59.095c-0.834,0.234-1.649,0.454-2.493,0.666v3.875h10.627v-7.123
		C80.755,57.517,78.019,58.406,75.259,59.095"/>
	<path class="st1" d="M105.206,54.578V45.45h18.26v-8.511h-11.075c-4.776,5.502-11.282,10.606-17.438,14v12.699h30.686v-9.059
		H105.206z M124.155,19.678c-1.557,3.12-3.248,6.109-5.213,8.948h5.57v-8.948H124.155z"/>
	<path class="st0" d="M120.603,19.678c-0.614,1.412-1.721,3.539-2.814,5.4c-0.655,1.116-1.463,2.47-2.165,3.547h-10.418v8.312h3.946
		c-4.411,4.979-8.76,8.62-14.196,12.128V28.748H83.393l0.043,26.26c-2.677,1.246-5.097,2.001-7.852,2.779
		c-0.828,0.209-1.999,0.523-2.837,0.709l0.02-29.748H60.35V25.99l-4.854,5.119c-0.907-1.162-2.101-2.083-3.57-2.764
		c-1.468-0.688-2.889-1.03-4.258-1.03c-0.701,0-1.413,0.066-2.136,0.191c-0.731,0.117-1.379,0.364-1.956,0.714
		c-0.579,0.35-1.066,0.806-1.461,1.369c-0.395,0.551-0.597,1.267-0.597,2.139c0,0.745,0.16,1.367,0.472,1.866
		c0.309,0.492,0.762,0.931,1.369,1.293c0.596,0.382,1.308,0.717,2.136,1.027c0.831,0.313,1.762,0.638,2.799,0.966
		c1.492,0.495,3.044,1.05,4.656,1.644c1.614,0.606,3.085,1.405,4.406,2.394c1.325,0.991,2.424,2.223,3.297,3.691
		c0.867,1.474,1.301,3.307,1.301,5.497c0,2.526-0.462,4.706-1.397,6.553c-0.821,1.629-1.326,2.468-2.656,3.603
		c-2.582,0-5.992-0.206-8.627-0.482c-6.468-0.673-12.062-1.927-17.877-4.117l4.232-4.313c1.073,1.321,2.491,2.43,4.24,3.32
		c1.765,0.888,3.523,1.331,5.257,1.331c0.785,0,1.553-0.084,2.289-0.244c0.749-0.166,1.407-0.434,1.966-0.813
		c0.555-0.367,0.997-0.862,1.338-1.487c0.324-0.622,0.489-1.367,0.489-2.234c0-0.826-0.206-1.527-0.617-2.104
		c-0.411-0.584-1.007-1.112-1.769-1.591c-0.768-0.476-1.723-0.905-2.855-1.298c-1.139-0.397-2.435-0.826-3.885-1.277
		c-1.41-0.452-2.789-0.987-4.13-1.611c-1.343-0.624-2.544-1.418-3.605-2.394c-1.056-0.972-1.902-2.16-2.547-3.542
		c-0.64-1.38-0.954-3.067-0.954-5.059c0-2.438,0.49-4.531,1.484-6.277c0.999-1.739,2.3-3.159,3.911-4.278
		c1.619-1.117,3.439-1.938,5.469-2.452c2.027-0.518,4.079-0.78,6.139-0.78c2.488,0,5.023,0.451,7.616,1.367
		c1.779,0.62,3.406,1.463,4.883,2.512v-2.761H120.603z"/>
	<rect x="19.243" y="70.511" class="st0" width="106.537" height="0.418"/>
	<path class="st0" d="M126.61,61.41c0-0.311,0.059-0.61,0.181-0.89c0.12-0.278,0.285-0.517,0.494-0.724
		c0.207-0.204,0.446-0.367,0.734-0.49c0.276-0.118,0.574-0.183,0.885-0.183c0.316,0,0.612,0.064,0.893,0.183
		c0.276,0.123,0.525,0.286,0.729,0.49c0.211,0.207,0.377,0.446,0.492,0.724c0.122,0.28,0.184,0.579,0.184,0.89
		c0,0.318-0.063,0.612-0.184,0.884c-0.115,0.28-0.281,0.522-0.492,0.724c-0.204,0.206-0.453,0.367-0.729,0.484
		c-0.281,0.117-0.577,0.173-0.893,0.173c-0.311,0-0.609-0.056-0.885-0.173c-0.288-0.117-0.527-0.278-0.734-0.484
		c-0.209-0.202-0.374-0.444-0.494-0.724C126.67,62.022,126.61,61.728,126.61,61.41 M126.971,61.41c0,0.262,0.059,0.512,0.151,0.744
		c0.1,0.242,0.245,0.444,0.416,0.622c0.174,0.179,0.378,0.319,0.609,0.42c0.237,0.102,0.492,0.151,0.757,0.151
		c0.27,0,0.523-0.049,0.759-0.151c0.232-0.1,0.436-0.24,0.614-0.42c0.174-0.178,0.313-0.38,0.411-0.622
		c0.1-0.232,0.153-0.482,0.153-0.744c0-0.268-0.053-0.522-0.153-0.75c-0.099-0.237-0.237-0.444-0.411-0.617
		c-0.178-0.173-0.382-0.313-0.614-0.415c-0.235-0.102-0.489-0.15-0.759-0.15c-0.265,0-0.52,0.048-0.757,0.15
		c-0.23,0.102-0.434,0.242-0.609,0.415c-0.171,0.173-0.316,0.38-0.416,0.617C127.03,60.889,126.971,61.142,126.971,61.41
		 M128.012,60.109h0.902l0.355,0.044l0.306,0.128l0.212,0.237l0.086,0.347c0,0.191-0.054,0.344-0.165,0.459
		c-0.105,0.12-0.247,0.197-0.433,0.24l0.699,1.127h-0.564l-0.604-1.078h-0.336v1.078h-0.459V60.109z M128.847,61.241l0.383-0.072
		c0.117-0.054,0.181-0.155,0.181-0.311l-0.165-0.281l-0.35-0.071h-0.425v0.735H128.847z"/>
	<path class="st0" d="M28.874,81.148c-0.64-0.821-1.815-1.352-2.789-1.352c-0.976,0-2.197,0.332-2.197,1.573
		c0,1.04,0.931,1.374,2.415,1.84c2.129,0.686,4.875,1.596,4.875,4.721c0,3.608-2.902,5.227-6.004,5.227
		c-2.238,0-4.497-0.821-5.871-2.259l2.481-2.527c0.754,0.953,2.151,1.66,3.389,1.66c1.152,0,2.17-0.443,2.17-1.703
		c0-1.198-1.195-1.573-3.256-2.239c-1.994-0.643-4.01-1.662-4.01-4.498c0-3.478,3.146-4.918,6.071-4.918
		c1.77,0,3.765,0.665,5.139,1.928L28.874,81.148z"/>
	<path class="st0" d="M37.409,84.449v4.211c0,1.018,0.332,1.552,1.372,1.552c0.355,0,0.796-0.069,1.063-0.179l0.046,2.659
		c-0.489,0.176-1.329,0.332-2.106,0.332c-2.945,0-3.921-1.573-3.921-3.921v-4.653h-1.772v-2.726h1.749V78.82h3.569v2.902h2.59v2.726
		H37.409z"/>
	<path class="st0" d="M41.824,83.229c1.283-1.218,3.125-1.861,4.918-1.861c3.7,0,5.073,1.818,5.073,5.826v5.563h-3.32v-1.175h-0.067
		c-0.553,0.908-1.818,1.44-3.123,1.44c-1.751,0-4.011-0.864-4.011-3.457c0-3.189,3.878-3.722,7.088-3.722v-0.178
		c0-1.084-0.862-1.594-1.993-1.594c-1.042,0-2.06,0.51-2.726,1.13L41.824,83.229z M48.494,87.948h-0.467
		c-1.596,0-3.389,0.199-3.389,1.507c0,0.841,0.842,1.129,1.573,1.129c1.463,0,2.284-0.885,2.284-2.257V87.948z"/>
	<path class="st0" d="M61.857,92.757V86.73c0-1.219-0.332-2.327-1.639-2.327c-1.285,0-1.95,1.107-1.95,2.371v5.983h-3.656V81.722
		h3.523v1.53h0.043c0.512-0.976,1.774-1.838,3.302-1.838c2.968,0,4.033,2.304,4.033,4.518v6.825H61.857z"/>
	<path class="st0" d="M76.679,92.757v-1.44h-0.044c-0.709,1.106-2.147,1.747-3.61,1.747c-3.322,0-5.25-2.789-5.25-5.871
		c0-3.077,1.994-5.78,5.204-5.78c1.619,0,2.748,0.754,3.37,1.482h0.044v-6.889h3.631v16.75H76.679z M73.889,84.382
		c-1.729,0-2.615,1.395-2.615,2.812c0,1.441,0.885,2.86,2.615,2.86c1.639,0,2.659-1.395,2.659-2.835
		C76.548,85.822,75.527,84.382,73.889,84.382"/>
	<path class="st0" d="M82.788,83.229c1.283-1.218,3.123-1.861,4.916-1.861c3.702,0,5.074,1.818,5.074,5.826v5.563h-3.322v-1.175
		h-0.066c-0.554,0.908-1.82,1.44-3.125,1.44c-1.749,0-4.011-0.864-4.011-3.457c0-3.189,3.878-3.722,7.09-3.722v-0.178
		c0-1.084-0.864-1.594-1.993-1.594c-1.042,0-2.062,0.51-2.726,1.13L82.788,83.229z M89.457,87.948h-0.466
		c-1.596,0-3.389,0.199-3.389,1.507c0,0.841,0.842,1.129,1.571,1.129c1.464,0,2.284-0.885,2.284-2.257V87.948z"/>
	<path class="st0" d="M102.732,84.691c-0.332-0.086-0.642-0.11-0.93-0.11c-1.95,0-2.593,1.596-2.593,2.504v5.672h-3.633V81.723h3.5
		v1.596h0.046c0.551-1.109,1.639-1.905,2.99-1.905c0.288,0,0.597,0.021,0.777,0.089L102.732,84.691z"/>
	<path class="st0" d="M112.84,92.757v-1.44h-0.044c-0.709,1.106-2.147,1.747-3.61,1.747c-3.322,0-5.25-2.789-5.25-5.871
		c0-3.077,1.994-5.78,5.204-5.78c1.619,0,2.748,0.754,3.37,1.482h0.044v-6.889h3.631v16.75H112.84z M110.049,84.382
		c-1.729,0-2.615,1.395-2.615,2.812c0,1.441,0.885,2.86,2.615,2.86c1.639,0,2.659-1.395,2.659-2.835
		C112.708,85.822,111.688,84.382,110.049,84.382"/>
	<path class="st0" d="M125.714,84.98c-0.578-0.554-1.418-0.995-2.305-0.995c-0.686,0-1.374,0.242-1.374,0.885
		c0,0.622,0.597,0.798,2.016,1.107c1.685,0.377,3.524,1.218,3.524,3.368c0,2.792-2.46,3.768-4.721,3.768
		c-1.793,0-3.654-0.599-4.806-1.708l2.037-2.149c0.643,0.709,1.64,1.239,2.703,1.239c0.597,0,1.308-0.242,1.308-0.951
		c0-0.686-0.688-0.908-2.195-1.264c-1.527-0.352-3.212-1.129-3.212-3.212c0-2.636,2.481-3.7,4.586-3.7
		c1.64,0,3.347,0.533,4.431,1.552L125.714,84.98z"/>
</g>
</svg>
