<?xml version="1.0" encoding="utf-8"?>
<!-- Generator: Adobe Illustrator 23.1.1, SVG Export Plug-In . SVG Version: 6.00 Build 0)  -->
<svg version="1.1" id="Layer_1" xmlns="http://www.w3.org/2000/svg" xmlns:xlink="http://www.w3.org/1999/xlink" x="0px" y="0px"
	 viewBox="0 0 400 100" style="enable-background:new 0 0 400 100;" xml:space="preserve">
<style type="text/css">
	.st0{fill:#F16923;}
	.st1{fill:#5693CE;}
	.st2{fill:#0B54A1;}
	.st3{fill:#88B7E2;}
	.st4{fill:#87B7E2;}
	.st5{fill:#A1CC3A;}
	.st6{fill:#1C8742;}
	.st7{fill:#6497CA;}
	.st8{fill:#80B349;}
	.st9{fill:#F89737;}
</style>
<g>
	<g>
		<rect x="48.385" y="43.85" class="st0" width="4.872" height="22.176"/>
		<polygon class="st0" points="60.224,25.176 66.61,34.869 66.742,34.869 73.195,25.084 73.195,40.044 78.199,40.044 78.199,17.13 
			72.76,17.13 66.742,26.822 60.711,17.13 55.272,17.13 55.272,40.044 60.21,40.044 		"/>
		<path class="st0" d="M15.424,52.752c-3.832-0.988-4.78-1.462-4.78-2.91v-0.066c0-1.08,0.988-1.936,2.844-1.936
			c1.857,0,3.793,0.83,5.768,2.186l2.528-3.674c-2.252-1.804-5.004-2.818-8.23-2.818c-4.53,0-7.756,2.66-7.756,6.677v0.066
			c0,4.398,2.884,5.636,7.348,6.769c3.7,0.948,4.464,1.58,4.464,2.818v0.066c0,1.304-1.198,2.094-3.2,2.094
			c-2.528,0-4.622-1.04-6.624-2.686l-2.884,3.45c2.594,2.291,5.939,3.556,9.402,3.542c4.78,0,8.138-2.476,8.138-6.874v-0.053
			C22.456,55.53,19.927,53.924,15.424,52.752z"/>
		<path class="st0" d="M51.782,28.521c0-6.518-5.07-11.786-12.142-11.786c-7.072,0-12.207,5.333-12.207,11.852v0.066
			c0,6.518,5.07,11.786,12.142,11.786c7.072,0,12.207-5.333,12.207-11.852V28.521z M46.515,28.653c0,3.924-2.818,7.137-6.874,7.137
			c-4.056,0-6.94-3.279-6.94-7.203v-0.066c0-3.924,2.818-7.137,6.874-7.137c4.056,0,6.94,3.279,6.94,7.203V28.653z"/>
		<path class="st0" d="M16.662,40.439c4.425,0,7.045-1.58,9.402-4.095l-3.213-3.239c-1.791,1.633-3.398,2.686-6.018,2.686
			c-3.937,0-6.65-3.279-6.65-7.203v-0.066c0-3.924,2.792-7.137,6.65-7.137c2.291,0,4.082,0.975,5.847,2.581l3.213-3.7
			c-2.133-2.094-4.714-3.529-9.034-3.529c-7.032,0-11.944,5.333-11.944,11.852v0.066C4.915,35.224,9.919,40.426,16.662,40.439z"/>
		<polygon class="st0" points="62.699,57.031 73.142,57.031 73.142,52.686 62.699,52.686 62.699,48.182 74.577,48.182 74.577,43.85 
			57.853,43.85 57.853,66.013 74.736,66.013 74.736,61.68 62.699,61.68 		"/>
		<path class="st0" d="M36.296,61.904c-3.793,0-6.426-3.16-6.426-6.966v-0.066c0-3.806,2.686-6.9,6.426-6.9
			c2.212,0,3.964,0.948,5.663,2.502l3.108-3.582c-2.054-2.028-4.556-3.424-8.744-3.424c-6.808,0-11.562,5.162-11.562,11.457v0.066
			c0,6.36,4.846,11.404,11.365,11.404c4.28,0,6.808-1.514,9.086-3.964l-3.108-3.134C40.378,60.89,38.824,61.904,36.296,61.904z"/>
		<path class="st0" d="M112.727,61.904c-3.806,0-6.426-3.16-6.426-6.966v-0.066c0-3.806,2.686-6.9,6.426-6.9
			c2.212,0,3.964,0.948,5.663,2.502l3.108-3.582c-2.054-2.028-4.556-3.424-8.744-3.424c-6.808,0-11.562,5.162-11.562,11.457v0.066
			c0,6.36,4.846,11.404,11.365,11.404c4.28,0,6.808-1.514,9.086-3.964l-3.108-3.121C116.81,60.89,115.256,61.904,112.727,61.904z"/>
		<polygon class="st0" points="152.576,30.747 163.374,30.747 163.374,26.269 152.576,26.269 152.576,21.608 164.849,21.608 
			164.849,17.13 147.572,17.13 147.572,40.044 165.02,40.044 165.02,35.553 152.589,35.553 		"/>
		<polygon class="st0" points="125.712,21.779 132.678,21.779 132.678,40.044 137.721,40.044 137.721,21.779 144.688,21.779 
			144.688,17.13 125.712,17.13 		"/>
		<path class="st0" d="M182.719,31.853c2.91-1.08,4.912-3.398,4.912-7.098v-0.066c0-4.714-3.24-7.559-8.639-7.559h-10.469v22.914
			h5.044v-7.335h3.964l4.912,7.335h5.886L182.719,31.853z M182.535,25.031c0,1.936-1.409,3.24-3.858,3.24h-5.109v-6.584h5.004
			c2.463,0,3.964,1.106,3.964,3.266V25.031z"/>
		<polygon class="st0" points="93.001,57.506 82.61,43.85 78.12,43.85 78.12,66.013 82.94,66.013 82.94,51.922 93.672,66.013 
			97.82,66.013 97.82,43.85 93.001,43.85 		"/>
		<polygon class="st0" points="129.438,57.031 139.881,57.031 139.881,52.686 129.438,52.686 129.438,48.182 141.317,48.182 
			141.317,43.85 124.592,43.85 124.592,66.013 141.475,66.013 141.475,61.68 129.438,61.68 		"/>
		<path class="st0" d="M92.079,17.13h-9.363v22.914h5.044v-6.887h3.832c5.136,0,9.258-2.739,9.258-8.046v-0.066
			C100.836,20.37,97.531,17.13,92.079,17.13z M95.726,25.229c0,1.962-1.475,3.463-3.99,3.463h-3.99v-7.006h3.898
			c2.528,0,4.095,1.212,4.095,3.463L95.726,25.229z"/>
		<path class="st0" d="M118.153,30.246c0,3.635-1.87,5.491-4.938,5.491c-3.068,0-4.938-1.936-4.938-5.663V17.13h-5.044v13.09
			c0,6.742,3.766,10.179,9.916,10.179c6.15,0,10.048-3.411,10.048-10.337V17.13h-5.044V30.246z"/>
	</g>
	<path class="st1" d="M12.588,78.696v5.036h11.299v4.74H12.588v9.169H7.383V73.956h18.028v4.74H12.588z"/>
	<path class="st1" d="M40.672,98.05c-7.307,0-12.555-5.445-12.555-12.174v-0.071c0-6.729,5.318-12.244,12.625-12.244
		s12.555,5.445,12.555,12.174v0.071C53.297,92.534,47.979,98.05,40.672,98.05z M47.852,85.806c0-4.063-2.976-7.448-7.166-7.448
		s-7.11,3.315-7.11,7.378v0.071c0,4.063,2.976,7.448,7.166,7.448s7.11-3.315,7.11-7.378L47.852,85.806z"/>
	<path class="st1" d="M71.296,97.641l-5.078-7.575h-4.091v7.575h-5.205V73.956h10.834c5.586,0,8.929,2.948,8.929,7.815v0.071
		c0,3.823-2.06,6.221-5.078,7.335l5.784,8.464H71.296z M71.395,82.053c0-2.229-1.552-3.385-4.091-3.385h-5.177v6.799h5.276
		c2.539,0,3.992-1.354,3.992-3.357V82.053z"/>
	<polygon class="st2" points="7.383,73.956 7.383,78.696 25.411,78.696 25.411,73.956 	"/>
	<path class="st3" d="M47.753,85.763h5.445v-0.071c0-6.729-5.247-12.174-12.555-12.174s-12.625,5.516-12.625,12.244h5.445v-0.071
		c0-4.063,2.906-7.378,7.11-7.378S47.753,81.701,47.753,85.763L47.753,85.763z"/>
	<polygon class="st4" points="56.922,78.668 56.922,97.542 62.198,97.542 62.198,78.668 	"/>
	<path class="st5" d="M107.959,97.641l-2.172-5.318H95.771l-2.172,5.318h-5.304l10.156-23.854h4.81l10.142,23.854H107.959z
		 M100.793,80.05l-3.146,7.674h6.291L100.793,80.05z"/>
	<path class="st5" d="M116.728,97.641V73.956h5.205v18.945h11.807v4.74L116.728,97.641z"/>
	<path class="st5" d="M136.646,97.641V73.956h5.219v18.945h11.807v4.74L136.646,97.641z"/>
	<polygon class="st6" points="116.728,92.845 116.728,97.641 133.74,97.697 133.74,92.901 	"/>
	<polygon class="st6" points="136.646,73.942 136.646,97.641 141.893,97.641 141.893,73.942 	"/>
	<polygon class="st6" points="97.605,87.724 95.743,92.323 105.73,92.323 103.938,87.724 	"/>
	<path class="st2" d="M43.645,5.67h1.307c0.924,0,1.487-0.535,1.487-1.532c0-0.941-0.558-1.504-1.487-1.504h-1.307V5.67z
		 M44.434,3.31h0.372c0.541,0,0.839,0.27,0.839,0.822c0,0.608-0.237,0.845-0.839,0.856h-0.372V3.31z M48.99,4.74
		c0.034-0.749-0.36-1.346-1.155-1.346c-0.648,0-1.188,0.484-1.188,1.16c0,0.738,0.49,1.172,1.211,1.172
		c0.496,0,0.963-0.22,1.098-0.732h-0.676c-0.068,0.163-0.237,0.242-0.411,0.242c-0.304,0-0.479-0.197-0.496-0.501L48.99,4.74z
		 M47.368,4.335c0.045-0.27,0.214-0.451,0.467-0.451c0.242,0,0.417,0.203,0.428,0.451H47.368z M49.266,6.407h0.721V5.433h0.011
		c0.146,0.197,0.383,0.315,0.631,0.304c0.625,0,0.929-0.546,0.929-1.121c0-0.62-0.293-1.217-0.986-1.217
		c-0.242-0.006-0.473,0.113-0.608,0.321h-0.011V3.467h-0.687V6.407z M50.404,3.952c0.321,0,0.428,0.31,0.428,0.591
		c0,0.304-0.113,0.636-0.434,0.636s-0.439-0.253-0.439-0.636C49.965,4.087,50.213,3.952,50.404,3.952z M52.499,4.143
		c0.034-0.186,0.163-0.276,0.36-0.276c0.146,0,0.349,0.062,0.349,0.231c0,0.135-0.068,0.18-0.192,0.203
		c-0.501,0.101-1.284,0.045-1.284,0.766c0,0.456,0.332,0.67,0.755,0.67c0.265,0,0.541-0.079,0.727-0.27
		c0.006,0.073,0.023,0.141,0.045,0.208h0.727c-0.084-0.175-0.084-0.377-0.084-0.563V4.143c0-0.625-0.507-0.738-1.031-0.738
		c-0.253,0-0.507,0.045-0.704,0.152c-0.214,0.118-0.344,0.349-0.344,0.591L52.499,4.143z M52.454,5.039
		c0-0.175,0.135-0.242,0.299-0.282c0.163-0.039,0.344-0.056,0.445-0.118c0.017,0.456-0.096,0.653-0.445,0.653
		C52.595,5.287,52.454,5.213,52.454,5.039L52.454,5.039z M54.313,5.67h0.721V4.577c0-0.276,0.186-0.524,0.546-0.524
		c0.096,0,0.186,0.017,0.276,0.045V3.439c-0.056-0.011-0.113-0.017-0.169-0.017c-0.31,0-0.558,0.146-0.665,0.428h-0.006V3.462
		h-0.704V5.67z M57.45,3.462h-0.445v-0.67h-0.727v0.67h-0.366v0.467h0.366v0.98c0,0.597,0.158,0.777,0.777,0.777
		c0.13,0,0.265-0.017,0.394-0.023V5.135c-0.062,0-0.13,0.006-0.186,0.006c-0.158,0-0.259-0.039-0.259-0.214V3.924h0.445V3.462z
		 M57.732,5.67h0.721V4.594c0-0.451,0.113-0.597,0.372-0.597c0.197,0,0.27,0.163,0.27,0.422v1.256h0.721V4.594
		c0-0.355,0.028-0.597,0.338-0.597c0.186,0,0.304,0.141,0.304,0.377V5.67h0.721V4.352c0-0.422-0.079-0.952-0.777-0.952
		c-0.299,0-0.513,0.124-0.687,0.355C59.596,3.49,59.348,3.4,59.073,3.4c-0.259,0-0.501,0.141-0.636,0.366H58.43V3.462h-0.698
		L57.732,5.67z M63.815,4.74c0.034-0.749-0.36-1.346-1.155-1.346c-0.648,0-1.188,0.484-1.188,1.16c0,0.738,0.49,1.172,1.211,1.172
		c0.496,0,0.963-0.22,1.098-0.732h-0.676c-0.068,0.163-0.237,0.242-0.411,0.242c-0.304,0-0.479-0.197-0.496-0.501L63.815,4.74z
		 M62.193,4.335c0.045-0.27,0.214-0.451,0.467-0.451c0.242,0,0.417,0.203,0.428,0.451H62.193z M64.091,5.67h0.721V4.464
		c0-0.242,0.118-0.473,0.394-0.473c0.394,0,0.36,0.304,0.36,0.608v1.07h0.721V4.25c0-0.321-0.062-0.856-0.794-0.856
		c-0.265,0-0.563,0.141-0.693,0.366h-0.006V3.456h-0.698L64.091,5.67z M67.994,3.462h-0.451v-0.67h-0.721v0.67h-0.366v0.467h0.366
		v0.98c0,0.597,0.158,0.777,0.772,0.777c0.13,0,0.265-0.017,0.394-0.023V5.135c-0.062,0-0.13,0.006-0.186,0.006
		c-0.158,0-0.259-0.039-0.259-0.214V3.924h0.451L67.994,3.462L67.994,3.462z M69.38,4.566c0,0.665,0.479,1.166,1.16,1.166
		c0.682,0,1.166-0.501,1.166-1.166s-0.479-1.172-1.166-1.172S69.38,3.901,69.38,4.566L69.38,4.566z M70.106,4.566
		c0-0.282,0.101-0.62,0.439-0.62s0.445,0.338,0.445,0.62c0,0.282-0.107,0.614-0.445,0.614S70.101,4.847,70.106,4.566L70.106,4.566z
		 M72.117,5.67h0.721v-1.74h0.434V3.462h-0.434V3.366c0-0.203,0.101-0.22,0.27-0.22c0.068,0,0.13,0.006,0.197,0.011V2.645
		c-0.113-0.006-0.237-0.011-0.349-0.011c-0.62,0-0.839,0.197-0.839,0.828h-0.349v0.467h0.349V5.67z M43.645,10.345h2.461V9.663
		h-1.673v-0.58h1.487V8.469h-1.487V7.934h1.628V7.297H43.64v3.047H43.645z M48.624,7.303h-0.721v1.07h-0.011
		c-0.146-0.197-0.383-0.315-0.631-0.304c-0.625,0-0.929,0.546-0.929,1.121c0,0.62,0.293,1.217,0.986,1.217
		c0.242,0.006,0.473-0.113,0.608-0.321h0.011v0.253h0.687V7.303z M47.498,8.627c0.315,0,0.428,0.293,0.428,0.614
		c0,0.282-0.079,0.62-0.428,0.62c-0.332,0-0.439-0.338-0.439-0.636C47.053,8.936,47.166,8.627,47.498,8.627z M51.227,8.137h-0.721
		v1.183c0,0.394-0.237,0.496-0.394,0.496c-0.231,0-0.355-0.101-0.355-0.394V8.137H49.03v1.329c0,0.58,0.186,0.946,0.817,0.946
		c0.27,0,0.524-0.141,0.67-0.366h0.011v0.304h0.704L51.227,8.137z M53.772,8.948c-0.051-0.58-0.541-0.873-1.087-0.873
		c-0.71,0-1.155,0.501-1.155,1.205c0,0.676,0.496,1.132,1.155,1.132c0.586,0,1.048-0.338,1.11-0.929h-0.704
		C53.057,9.714,52.928,9.86,52.68,9.86c-0.304,0-0.428-0.293-0.428-0.58c0-0.304,0.062-0.648,0.467-0.648
		c0.186-0.011,0.344,0.135,0.355,0.321L53.772,8.948z M54.713,8.818c0.034-0.186,0.163-0.276,0.36-0.276
		c0.146,0,0.349,0.062,0.349,0.231c0,0.135-0.068,0.18-0.192,0.203c-0.501,0.101-1.284,0.045-1.284,0.766
		c0,0.456,0.332,0.67,0.755,0.67c0.265,0,0.541-0.079,0.727-0.27c0.006,0.073,0.023,0.141,0.045,0.208H56.2
		c-0.084-0.175-0.084-0.377-0.084-0.563V8.818c0-0.625-0.507-0.738-1.031-0.738c-0.248,0-0.507,0.045-0.704,0.152
		c-0.214,0.118-0.344,0.349-0.344,0.591L54.713,8.818z M54.668,9.714c0-0.175,0.135-0.242,0.299-0.282s0.344-0.056,0.445-0.118
		c0.017,0.456-0.096,0.653-0.445,0.653C54.809,9.962,54.668,9.888,54.668,9.714L54.668,9.714z M57.816,8.137h-0.445v-0.67h-0.721
		v0.67h-0.372v0.467h0.366v0.98c0,0.597,0.158,0.777,0.772,0.777c0.13,0,0.265-0.017,0.394-0.023V9.809
		c-0.062,0-0.13,0.006-0.186,0.006c-0.158,0-0.259-0.039-0.259-0.214V8.598h0.445L57.816,8.137z M58.83,7.309h-0.721v0.552h0.721
		V7.309z M58.109,10.345h0.721V8.137h-0.721V10.345z M59.134,9.241c0,0.665,0.479,1.166,1.16,1.166s1.166-0.501,1.166-1.166
		c0-0.665-0.479-1.172-1.166-1.172C59.608,8.069,59.134,8.576,59.134,9.241z M59.855,9.241c0-0.282,0.101-0.62,0.439-0.62
		s0.445,0.338,0.445,0.62c0,0.282-0.107,0.614-0.445,0.614S59.855,9.522,59.855,9.241z M61.754,10.345h0.721V9.139
		c0-0.242,0.118-0.473,0.394-0.473c0.394,0,0.36,0.304,0.36,0.608v1.07h0.721V8.925c0-0.321-0.062-0.856-0.794-0.856
		c-0.265,0-0.563,0.141-0.693,0.366h-0.006V8.131h-0.704V10.345L61.754,10.345z"/>
	<g>
		<polygon class="st7" points="39.043,1.95 31.851,1.95 29.694,4.107 29.694,11.299 31.851,13.456 39.043,13.456 41.2,11.299 
			41.2,9.142 40.479,8.421 36.886,8.421 36.886,9.142 34.008,9.142 34.008,6.264 36.886,6.264 36.886,6.974 40.479,6.974 
			41.2,6.264 41.2,4.107 		"/>
		<polygon class="st8" points="17.467,1.95 14.595,1.95 13.874,2.671 13.874,5.543 10.276,1.95 7.403,1.95 6.682,2.671 
			6.682,12.735 7.403,13.456 10.276,13.456 10.996,12.735 10.996,9.863 14.595,13.456 14.595,13.456 17.467,13.456 18.188,12.735 
			18.188,2.671 		"/>
		<polygon class="st9" points="22.502,13.456 25.38,13.456 26.101,12.735 26.101,10.578 29.694,6.985 29.694,2.671 28.973,1.95 
			26.101,1.95 25.38,2.671 25.38,4.107 23.938,5.543 22.502,4.107 22.502,4.107 22.502,2.671 21.781,1.95 18.909,1.95 18.188,2.671 
			18.188,6.985 21.781,10.578 21.781,12.735 		"/>
	</g>
</g>
</svg>
