<?xml version="1.0" encoding="utf-8"?>
<!-- Generator: Adobe Illustrator 23.1.1, SVG Export Plug-In . SVG Version: 6.00 Build 0)  -->
<svg version="1.1" id="Layer_1" xmlns="http://www.w3.org/2000/svg" xmlns:xlink="http://www.w3.org/1999/xlink" x="0px" y="0px"
	 viewBox="0 0 400 100" style="enable-background:new 0 0 400 100;" xml:space="preserve">
<style type="text/css">
	.st0{fill:#FFFFFF;}
</style>
<g>
	<g>
		<path d="M66.274,17.562H43.618c-3.806,0-6.92,3.114-6.92,6.92v22.656c0,3.806,3.114,6.92,6.92,6.92h22.656
			c3.806,0,6.92-3.114,6.92-6.92V24.482C73.194,20.676,70.08,17.562,66.274,17.562z"/>
		<path d="M66.274,58.116H43.618c-3.806,0-6.92,3.114-6.92,6.92v22.656c0,3.806,3.114,6.92,6.92,6.92h22.656
			c3.806,0,6.92-3.114,6.92-6.92V65.036C73.194,61.23,70.08,58.116,66.274,58.116z"/>
		<path d="M107.036,17.562H84.38c-3.806,0-6.92,3.114-6.92,6.92v22.656c0,3.806,3.114,6.92,6.92,6.92h22.656
			c3.806,0,6.92-3.114,6.92-6.92V24.482C113.956,20.676,110.842,17.562,107.036,17.562z"/>
		<path d="M107.036,58.116H84.38c-3.806,0-6.92,3.114-6.92,6.92v22.656c0,3.806,3.114,6.92,6.92,6.92h22.656
			c3.806,0,6.92-3.114,6.92-6.92V65.036C113.956,61.23,110.842,58.116,107.036,58.116z"/>
	</g>
	<g>
		<path class="st0" d="M95.741,28.296c-4.143,0-7.514,3.371-7.514,7.514s3.371,7.514,7.514,7.514s7.513-3.371,7.513-7.514
			S99.884,28.296,95.741,28.296z M95.741,41.247c-2.998,0-5.438-2.439-5.438-5.438s2.439-5.438,5.438-5.438
			c2.998,0,5.437,2.439,5.437,5.438S98.739,41.247,95.741,41.247z"/>
		<path class="st0" d="M54.946,68.851h-5.845v15.027h5.845c4.143,0,7.514-3.371,7.514-7.514
			C62.46,72.221,59.089,68.851,54.946,68.851z M54.946,81.802h-3.769V70.927h3.769c2.998,0,5.438,2.439,5.438,5.437
			C60.384,79.362,57.944,81.802,54.946,81.802z"/>
		<path class="st0" d="M56.135,43.323c1.892,0,3.728-0.647,5.169-1.823c0.444-0.362,0.511-1.016,0.148-1.46
			c-0.363-0.445-1.017-0.512-1.46-0.148c-1.071,0.874-2.441,1.356-3.856,1.356c-3.227,0-5.853-2.439-5.853-5.438
			s2.626-5.438,5.853-5.438c1.416,0,2.785,0.481,3.856,1.356c0.443,0.362,1.098,0.295,1.46-0.148
			c0.363-0.444,0.296-1.098-0.148-1.46c-1.44-1.176-3.276-1.823-5.169-1.823c-4.372,0-7.929,3.371-7.929,7.514
			S51.763,43.323,56.135,43.323z"/>
		<path class="st0" d="M99.153,70.927c0.573,0,1.038-0.465,1.038-1.038s-0.465-1.038-1.038-1.038h-7.927v15.027h7.927
			c0.573,0,1.038-0.465,1.038-1.038s-0.465-1.038-1.038-1.038h-5.851v-4.4h5.851c0.573,0,1.038-0.465,1.038-1.038
			s-0.465-1.038-1.038-1.038h-5.851v-4.399H99.153z"/>
	</g>
</g>
</svg>
