<?xml version="1.0" encoding="utf-8"?>
<!-- Generator: Adobe Illustrator 23.1.1, SVG Export Plug-In . SVG Version: 6.00 Build 0)  -->
<svg version="1.1" id="Layer_1" xmlns="http://www.w3.org/2000/svg" xmlns:xlink="http://www.w3.org/1999/xlink" x="0px" y="0px"
	 viewBox="0 0 400 100" style="enable-background:new 0 0 400 100;" xml:space="preserve">
<style type="text/css">
	.st0{fill:#F27423;}
	.st1{fill:#4E4E50;}
</style>
<g>
	<g>
		<path class="st0" d="M36.582,65.612c-0.726,0-1.283-0.554-1.283-1.283c0-0.724,0.556-1.283,1.283-1.283h4.148
			c0.727,0,1.283,0.558,1.283,1.283v2.139c2.863-2.653,5.258-3.848,7.994-3.848c3.507,0,5.131,1.924,5.644,4.018
			c2.821-2.823,5.601-4.018,8.465-4.018c5.131,0,5.9,3.805,5.9,6.115v12.912h2.224c0.726,0,1.283,0.554,1.283,1.283
			c0,0.724-0.556,1.283-1.283,1.283h-8.082c-0.726,0-1.283-0.558-1.283-1.283c0-0.729,0.556-1.283,1.283-1.283h2.395V68.991
			c0-2.052-1.07-3.379-3.334-3.379c-2.31,0-4.747,1.368-7.182,3.635v12.4h2.222c0.727,0,1.283,0.554,1.283,1.283
			c0,0.724-0.556,1.283-1.283,1.283h-8.081c-0.726,0-1.283-0.558-1.283-1.283c0-0.729,0.556-1.283,1.283-1.283h2.395V68.991
			c0-2.052-1.067-3.379-3.334-3.379c-2.31,0-4.745,1.368-7.14,3.635v12.4h2.395c0.726,0,1.283,0.554,1.283,1.283
			c0,0.724-0.556,1.283-1.283,1.283H25.038c-0.726,0-1.283-0.558-1.283-1.283c0-0.729,0.556-1.283,1.283-1.283h2.908l-2.693-9.279
			H15.12l-2.608,9.279h2.906c0.729,0,1.283,0.554,1.283,1.283c0,0.724-0.554,1.283-1.283,1.283H6.184
			c-0.726,0-1.283-0.558-1.283-1.283c0-0.729,0.556-1.283,1.283-1.283H8.92l7.568-24.798h-3.635c-0.726,0-1.283-0.556-1.283-1.283
			c0-0.726,0.556-1.283,1.283-1.283h9.279c0.854,0,1.453,0.514,1.666,1.283l7.996,26.081h6.842V65.612H36.582 M20.85,56.849h-1.24
			L16.017,69.59h8.38L20.85,56.849z M81.902,66.469c1.453-2.352,3.976-3.848,7.225-3.848c5.559,0,9.364,4.189,9.364,10.902
			c0,6.541-3.592,11.115-9.492,11.115c-2.866,0-5.431-1.07-7.012-3.635v10.048h3.079c0.726,0,1.283,0.556,1.283,1.283
			c0,0.726-0.556,1.283-1.283,1.283h-8.936c-0.727,0-1.283-0.556-1.283-1.283c0-0.727,0.556-1.283,1.283-1.283h2.395v-25.44h-2.054
			c-0.727,0-1.283-0.554-1.283-1.283c0-0.724,0.556-1.283,1.283-1.283h4.149c0.726,0,1.283,0.558,1.283,1.283V66.469z
			 M95.027,73.651c0-5.559-2.949-8.164-6.541-8.164c-3.592,0-6.541,2.605-6.541,8.164c0,5.557,2.949,8.167,6.541,8.167
			C92.121,81.818,95.027,79.207,95.027,73.651z M108.495,81.647h2.821c0.729,0,1.283,0.554,1.283,1.283
			c0,0.724-0.554,1.283-1.283,1.283h-9.106c-0.726,0-1.283-0.558-1.283-1.283c0-0.729,0.556-1.283,1.283-1.283h2.823V55.995h-2.823
			c-0.726,0-1.283-0.558-1.283-1.283c0-0.729,0.556-1.283,1.283-1.283h5.003c0.727,0,1.283,0.554,1.283,1.283V81.647z
			 M122.305,81.647h2.821c0.726,0,1.283,0.554,1.283,1.283c0,0.724-0.556,1.283-1.283,1.283h-9.106
			c-0.726,0-1.283-0.558-1.283-1.283c0-0.729,0.556-1.283,1.283-1.283h2.821V65.612h-2.821c-0.726,0-1.283-0.554-1.283-1.283
			c0-0.724,0.556-1.283,1.283-1.283h5.003c0.726,0,1.283,0.558,1.283,1.283V81.647z M120.336,53.855
			c1.626,0,2.908,1.283,2.908,2.908c0,1.581-1.283,2.863-2.908,2.863c-1.581,0-2.863-1.283-2.863-2.863
			C117.473,55.138,118.756,53.855,120.336,53.855z M163.773,63.047c0.729,0,1.283,0.558,1.283,1.283
			c0,0.729-0.554,1.283-1.283,1.283h-1.581l-7.781,18.556c-2.265,5.386-4.061,9.577-10.046,9.577c-1.155,0-2.267-0.17-2.951-0.383
			c-1.924-0.644-1.155-3.209,0.471-2.908c0.769,0.128,1.623,0.343,2.352,0.343c1.836,0,3.119-0.644,4.061-1.711
			c0.94-1.07,1.666-2.565,2.137-3.678l0.428-1.025l-7.483-18.771h-7.267v16.035h3.249c0.726,0,1.283,0.554,1.283,1.283
			c0,0.724-0.556,1.283-1.283,1.283h-9.535c-0.726,0-1.283-0.558-1.283-1.283c0-0.729,0.556-1.283,1.283-1.283h2.821V65.612h-2.821
			c-0.726,0-1.283-0.554-1.283-1.283c0-0.724,0.556-1.283,1.283-1.283h2.821v-2.991c0-4.66,3.036-7.355,7.44-7.355
			c1.839,0,3.507,0.386,4.574,0.769c1.967,0.684,1.155,3.592-1.025,2.823c-0.899-0.298-2.097-0.641-3.337-0.641
			c-3.034,0-4.189,2.009-4.189,4.705v2.691h13.124c0.727,0,1.283,0.558,1.283,1.283c0,0.729-0.556,1.283-1.283,1.283h-2.265
			l5.814,15.008l5.985-15.008h-2.437c-0.727,0-1.283-0.554-1.283-1.283c0-0.724,0.556-1.283,1.283-1.283H163.773z"/>
	</g>
	<g>
		<path class="st1" d="M186.844,56.25c-1.967-0.471-4.018-0.769-5.769-0.769c-3.933,0-7.866,1.626-7.866,5.942
			c0,8.806,16.887,4.747,16.887,14.58c0,5.131-3.462,8.635-11.033,8.635c-3.119,0-5.471-0.727-6.711-1.24
			c-0.641-0.256-0.984-0.684-0.984-1.496V77.03c0-0.514,0.388-0.899,0.899-0.899c0.514,0,0.857,0.386,0.897,0.899l0.258,4.787
			c1.754,0.639,3.76,1.197,5.9,1.197c4.404,0,8.851-1.711,8.851-6.756c0-2.608-1.453-4.018-3.678-5.003
			c-4.958-2.222-13.167-2.395-13.167-9.748c0-5.559,4.702-7.653,9.875-7.653c2.608,0,4.747,0.298,6.799,0.942
			c0.639,0.256,0.982,0.684,0.982,1.496l-0.085,4.832c0,0.513-0.383,0.897-0.897,0.897s-0.857-0.383-0.899-0.897L186.844,56.25"/>
		<path class="st1" d="M210.843,69.077c0,0.469-0.341,0.854-0.812,0.854c-0.471,0-0.727-0.386-0.854-0.812l-0.17-0.514
			c-0.684-2.052-2.182-4.103-5.303-4.103c-3.76,0-6.969,2.863-6.969,9.106c0,6.243,3.379,9.322,7.656,9.322
			c1.453,0,3.162-0.3,5.216-1.541c0.724-0.426,1.408,0,1.408,0.599c0,0.684-0.854,1.197-1.453,1.496
			c-1.112,0.556-2.949,1.155-5.429,1.155c-5.173,0-9.404-3.55-9.404-10.86c0-7.31,4.018-10.945,8.848-10.945
			c2.48,0,4.662,1.197,5.557,2.738l0.13-1.756c0.043-1.067,1.496-0.94,1.496,0.045L210.843,69.077"/>
		<path class="st1" d="M219.684,63.262c0.428,0,0.812,0.383,0.812,0.812v18.513h2.823c0.426,0,0.812,0.383,0.812,0.812
			c0,0.426-0.386,0.814-0.812,0.814h-7.653c-0.426,0-0.814-0.388-0.814-0.814c0-0.428,0.388-0.812,0.814-0.812h2.823V64.888h-2.823
			c-0.426,0-0.814-0.386-0.814-0.814s0.388-0.812,0.814-0.812H219.684 M219.343,53.855c1.112,0,2.009,0.897,2.009,2.009
			c0,1.112-0.897,2.012-2.009,2.012c-1.112,0-2.012-0.899-2.012-2.012C217.331,54.752,218.231,53.855,219.343,53.855z"/>
		<path class="st1" d="M235.721,62.834c4.747,0,7.781,3.207,7.781,8.851v0.213c0,0.984-0.556,1.41-1.41,1.41h-13.34v0.3
			c0,6.498,3.763,9.322,7.909,9.322c1.453,0,3.164-0.3,5.216-1.541c0.729-0.426,1.413,0,1.413,0.599
			c0,0.684-0.854,1.197-1.453,1.496c-1.112,0.556-2.908,1.155-5.389,1.155c-5.173,0-9.747-3.635-9.747-10.945
			C226.7,66.639,230.634,62.834,235.721,62.834 M228.84,71.727h12.781c0-5.003-2.565-7.267-5.942-7.267
			C232.044,64.46,229.223,67.323,228.84,71.727z"/>
		<path class="st1" d="M255.825,82.587c0.428,0,0.814,0.383,0.814,0.812c0,0.426-0.386,0.814-0.814,0.814h-7.653
			c-0.426,0-0.812-0.388-0.812-0.814c0-0.428,0.386-0.812,0.812-0.812h2.823V64.888h-2.823c-0.426,0-0.812-0.386-0.812-0.814
			s0.386-0.812,0.812-0.812h4.021c0.426,0,0.809,0.383,0.809,0.812v3.164c3.422-2.693,6.373-4.404,9.279-4.404
			c4.83,0,5.389,3.337,5.389,5.729v14.024h2.821c0.428,0,0.812,0.383,0.812,0.812c0,0.426-0.383,0.814-0.812,0.814h-7.653
			c-0.428,0-0.812-0.388-0.812-0.814c0-0.428,0.383-0.812,0.812-0.812h2.821V68.563c0-2.222-0.854-3.891-3.334-3.891
			c-2.908,0-5.599,1.709-9.322,4.404v13.51H255.825"/>
		<path class="st1" d="M289.864,69.077c0,0.469-0.343,0.854-0.812,0.854c-0.471,0-0.729-0.386-0.854-0.812l-0.173-0.514
			c-0.684-2.052-2.182-4.103-5.301-4.103c-3.763,0-6.969,2.863-6.969,9.106c0,6.243,3.377,9.322,7.653,9.322
			c1.453,0,3.164-0.3,5.216-1.541c0.726-0.426,1.41,0,1.41,0.599c0,0.684-0.854,1.197-1.453,1.496
			c-1.112,0.556-2.949,1.155-5.429,1.155c-5.175,0-9.407-3.55-9.407-10.86c0-7.31,4.018-10.945,8.848-10.945
			c2.48,0,4.662,1.197,5.559,2.738l0.13-1.756c0.04-1.067,1.496-0.94,1.496,0.045L289.864,69.077"/>
		<path class="st1" d="M303.015,62.834c4.747,0,7.781,3.207,7.781,8.851v0.213c0,0.984-0.554,1.41-1.408,1.41h-13.34v0.3
			c0,6.498,3.763,9.322,7.909,9.322c1.453,0,3.164-0.3,5.216-1.541c0.727-0.426,1.41,0,1.41,0.599c0,0.684-0.854,1.197-1.453,1.496
			c-1.11,0.556-2.906,1.155-5.386,1.155c-5.175,0-9.747-3.635-9.747-10.945C293.996,66.639,297.929,62.834,303.015,62.834
			 M296.133,71.727h12.781c0-5.003-2.565-7.267-5.94-7.267C299.34,64.46,296.516,67.323,296.133,71.727z"/>
	</g>
</g>
</svg>
