<?xml version="1.0" encoding="utf-8"?>
<!-- Generator: Adobe Illustrator 23.1.1, SVG Export Plug-In . SVG Version: 6.00 Build 0)  -->
<svg version="1.1" id="Layer_1" xmlns="http://www.w3.org/2000/svg" xmlns:xlink="http://www.w3.org/1999/xlink" x="0px" y="0px"
	 viewBox="0 0 400 100" style="enable-background:new 0 0 400 100;" xml:space="preserve">
<style type="text/css">
	.st0{fill:#323F99;}
	.st1{fill:#F47820;}
	.st2{fill:#7EB041;}
	.st3{fill:#96C63D;}
	.st4{fill:#F8961D;}
	.st5{fill:#485EAA;}
</style>
<g>
	<g>
		<polygon class="st0" points="67.073,30.884 64.481,24.056 62.929,24.056 62.929,34.918 64.481,34.918 64.481,28.091 
			67.073,34.918 68.625,34.918 68.625,24.056 67.073,24.056 		"/>
		<polygon class="st0" points="72.039,30.123 74.739,30.123 74.739,28.727 72.039,28.727 72.039,25.53 75.096,25.53 75.096,24.056 
			70.487,24.056 70.487,34.918 75.142,34.918 75.142,33.444 72.039,33.444 		"/>
		<polygon class="st0" points="82.017,24.056 80.31,24.056 79.053,27.47 77.812,24.056 76.167,24.056 78.246,29.177 75.918,34.918 
			77.625,34.918 79.053,30.992 80.589,34.918 82.234,34.918 79.876,29.177 		"/>
		<polygon class="st0" points="82.778,25.53 84.702,25.53 84.702,34.918 86.254,34.918 86.254,25.53 88.178,25.53 88.178,24.056 
			82.778,24.056 		"/>
		<path class="st0" d="M94.918,23.901c-0.59,0-1.567,0.155-2.188,1.024c-0.481,0.667-0.512,1.335-0.512,1.986v5.493
			c0,0.497,0.062,1.272,0.559,1.893c0.512,0.636,1.164,0.776,1.722,0.776c0.264,0,0.76-0.015,1.211-0.264
			c0.233-0.124,0.528-0.341,0.745-0.729l0.404,0.838h0.776v-5.928h-2.871v1.397h1.319v1.458c0,0.388,0,0.916-0.279,1.273
			c-0.202,0.264-0.574,0.435-0.9,0.435c-0.373,0-0.683-0.155-0.869-0.388c-0.248-0.326-0.264-0.791-0.264-1.117v-5.09
			c0-0.388,0-0.791,0.295-1.148c0.186-0.217,0.465-0.388,0.869-0.388c0.419,0,0.683,0.155,0.838,0.31
			c0.279,0.279,0.31,0.621,0.31,0.885v0.543h1.552v-0.434c0-1.009-0.372-1.707-0.791-2.126
			C96.407,24.164,95.725,23.901,94.918,23.901z"/>
		<polygon class="st0" points="101.237,30.123 103.937,30.123 103.937,28.727 101.237,28.727 101.237,25.53 104.294,25.53 
			104.294,24.056 99.685,24.056 99.685,34.918 104.341,34.918 104.341,33.444 101.237,33.444 		"/>
		<polygon class="st0" points="110.21,30.884 107.619,24.056 106.067,24.056 106.067,34.918 107.619,34.918 107.619,28.091 
			110.21,34.918 111.762,34.918 111.762,24.056 110.21,24.056 		"/>
		<polygon class="st0" points="115.177,30.123 117.877,30.123 117.877,28.727 115.177,28.727 115.177,25.53 118.234,25.53 
			118.234,24.056 113.625,24.056 113.625,34.918 118.28,34.918 118.28,33.444 115.177,33.444 		"/>
		<path class="st0" d="M124.96,29.347c0.326-0.372,0.574-1.024,0.574-1.722v-0.822c0-0.807-0.217-1.459-0.574-1.893
			c-0.729-0.9-1.878-0.853-2.669-0.853h-2.033v10.863h1.552v-4.686h0.916l1.505,4.686h1.614l-1.707-5.012
			C124.417,29.798,124.727,29.611,124.96,29.347z M123.982,27.501c0,0.419-0.015,0.683-0.326,0.978
			c-0.295,0.279-0.621,0.357-0.962,0.357h-0.885v-3.383h0.807c0.326,0,0.698-0.031,1.009,0.279c0.202,0.202,0.357,0.574,0.357,0.993
			V27.501z"/>
		<path class="st0" d="M129.111,24.056l-2.374,10.863h1.552l0.512-2.328h1.986l0.512,2.328h1.552l-2.374-10.863H129.111z
			 M128.956,31.21l0.807-4.128l0.838,4.128H128.956z"/>
		<polygon class="st0" points="132.479,25.53 134.403,25.53 134.403,34.918 135.955,34.918 135.955,25.53 137.879,25.53 
			137.879,24.056 132.479,24.056 		"/>
		<rect x="139.372" y="24.056" class="st0" width="1.552" height="10.863"/>
		<path class="st0" d="M145.692,23.901c-0.807,0-1.443,0.264-1.909,0.698c-0.745,0.698-0.807,1.49-0.807,2.312v5.152
			c0,0.822,0.062,1.614,0.807,2.312c0.466,0.434,1.102,0.698,1.909,0.698c0.807,0,1.443-0.264,1.909-0.698
			c0.745-0.699,0.807-1.49,0.807-2.312v-5.152c0-0.822-0.062-1.614-0.807-2.312C147.135,24.164,146.499,23.901,145.692,23.901z
			 M146.855,32.296c0,0.326-0.031,0.652-0.326,0.947c-0.171,0.171-0.45,0.31-0.838,0.31c-0.388,0-0.667-0.14-0.838-0.31
			c-0.295-0.295-0.326-0.621-0.326-0.947v-5.618c0-0.326,0.031-0.652,0.326-0.947c0.171-0.171,0.45-0.31,0.838-0.31
			c0.388,0,0.667,0.14,0.838,0.31c0.295,0.295,0.326,0.621,0.326,0.947V32.296z"/>
		<polygon class="st0" points="154.351,24.056 154.351,30.884 151.759,24.056 150.208,24.056 150.208,34.918 151.759,34.918 
			151.759,28.091 154.351,34.918 155.903,34.918 155.903,24.056 		"/>
	</g>
	<g>
		<path class="st1" d="M80.346,74.156l-0.963-0.347c-0.237-0.095-0.552-0.221-0.726-0.489c-0.205-0.3-0.252-0.852-0.252-1.152
			c0-0.363,0.032-0.805,0.331-1.12c0.252-0.252,0.552-0.3,0.773-0.3c0.458,0,0.694,0.189,0.836,0.363
			c0.252,0.316,0.268,0.773,0.268,1.01v0.3h1.578v-0.363c0-1.83-1.057-2.856-2.635-2.856c-0.726,0-1.389,0.174-1.909,0.679
			c-0.458,0.442-0.82,1.136-0.82,2.051v0.316c0,0.552,0.016,1.105,0.237,1.61c0.316,0.742,0.884,1.026,1.452,1.231l1.152,0.41
			c0.174,0.063,0.552,0.205,0.757,0.489c0.205,0.284,0.252,0.758,0.252,1.136v0.41c0,0.331-0.016,0.789-0.252,1.089
			c-0.126,0.158-0.395,0.394-0.994,0.394c-0.205,0-0.6-0.031-0.868-0.363c-0.221-0.284-0.252-0.726-0.252-0.978v-0.3h-1.578v0.363
			c0,0.142,0,1.184,0.505,1.862c0.363,0.505,1.089,0.963,2.209,0.963c0.915,0,1.641-0.3,2.051-0.726
			c0.458-0.473,0.757-1.326,0.757-2.446v-0.379c0-0.694-0.047-1.325-0.473-1.909C81.372,74.535,80.819,74.33,80.346,74.156z"/>
		<polygon class="st1" points="88.378,69.359 82.886,69.359 82.886,70.858 84.843,70.858 84.843,80.405 86.421,80.405 
			86.421,70.858 88.378,70.858 		"/>
		<path class="st1" d="M90.665,69.359l-2.414,11.046h1.578l0.521-2.367h2.02l0.521,2.367h1.578l-2.414-11.046H90.665z
			 M90.507,76.633l0.82-4.197l0.852,4.197H90.507z"/>
		<polygon class="st1" points="99.785,76.302 97.15,69.359 95.572,69.359 95.572,80.405 97.15,80.405 97.15,73.462 99.785,80.405 
			101.363,80.405 101.363,69.359 99.785,69.359 		"/>
		<path class="st1" d="M105.387,69.359h-2.13v11.046h2.351c0.615,0,1.531-0.11,2.225-0.868c0.631-0.694,0.71-1.499,0.71-2.256
			v-4.876c0-0.473-0.047-1.641-0.852-2.383C106.997,69.391,106.05,69.359,105.387,69.359z M106.965,77.185
			c0,0.363-0.031,0.931-0.363,1.294c-0.316,0.331-0.726,0.379-1.057,0.379h-0.71v-7.953h0.805c0.395,0,0.726,0,1.026,0.363
			c0.253,0.316,0.3,0.71,0.3,1.026V77.185z"/>
		<path class="st1" d="M112.06,69.359l-2.414,11.046h1.578l0.521-2.367h2.02l0.521,2.367h1.578l-2.414-11.046H112.06z
			 M111.903,76.633l0.82-4.197l0.852,4.197H111.903z"/>
		<path class="st1" d="M121.749,74.74c0.331-0.379,0.584-1.041,0.584-1.752v-0.836c0-0.821-0.221-1.483-0.584-1.925
			c-0.742-0.915-1.909-0.868-2.714-0.868h-2.067v11.046h1.578v-4.765h0.931l1.531,4.765h1.641l-1.736-5.097
			C121.196,75.197,121.512,75.008,121.749,74.74z M120.755,72.862c0,0.426-0.016,0.694-0.331,0.994
			c-0.3,0.284-0.631,0.363-0.978,0.363h-0.899v-3.44h0.82c0.331,0,0.71-0.031,1.026,0.284c0.205,0.205,0.363,0.584,0.363,1.01
			V72.862z"/>
		<path class="st1" d="M126.623,69.359h-2.13v11.046h2.351c0.615,0,1.531-0.11,2.225-0.868c0.631-0.694,0.71-1.499,0.71-2.256
			v-4.876c0-0.473-0.047-1.641-0.852-2.383C128.233,69.391,127.286,69.359,126.623,69.359z M128.201,77.185
			c0,0.363-0.031,0.931-0.363,1.294c-0.316,0.331-0.726,0.379-1.057,0.379h-0.71v-7.953h0.805c0.395,0,0.726,0,1.026,0.363
			c0.253,0.316,0.3,0.71,0.3,1.026V77.185z"/>
		<path class="st1" d="M136.422,75.103c-0.41-0.568-0.963-0.773-1.436-0.947l-0.963-0.347c-0.237-0.095-0.552-0.221-0.726-0.489
			c-0.205-0.3-0.252-0.852-0.252-1.152c0-0.363,0.031-0.805,0.331-1.12c0.252-0.252,0.552-0.3,0.773-0.3
			c0.457,0,0.694,0.189,0.836,0.363c0.252,0.316,0.268,0.773,0.268,1.01v0.3h1.578v-0.363c0-1.83-1.057-2.856-2.635-2.856
			c-0.726,0-1.389,0.174-1.909,0.679c-0.457,0.442-0.82,1.136-0.82,2.051v0.316c0,0.552,0.016,1.105,0.237,1.61
			c0.316,0.742,0.884,1.026,1.452,1.231l1.152,0.41c0.174,0.063,0.552,0.205,0.758,0.489c0.205,0.284,0.252,0.758,0.252,1.136v0.41
			c0,0.331-0.016,0.789-0.252,1.089c-0.126,0.158-0.395,0.394-0.994,0.394c-0.205,0-0.6-0.031-0.868-0.363
			c-0.221-0.284-0.252-0.726-0.252-0.978v-0.3h-1.578v0.363c0,0.142,0,1.184,0.505,1.862c0.363,0.505,1.089,0.963,2.209,0.963
			c0.915,0,1.641-0.3,2.051-0.726c0.458-0.473,0.758-1.326,0.758-2.446v-0.379C136.896,76.318,136.848,75.687,136.422,75.103z"/>
	</g>
	<g>
		<path class="st2" d="M55.225,61.644c0,0-6.616,4.941-13.568,8.375c-6.951,3.434-13.065,5.695-13.065,5.695
			s-9.299,3.396-21.888,5.955c0.879,0.511,6.97,4.041,11.248,6.282c8.71,4.562,9.833,5.821,14.369,6.155
			c4.16,0.307,8.434,1.033,19.283-3.431c9.419-3.876,17.367-10.991,19.298-12.799c-4.144-5.429-10.732-11.705-13.884-14.607
			C55.908,62.247,55.225,61.644,55.225,61.644z"/>
		<path class="st3" d="M57.018,63.269c-1.11-1.022-1.794-1.626-1.794-1.626s-6.616,4.941-13.568,8.375
			c-6.951,3.434-13.065,5.695-13.065,5.695s-9.299,3.396-21.888,5.955c0,0,22.404-1.546,35.864-9.409
			C56.01,64.408,57.018,63.269,57.018,63.269z"/>
		<g>
			<path class="st1" d="M46.347,55.111c6.7,4.774,8.878,6.533,8.878,6.533s10.075,8.892,15.678,16.233
				c0.293-0.274,0.451-0.43,0.451-0.43s-0.032-7.8-0.287-13.009c-0.482-9.82,0.033-11.426-1.978-15.506
				c-1.845-3.741-3.385-7.794-12.732-14.883C47.009,26.96,35.85,23.88,35.85,23.88s-0.092,0.053-0.254,0.146
				c-2.692,7.298-4.568,15.541-5.38,19.435c-0.297,1.426-0.452,2.27-0.452,2.27S39.647,50.337,46.347,55.111z"/>
			<path class="st4" d="M30.216,43.461c-0.297,1.426-0.452,2.27-0.452,2.27s9.883,4.606,16.583,9.38
				c6.7,4.774,8.878,6.533,8.878,6.533s10.075,8.892,15.678,16.233c0,0-8.425-14.139-19.541-22.012
				C37.06,45.737,30.216,43.461,30.216,43.461z"/>
		</g>
		<path class="st0" d="M28.173,60.723c0.251-6.951,1.591-14.992,1.591-14.992s2.154-11.734,5.832-21.705
			c-1.263,0.727-7.029,4.061-10.941,6.546c-8.32,5.285-9.973,5.626-12.541,9.414c-2.355,3.473-5.13,6.834-6.722,18.559
			c-1.591,11.725,1.2,23.06,1.2,23.06s0.041,0.024,0.111,0.065c8.851-1.799,16.076-4.013,19.586-5.168
			c1.482-0.488,2.302-0.787,2.302-0.787S27.921,67.674,28.173,60.723z"/>
		<path class="st5" d="M35.596,24.026c-3.678,9.971-5.832,21.705-5.832,21.705s-1.34,8.04-1.591,14.992s0.419,14.992,0.419,14.992
			s-0.82,0.299-2.302,0.787c0,0-2.307-13.188,0.672-29.076C29.224,35.365,35.596,24.026,35.596,24.026z"/>
	</g>
	<g>
		<path d="M90.275,58.54c0,1.209-0.32,1.778-0.498,2.027c-0.427,0.569-1.209,0.854-1.992,0.854c-0.996,0-1.565-0.534-1.814-0.889
			c-0.462-0.64-0.462-1.387-0.462-2.205V46.056c0-0.854,0.036-1.743,0.605-2.454c0.356-0.427,0.925-0.818,1.849-0.818
			c1.138,0,1.672,0.64,1.85,0.889c0.32,0.462,0.462,1.138,0.462,1.636v1.423h3.45v-1.707c0-1.743-0.711-3.237-1.6-4.126
			c-1.067-1.032-2.81-1.601-4.304-1.601c-1.316,0-2.952,0.462-4.055,1.458c-1.601,1.387-1.814,3.237-1.814,4.873V58.54
			c0,1.28-0.036,2.988,1.245,4.481c0.782,0.925,2.134,1.885,4.481,1.885c2.454,0,3.912-0.854,4.659-1.672
			c0.64-0.676,1.494-2.098,1.494-4.553v-1.031h-3.557V58.54z"/>
		<rect x="97.565" y="39.654" width="3.556" height="24.897"/>
		<polygon points="108.945,53.561 115.134,53.561 115.134,50.36 108.945,50.36 108.945,43.033 115.952,43.033 115.952,39.654 
			105.388,39.654 105.388,64.551 116.058,64.551 116.058,61.172 108.945,61.172 		"/>
		<polygon points="128.932,55.304 122.993,39.654 119.436,39.654 119.436,64.551 122.993,64.551 122.993,48.902 128.932,64.551 
			132.489,64.551 132.489,39.654 128.932,39.654 		"/>
		<path d="M144.972,58.54c0,1.209-0.32,1.778-0.498,2.027c-0.427,0.569-1.209,0.854-1.992,0.854c-0.996,0-1.565-0.534-1.814-0.889
			c-0.462-0.64-0.462-1.387-0.462-2.205V46.056c0-0.854,0.035-1.743,0.605-2.454c0.356-0.427,0.925-0.818,1.85-0.818
			c1.138,0,1.671,0.64,1.849,0.889c0.32,0.462,0.462,1.138,0.462,1.636v1.423h3.45v-1.707c0-1.743-0.711-3.237-1.6-4.126
			c-1.067-1.032-2.81-1.601-4.304-1.601c-1.316,0-2.952,0.462-4.055,1.458c-1.601,1.387-1.814,3.237-1.814,4.873V58.54
			c0,1.28-0.036,2.988,1.245,4.481c0.782,0.925,2.134,1.885,4.481,1.885c2.454,0,3.912-0.854,4.659-1.672
			c0.64-0.676,1.494-2.098,1.494-4.553v-1.031h-3.557V58.54z"/>
		<polygon points="155.819,61.172 155.819,53.561 162.008,53.561 162.008,50.36 155.819,50.36 155.819,43.033 162.826,43.033 
			162.826,39.654 152.262,39.654 152.262,64.551 162.932,64.551 162.932,61.172 		"/>
		<path d="M72.96,49.403c-2.293-1.855-2.174-3.584-2.174-3.584l-0.014-0.54c-0.022-0.828,0.195-1.44,0.534-1.837
			c0.226-0.252,0.684-0.576,1.499-0.576c0.932,0,1.448,0.432,1.731,0.864c0.365,0.576,0.623,1.229,0.643,2.021l3.629-0.473
			c-0.059-2.233-0.871-3.601-1.787-4.466c-1.393-1.297-3.106-1.477-4.387-1.477c-1.747,0-3.291,0.36-4.458,1.729
			c-0.829,0.972-1.51,2.873-1.592,3.993c-0.082,1.12,0.003,1.453,0.325,3.235c0.322,1.782,3.727,4.313,6.093,6.742
			c2.366,2.429,2.171,3.389,2.171,3.389l0.014,0.54c0.022,0.828-0.195,1.44-0.534,1.837c-0.226,0.252-0.684,0.576-1.499,0.576
			c-1.303,0-2.11-1.04-2.393-1.473c-0.365-0.576-0.623-1.229-0.643-2.021l-3.629,0.473c0.059,2.233,0.784,3.689,1.699,4.553
			c1.393,1.297,3.073,2.085,5.05,2.085c1.747,0,3.378-0.448,4.546-1.816c0.829-0.972,1.586-2.28,1.585-4.07
			c-0.002-1.79-0.405-2.737-0.739-3.637C78.294,54.571,78.006,53.486,72.96,49.403z"/>
	</g>
</g>
</svg>
