<?xml version="1.0" encoding="utf-8"?>
<!-- Generator: Adobe Illustrator 23.1.1, SVG Export Plug-In . SVG Version: 6.00 Build 0)  -->
<svg version="1.1" id="Layer_1" xmlns="http://www.w3.org/2000/svg" xmlns:xlink="http://www.w3.org/1999/xlink" x="0px" y="0px"
	 viewBox="0 0 400 100" style="enable-background:new 0 0 400 100;" xml:space="preserve">
<g>
	<path d="M26.328,93.948c5.93,0,11.298-2.404,15.185-6.29l-13.92-13.92H4.917C5.576,85.007,14.895,93.948,26.328,93.948z"/>
	<path d="M41.512,57.29C37.626,53.403,32.258,51,26.328,51C14.79,51,5.405,60.106,4.902,71.519h22.381L41.512,57.29z"/>
	<path d="M44.514,93.948l30.07-0.004c5.894-0.042,10.659-4.83,10.659-10.733c0-4.106-2.308-7.668-5.696-9.472H44.514V93.948z"/>
	<path d="M85.243,51l-30.07,0.004c-5.894,0.043-10.659,4.83-10.659,10.733c0,4.358,2.6,8.101,6.331,9.782h34.398V51z"/>
	<rect x="98.27" y="73.739" width="21.933" height="20.208"/>
	<rect x="88.734" y="51.002" width="41.006" height="20.517"/>
	<polygon points="146.063,51 135.989,71.519 156.586,71.519 	"/>
	<polygon points="124.978,93.948 168.087,93.948 157.724,73.739 134.9,73.739 	"/>
</g>
</svg>
