<?xml version="1.0" encoding="utf-8"?>
<!-- Generator: Adobe Illustrator 23.1.1, SVG Export Plug-In . SVG Version: 6.00 Build 0)  -->
<svg version="1.1" id="Layer_1" xmlns="http://www.w3.org/2000/svg" xmlns:xlink="http://www.w3.org/1999/xlink" x="0px" y="0px"
	 viewBox="0 0 400 100" style="enable-background:new 0 0 400 100;" xml:space="preserve">
<style type="text/css">
	.st0{fill:#62B0D8;}
	.st1{fill:#FFFFFF;}
	.st2{fill:#E71E5C;}
	.st3{fill:#2F5FAC;}
</style>
<g>
	<g>
		<g>
			<path class="st0" d="M113.814,78.772c-2.406,0-4.364-1.958-4.364-4.365c0-1.983,1.372-3.677,3.314-4.159
				c0.012-0.044,0.028-0.089,0.047-0.136l15.027-35.467c0.387-0.915,1.278-1.506,2.272-1.506c1.007,0.005,1.899,0.603,2.28,1.524
				l12.846,31.025c0.52,1.258-0.079,2.705-1.336,3.225c-0.301,0.127-0.621,0.193-0.948,0.193l0,0c-0.996,0-1.889-0.599-2.276-1.526
				l-3.017-7.287h-15.327l-4.954,11.69c0.523,0.745,0.797,1.576,0.797,2.425C118.176,76.814,116.219,78.772,113.814,78.772z
				 M113.814,73.527c-0.486,0-0.881,0.395-0.881,0.879c0,0.486,0.395,0.883,0.881,0.883c0.485,0,0.879-0.396,0.879-0.883
				C114.693,73.922,114.299,73.527,113.814,73.527z M135.616,55.356l-5.53-13.358l-5.661,13.358H135.616z"/>
			<path class="st1" d="M130.118,33.668c0.78,0.004,1.484,0.475,1.784,1.197l12.846,31.026c0.409,0.989-0.061,2.125-1.049,2.534
				c-0.245,0.104-0.497,0.152-0.746,0.152c-0.759,0-1.477-0.457-1.788-1.201l-3.163-7.64c-0.047,0.004-0.088,0.028-0.136,0.028
				h-15.884l-5.115,12.069c-0.03,0.071-0.103,0.102-0.14,0.168c0.548,0.663,0.92,1.481,0.92,2.406c0,2.117-1.719,3.836-3.833,3.836
				c-2.115,0-3.834-1.719-3.834-3.836c0-1.904,1.42-3.417,3.242-3.713c0.026-0.126,0.025-0.253,0.077-0.376l15.027-35.466
				c0.303-0.718,1.004-1.183,1.784-1.183C130.114,33.668,130.114,33.668,130.118,33.668 M123.625,55.885h12.783l-6.317-15.258
				L123.625,55.885 M113.814,75.819c0.776,0,1.409-0.632,1.409-1.413c0-0.776-0.632-1.409-1.409-1.409
				c-0.778,0-1.411,0.632-1.411,1.409C112.403,75.186,113.036,75.819,113.814,75.819 M130.118,32.609h-0.008
				c-1.207,0-2.29,0.718-2.759,1.83l-14.986,35.369c-2.032,0.626-3.444,2.462-3.444,4.598c0,2.699,2.195,4.895,4.893,4.895
				c2.697,0,4.891-2.196,4.891-4.895c0-0.864-0.25-1.709-0.729-2.479l4.706-11.105h14.623l2.881,6.958
				c0.471,1.128,1.556,1.855,2.766,1.855c0.399,0,0.789-0.08,1.159-0.236c1.519-0.629,2.247-2.386,1.614-3.914L132.88,34.46
				c-0.464-1.119-1.546-1.845-2.757-1.85C130.121,32.609,130.12,32.609,130.118,32.609L130.118,32.609z M125.224,54.826
				l4.856-11.459l4.744,11.459H125.224L125.224,54.826z M113.814,74.76c-0.194,0-0.352-0.159-0.352-0.354
				c0-0.193,0.158-0.35,0.352-0.35c0.193,0,0.35,0.157,0.35,0.35C114.164,74.601,114.007,74.76,113.814,74.76L113.814,74.76z"/>
		</g>
		<g>
			<path class="st0" d="M180.789,69.647c-1.341,0-2.569-0.637-3.412-1.759H157.82c-0.292,0-0.529-0.237-0.529-0.529V34.961
				c0-1.361,1.107-2.468,2.469-2.468s2.469,1.107,2.469,2.468v27.992h14.936c0.807-1.262,2.169-2.033,3.625-2.033
				c2.405,0,4.362,1.956,4.362,4.362C185.151,67.689,183.194,69.647,180.789,69.647z M180.789,64.403
				c-0.486,0-0.881,0.395-0.881,0.879c0,0.486,0.395,0.883,0.881,0.883c0.485,0,0.879-0.396,0.879-0.883
				C181.668,64.797,181.274,64.403,180.789,64.403z"/>
			<path class="st1" d="M159.759,33.022c1.072,0,1.939,0.867,1.939,1.939v28.52h15.767c0.651-1.192,1.872-2.032,3.324-2.032
				c2.113,0,3.832,1.719,3.832,3.833c0,2.117-1.719,3.836-3.832,3.836c-1.333,0-2.45-0.724-3.138-1.758H157.82V34.961
				C157.82,33.89,158.688,33.022,159.759,33.022 M180.789,66.694c0.776,0,1.409-0.632,1.409-1.413c0-0.776-0.632-1.409-1.409-1.409
				c-0.778,0-1.411,0.632-1.411,1.409C179.378,66.062,180.011,66.694,180.789,66.694 M159.759,31.963
				c-1.653,0-2.998,1.345-2.998,2.998V67.36c0,0.585,0.474,1.059,1.059,1.059h19.301c0.936,1.124,2.244,1.758,3.668,1.758
				c2.697,0,4.891-2.196,4.891-4.895c0-2.697-2.194-4.891-4.891-4.891c-1.541,0-2.986,0.765-3.905,2.032h-14.127V34.961
				C162.757,33.308,161.412,31.963,159.759,31.963L159.759,31.963z M180.789,65.635c-0.194,0-0.352-0.159-0.352-0.354
				c0-0.193,0.158-0.35,0.352-0.35c0.193,0,0.35,0.157,0.35,0.35C181.139,65.477,180.982,65.635,180.789,65.635L180.789,65.635z"/>
		</g>
		<g>
			<path class="st0" d="M148.046,75.804c-0.292,0-0.529-0.237-0.529-0.529V35.105c-1.245-0.819-1.978-2.138-1.978-3.584
				c0-2.406,1.958-4.362,4.364-4.362c2.405,0,4.362,1.956,4.362,4.362c0,1.349-0.672,2.621-1.811,3.454v35.893h13.93
				c1.361,0,2.469,1.107,2.469,2.468c0,1.361-1.107,2.469-2.469,2.469H148.046z M149.902,30.641c-0.486,0-0.881,0.395-0.881,0.88
				c0,0.486,0.395,0.883,0.881,0.883c0.485,0,0.879-0.396,0.879-0.883C150.781,31.036,150.387,30.641,149.902,30.641z"/>
			<path class="st1" d="M149.902,27.688c2.113,0,3.833,1.719,3.833,3.833c0,1.357-0.747,2.494-1.811,3.176v36.7h14.459
				c1.072,0,1.939,0.867,1.939,1.939s-0.867,1.939-1.939,1.939h-18.337V34.809c-1.16-0.66-1.978-1.859-1.978-3.288
				C146.068,29.407,147.787,27.688,149.902,27.688 M149.902,32.933c0.776,0,1.409-0.632,1.409-1.413
				c0-0.776-0.632-1.409-1.409-1.409c-0.778,0-1.411,0.632-1.411,1.409C148.491,32.301,149.124,32.933,149.902,32.933
				 M149.902,26.629c-2.698,0-4.893,2.194-4.893,4.891c0,1.532,0.729,2.936,1.978,3.86v39.893c0,0.585,0.474,1.059,1.059,1.059
				h18.337c1.653,0,2.998-1.345,2.998-2.998s-1.345-2.998-2.998-2.998h-13.4V35.235c1.143-0.932,1.811-2.283,1.811-3.714
				C154.793,28.824,152.599,26.629,149.902,26.629L149.902,26.629z M149.902,31.874c-0.194,0-0.352-0.159-0.352-0.354
				c0-0.193,0.158-0.35,0.352-0.35c0.193,0,0.35,0.157,0.35,0.35C150.252,31.716,150.095,31.874,149.902,31.874L149.902,31.874z"/>
		</g>
	</g>
	<g>
		<path class="st2" d="M47.914,78.141c-1.026,0-2.033-0.125-2.991-0.372c-4.501-1.169-6.319-2.25-6.991-2.777
			c-0.334,0.099-0.693,0.176-1.083,0.176c-2.406,0-4.364-1.958-4.364-4.365c0-2.406,1.958-4.362,4.364-4.362
			c2.405,0,4.362,1.956,4.362,4.362c0,0.153-0.025,0.292-0.055,0.414c0.498,0.276,1.946,0.976,5.005,1.769
			c0.557,0.146,1.151,0.22,1.768,0.22c1.661,0,3.363-0.549,4.552-1.47c0.878-0.678,1.923-1.898,1.923-3.872
			c0-3.393-2.509-4.422-8.235-5.958c-4.469-1.195-10.591-2.833-10.591-9.009c0-5.643,4.572-9.74,10.872-9.74
			c4.837,0,8.984,1.764,12.324,5.243c0.941,0.982,0.909,2.548-0.072,3.49c-0.462,0.443-1.069,0.688-1.71,0.688
			c-0.68,0-1.313-0.271-1.782-0.761c-2.406-2.505-5.272-3.723-8.761-3.723c-3.494,0-5.935,1.975-5.935,4.803
			c0,2.024,1.817,2.871,6.934,4.241c5.018,1.346,11.892,3.19,11.892,10.725c0,3.098-1.363,5.859-3.839,7.776
			C53.449,77.229,50.683,78.141,47.914,78.141z M36.848,69.923c-0.486,0-0.881,0.395-0.881,0.879c0,0.487,0.395,0.883,0.881,0.883
			c0.485,0,0.879-0.396,0.879-0.883C37.727,70.317,37.333,69.923,36.848,69.923z"/>
		<path class="st1" d="M46.45,43.687c4.688,0,8.706,1.71,11.943,5.08c0.74,0.773,0.716,2-0.057,2.742
			c-0.375,0.36-0.859,0.54-1.343,0.54c-0.51,0-1.019-0.2-1.399-0.597c-2.511-2.615-5.503-3.887-9.144-3.887
			c-3.806,0-6.465,2.193-6.465,5.332c0,2.515,2.346,3.42,7.326,4.753c5.122,1.375,11.499,3.086,11.499,10.214
			c0,2.931-1.291,5.544-3.634,7.358c-1.996,1.545-4.651,2.39-7.264,2.39c-0.969,0-1.935-0.117-2.859-0.356
			c-4.974-1.291-6.572-2.469-6.944-2.802c-0.02-0.018-0.027-0.043-0.046-0.061c-0.387,0.132-0.786,0.246-1.217,0.246
			c-2.115,0-3.834-1.719-3.834-3.836c0-2.113,1.719-3.833,3.834-3.833c2.113,0,3.833,1.719,3.833,3.833
			c0,0.238-0.094,0.446-0.136,0.672c0.046,0.034,0.102,0.046,0.145,0.085c-0.002-0.004-0.002-0.004-0.002-0.004
			c0.01,0,1.28,0.89,5.34,1.943c0.609,0.159,1.251,0.236,1.9,0.236c1.756,0,3.562-0.563,4.877-1.581
			c0.971-0.75,2.128-2.106,2.128-4.291c0-3.954-3.278-5.033-8.627-6.468c-4.543-1.216-10.199-2.734-10.199-8.498
			C36.108,47.561,40.457,43.687,46.45,43.687 M36.848,72.215c0.776,0,1.409-0.632,1.409-1.413c0-0.776-0.632-1.409-1.409-1.409
			c-0.778,0-1.411,0.632-1.411,1.409C35.437,71.582,36.07,72.215,36.848,72.215 M46.45,42.628c-6.606,0-11.401,4.319-11.401,10.269
			c0,6.582,6.348,8.281,10.984,9.521c5.572,1.495,7.842,2.406,7.842,5.446c0,1.412-0.578,2.573-1.716,3.453
			c-1.101,0.852-2.682,1.36-4.229,1.36c-0.572,0-1.121-0.068-1.632-0.202c-2.512-0.651-3.897-1.228-4.56-1.552
			c0.002-0.039,0.004-0.079,0.004-0.12c0-2.697-2.194-4.891-4.891-4.891c-2.698,0-4.893,2.194-4.893,4.891
			c0,2.699,2.195,4.895,4.893,4.895c0.352,0,0.675-0.052,0.976-0.127c0.853,0.596,2.798,1.629,6.964,2.71
			c1.003,0.259,2.054,0.39,3.125,0.39c2.884,0,5.768-0.952,7.912-2.611c2.608-2.02,4.044-4.93,4.044-8.195
			c0-7.94-7.1-9.845-12.284-11.237c-5.197-1.391-6.542-2.158-6.542-3.73c0-2.556,2.172-4.273,5.406-4.273
			c3.338,0,6.079,1.165,8.38,3.562c0.56,0.586,1.349,0.922,2.163,0.922c0.778,0,1.516-0.297,2.077-0.835
			c1.191-1.144,1.231-3.046,0.088-4.238C55.712,44.447,51.437,42.628,46.45,42.628L46.45,42.628z M36.848,71.156
			c-0.194,0-0.352-0.159-0.352-0.354c0-0.193,0.158-0.35,0.352-0.35c0.193,0,0.35,0.157,0.35,0.35
			C37.198,70.997,37.041,71.156,36.848,71.156L36.848,71.156z"/>
	</g>
	<g>
		<path class="st2" d="M21.967,67.991c-9.118,0-16.535-7.714-16.535-17.196c0-9.483,7.418-17.197,16.535-17.197
			c2.974,0,6.802,1.181,9.525,2.939c0.059,0.038,0.109,0.078,0.151,0.116c0.202-0.055,0.427-0.106,0.68-0.106
			c2.405,0,4.362,1.956,4.362,4.362c0,2.407-1.956,4.365-4.362,4.365c-2.406,0-4.364-1.958-4.364-4.365
			c0-0.243,0.045-0.462,0.097-0.661c-1.999-1.137-4.046-1.713-6.09-1.713c-6.395,0-11.598,5.5-11.598,12.26
			c0,6.759,5.203,12.259,11.598,12.259c4.502,0,6.704-1.003,9.06-4.129c0.473-0.625,1.192-0.983,1.974-0.983
			c0.538,0,1.051,0.171,1.482,0.496c0.527,0.396,0.868,0.974,0.96,1.627c0.092,0.653-0.076,1.302-0.472,1.829
			C31.662,66.282,28.016,67.991,21.967,67.991z M32.324,40.03c-0.486,0-0.881,0.395-0.881,0.879c0,0.486,0.395,0.883,0.881,0.883
			c0.485,0,0.879-0.396,0.879-0.883C33.203,40.425,32.809,40.03,32.324,40.03z"/>
		<path class="st1" d="M21.967,34.128c2.984,0,6.716,1.226,9.238,2.855c0.144,0.093,0.181,0.181,0.244,0.271
			c0.289-0.07,0.565-0.177,0.875-0.177c2.113,0,3.832,1.719,3.832,3.833c0,2.117-1.719,3.836-3.832,3.836
			c-2.115,0-3.834-1.719-3.834-3.836c0-0.324,0.109-0.613,0.185-0.913c-1.834-1.106-4.115-1.99-6.707-1.99
			c-6.688,0-12.128,5.737-12.128,12.789s5.44,12.789,12.128,12.789c4.643,0,7.036-1.094,9.483-4.34
			c0.383-0.506,0.963-0.773,1.551-0.773c0.406,0,0.815,0.127,1.165,0.39c0.856,0.644,1.026,1.859,0.382,2.715
			c-3.193,4.234-6.72,5.885-12.581,5.885c-8.826,0-16.006-7.476-16.006-16.667C5.961,41.606,13.141,34.128,21.967,34.128
			 M32.324,42.322c0.776,0,1.409-0.632,1.409-1.413c0-0.776-0.632-1.409-1.409-1.409c-0.778,0-1.411,0.632-1.411,1.409
			C30.913,41.69,31.545,42.322,32.324,42.322 M21.967,33.069c-9.41,0-17.065,7.952-17.065,17.726s7.655,17.726,17.065,17.726
			c6.159,0,10.049-1.827,13.426-6.307c0.482-0.641,0.686-1.43,0.574-2.222c-0.112-0.793-0.526-1.495-1.166-1.977
			c-0.524-0.394-1.147-0.603-1.801-0.603c-0.949,0-1.822,0.435-2.395,1.192c-2.237,2.968-4.336,3.92-8.638,3.92
			c-6.104,0-11.069-5.262-11.069-11.73s4.966-11.73,11.069-11.73c1.838,0,3.682,0.49,5.492,1.458
			c-0.018,0.121-0.029,0.25-0.029,0.386c0,2.699,2.195,4.895,4.893,4.895c2.697,0,4.891-2.196,4.891-4.895
			c0-2.697-2.194-4.891-4.891-4.891c-0.208,0-0.396,0.027-0.565,0.062C28.959,34.279,25.027,33.069,21.967,33.069L21.967,33.069z
			 M32.324,41.263c-0.194,0-0.352-0.159-0.352-0.354c0-0.193,0.158-0.35,0.352-0.35c0.193,0,0.35,0.157,0.35,0.35
			C32.674,41.105,32.517,41.263,32.324,41.263L32.324,41.263z"/>
	</g>
	<g>
		<path class="st2" d="M75.781,24.777c-0.292,0-0.529-0.237-0.529-0.529v-0.937l-0.36,1.102c-0.072,0.218-0.274,0.365-0.503,0.365
			h-1.017c-0.229,0-0.432-0.147-0.503-0.365l-0.365-1.113l0,0.949c0,0.292-0.237,0.529-0.529,0.529h-1.538
			c-0.292,0-0.529-0.237-0.529-0.529v-6.625c0-0.292,0.237-0.529,0.529-0.529h2.02c0.232,0,0.437,0.151,0.506,0.373l0.917,2.969
			l0.915-2.968c0.068-0.223,0.273-0.374,0.506-0.374h2.023c0.292,0,0.529,0.237,0.529,0.529v6.625c0,0.292-0.237,0.529-0.529,0.529
			H75.781z"/>
		<path class="st1" d="M77.323,17.623v6.625h-1.542v-1.547l0.149-3.167l-1.542,4.714h-1.017l-1.546-4.719l0.149,3.172v1.547h-1.538
			v-6.625h2.02l1.424,4.609l1.42-4.609H77.323 M77.323,16.564H75.3c-0.465,0-0.875,0.303-1.012,0.747l-0.409,1.328l-0.41-1.329
			c-0.137-0.444-0.547-0.746-1.012-0.746h-2.02c-0.585,0-1.059,0.474-1.059,1.059v6.625c0,0.585,0.474,1.059,1.059,1.059h1.538
			c0.268,0,0.512-0.099,0.699-0.263c0.189,0.166,0.435,0.263,0.699,0.263h1.017c0.263,0,0.508-0.097,0.697-0.261
			c0.186,0.163,0.43,0.261,0.697,0.261h1.542c0.585,0,1.059-0.474,1.059-1.059v-6.625C78.382,17.038,77.908,16.564,77.323,16.564
			L77.323,16.564z"/>
	</g>
	<g>
		<path class="st2" d="M80.903,24.777c-0.292,0-0.529-0.237-0.529-0.529v-6.625c0-0.292,0.237-0.529,0.529-0.529h4.403
			c0.292,0,0.529,0.237,0.529,0.529v1.233c0,0.292-0.237,0.529-0.529,0.529H82.97v0.338h1.889c0.292,0,0.529,0.237,0.529,0.529
			v1.183c0,0.292-0.237,0.529-0.529,0.529H82.97v0.524h2.326c0.292,0,0.529,0.237,0.529,0.529v1.228
			c0,0.292-0.237,0.529-0.529,0.529H80.903z"/>
		<path class="st1" d="M85.306,17.623v1.233H82.44v1.397h2.418v1.183H82.44v1.583h2.856v1.228h-4.394v-6.625H85.306 M85.306,16.564
			h-4.403c-0.585,0-1.059,0.474-1.059,1.059v6.625c0,0.585,0.474,1.059,1.059,1.059h4.394c0.585,0,1.059-0.474,1.059-1.059v-1.228
			c0-0.434-0.261-0.806-0.634-0.97c0.123-0.173,0.196-0.385,0.196-0.613v-1.183c0-0.167-0.039-0.325-0.108-0.466
			c0.33-0.179,0.555-0.529,0.555-0.931v-1.233C86.364,17.038,85.89,16.564,85.306,16.564L85.306,16.564z"/>
	</g>
	<g>
		<path class="st2" d="M93.87,24.777c-0.292,0-0.529-0.237-0.529-0.529v-0.937l-0.36,1.102c-0.072,0.218-0.274,0.365-0.503,0.365
			H91.46c-0.229,0-0.432-0.147-0.503-0.365l-0.365-1.113l0,0.949c0,0.292-0.237,0.529-0.529,0.529h-1.538
			c-0.292,0-0.529-0.237-0.529-0.529v-6.625c0-0.292,0.237-0.529,0.529-0.529h2.019c0.232,0,0.437,0.151,0.506,0.373l0.917,2.969
			l0.915-2.968c0.068-0.223,0.273-0.374,0.506-0.374h2.024c0.292,0,0.529,0.237,0.529,0.529v6.625c0,0.292-0.237,0.529-0.529,0.529
			H93.87z"/>
		<path class="st1" d="M95.412,17.623v6.625H93.87v-1.547l0.149-3.167l-1.542,4.714H91.46l-1.546-4.719l0.149,3.172v1.547h-1.538
			v-6.625h2.02l1.424,4.609l1.42-4.609H95.412 M95.412,16.564h-2.024c-0.465,0-0.875,0.303-1.012,0.747l-0.409,1.328l-0.41-1.329
			c-0.137-0.444-0.547-0.746-1.012-0.746h-2.02c-0.585,0-1.059,0.474-1.059,1.059v6.625c0,0.585,0.474,1.059,1.059,1.059h1.538
			c0.268,0,0.512-0.099,0.699-0.263c0.189,0.166,0.435,0.263,0.699,0.263h1.017c0.263,0,0.508-0.097,0.697-0.261
			c0.186,0.163,0.43,0.261,0.697,0.261h1.542c0.585,0,1.059-0.474,1.059-1.059v-6.625C96.47,17.038,95.996,16.564,95.412,16.564
			L95.412,16.564z"/>
	</g>
	<g>
		<path class="st2" d="M98.991,24.777c-0.292,0-0.529-0.237-0.529-0.529v-6.625c0-0.292,0.237-0.529,0.529-0.529h2.291
			c0.931,0,1.666,0.192,2.185,0.57c0.563,0.411,0.86,1.029,0.86,1.789c0,0.443-0.104,0.832-0.309,1.159
			c-0.044,0.071-0.092,0.137-0.145,0.2c0.082,0.079,0.157,0.165,0.224,0.258c0.242,0.338,0.366,0.749,0.366,1.218
			c0,0.812-0.265,1.442-0.787,1.871c-0.49,0.404-1.193,0.612-2.091,0.619c-0.002,0-0.003,0-0.004,0H98.991z M101.536,22.49
			c0.137,0,0.242-0.024,0.289-0.065c0.011-0.01,0.044-0.039,0.044-0.16c0-0.301-0.067-0.302-0.266-0.303h-0.546v0.529H101.536z
			 M101.33,19.855c0.29-0.002,0.371-0.06,0.372-0.061c0.019-0.017,0.032-0.076,0.032-0.153c0-0.147-0.032-0.19-0.032-0.191
			c-0.001-0.001-0.091-0.069-0.419-0.069h-0.224v0.474H101.33z"/>
		<path class="st1" d="M101.282,17.623c0.821,0,1.445,0.156,1.872,0.468c0.428,0.313,0.642,0.766,0.642,1.361
			c0,0.342-0.076,0.635-0.228,0.878c-0.152,0.243-0.375,0.422-0.67,0.538c0.333,0.091,0.589,0.261,0.766,0.51
			c0.178,0.248,0.267,0.552,0.267,0.91c0,0.649-0.198,1.137-0.594,1.463c-0.396,0.326-0.982,0.492-1.759,0.498h-2.589v-6.625
			H101.282 M100.529,20.384h0.802c0.336-0.002,0.575-0.066,0.718-0.191c0.143-0.125,0.215-0.309,0.215-0.553
			c0-0.28-0.077-0.481-0.232-0.605c-0.155-0.122-0.405-0.184-0.749-0.184h-0.754V20.384 M100.529,23.019h1.008
			c0.278,0,0.491-0.066,0.639-0.198c0.149-0.132,0.223-0.318,0.223-0.558c0-0.552-0.264-0.83-0.793-0.832h-1.077V23.019
			 M101.282,16.564h-2.291c-0.585,0-1.059,0.474-1.059,1.059v6.625c0,0.585,0.474,1.059,1.059,1.059h2.589
			c1.03-0.008,1.845-0.256,2.432-0.739c0.447-0.368,0.979-1.062,0.979-2.28c0-0.577-0.153-1.086-0.456-1.513
			c0.212-0.385,0.32-0.83,0.32-1.322c0-0.935-0.372-1.702-1.076-2.216C103.159,16.784,102.342,16.564,101.282,16.564L101.282,16.564
			z"/>
	</g>
	<g>
		<path class="st2" d="M107.38,24.777c-0.292,0-0.529-0.237-0.529-0.529v-6.625c0-0.292,0.237-0.529,0.529-0.529h4.403
			c0.292,0,0.529,0.237,0.529,0.529v1.233c0,0.292-0.237,0.529-0.529,0.529h-2.336v0.338h1.889c0.292,0,0.529,0.237,0.529,0.529
			v1.183c0,0.292-0.237,0.529-0.529,0.529h-1.889v0.524h2.327c0.292,0,0.529,0.237,0.529,0.529v1.228
			c0,0.292-0.237,0.529-0.529,0.529H107.38z"/>
		<path class="st1" d="M111.783,17.623v1.233h-2.865v1.397h2.418v1.183h-2.418v1.583h2.856v1.228h-4.394v-6.625H111.783
			 M111.783,16.564h-4.403c-0.585,0-1.059,0.474-1.059,1.059v6.625c0,0.585,0.474,1.059,1.059,1.059h4.394
			c0.585,0,1.059-0.474,1.059-1.059v-1.228c0-0.434-0.261-0.806-0.634-0.97c0.123-0.173,0.196-0.385,0.196-0.613v-1.183
			c0-0.167-0.039-0.325-0.108-0.466c0.33-0.179,0.555-0.529,0.555-0.931v-1.233C112.842,17.038,112.368,16.564,111.783,16.564
			L111.783,16.564z"/>
	</g>
	<g>
		<path class="st2" d="M118.498,24.777c-0.203,0-0.389-0.117-0.477-0.3l-0.951-1.98v1.75c0,0.292-0.237,0.529-0.529,0.529h-1.538
			c-0.292,0-0.529-0.237-0.529-0.529v-6.625c0-0.292,0.237-0.529,0.529-0.529h2.511c0.877,0,1.587,0.216,2.109,0.642
			c0.554,0.453,0.834,1.088,0.834,1.887c0,0.555-0.116,1.031-0.344,1.415c-0.151,0.254-0.354,0.476-0.608,0.665l1.116,2.24
			c0.036,0.073,0.055,0.154,0.055,0.236c0,0.292-0.237,0.598-0.529,0.598H118.498z M117.513,20.146c0.077,0,0.215-0.009,0.271-0.069
			c0.066-0.071,0.08-0.208,0.08-0.309c0-0.148-0.029-0.254-0.085-0.315c-0.054-0.06-0.175-0.072-0.266-0.072h-0.443v0.765H117.513z"
			/>
		<path class="st1" d="M117.512,17.623c0.757,0,1.348,0.175,1.774,0.523c0.426,0.348,0.639,0.84,0.639,1.477
			c0,0.461-0.09,0.843-0.269,1.146c-0.18,0.303-0.461,0.548-0.843,0.736l1.332,2.674v0.069h-1.647l-1.126-2.343h-0.832v2.343h-1.538
			v-6.625H117.512 M116.54,20.676h0.972c0.292,0,0.512-0.079,0.659-0.239c0.148-0.16,0.221-0.382,0.221-0.668
			c0-0.285-0.074-0.51-0.223-0.673s-0.368-0.244-0.657-0.244h-0.972V20.676 M117.512,16.564h-2.51c-0.585,0-1.059,0.474-1.059,1.059
			v6.625c0,0.585,0.474,1.059,1.059,1.059h1.538c0.441,0,0.819-0.27,0.978-0.653l0.025,0.053c0.176,0.367,0.547,0.6,0.954,0.6h1.647
			c0.585,0,1.059-0.474,1.059-1.059v-0.069c0-0.164-0.038-0.325-0.111-0.472l-0.933-1.873c0.158-0.159,0.294-0.335,0.407-0.525
			c0.277-0.468,0.418-1.035,0.418-1.687c0-1.204-0.559-1.914-1.029-2.297C119.338,16.82,118.515,16.564,117.512,16.564
			L117.512,16.564z"/>
	</g>
	<g>
		<g>
			<path class="st3" d="M67.963,71.518c-2.406,0-4.364-1.958-4.364-4.365c0-1.323,0.626-2.542,1.727-3.386V47.548h-2.258
				c-1.361,0-2.468-1.107-2.468-2.468c0-1.361,1.107-2.469,2.468-2.469h2.258v-1.349c0-5.081,3.985-7.74,7.922-7.74
				c3.504,0,5.473,2.536,5.687,2.824c0.805,1.099,0.567,2.647-0.529,3.453c-0.431,0.313-0.935,0.476-1.461,0.476
				c-0.783,0-1.502-0.358-1.972-0.983c-0.019-0.023-0.675-0.834-1.725-0.834c-0.498,0-2.985,0.135-2.985,2.803v1.349h3.106
				c1.361,0,2.469,1.108,2.469,2.469c0,1.361-1.107,2.468-2.469,2.468h-3.106v15.958c1.279,0.802,2.062,2.173,2.062,3.647
				C72.325,69.56,70.368,71.518,67.963,71.518z M67.963,66.273c-0.486,0-0.881,0.395-0.881,0.879c0,0.487,0.395,0.883,0.881,0.883
				c0.485,0,0.879-0.396,0.879-0.883C68.842,66.668,68.448,66.273,67.963,66.273z"/>
			<path class="st1" d="M73.248,34.052c3.251,0,5.063,2.342,5.26,2.609c0.632,0.863,0.447,2.077-0.417,2.712
				c-0.348,0.253-0.75,0.374-1.147,0.374c-0.589,0-1.169-0.267-1.549-0.772c-0.051-0.064-0.848-1.045-2.147-1.045
				c-0.36,0-3.514,0.093-3.514,3.333v1.878h3.636c1.072,0,1.939,0.867,1.939,1.939c0,1.072-0.867,1.939-1.939,1.939h-3.636V63.81
				c1.209,0.645,2.062,1.879,2.062,3.342c0,2.117-1.719,3.836-3.833,3.836c-2.115,0-3.834-1.719-3.834-3.836
				c0-1.318,0.711-2.425,1.727-3.115V47.019h-2.787c-1.072,0-1.939-0.867-1.939-1.939c0-1.072,0.867-1.939,1.939-1.939h2.787v-1.878
				C65.856,36.529,69.574,34.052,73.248,34.052 M67.963,68.565c0.776,0,1.409-0.632,1.409-1.413c0-0.776-0.632-1.409-1.409-1.409
				c-0.778,0-1.411,0.632-1.411,1.409C66.552,67.932,67.185,68.565,67.963,68.565 M73.248,32.993c-5.548,0-8.451,4.16-8.451,8.27
				v0.819h-1.728c-1.653,0-2.998,1.345-2.998,2.998c0,1.653,1.345,2.998,2.998,2.998h1.728v15.435
				c-1.104,0.935-1.727,2.234-1.727,3.639c0,2.699,2.195,4.895,4.893,4.895c2.697,0,4.891-2.196,4.891-4.895
				c0-1.559-0.776-3.014-2.062-3.929V48.078h2.577c1.653,0,2.998-1.345,2.998-2.998c0-1.653-1.345-2.998-2.998-2.998h-2.577v-0.819
				c0-0.684,0.239-2.274,2.456-2.274c0.786,0,1.314,0.64,1.319,0.646c0.545,0.725,1.441,1.171,2.377,1.171
				c0.638,0,1.25-0.199,1.769-0.576c1.336-0.982,1.625-2.861,0.649-4.194C79.131,35.722,77.01,32.993,73.248,32.993L73.248,32.993z
				 M67.963,67.506c-0.194,0-0.352-0.159-0.352-0.354c0-0.193,0.158-0.35,0.352-0.35c0.193,0,0.35,0.157,0.35,0.35
				C68.313,67.347,68.156,67.506,67.963,67.506L67.963,67.506z"/>
		</g>
		<g>
			<path class="st3" d="M88.724,68.454c-2.652,0-5.376-1.343-7.041-2.599c-1.086-0.822-1.302-2.374-0.483-3.46
				c0.47-0.621,1.188-0.978,1.971-0.978c0.539,0,1.053,0.171,1.485,0.495c1.233,0.931,2.943,1.606,4.068,1.606
				c3.814,0,6.917-3.785,6.917-8.439c0-4.652-3.103-8.438-6.917-8.438c-3.209,0-6.042,2.705-6.853,6.485
				c1.326,0.789,2.134,2.179,2.134,3.717c0,2.407-1.957,4.365-4.362,4.365c-2.406,0-4.364-1.958-4.364-4.365
				c0-1.191,0.498-2.3,1.408-3.144c0.717-5.832,5.671-11.995,12.037-11.995c6.536,0,11.854,6,11.854,13.375
				C100.578,62.454,95.26,68.454,88.724,68.454z M79.642,55.962c-0.486,0-0.881,0.395-0.881,0.879c0,0.487,0.395,0.884,0.881,0.884
				c0.485,0,0.879-0.396,0.879-0.884C80.522,56.357,80.127,55.962,79.642,55.962z"/>
			<path class="st1" d="M88.723,42.232c6.245,0,11.325,5.762,11.325,12.846c0,7.082-5.08,12.846-11.325,12.846
				c-2.522,0-5.126-1.288-6.722-2.492c-0.854-0.648-1.024-1.863-0.379-2.719c0.38-0.503,0.96-0.768,1.547-0.767
				c0.407,0,0.818,0.127,1.168,0.389c1.333,1.007,3.138,1.712,4.385,1.712c4.107,0,7.447-4.022,7.447-8.968
				c0-4.944-3.34-8.968-7.447-8.968c-3.375,0-6.662,2.834-7.447,7.297c1.29,0.618,2.199,1.911,2.199,3.434
				c0,2.117-1.719,3.836-3.832,3.836c-2.115,0-3.834-1.719-3.834-3.836c0-1.168,0.554-2.179,1.381-2.882
				C77.906,47.198,83.47,42.232,88.723,42.232 M79.642,58.254c0.776,0,1.409-0.632,1.409-1.413c0-0.776-0.632-1.409-1.409-1.409
				c-0.778,0-1.411,0.632-1.411,1.409C78.232,57.622,78.864,58.254,79.642,58.254 M88.723,41.174
				c-5.976,0-11.633,5.579-12.539,12.272c-0.929,0.927-1.436,2.118-1.436,3.396c0,2.699,2.195,4.895,4.893,4.895
				c0.692,0,1.351-0.145,1.948-0.405c-0.309,0.192-0.585,0.442-0.813,0.743c-0.995,1.318-0.733,3.203,0.584,4.201
				c1.736,1.31,4.579,2.707,7.362,2.707c6.829,0,12.384-6.238,12.384-13.905S95.552,41.174,88.723,41.174L88.723,41.174z
				 M82.471,52.884c0.852-3.351,3.394-5.714,6.253-5.714c3.523,0,6.388,3.548,6.388,7.909s-2.866,7.909-6.388,7.909
				c-1.023,0-2.599-0.63-3.747-1.498c-0.529-0.395-1.152-0.603-1.806-0.603c-0.388,0-0.763,0.072-1.11,0.209
				c1.476-0.844,2.473-2.434,2.473-4.254C84.534,55.245,83.761,53.792,82.471,52.884L82.471,52.884z M79.642,57.195
				c-0.194,0-0.352-0.159-0.352-0.354c0-0.193,0.158-0.35,0.352-0.35c0.193,0,0.35,0.157,0.35,0.35
				C79.992,57.037,79.835,57.195,79.642,57.195L79.642,57.195z"/>
		</g>
		<g>
			<path class="st3" d="M106.358,68.858c-1.361,0-2.469-1.107-2.469-2.468V44.956c-1.109-0.844-1.739-2.068-1.739-3.399
				c0-2.405,1.958-4.361,4.364-4.361c2.405,0,4.362,1.956,4.362,4.361c0,0.898-0.291,1.759-0.808,2.475
				c1.581-0.803,3.284-1.255,4.788-1.255c0.684,0,1.302,0.095,1.837,0.282c0.644,0.225,1.158,0.689,1.413,1.274
				c0.235,0.54,0.233,1.134-0.004,1.673c-0.385,0.857-1.286,1.408-2.297,1.408l0,0c-0.29,0-0.575-0.047-0.847-0.139
				c0.001,0.001-0.053-0.001-0.098-0.001c-0.489,0-1.769,0.232-3.107,1.109c-1.336,0.875-2.927,2.508-2.927,5.318V66.39
				C108.826,67.751,107.719,68.858,106.358,68.858z M106.514,40.678c-0.486,0-0.881,0.395-0.881,0.879
				c0,0.487,0.395,0.883,0.881,0.883c0.485,0,0.879-0.396,0.879-0.883C107.394,41.073,106.999,40.678,106.514,40.678z"/>
			<path class="st1" d="M106.514,37.725c2.113,0,3.833,1.719,3.833,3.833c0,1.461-0.848,2.69-2.05,3.338v0.913
				c0.434-0.344,0.858-0.644,1.227-0.867c1.739-1.052,3.705-1.633,5.332-1.633c0.612,0,1.176,0.082,1.663,0.252
				c0.996,0.348,1.488,1.347,1.098,2.233c-0.305,0.679-1.043,1.092-1.811,1.092c-0.233,0-0.468-0.038-0.696-0.118
				c-0.058-0.014-0.143-0.022-0.249-0.022c-0.618,0-1.986,0.27-3.398,1.196c-1.443,0.945-3.166,2.713-3.166,5.76V66.39
				c0,1.072-0.867,1.939-1.939,1.939c-1.072,0-1.939-0.867-1.939-1.939V44.684c-1.023-0.689-1.739-1.801-1.739-3.127
				C102.68,39.444,104.399,37.725,106.514,37.725 M106.514,42.97c0.776,0,1.409-0.632,1.409-1.413c0-0.776-0.632-1.409-1.409-1.409
				c-0.778,0-1.411,0.633-1.411,1.409C105.104,42.338,105.736,42.97,106.514,42.97 M106.514,36.666
				c-2.698,0-4.893,2.194-4.893,4.891c0,1.413,0.627,2.717,1.739,3.653v21.18c0,1.653,1.345,2.998,2.998,2.998
				c1.653,0,2.998-1.345,2.998-2.998V53.701c0-2.066,0.904-3.706,2.687-4.875c1.28-0.839,2.468-1.023,2.818-1.023
				c0.004,0,0.009,0,0.013,0c0.301,0.093,0.613,0.14,0.932,0.14c1.219,0,2.309-0.674,2.777-1.716
				c0.301-0.683,0.302-1.428,0.008-2.105c-0.313-0.72-0.941-1.289-1.723-1.563c-0.591-0.207-1.268-0.311-2.012-0.311
				c-1.157,0-2.423,0.251-3.665,0.714c0.141-0.45,0.215-0.923,0.215-1.405C111.406,38.86,109.212,36.666,106.514,36.666
				L106.514,36.666z M106.514,41.911c-0.194,0-0.352-0.159-0.352-0.354c0-0.193,0.158-0.35,0.352-0.35c0.193,0,0.35,0.157,0.35,0.35
				C106.864,41.753,106.707,41.911,106.514,41.911L106.514,41.911z"/>
		</g>
		<g>
			<path class="st3" d="M58.16,92.568c-0.996,0-1.798-0.349-2.384-1.037c-0.563-0.663-0.849-1.587-0.849-2.746v-0.328
				c0-0.721,0.125-1.367,0.373-1.92c0.258-0.579,0.64-1.036,1.135-1.357c0.494-0.321,1.069-0.484,1.707-0.484
				c0.905,0,1.653,0.26,2.221,0.771c0.57,0.514,0.898,1.219,0.974,2.097c0.013,0.147-0.037,0.294-0.137,0.404
				c-0.1,0.109-0.242,0.171-0.39,0.171h-1.533c-0.286,0-0.521-0.227-0.529-0.514c-0.011-0.35-0.095-0.467-0.131-0.502
				c-0.079-0.075-0.248-0.117-0.475-0.117c-0.227,0-0.319,0.075-0.387,0.189c-0.072,0.121-0.195,0.432-0.205,1.16v0.461
				c0,0.802,0.118,1.131,0.189,1.256c0.036,0.065,0.104,0.185,0.421,0.185c0.147,0,0.345-0.021,0.451-0.119
				c0.076-0.07,0.122-0.231,0.129-0.452c0.009-0.286,0.243-0.513,0.529-0.513h1.529c0.144,0,0.283,0.059,0.383,0.163
				c0.1,0.105,0.153,0.246,0.146,0.39c-0.024,0.55-0.172,1.047-0.438,1.477c-0.272,0.438-0.655,0.78-1.139,1.018
				C59.283,92.452,58.748,92.568,58.16,92.568z"/>
			<path class="st1" d="M58.142,85.227c0.774,0,1.396,0.212,1.867,0.635c0.47,0.423,0.737,1.006,0.802,1.749h-1.533
				c-0.012-0.403-0.11-0.692-0.294-0.869c-0.184-0.176-0.465-0.264-0.841-0.264c-0.383,0-0.663,0.149-0.841,0.446
				c-0.178,0.297-0.272,0.772-0.28,1.425v0.468c0,0.706,0.086,1.212,0.256,1.516c0.171,0.303,0.465,0.455,0.883,0.455
				c0.353,0,0.623-0.087,0.81-0.26c0.187-0.173,0.286-0.448,0.298-0.824h1.529c-0.02,0.462-0.14,0.869-0.359,1.222
				c-0.219,0.353-0.527,0.627-0.922,0.821c-0.396,0.194-0.848,0.291-1.356,0.291c-0.838,0-1.498-0.284-1.98-0.85
				c-0.482-0.567-0.723-1.368-0.723-2.402v-0.328c0-0.649,0.109-1.218,0.326-1.704c0.218-0.487,0.531-0.863,0.94-1.128
				C57.132,85.36,57.605,85.227,58.142,85.227 M58.142,84.168c-0.743,0-1.414,0.192-1.996,0.57c-0.581,0.377-1.029,0.91-1.33,1.584
				c-0.278,0.62-0.418,1.339-0.418,2.136v0.328c0,1.287,0.328,2.326,0.974,3.088c0.682,0.801,1.645,1.224,2.788,1.224
				c0.669,0,1.283-0.134,1.823-0.4c0.575-0.282,1.031-0.691,1.355-1.213c0.315-0.509,0.489-1.092,0.517-1.734
				c0.013-0.289-0.093-0.57-0.293-0.779c-0.161-0.168-0.371-0.277-0.597-0.313c0.239-0.035,0.46-0.152,0.626-0.332
				c0.201-0.219,0.3-0.512,0.274-0.807c-0.088-1.016-0.475-1.838-1.148-2.444C60.049,84.473,59.183,84.168,58.142,84.168
				L58.142,84.168z M58.168,89.728c-0.036-0.12-0.089-0.388-0.089-0.912v-0.468c0.006-0.464,0.063-0.703,0.1-0.809
				c0.012,0,0.023,0.001,0.033,0.001c0.003,0.028,0.005,0.061,0.007,0.101c0.015,0.515,0.397,0.936,0.892,1.014
				c-0.498,0.075-0.884,0.496-0.9,1.013c-0.001,0.022-0.002,0.041-0.003,0.057C58.195,89.728,58.182,89.728,58.168,89.728
				L58.168,89.728z"/>
		</g>
		<g>
			<path class="st3" d="M66.638,92.568c-0.64,0-1.22-0.157-1.723-0.467c-0.506-0.313-0.904-0.76-1.182-1.332
				c-0.268-0.549-0.41-1.182-0.424-1.882v-0.384c0-0.723,0.132-1.375,0.393-1.939c0.273-0.589,0.671-1.051,1.184-1.374
				c0.511-0.323,1.098-0.487,1.744-0.487c0.639,0,1.221,0.162,1.728,0.482c0.508,0.32,0.906,0.778,1.183,1.36
				c0.267,0.56,0.405,1.206,0.409,1.919v0.308c0,0.721-0.133,1.372-0.395,1.937c-0.273,0.59-0.67,1.052-1.181,1.374
				C67.865,92.405,67.282,92.568,66.638,92.568z M66.63,87.012c-0.193,0-0.646,0-0.693,1.291l-0.004,0.473
				c0,0.537,0.082,0.96,0.237,1.221c0.112,0.188,0.248,0.265,0.469,0.265c0.204,0,0.333-0.075,0.447-0.261
				c0.156-0.253,0.239-0.67,0.242-1.204v-0.302c0-0.692-0.129-1.046-0.238-1.221C66.973,87.088,66.84,87.012,66.63,87.012z"/>
			<path class="st1" d="M66.63,85.232c0.54,0,1.022,0.133,1.446,0.4c0.424,0.267,0.753,0.647,0.988,1.14
				c0.235,0.493,0.354,1.057,0.357,1.694v0.305c0,0.646-0.115,1.218-0.346,1.715c-0.231,0.498-0.559,0.881-0.984,1.149
				c-0.425,0.269-0.909,0.403-1.452,0.403s-1.025-0.13-1.446-0.389c-0.421-0.26-0.749-0.63-0.984-1.113
				c-0.235-0.482-0.359-1.036-0.37-1.66v-0.374c0-0.649,0.115-1.221,0.344-1.717c0.23-0.496,0.558-0.879,0.986-1.148
				C65.597,85.366,66.083,85.232,66.63,85.232 M66.638,90.791c0.388,0,0.688-0.171,0.898-0.514c0.211-0.343,0.317-0.836,0.32-1.479
				v-0.304c0-0.658-0.106-1.158-0.318-1.5c-0.212-0.341-0.515-0.512-0.909-0.512c-0.771,0-1.178,0.601-1.222,1.802l-0.005,0.487
				c0,0.649,0.104,1.148,0.311,1.496C65.921,90.617,66.229,90.791,66.638,90.791 M66.63,84.173c-0.747,0-1.429,0.192-2.027,0.569
				c-0.6,0.378-1.065,0.916-1.381,1.598c-0.293,0.635-0.442,1.362-0.442,2.162v0.374c0.015,0.797,0.175,1.505,0.477,2.125
				c0.322,0.662,0.787,1.183,1.379,1.549c0.589,0.363,1.262,0.547,2.002,0.547c0.745,0,1.424-0.191,2.019-0.567
				c0.597-0.377,1.061-0.915,1.378-1.599c0.295-0.635,0.444-1.362,0.444-2.16v-0.305c-0.004-0.797-0.159-1.519-0.461-2.15
				c-0.321-0.673-0.785-1.205-1.378-1.579C68.047,84.362,67.371,84.173,66.63,84.173L66.63,84.173z M66.614,87.541
				c0.004,0,0.009,0,0.015,0c0.07,0.117,0.169,0.369,0.169,0.953v0.304c-0.003,0.599-0.115,0.847-0.164,0.926
				c-0.002,0.003-0.003,0.006-0.004,0.008c-0.068-0.121-0.168-0.383-0.168-0.961l0.004-0.477
				C66.484,87.811,66.577,87.605,66.614,87.541L66.614,87.541z"/>
		</g>
		<g>
			<path class="st3" d="M76.506,92.477c-0.193,0-0.371-0.105-0.464-0.275l-1.267-2.311v2.056c0,0.292-0.237,0.529-0.529,0.529
				h-1.538c-0.292,0-0.529-0.237-0.529-0.529v-6.625c0-0.292,0.237-0.529,0.529-0.529h1.538c0.194,0,0.371,0.106,0.465,0.275
				l1.262,2.306v-2.052c0-0.292,0.237-0.529,0.529-0.529h1.534c0.292,0,0.529,0.237,0.529,0.529v6.625
				c0,0.292-0.237,0.529-0.529,0.529H76.506z"/>
			<path class="st1" d="M78.035,85.323v6.625h-1.529l-2.26-4.122v4.122h-1.538v-6.625h1.538l2.256,4.122v-4.122H78.035
				 M78.035,84.264h-1.534c-0.579,0-1.049,0.464-1.059,1.041l-0.268-0.49c-0.186-0.339-0.542-0.551-0.929-0.551h-1.538
				c-0.585,0-1.059,0.474-1.059,1.059v6.625c0,0.585,0.474,1.059,1.059,1.059h1.538c0.581,0,1.053-0.468,1.059-1.048l0.273,0.498
				c0.186,0.339,0.542,0.55,0.928,0.55h1.529c0.585,0,1.059-0.474,1.059-1.059v-6.625C79.094,84.738,78.62,84.264,78.035,84.264
				L78.035,84.264z"/>
		</g>
		<g>
			<path class="st3" d="M83.968,92.568c-0.592,0-1.139-0.113-1.625-0.338c-0.512-0.235-0.906-0.567-1.173-0.989
				c-0.265-0.419-0.4-0.904-0.4-1.441c0-0.292,0.237-0.529,0.529-0.529h1.131c-1.211-0.641-1.468-1.535-1.468-2.177
				c0-0.481,0.139-0.913,0.412-1.286c0.262-0.357,0.632-0.637,1.098-0.831c0.439-0.182,0.935-0.275,1.473-0.275
				c0.534,0,1.024,0.103,1.457,0.304c0.453,0.212,0.813,0.521,1.069,0.919c0.256,0.4,0.386,0.859,0.386,1.362
				c0,0.292-0.237,0.529-0.529,0.529h-1.136c0.135,0.065,0.26,0.131,0.374,0.199c0.845,0.505,1.292,1.252,1.292,2.16
				c0,0.738-0.288,1.353-0.833,1.782C85.512,92.363,84.819,92.568,83.968,92.568z M83.356,89.67c0.011,0.041,0.016,0.085,0.016,0.13
				c0,0.197,0.036,0.34,0.101,0.402c0.026,0.024,0.139,0.106,0.495,0.106c0.129,0,0.229-0.022,0.28-0.061
				c0.014-0.16-0.013-0.181-0.03-0.195c-0.051-0.042-0.217-0.155-0.679-0.316C83.476,89.714,83.415,89.692,83.356,89.67z
				 M83.911,86.967c-0.147,0-0.261,0.026-0.322,0.074c-0.042,0.045-0.03,0.069,0.023,0.11c0.067,0.053,0.244,0.162,0.685,0.314
				c-0.02-0.055-0.031-0.115-0.031-0.178c0-0.175-0.053-0.225-0.071-0.242C84.175,87.028,84.11,86.967,83.911,86.967z"/>
			<path class="st1" d="M83.946,85.232c0.459,0,0.87,0.085,1.233,0.255s0.646,0.412,0.848,0.725
				c0.201,0.314,0.302,0.673,0.302,1.076h-1.533c0-0.27-0.079-0.479-0.239-0.628c-0.159-0.149-0.375-0.223-0.646-0.223
				c-0.274,0-0.491,0.063-0.65,0.189c-0.159,0.126-0.239,0.285-0.239,0.48c0,0.17,0.088,0.323,0.263,0.462
				c0.175,0.138,0.483,0.28,0.924,0.428c0.441,0.147,0.803,0.306,1.086,0.476c0.69,0.413,1.034,0.981,1.034,1.706
				c0,0.58-0.21,1.035-0.631,1.365c-0.421,0.331-0.998,0.496-1.731,0.496c-0.517,0-0.985-0.096-1.404-0.289
				c-0.419-0.193-0.735-0.457-0.946-0.792C81.406,90.623,81.3,90.236,81.3,89.8h1.542c0,0.355,0.089,0.616,0.265,0.785
				c0.177,0.168,0.464,0.252,0.861,0.252c0.254,0,0.455-0.057,0.603-0.17c0.147-0.114,0.221-0.274,0.221-0.48
				c0-0.234-0.079-0.416-0.239-0.546c-0.159-0.131-0.439-0.266-0.839-0.405c-0.4-0.14-0.727-0.275-0.982-0.405
				c-0.826-0.421-1.24-1.001-1.24-1.737c0-0.367,0.103-0.692,0.309-0.972c0.206-0.28,0.497-0.499,0.874-0.655
				C83.053,85.309,83.476,85.232,83.946,85.232 M83.946,84.173c-0.608,0-1.172,0.106-1.676,0.315
				c-0.557,0.231-1.002,0.57-1.322,1.007c-0.341,0.464-0.514,1.002-0.514,1.598c0,0.495,0.121,1.111,0.569,1.69
				c-0.44,0.128-0.762,0.535-0.762,1.017c0,0.638,0.162,1.218,0.481,1.724c0.322,0.51,0.793,0.909,1.399,1.188
				c0.556,0.256,1.177,0.385,1.846,0.385c0.973,0,1.775-0.243,2.385-0.723c0.677-0.531,1.035-1.291,1.035-2.197
				c0-0.55-0.137-1.259-0.684-1.898c0.4-0.151,0.684-0.538,0.684-0.991c0-0.607-0.158-1.161-0.47-1.648
				c-0.312-0.485-0.746-0.859-1.291-1.114C85.124,84.292,84.558,84.173,83.946,84.173L83.946,84.173z"/>
		</g>
		<g>
			<path class="st3" d="M92.232,92.568c-0.64,0-1.22-0.157-1.723-0.467c-0.506-0.313-0.904-0.76-1.182-1.332
				c-0.268-0.549-0.41-1.182-0.424-1.882v-0.384c0-0.723,0.132-1.375,0.393-1.939c0.273-0.589,0.671-1.051,1.184-1.374
				c0.511-0.323,1.098-0.487,1.744-0.487c0.639,0,1.221,0.162,1.728,0.482c0.508,0.32,0.906,0.778,1.183,1.36
				c0.267,0.56,0.405,1.206,0.409,1.919v0.308c0,0.721-0.133,1.372-0.395,1.937c-0.273,0.59-0.67,1.052-1.181,1.374
				C93.459,92.405,92.875,92.568,92.232,92.568z M92.224,87.012c-0.193,0-0.646,0-0.693,1.291l-0.004,0.473
				c0,0.537,0.082,0.96,0.237,1.221c0.112,0.188,0.248,0.265,0.469,0.265c0.203,0,0.333-0.075,0.447-0.261
				c0.156-0.253,0.239-0.67,0.242-1.204v-0.302c0-0.692-0.129-1.046-0.238-1.221C92.567,87.088,92.434,87.012,92.224,87.012z"/>
			<path class="st1" d="M92.224,85.232c0.54,0,1.022,0.133,1.446,0.4c0.424,0.267,0.753,0.647,0.988,1.14
				c0.235,0.493,0.354,1.057,0.357,1.694v0.305c0,0.646-0.115,1.218-0.346,1.715c-0.231,0.498-0.559,0.881-0.984,1.149
				c-0.425,0.269-0.909,0.403-1.452,0.403c-0.543,0-1.025-0.13-1.446-0.389c-0.421-0.26-0.749-0.63-0.984-1.113
				c-0.235-0.482-0.359-1.036-0.37-1.66v-0.374c0-0.649,0.115-1.221,0.344-1.717c0.23-0.496,0.558-0.879,0.986-1.148
				C91.19,85.366,91.677,85.232,92.224,85.232 M92.232,90.791c0.388,0,0.688-0.171,0.898-0.514c0.211-0.343,0.317-0.836,0.32-1.479
				v-0.304c0-0.658-0.106-1.158-0.318-1.5c-0.212-0.341-0.515-0.512-0.909-0.512c-0.771,0-1.178,0.601-1.222,1.802l-0.005,0.487
				c0,0.649,0.104,1.148,0.311,1.496C91.515,90.617,91.823,90.791,92.232,90.791 M92.224,84.173c-0.747,0-1.429,0.192-2.027,0.569
				c-0.6,0.378-1.065,0.916-1.381,1.598c-0.293,0.635-0.442,1.362-0.442,2.162v0.374c0.015,0.797,0.175,1.505,0.477,2.125
				c0.322,0.662,0.787,1.183,1.379,1.549c0.589,0.363,1.262,0.547,2.002,0.547c0.745,0,1.424-0.191,2.019-0.567
				c0.597-0.377,1.061-0.915,1.378-1.599c0.295-0.635,0.444-1.362,0.444-2.16v-0.305c-0.004-0.797-0.159-1.519-0.461-2.15
				c-0.321-0.673-0.785-1.205-1.378-1.579C93.641,84.362,92.965,84.173,92.224,84.173L92.224,84.173z M92.207,87.541
				c0.004,0,0.009,0,0.015,0c0.07,0.117,0.169,0.369,0.169,0.953v0.304c-0.003,0.599-0.115,0.847-0.164,0.926
				c-0.002,0.003-0.003,0.006-0.004,0.008c-0.068-0.121-0.168-0.383-0.168-0.961l0.005-0.477
				C92.078,87.811,92.171,87.605,92.207,87.541L92.207,87.541z"/>
		</g>
		<g>
			<path class="st3" d="M101.797,92.477c-0.203,0-0.389-0.117-0.477-0.3l-0.951-1.98v1.75c0,0.292-0.237,0.529-0.529,0.529h-1.538
				c-0.292,0-0.529-0.237-0.529-0.529v-6.625c0-0.292,0.237-0.529,0.529-0.529h2.51c0.878,0,1.587,0.216,2.109,0.642
				c0.553,0.453,0.834,1.087,0.834,1.887c0,0.555-0.115,1.032-0.343,1.415c-0.151,0.255-0.355,0.477-0.608,0.665l1.116,2.24
				c0.036,0.073,0.055,0.154,0.055,0.236c0,0.292-0.237,0.598-0.529,0.598H101.797z M100.812,87.846
				c0.077,0,0.215-0.009,0.271-0.069c0.067-0.072,0.081-0.208,0.081-0.309c0-0.148-0.029-0.254-0.085-0.315
				c-0.054-0.06-0.175-0.072-0.266-0.072h-0.443v0.765H100.812z"/>
			<path class="st1" d="M100.812,85.323c0.757,0,1.348,0.175,1.774,0.523s0.639,0.84,0.639,1.477c0,0.461-0.09,0.843-0.269,1.146
				c-0.18,0.303-0.461,0.548-0.843,0.736l1.332,2.674v0.069h-1.647l-1.126-2.343h-0.832v2.343h-1.538v-6.625H100.812 M99.839,88.375
				h0.972c0.292,0,0.512-0.079,0.659-0.239s0.221-0.382,0.221-0.668c0-0.285-0.074-0.51-0.223-0.673
				c-0.149-0.163-0.368-0.244-0.657-0.244h-0.972V88.375 M100.812,84.264h-2.51c-0.585,0-1.059,0.474-1.059,1.059v6.625
				c0,0.585,0.474,1.059,1.059,1.059h1.538c0.441,0,0.819-0.27,0.978-0.653l0.025,0.053c0.176,0.367,0.547,0.6,0.954,0.6h1.647
				c0.585,0,1.059-0.474,1.059-1.059v-0.069c0-0.164-0.038-0.325-0.111-0.472l-0.933-1.873c0.158-0.159,0.294-0.335,0.407-0.525
				c0.277-0.468,0.418-1.035,0.418-1.687c0-1.204-0.559-1.914-1.029-2.297C102.637,84.52,101.815,84.264,100.812,84.264
				L100.812,84.264z"/>
		</g>
		<g>
			<path class="st3" d="M107.985,92.477c-0.292,0-0.529-0.237-0.529-0.529v-4.863h-1.35c-0.292,0-0.529-0.237-0.529-0.529v-1.233
				c0-0.292,0.237-0.529,0.529-0.529h5.332c0.292,0,0.529,0.237,0.529,0.529v1.233c0,0.292-0.237,0.529-0.529,0.529h-1.385v4.863
				c0,0.292-0.237,0.529-0.529,0.529H107.985z"/>
			<path class="st1" d="M111.437,85.323v1.233h-1.914v5.392h-1.538v-5.392h-1.88v-1.233H111.437 M111.437,84.264h-5.332
				c-0.585,0-1.059,0.474-1.059,1.059v1.233c0,0.585,0.474,1.059,1.059,1.059h0.821v4.333c0,0.585,0.474,1.059,1.059,1.059h1.538
				c0.585,0,1.059-0.474,1.059-1.059v-4.333h0.855c0.585,0,1.059-0.474,1.059-1.059v-1.233
				C112.496,84.738,112.022,84.264,111.437,84.264L111.437,84.264z"/>
		</g>
		<g>
			<path class="st3" d="M114.685,92.477c-0.292,0-0.529-0.237-0.529-0.529v-6.625c0-0.292,0.237-0.529,0.529-0.529h1.533
				c0.292,0,0.529,0.237,0.529,0.529v6.625c0,0.292-0.237,0.529-0.529,0.529H114.685z"/>
			<path class="st1" d="M116.218,85.323v6.625h-1.533v-6.625H116.218 M116.218,84.264h-1.533c-0.585,0-1.059,0.474-1.059,1.059
				v6.625c0,0.585,0.474,1.059,1.059,1.059h1.533c0.585,0,1.059-0.474,1.059-1.059v-6.625
				C117.277,84.738,116.803,84.264,116.218,84.264L116.218,84.264z"/>
		</g>
		<g>
			<path class="st3" d="M122.278,92.568c-0.912,0-1.651-0.259-2.198-0.771c-0.554-0.52-0.84-1.226-0.851-2.1v-4.374
				c0-0.292,0.237-0.529,0.529-0.529h1.547c0.292,0,0.529,0.237,0.529,0.529v4.399c0.014,0.558,0.232,0.558,0.443,0.558
				c0.16,0,0.271-0.033,0.33-0.098c0.025-0.028,0.109-0.151,0.109-0.534v-4.326c0-0.292,0.237-0.529,0.529-0.529h1.538
				c0.292,0,0.529,0.237,0.529,0.529v4.336c0,0.581-0.124,1.097-0.37,1.535c-0.253,0.453-0.621,0.801-1.093,1.037
				C123.401,92.455,122.872,92.568,122.278,92.568z"/>
			<path class="st1" d="M124.785,85.323v4.336c0,0.491-0.101,0.917-0.302,1.276c-0.201,0.36-0.491,0.634-0.867,0.821
				c-0.377,0.188-0.822,0.282-1.336,0.282c-0.777,0-1.389-0.209-1.836-0.628c-0.447-0.419-0.675-0.992-0.683-1.72v-4.368h1.547
				v4.399c0.017,0.725,0.342,1.088,0.972,1.088c0.318,0,0.559-0.091,0.723-0.273c0.163-0.182,0.245-0.477,0.245-0.888v-4.327
				H124.785 M124.785,84.264h-1.538c-0.434,0-0.807,0.261-0.97,0.634c-0.164-0.373-0.537-0.634-0.97-0.634h-1.547
				c-0.585,0-1.059,0.474-1.059,1.059v4.368c0.012,1.037,0.355,1.871,1.018,2.493c0.648,0.607,1.509,0.914,2.56,0.914
				c0.677,0,1.285-0.132,1.809-0.393c0.569-0.284,1.013-0.705,1.319-1.252c0.29-0.517,0.437-1.12,0.437-1.793v-4.336
				C125.843,84.738,125.369,84.264,124.785,84.264L124.785,84.264z"/>
		</g>
		<g>
			<path class="st3" d="M133.583,92.477c-0.292,0-0.529-0.237-0.529-0.529V91.01l-0.36,1.102c-0.072,0.218-0.274,0.365-0.503,0.365
				h-1.017c-0.229,0-0.432-0.147-0.503-0.365l-0.365-1.113l0,0.949c0,0.292-0.237,0.529-0.529,0.529h-1.538
				c-0.292,0-0.529-0.237-0.529-0.529v-6.625c0-0.292,0.237-0.529,0.529-0.529h2.02c0.232,0,0.437,0.151,0.506,0.373l0.917,2.969
				l0.915-2.968c0.068-0.223,0.273-0.374,0.506-0.374h2.024c0.292,0,0.529,0.237,0.529,0.529v6.625c0,0.292-0.237,0.529-0.529,0.529
				H133.583z"/>
			<path class="st1" d="M135.125,85.323v6.625h-1.542V90.4l0.149-3.167l-1.542,4.714h-1.017l-1.546-4.719l0.149,3.172v1.547h-1.538
				v-6.625h2.02l1.424,4.609l1.42-4.609H135.125 M135.125,84.264h-2.024c-0.465,0-0.875,0.303-1.012,0.747l-0.409,1.328l-0.41-1.329
				c-0.137-0.444-0.547-0.746-1.012-0.746h-2.02c-0.585,0-1.059,0.474-1.059,1.059v6.625c0,0.585,0.474,1.059,1.059,1.059h1.538
				c0.268,0,0.512-0.099,0.699-0.263c0.189,0.166,0.435,0.263,0.699,0.263h1.017c0.263,0,0.508-0.097,0.697-0.261
				c0.186,0.163,0.43,0.261,0.697,0.261h1.542c0.585,0,1.059-0.474,1.059-1.059v-6.625C136.184,84.738,135.71,84.264,135.125,84.264
				L135.125,84.264z"/>
		</g>
	</g>
</g>
</svg>
