<?xml version="1.0" encoding="utf-8"?>
<!-- Generator: Adobe Illustrator 24.0.0, SVG Export Plug-In . SVG Version: 6.00 Build 0)  -->
<svg version="1.1" id="Layer_1" xmlns="http://www.w3.org/2000/svg" xmlns:xlink="http://www.w3.org/1999/xlink" x="0px" y="0px"
	 viewBox="0 0 100 30" style="enable-background:new 0 0 100 30;" xml:space="preserve">
<g>
	<path d="M39.227,7.877c-0.596,0-1.08,0.484-1.08,1.08c0,0.596,0.484,1.08,1.08,1.08c0.596,0,1.08-0.484,1.08-1.08
		C40.307,8.361,39.823,7.877,39.227,7.877z"/>
	<path d="M25.957,17.068c0,0.249-0.202,0.451-0.451,0.451h-3.61c-0.249,0-0.451-0.202-0.451-0.451V9.274h-1.805v6.714
		c0,1.867,1.524,3.289,3.289,3.289h1.639c1.665,0,3.196-1.439,3.196-3.289V9.274h-1.805V17.068z"/>
	<rect x="29.453" y="8.437" width="1.805" height="10.759"/>
	<rect x="38.325" y="11.08" width="1.805" height="8.116"/>
	<polygon points="35.199,9.274 33.394,9.274 33.394,11.077 32.582,11.077 32.582,12.834 33.394,12.834 33.394,19.196 35.199,19.196 
		35.199,12.834 37.003,12.834 37.003,11.08 35.199,11.08 	"/>
	<path d="M58.315,11.082l-3.072-0.001v1.753h3.393c0.249,0,0.451,0.202,0.451,0.451v0.846l-2.841,0.001
		c-1.422,0-2.574,1.153-2.574,2.574s1.153,2.574,2.574,2.574h1.285c0.737,0,1.359-0.493,1.556-1.167v1.082h1.805V13.66
		C60.892,12.236,59.738,11.082,58.315,11.082z M59.087,17.069c0,0.248-0.201,0.449-0.449,0.449h-2.711
		c-0.248,0-0.449-0.201-0.449-0.449v-1.041c0-0.248,0.201-0.449,0.449-0.449h3.16V17.069z"/>
	<polygon points="69.211,11.081 67.124,11.081 64.48,14.135 64.255,14.135 64.255,8.447 62.45,8.447 62.45,19.196 64.255,19.196 
		64.255,15.575 64.473,15.575 67.572,19.194 69.811,19.194 66.018,14.765 	"/>
	<path d="M50.415,11.081c0,0-0.784,0-0.824,0c-0.863,0-1.582,0.617-1.74,1.433c-0.275-0.833-1.02-1.433-1.949-1.433
		c0,0-0.694,0-0.7,0c-0.805,0-1.484,0.536-1.701,1.271V11.26h-1.805v7.936h1.805v-5.911c0-0.249,0.202-0.451,0.451-0.451h1.805
		c0.249,0,0.451,0.202,0.451,0.451v5.911h1.805v-5.911c0-0.249,0.202-0.451,0.451-0.451h1.805c0.249,0,0.451,0.202,0.451,0.451
		v5.911h1.805l0-6.003C52.527,12.027,51.581,11.081,50.415,11.081z"/>
	<path d="M81.399,11.081c-0.803,0-1.483,0.523-1.719,1.248V11.26h-1.805v7.936h1.805v-5.911c0-0.249,0.202-0.451,0.451-0.451h2.257
		v-1.753L81.399,11.081z"/>
	<path d="M73.179,10.993h-0.001h-0.352c-1.913,0-3.464,1.551-3.464,3.464l0,0.707c0,2.226,1.805,4.031,4.031,4.031h1.677v-1.675
		h-1.765c-1.13,0-2.063-0.835-2.198-1.929l5.536,0v-1.134C76.642,12.544,75.092,10.993,73.179,10.993z M71.025,14.156
		c0.205-0.898,1.009-1.569,1.969-1.569c0.96,0,1.763,0.671,1.969,1.569H71.025z"/>
</g>
</svg>
