<?xml version="1.0" encoding="utf-8"?>
<!-- Generator: Adobe Illustrator 24.0.0, SVG Export Plug-In . SVG Version: 6.00 Build 0)  -->
<svg version="1.1" id="Layer_1" xmlns="http://www.w3.org/2000/svg" xmlns:xlink="http://www.w3.org/1999/xlink" x="0px" y="0px"
	 viewBox="0 0 100 30" style="enable-background:new 0 0 100 30;" xml:space="preserve">
<g>
	<path d="M39.938,8.655c0.112,0.03,0.228,0.024,0.343,0.032c0.611,0.043,1.211,0.136,1.775,0.392
		c0.391,0.177,0.719,0.437,1.007,0.752c0.207,0.226,0.389,0.469,0.522,0.747c0.121,0.255,0.188,0.522,0.188,0.804
		c0,2.584,0,5.168,0.002,7.753c0,0.072-0.015,0.096-0.092,0.095c-0.336-0.005-0.672-0.004-1.008,0
		c-0.07,0.001-0.084-0.02-0.083-0.086c0.002-1.59,0.001-3.18,0.004-4.77c0-0.084-0.022-0.103-0.104-0.103
		c-2.407,0.002-4.813,0.002-7.22,0c-0.082,0-0.104,0.018-0.104,0.102c0.003,1.587,0.002,3.174,0.004,4.761
		c0,0.072-0.014,0.096-0.091,0.095c-0.339-0.005-0.677-0.004-1.016,0c-0.063,0.001-0.076-0.018-0.076-0.078
		c0.002-2.562,0-5.125,0.003-7.687c0.001-0.501,0.172-0.952,0.47-1.349c0.504-0.674,1.162-1.13,1.977-1.353
		c0.113-0.031,0.229-0.043,0.348-0.043c0.666-0.001,1.332-0.034,1.998-0.048c0.015,0,0.034,0.006,0.041-0.016
		C39.195,8.655,39.567,8.655,39.938,8.655z M38.876,13.092c1.199,0,2.398,0,3.597,0c0.019,0,0.038-0.001,0.057,0
		c0.045,0.004,0.063-0.013,0.062-0.061c-0.008-0.51,0.051-1.021,0-1.531c-0.031-0.313-0.134-0.598-0.342-0.84
		c-0.275-0.32-0.625-0.518-1.028-0.629c-0.539-0.148-1.091-0.174-1.645-0.18c-0.814-0.008-1.627,0.048-2.44,0.048
		c-0.123,0-0.245,0.017-0.365,0.043c-0.51,0.11-0.942,0.36-1.288,0.751c-0.204,0.231-0.329,0.489-0.319,0.814
		c0.015,0.494,0.006,0.989,0.002,1.483c-0.001,0.084,0.022,0.104,0.104,0.104C36.473,13.091,37.675,13.092,38.876,13.092z"/>
	<path d="M94.49,14.261c-0.026-0.015-0.053-0.006-0.08-0.006c-3.25,0-6.5,0-9.75-0.001c-0.121,0-0.103,0.013-0.103-0.105
		c-0.001-0.33,0.002-0.661-0.002-0.991c-0.001-0.068,0.011-0.092,0.087-0.092c3.272,0.002,6.544,0.002,9.816,0.002
		c0.011,0,0.021-0.002,0.032-0.003C94.49,13.463,94.49,13.862,94.49,14.261z"/>
	<path d="M94.49,9.933c-0.033,0.001-0.065,0.002-0.098,0.002c-3.245,0-6.49,0-9.736,0.002c-0.082,0-0.104-0.018-0.102-0.102
		c0.005-0.336,0.004-0.672,0.001-1.008c-0.001-0.062,0.017-0.076,0.077-0.076c3.283,0.002,6.567,0.002,9.85,0.002
		c0.003,0,0.005-0.001,0.008-0.001C94.49,9.146,94.49,9.54,94.49,9.933z"/>
	<path d="M94.49,19.194c-0.033,0-0.065,0.001-0.098,0.001c-3.245,0-6.49,0-9.735,0.002c-0.081,0-0.104-0.017-0.102-0.101
		c0.006-0.336,0.003-0.672,0.001-1.008c0-0.052,0.006-0.076,0.068-0.076c3.278,0.002,6.556,0.002,9.834,0.002
		c0.011,0,0.022,0,0.033,0C94.49,18.408,94.49,18.801,94.49,19.194z"/>
	<path d="M74.47,18.077c0.149-0.511,0.31-1.018,0.496-1.517c0.795-2.143,1.59-4.285,2.384-6.428
		c0.163-0.441,0.328-0.881,0.489-1.323c0.02-0.056,0.046-0.073,0.105-0.073c0.426,0.003,0.852,0.003,1.278,0
		c0.066,0,0.084,0.008,0.056,0.079c-1.355,3.468-2.708,6.937-4.059,10.407c-0.021,0.054-0.045,0.073-0.104,0.073
		c-0.437-0.003-0.874-0.003-1.311,0c-0.061,0-0.082-0.022-0.102-0.075c-1.34-3.471-2.682-6.941-4.025-10.411
		c-0.026-0.066-0.009-0.073,0.053-0.073c0.459,0.002,0.918,0.003,1.377,0c0.058,0,0.078,0.02,0.096,0.071
		c0.674,1.889,1.352,3.776,2.024,5.665c0.334,0.939,0.685,1.873,0.992,2.822c0.079,0.243,0.149,0.489,0.222,0.733
		C74.447,18.046,74.449,18.065,74.47,18.077z"/>
	<path d="M8.857,18.028c0.033-0.111,0.061-0.204,0.088-0.297c0.222-0.754,0.506-1.486,0.78-2.222
		c0.837-2.255,1.673-4.51,2.508-6.765c0.02-0.054,0.041-0.075,0.102-0.075c0.451,0.003,0.901,0.002,1.362,0.002
		c-0.03,0.081-0.057,0.156-0.086,0.23c-1.332,3.416-2.664,6.832-3.995,10.248c-0.024,0.061-0.053,0.08-0.118,0.079
		c-0.429-0.003-0.858-0.004-1.287,0c-0.071,0.001-0.097-0.026-0.121-0.087C7.446,17.47,6.801,15.8,6.155,14.129
		C5.464,12.339,4.772,10.55,4.08,8.76C4.045,8.671,4.045,8.671,4.142,8.671c0.451,0,0.901,0.001,1.352-0.001
		c0.057,0,0.084,0.014,0.104,0.071c0.758,2.124,1.518,4.248,2.276,6.372c0.296,0.829,0.608,1.652,0.859,2.497
		C8.773,17.742,8.811,17.874,8.857,18.028z"/>
	<path d="M53.568,8.721c1.614,0,3.229,0.001,4.843-0.002c0.087,0,0.101,0.025,0.1,0.104c-0.004,0.358-0.004,0.716,0,1.074
		c0.001,0.071-0.012,0.096-0.091,0.097c-1.322,0.011-2.644,0.002-3.966,0.002c-0.079,0-0.098,0.019-0.098,0.098
		c0.002,3.046,0.002,6.092,0.002,9.138c0,0.124,0.015,0.107-0.11,0.107c-0.407,0.001-0.814,0.001-1.221,0
		c-0.116,0-0.102,0.014-0.102-0.107c0-2.161,0-4.322,0-6.482c0-0.888-0.001-1.776,0.002-2.663c0-0.071-0.015-0.09-0.089-0.09
		c-1.082,0.003-2.164,0.002-3.245,0.002c-0.295,0-0.59-0.006-0.884-0.005c-0.065,0-0.076-0.023-0.076-0.081
		c0.002-0.369,0.003-0.738,0-1.106C48.63,8.737,48.648,8.72,48.716,8.72C50.333,8.722,51.951,8.721,53.568,8.721z"/>
	<path d="M63.46,13.965c0-1.721,0.001-3.441-0.002-5.162c0-0.078,0.012-0.106,0.1-0.104c0.333,0.006,0.666,0.005,1,0.001
		c0.073-0.001,0.089,0.02,0.089,0.091c-0.002,1.043-0.002,2.087-0.002,3.13c0,2.403,0,4.807,0.002,7.21
		c0,0.077-0.015,0.101-0.097,0.099c-0.336-0.005-0.672-0.004-1.008,0c-0.07,0.001-0.084-0.019-0.084-0.086
		C63.46,17.417,63.46,15.691,63.46,13.965z"/>
	<path d="M24.073,9.933c-1.62,0-3.24-0.001-4.86,0.002c-0.085,0-0.102-0.023-0.101-0.103c0.005-0.33,0.004-0.661,0-0.992
		c-0.001-0.071,0.015-0.091,0.089-0.091c0.904,0.003,1.808,0.002,2.713,0.002c2.338,0,4.677,0,7.015,0c0.11,0,0.11,0,0.11,0.114
		c0,0.325-0.002,0.65,0.002,0.975c0.001,0.072-0.015,0.095-0.092,0.095C27.324,9.933,25.698,9.933,24.073,9.933z"/>
	<path d="M24.077,14.246c-1.62,0-3.24,0-4.86,0c-0.115,0-0.103,0.016-0.103-0.106c-0.001-0.333,0.001-0.667-0.002-1
		c-0.001-0.061,0.015-0.078,0.077-0.078c3.259,0.002,6.518,0.002,9.777,0c0.065,0,0.075,0.021,0.075,0.079
		c-0.003,0.336-0.004,0.672,0.001,1.008c0.001,0.077-0.015,0.099-0.096,0.099C27.322,14.245,25.699,14.246,24.077,14.246z"/>
	<path d="M24.071,19.194c-1.62,0-3.24-0.001-4.86,0.002c-0.077,0-0.101-0.016-0.1-0.097c0.005-0.336,0.004-0.672,0.001-1.008
		c-0.001-0.067,0.02-0.08,0.083-0.08c3.256,0.001,6.512,0.001,9.768,0c0.061,0,0.078,0.015,0.077,0.076
		c-0.003,0.341-0.004,0.683,0,1.024c0.001,0.069-0.018,0.085-0.086,0.084C27.327,19.193,25.699,19.194,24.071,19.194z"/>
</g>
</svg>
