<?xml version="1.0" encoding="utf-8"?>
<!-- Generator: Adobe Illustrator 24.0.0, SVG Export Plug-In . SVG Version: 6.00 Build 0)  -->
<svg version="1.1" id="Layer_1" xmlns="http://www.w3.org/2000/svg" xmlns:xlink="http://www.w3.org/1999/xlink" x="0px" y="0px"
	 viewBox="0 0 100 30" style="enable-background:new 0 0 100 30;" xml:space="preserve">
<g>
	<path d="M63.121,3.63c-0.365-0.048-0.657,0.152-0.76,0.507c-0.038,0.129-0.037,0.257-0.037,0.407L62.322,7.96
		c-0.853-0.763-1.8-1.146-2.881-1.166c-1.348-0.051-2.476,0.458-3.38,1.444c-1.442,1.569-1.53,4.02-0.207,5.7
		c0.686,0.869,1.569,1.409,2.627,1.604c0.303,0.056,0.6,0.084,0.891,0.084c1.073,0,2.062-0.381,2.951-1.138
		c0,0.016,0,0.032,0.001,0.047l0.005,0.263c0.011,0.364,0.227,0.622,0.579,0.691c0.334,0.061,0.634-0.092,0.777-0.413
		c0.062-0.143,0.061-0.293,0.058-0.464L63.745,4.52c0-0.076,0-0.153-0.003-0.23C63.726,3.93,63.487,3.677,63.121,3.63z
		 M61.437,13.325c-0.568,0.569-1.313,0.882-2.097,0.882c-0.001,0-0.001,0-0.002,0c-1.624-0.001-3.001-1.368-3.006-2.984
		c-0.002-0.798,0.312-1.554,0.883-2.126c0.569-0.569,1.32-0.884,2.116-0.884c0.002,0,0.003,0,0.005,0
		c1.646,0.002,2.987,1.345,2.988,2.993C62.324,12,62.009,12.752,61.437,13.325z"/>
	<path d="M74.587,13.604c-0.073-0.235-0.364-0.461-0.61-0.471c-0.277-0.022-0.544,0.193-0.645,0.282
		c-0.809,0.713-1.887,0.964-2.882,0.664c-0.997-0.297-1.761-1.096-2.046-2.138c-0.003-0.01-0.005-0.019-0.007-0.027
		c0.007-0.001,0.013-0.001,0.022-0.001l2.424-0.001l1.778,0.001c0.756,0.001,1.509,0.003,2.263-0.002
		c0.222,0,0.471-0.024,0.646-0.202c0.175-0.179,0.194-0.437,0.189-0.665c-0.041-2.101-1.677-3.914-3.802-4.218
		c-1.394-0.197-2.809,0.302-3.802,1.337c-0.995,1.037-1.419,2.421-1.164,3.796c0.407,2.194,2.209,3.665,4.345,3.665
		c0.246,0,0.497-0.02,0.752-0.06c0.936-0.149,1.731-0.561,2.364-1.226C74.577,14.163,74.657,13.833,74.587,13.604z M69.804,8.63
		c1.069-0.607,2.134-0.574,3.166,0.098c0.647,0.418,1.052,0.991,1.233,1.745h-5.789C68.626,9.645,69.082,9.04,69.804,8.63z"/>
	<path d="M41.363,11.248c0.011-1.179-0.442-2.292-1.272-3.137c-0.831-0.842-1.935-1.312-3.112-1.32
		C36.967,6.79,36.957,6.79,36.945,6.79c-1.177,0-2.28,0.45-3.11,1.268c-0.839,0.829-1.306,1.942-1.311,3.137
		c-0.015,2.424,1.934,4.412,4.345,4.432c0.013,0.001,0.026,0.001,0.039,0.001C39.347,15.627,41.343,13.671,41.363,11.248z
		 M39.039,13.328c-0.568,0.559-1.33,0.877-2.096,0.877c-0.008,0-0.017,0-0.025,0c-0.793-0.007-1.542-0.327-2.107-0.9
		c-0.565-0.573-0.873-1.322-0.866-2.11c0.015-1.677,1.343-2.981,3.029-2.981c0.008,0,0.017,0,0.024,0
		c1.631,0.012,2.949,1.379,2.939,3.048C39.932,12.029,39.613,12.764,39.039,13.328z"/>
	<path d="M51.903,14.737c0.001-0.409,0.004-0.817,0.007-1.225c0.009-1.045,0.019-2.126-0.022-3.19
		c-0.048-1.224-0.673-2.303-1.716-2.961c-1.037-0.654-2.322-0.755-3.444-0.272c-0.305,0.131-0.575,0.309-0.861,0.496
		c-0.004,0.002-0.008,0.005-0.013,0.007c-0.004-0.014-0.008-0.03-0.013-0.044c-0.102-0.286-0.232-0.469-0.397-0.555
		c-0.217-0.117-0.452-0.117-0.642-0.003c-0.222,0.134-0.348,0.396-0.348,0.718c-0.003,1.942-0.003,3.886-0.002,5.83v1.181
		c-0.001,0.041,0,0.083,0.004,0.123c0.037,0.371,0.277,0.609,0.642,0.636c0.393,0.031,0.661-0.177,0.738-0.532
		c0.032-0.149,0.032-0.298,0.032-0.418l-0.002-1.206c-0.003-0.906-0.005-1.813,0.011-2.718c0.007-0.351,0.074-0.7,0.189-0.985
		c0.409-1.011,1.467-1.569,2.58-1.351c1.039,0.201,1.826,1.166,1.831,2.247c0.003,0.748,0.003,1.496,0.002,2.243
		c0,0.655,0,1.31,0.002,1.965c0.001,0.3,0.116,0.477,0.212,0.573c0.127,0.124,0.296,0.189,0.494,0.189c0.004,0,0.008,0,0.012,0
		C51.619,15.477,51.902,15.178,51.903,14.737z"/>
	<path d="M83.339,6.792c-0.999,0.037-1.887,0.378-2.636,1.014c-0.04,0.034-0.081,0.069-0.12,0.105
		c-0.002-0.105-0.007-0.212-0.022-0.32c-0.028-0.203-0.171-0.471-0.388-0.586c-0.206-0.112-0.579-0.098-0.754,0.085
		c-0.185,0.192-0.252,0.486-0.254,0.681c-0.009,1.877-0.008,3.755-0.008,5.632v1.28c0,0.044,0,0.089,0.004,0.136
		c0.038,0.4,0.312,0.66,0.7,0.663c0.003,0,0.006,0,0.01,0c0.378,0,0.666-0.268,0.703-0.655c0.006-0.066,0.006-0.132,0.004-0.248
		l-0.001-3.371c-0.001-1.647,1.191-2.906,2.832-2.993c0.513-0.027,0.808-0.306,0.789-0.749C84.181,7.125,83.92,6.767,83.339,6.792z"
		/>
	<path d="M22.155,9.068c0.076,0.125,0.13,0.213,0.183,0.303c0.398,0.688,0.793,1.378,1.195,2.062
		c0.218,0.371,0.682,0.477,1.035,0.251c0.358-0.229,0.438-0.652,0.198-1.069c-0.652-1.13-1.303-2.258-1.958-3.386
		c-0.316-0.545-1.011-0.544-1.325,0c-0.972,1.685-1.943,3.371-2.915,5.055c-0.145,0.251-0.295,0.501-0.462,0.787
		c-0.072-0.115-0.124-0.193-0.172-0.276c-1.065-1.849-2.129-3.698-3.192-5.548c-0.237-0.41-0.666-0.54-1.052-0.316
		c-0.355,0.206-0.459,0.654-0.236,1.042c1.328,2.309,2.657,4.617,3.986,6.924c0.309,0.535,0.996,0.544,1.312,0.016
		c0.265-0.442,0.518-0.892,0.776-1.339c0.829-1.437,1.657-2.874,2.487-4.311C22.051,9.204,22.098,9.149,22.155,9.068z"/>
	<path d="M30.133,6.714c-0.525,0.002-0.921,0.394-0.92,0.908c0.001,0.525,0.404,0.928,0.929,0.929
		c0.516,0.001,0.922-0.413,0.919-0.938C31.056,7.096,30.66,6.711,30.133,6.714z"/>
	<path d="M26.163,15.466c0.533,0.002,0.932-0.391,0.932-0.919c0-0.524-0.387-0.914-0.91-0.919c-0.523-0.005-0.937,0.402-0.937,0.919
		C25.246,15.056,25.654,15.464,26.163,15.466z"/>
	<path d="M29.073,20.946c-0.021,0.032-0.039,0.066-0.058,0.1c-0.49,0.848-0.979,1.697-1.47,2.546
		c-0.051,0.088-0.11,0.169-0.193,0.295c-0.081-0.126-0.139-0.21-0.19-0.298c-0.495-0.857-0.988-1.715-1.486-2.569
		c-0.196-0.335-0.461-0.337-0.652-0.008c-0.477,0.823-0.95,1.647-1.428,2.47c-0.073,0.126-0.159,0.245-0.264,0.407
		c-0.11-0.18-0.19-0.309-0.266-0.44c-0.477-0.823-0.954-1.646-1.428-2.47c-0.097-0.168-0.22-0.273-0.422-0.192
		c-0.192,0.077-0.226,0.266-0.084,0.514c0.621,1.083,1.247,2.164,1.87,3.246c0.215,0.373,0.457,0.373,0.676-0.004
		c0.482-0.831,0.959-1.664,1.441-2.496c0.064-0.11,0.141-0.213,0.235-0.354c0.082,0.133,0.139,0.22,0.192,0.31
		c0.491,0.848,0.977,1.699,1.472,2.545c0.23,0.393,0.444,0.392,0.671,0.002c0.388-0.663,0.768-1.331,1.152-1.997
		c0.25-0.432,0.504-0.863,0.749-1.298c0.095-0.168,0.105-0.341-0.083-0.452C29.321,20.692,29.178,20.78,29.073,20.946z"/>
	<path d="M75.183,20.749c-0.715-0.178-1.343,0.035-1.931,0.475c-0.025-0.075-0.046-0.116-0.052-0.16
		c-0.031-0.185-0.128-0.315-0.322-0.298c-0.207,0.019-0.279,0.168-0.279,0.369c0.002,1.518,0.002,3.036,0.002,4.555
		c0,0.188,0.075,0.325,0.272,0.34c0.218,0.018,0.315-0.123,0.325-0.32c0.011-0.23,0.004-0.461,0.004-0.691c0-0.222,0-0.443,0-0.698
		c1.431,0.74,2.336,0.669,3.072-0.198c0.619-0.73,0.657-1.843,0.085-2.59C76.057,21.136,75.667,20.869,75.183,20.749z
		 M74.681,24.258c-0.818-0.004-1.477-0.666-1.479-1.486c-0.002-0.815,0.66-1.472,1.484-1.472c0.825,0,1.487,0.66,1.482,1.476
		C76.164,23.59,75.488,24.263,74.681,24.258z"/>
	<path d="M48.361,24.137c-0.494-0.44-0.988-0.879-1.516-1.35c0.098-0.093,0.164-0.159,0.235-0.222
		c0.473-0.421,0.948-0.841,1.42-1.262c0.143-0.128,0.167-0.286,0.049-0.436c-0.125-0.158-0.282-0.137-0.432-0.022
		c-0.069,0.052-0.133,0.11-0.198,0.168c-0.511,0.451-1.015,0.91-1.539,1.345c-0.1,0.083-0.278,0.09-0.419,0.09
		c-0.027,0-0.079-0.193-0.08-0.298c-0.007-0.903-0.002-1.805-0.008-2.708c-0.001-0.193-0.045-0.378-0.299-0.37
		c-0.243,0.008-0.291,0.18-0.291,0.38c0,1.662,0,3.323-0.001,4.985c0,0.209,0.075,0.378,0.302,0.373
		c0.229-0.004,0.291-0.181,0.29-0.386c-0.001-0.326-0.005-0.653,0.007-0.979c0.004-0.115,0.047-0.229,0.072-0.343
		c0.149,0.037,0.333,0.031,0.443,0.118c0.347,0.271,0.667,0.578,0.998,0.871c0.237,0.209,0.475,0.418,0.713,0.627
		c0.145,0.127,0.299,0.145,0.431-0.006c0.128-0.146,0.101-0.3-0.031-0.437C48.462,24.225,48.411,24.182,48.361,24.137z"/>
	<path d="M59.427,20.966c-0.064,0.037-0.129,0.069-0.229,0.121c-0.012-0.135-0.03-0.237-0.031-0.339
		c-0.003-0.413,0.001-0.827-0.003-1.239c-0.002-0.204,0.01-0.436-0.286-0.437c-0.285-0.001-0.301,0.212-0.297,0.427
		c0,0.01,0,0.019,0,0.029c0,1.595,0,3.19,0.001,4.786c0,0.086-0.027,0.195,0.015,0.254c0.07,0.099,0.185,0.227,0.281,0.227
		c0.092,0,0.206-0.134,0.267-0.236c0.044-0.072,0.018-0.187,0.019-0.283c0.002-0.596-0.012-1.192,0.009-1.787
		c0.025-0.703,0.577-1.205,1.262-1.185c0.652,0.019,1.144,0.544,1.149,1.233c0.004,0.625,0.003,1.249,0,1.874
		c-0.001,0.207,0.066,0.381,0.287,0.392c0.243,0.012,0.325-0.169,0.326-0.385c0.002-0.653,0.024-1.308-0.006-1.96
		C62.125,21.036,60.661,20.254,59.427,20.966z"/>
	<path d="M53.961,22.474c-0.384-0.003-0.769,0.005-1.153-0.002c-0.346-0.007-0.611-0.257-0.614-0.564
		c-0.003-0.31,0.255-0.554,0.608-0.56c0.374-0.007,0.75-0.022,1.123,0.006c0.208,0.015,0.409,0.125,0.618,0.159
		c0.133,0.022,0.319,0.032,0.405-0.041c0.139-0.118,0.117-0.326-0.045-0.42c-0.226-0.13-0.474-0.245-0.727-0.3
		c-0.229-0.05-0.478-0.011-0.718-0.011c0-0.001,0-0.001,0-0.002c-0.231,0-0.462-0.014-0.691,0.004
		c-0.169,0.014-0.346,0.044-0.5,0.113c-0.472,0.21-0.73,0.716-0.652,1.232c0.076,0.499,0.463,0.909,0.974,0.956
		c0.457,0.042,0.92,0.022,1.381,0.031c0.375,0.007,0.632,0.237,0.634,0.563c0.001,0.334-0.247,0.561-0.626,0.564
		c-0.384,0.004-0.769,0.017-1.152-0.007c-0.181-0.012-0.366-0.08-0.533-0.159c-0.166-0.078-0.315-0.117-0.44,0.037
		c-0.138,0.169-0.082,0.359,0.081,0.447c0.237,0.129,0.5,0.253,0.764,0.283c0.417,0.046,0.844,0.015,1.267,0.012
		c0.71-0.004,1.239-0.496,1.253-1.16C55.233,22.991,54.693,22.481,53.961,22.474z"/>
	<path d="M67.294,20.689c-1.153,0.001-2.085,0.935-2.087,2.092c-0.002,1.131,0.948,2.084,2.072,2.08
		c1.169-0.004,2.111-0.949,2.106-2.11C69.381,21.626,68.43,20.688,67.294,20.689z M67.293,24.258
		c-0.822-0.002-1.477-0.664-1.475-1.491c0.002-0.827,0.655-1.469,1.492-1.466c0.811,0.003,1.465,0.658,1.465,1.467
		C68.776,23.588,68.107,24.26,67.293,24.258z"/>
	<path d="M34.57,20.688c-1.141,0.004-2.072,0.936-2.072,2.074c0,1.175,0.934,2.108,2.105,2.102c1.131-0.006,2.055-0.946,2.056-2.093
		C36.659,21.615,35.725,20.684,34.57,20.688z M34.583,24.259c-0.811,0.002-1.494-0.678-1.491-1.486
		c0.003-0.823,0.663-1.473,1.494-1.472c0.826,0.001,1.472,0.657,1.468,1.491C36.05,23.596,35.388,24.255,34.583,24.259z"/>
	<path d="M41.902,20.749c-0.095-0.002-0.198-0.006-0.285,0.025c-0.364,0.129-0.723,0.272-1.107,0.419
		c-0.007-0.037,0.002-0.11-0.031-0.146c-0.093-0.1-0.194-0.246-0.309-0.263c-0.168-0.026-0.266,0.111-0.266,0.298
		c0.002,1.143,0.001,2.286,0.003,3.429c0.001,0.193,0.1,0.319,0.3,0.304c0.213-0.017,0.281-0.171,0.281-0.366
		c0-0.528-0.003-1.057,0.002-1.585c0.007-0.643,0.276-1.133,0.881-1.394c0.171-0.074,0.369-0.085,0.556-0.121
		c0.183-0.036,0.3-0.128,0.286-0.33C42.199,20.828,42.076,20.752,41.902,20.749z"/>
</g>
</svg>
